<svg width="61" height="68" viewBox="0 0 61 68" fill="none" xmlns="http://www.w3.org/2000/svg">
<path d="M32.3953 37.011C32.0102 36.3571 31.6367 35.779 31.3176 35.1704C30.1018 32.8535 28.8958 30.5364 28.7642 27.8634C28.6721 25.9957 29.0307 24.2847 29.6362 22.6441C30.2328 21.029 31.0607 19.5677 31.8279 18.0661C32.0675 17.5973 32.3757 17.209 32.8076 16.9429C33.2982 16.6407 33.5409 16.7615 33.6416 17.4022C33.9592 19.4317 34.2684 21.462 34.5806 23.4921C34.9611 25.9658 35.434 28.433 35.7015 30.9146C35.8325 32.1293 35.8874 33.3344 35.6303 34.4899C35.3416 35.7888 34.8073 36.8885 33.6587 37.4526C33.3153 37.6211 33.5676 37.8471 33.6877 38.0176C34.4589 39.1111 35.2321 40.2031 36.0236 41.2793C36.9475 42.5361 37.8199 43.8431 38.9475 44.9073C39.5647 45.4896 40.2648 45.8234 41.0214 46.0246C41.3459 46.1111 41.373 45.895 41.4122 45.6532C41.595 44.5291 41.9103 43.4707 42.4571 42.5313C43.7532 40.3048 45.6211 38.8931 47.939 38.112C50.6525 37.1976 53.496 37.3331 56.3828 37.8094C57.664 38.021 58.9445 38.2521 60.2135 38.6254C60.3759 38.6731 60.6027 38.6613 60.662 38.8879C60.7343 39.1627 60.4808 39.2047 60.3393 39.2844C59.7891 39.5936 59.2347 39.8992 58.6611 40.1611C56.1853 41.2919 53.7232 42.4562 51.2151 43.5125C48.7617 44.546 46.3108 45.5969 43.7332 46.3174C43.2456 46.4535 42.7575 46.606 42.2338 46.5706C41.8318 46.5433 41.7438 46.7611 41.7321 47.1536C41.6785 48.9609 42.0522 50.7365 42.5318 52.5068C42.8087 53.5291 43.2842 54.4743 43.7171 55.4358C43.7703 55.5544 43.8298 55.6707 43.8771 55.7912C43.9291 55.9246 44.0143 56.09 43.8721 56.173C43.7208 56.2611 43.5792 56.124 43.5057 55.9828C43.2742 55.538 43.0583 55.0839 42.8472 54.6289C42.658 54.2212 42.4833 53.8065 42.2846 53.355C42.2526 53.6307 42.3846 53.8529 42.4587 54.0849C42.5293 54.3066 42.7304 54.5881 42.5329 54.7432C42.342 54.8931 42.1306 54.6281 41.9556 54.4859C41.4323 54.0606 40.928 53.6041 40.3991 53.1884C37.7996 51.1462 34.9721 49.8678 31.9422 49.2803C31.8012 49.2531 31.6147 49.18 31.5421 49.321C31.4579 49.4838 31.6451 49.6044 31.7374 49.7236C33.3299 51.7772 35.3549 52.9069 37.6096 53.5416C38.5921 53.8182 39.5896 53.9535 40.5648 54.3172C42.0163 54.858 43.2031 55.886 44.3114 57.0347C46.0544 58.8406 47.5199 60.9046 48.9027 63.0384C49.6495 64.1905 50.3683 65.3616 51.0443 66.561C51.0993 66.659 51.1571 66.7598 51.1902 66.8656C51.2244 66.9751 51.2267 67.0897 51.1183 67.1506C51.019 67.2062 50.9166 67.1842 50.8381 67.0942C50.745 66.9873 50.662 66.8658 50.5905 66.7409C48.9323 63.8577 47.1409 61.0743 45.022 58.5495C43.8014 57.0951 42.4982 55.7447 40.8235 54.9662C40.1008 54.6303 39.3565 54.4608 38.6079 54.3238C36.6417 53.9645 34.8148 53.1332 33.1227 51.8289C32.2434 51.1512 31.5172 50.3049 30.8948 49.3483C30.7736 49.1622 30.62 48.9334 30.7173 48.7247C30.825 48.4941 31.0786 48.6172 31.2674 48.6485C34.9347 49.2484 38.3316 50.7498 41.3829 53.3949C41.466 53.4673 41.5504 53.538 41.6366 53.6054C41.6589 53.6232 41.6906 53.6248 41.7236 53.636C41.8478 53.5406 41.76 53.4104 41.7264 53.2977C41.2989 51.8518 40.9512 50.3977 40.8082 48.9086C40.7276 48.0699 40.4574 47.2427 39.704 46.8114C38.3498 46.0361 37.3677 44.8283 36.4168 43.563C35.7985 42.7405 35.1783 41.9195 34.5514 41.1044C33.9268 40.2925 33.2782 40.1462 32.5247 40.6359C32.1581 40.8738 31.7994 41.1298 31.5078 41.4677C30.2928 42.8766 28.7073 43.6473 27.0467 44.278C25.3549 44.9201 23.6047 45.3986 21.8448 45.8377C17.144 47.0099 12.3448 47.7853 7.53035 48.4979C7.34995 48.5246 7.1347 48.5804 7.01426 48.3537C6.89404 48.1276 7.05163 47.9679 7.17673 47.832C9.65744 45.1327 11.9955 42.2765 14.5459 39.6543C16.5475 37.5964 18.9861 36.4622 21.8009 36.09C24.1925 35.7741 26.61 35.8714 29.0542 36.2448C29.2985 36.2822 29.6518 36.4824 29.7671 36.2077C29.8893 35.9169 29.5232 35.7217 29.3515 35.514C27.6126 33.4159 26.1736 31.1062 24.8926 28.6695C24.2523 27.452 23.3238 26.5085 22.1643 25.8954C21.3828 25.4825 20.8865 25.7152 20.7547 26.6151C20.5011 28.3458 19.9205 29.8616 18.8404 31.083C17.602 32.4835 16.0735 33.3591 14.2971 33.7863C10.7217 34.6465 7.05281 34.3066 3.3508 33.5124C2.60508 33.3525 1.86317 33.1413 1.11987 32.9493C0.992383 32.9161 0.863312 32.8723 0.741753 32.8127C0.633287 32.7592 0.517691 32.6789 0.504817 32.5355C0.487971 32.3489 0.637265 32.3222 0.753643 32.2853C1.66295 31.9966 2.57249 31.7095 3.48445 31.428C5.85535 30.6966 8.04091 29.6253 9.8514 27.8335C11.3121 26.3884 13.1138 25.6429 15.1124 25.3616C17.032 25.0912 18.9623 24.8711 20.8879 24.6309C21.0014 24.6169 21.1313 24.6238 21.1668 24.483C21.2124 24.3019 21.0804 24.1821 20.9692 24.073C20.3738 23.4871 19.6698 23.1125 18.9954 22.6758C16.9954 21.3805 14.8379 20.8312 12.6731 20.2983C12.2013 20.1819 11.7301 20.048 11.2644 19.8913C10.4102 19.6037 9.77241 18.9994 9.32807 18.1273C9.20294 17.8818 9.05787 17.6475 8.9284 17.4039C8.61664 16.8189 8.15713 16.5056 7.58171 16.475C5.98559 16.3906 4.39068 16.323 2.79577 16.2578C2.48676 16.2452 2.30852 16.1333 2.49138 15.8073C3.32652 14.3177 4.40263 13.1251 6.05331 12.7568C7.18193 12.5051 8.26865 12.8502 9.2032 13.764C10.6432 15.1721 12.0541 16.6176 13.4736 18.0521C14.4333 19.022 15.507 19.7847 16.6468 20.4316C16.7531 20.492 16.8816 20.5768 16.9686 20.4733C17.0679 20.3553 16.9223 20.2787 16.8553 20.2076C15.4493 18.7096 14.2805 17.0091 13.2372 15.2126C11.6051 12.4017 10.3882 9.42546 9.7054 6.25069C9.42878 4.96412 9.38105 3.71275 9.78928 2.5242C10.0877 1.65461 10.598 0.985186 11.2974 0.499584C11.6784 0.235524 11.8103 0.281064 11.9518 0.776844C12.6614 3.25906 13.9342 5.45026 15.2753 7.61627C16.2288 9.15584 17.1156 10.7403 17.8662 12.3991C18.9384 14.7697 19.6065 17.2108 19.5977 19.7696C19.595 20.5791 19.8344 21.3468 20.3524 21.9709C21.351 23.1739 22.395 24.3317 23.4741 25.5694C23.6588 24.7049 23.6748 23.9374 23.3877 23.1189C22.9038 21.7404 22.5268 20.3315 22.3275 18.8995C22.0137 16.6456 22.9461 15.3311 24.9523 15.1471C25.6786 15.0802 26.4145 15.1695 27.1483 15.3448C27.3128 15.3843 27.5318 15.4299 27.5186 15.6896C27.5068 15.9241 27.2997 15.8793 27.1495 15.8783C25.8589 15.8655 25.1652 16.6725 24.7699 17.8811C24.5757 18.4743 24.5032 19.1098 24.4487 19.7499C24.3486 20.9184 24.2503 22.0873 24.1382 23.2533C24.1013 23.639 24.1391 24.0181 24.2885 24.3823C25.1574 26.498 26.0054 28.6241 27.1718 30.5993C28.3851 32.6539 29.7202 34.6087 31.3077 36.3531C31.5884 36.6613 31.8781 36.9949 32.3945 37.0114L32.3953 37.011ZM7.97959 47.8769C8.71877 47.7594 9.4103 47.6419 10.1058 47.5406C13.549 47.0392 16.9518 46.3789 20.3289 45.6108C22.4579 45.1266 24.5592 44.5571 26.5902 43.7807C27.7947 43.3201 28.9789 42.8051 30.0476 42.0582C30.7321 41.5797 31.2169 40.8395 31.9053 40.3701C32.555 39.9268 33.2333 39.545 34.0968 40.0327C34.1914 40.0863 34.301 40.1189 34.3693 40.0104C34.452 39.8782 34.3506 39.7725 34.2764 39.6698C33.8539 39.0816 33.4301 38.4939 33.0067 37.906C32.9191 37.7846 32.8102 37.696 32.6783 37.6541C31.7619 37.3652 30.8926 36.9316 29.9149 36.839C28.1303 36.6699 26.3455 36.4074 24.5682 36.4327C22.5693 36.4614 20.6408 36.7598 18.8054 37.4806C16.9276 38.2177 15.3853 39.4645 14.0135 40.9621C12.0707 43.084 10.1649 45.2477 8.24589 47.3957C8.14305 47.5104 8.02364 47.618 7.98025 47.8772L7.97959 47.8769ZM1.95876 32.5699C2.16643 32.7935 2.33428 32.7771 2.48594 32.8158C4.56525 33.3462 6.65357 33.6853 8.74033 33.743C11.2634 33.813 13.7298 33.6342 15.9951 32.5194C18.2282 31.4206 19.7152 29.6718 20.1886 26.9271C20.2669 26.4729 20.3791 26.0217 20.6407 25.6581C20.9826 25.1838 21.2766 25.0987 21.8341 25.3276C22.263 25.5041 22.6886 25.6935 23.1182 25.8787C22.7926 25.4483 22.4308 25.0309 22.0326 24.6511C21.8746 24.5003 21.7518 24.4837 21.6681 24.7091C21.5704 24.973 21.3621 25.0647 21.1082 25.1045C19.6138 25.3382 18.1263 25.6113 16.6098 25.7326C14.0685 25.9353 11.7834 26.7522 9.92059 28.5204C8.72878 29.6514 7.3903 30.502 5.91452 31.143C4.98744 31.5456 4.04043 31.8922 3.07065 32.1825C2.71366 32.2893 2.36643 32.4265 1.95854 32.5694L1.95876 32.5699ZM30.3922 32.2257C31.1493 33.7427 31.9026 35.2698 32.7873 36.7235C32.9948 37.0645 33.1831 37.1074 33.4726 36.9591C34.4467 36.4586 34.9238 35.5278 35.1582 34.4115C35.4245 33.1453 35.3667 31.8205 35.1671 30.4982C34.5494 26.405 33.9031 22.3137 33.2606 18.2219C33.2202 17.9642 33.2475 17.56 33.0139 17.4964C32.7774 17.4322 32.6347 17.7859 32.5026 18.0081C31.5319 19.6346 30.6458 21.3143 29.9838 23.1539C28.9204 26.1079 28.9238 29.1123 30.392 32.2252L30.3922 32.2257ZM20.3665 22.9916C20.4023 22.8129 20.3454 22.7506 20.2947 22.6908C19.3679 21.5922 18.9989 20.3451 19.0586 18.9423C19.0966 18.0447 18.9333 17.1358 18.6999 16.2392C17.96 13.4009 16.6086 10.8299 15.1458 8.3283C13.8633 6.13533 12.4586 4.02128 11.6827 1.55872C11.5319 1.08078 11.3818 1.04445 11.0732 1.37066C10.1958 2.29922 9.85722 3.49663 9.96902 4.90183C10.1071 6.64454 10.7022 8.30531 11.3089 9.93942C12.8615 14.1223 15.1051 17.851 18.1958 20.9811C18.4255 21.2135 18.6699 21.4323 18.2257 21.714C19.0282 22.0464 19.669 22.5447 20.3669 22.9914L20.3665 22.9916ZM59.5269 39.0377C59.429 38.9778 59.3822 38.9325 59.3319 38.9206C56.7776 38.3123 54.2209 37.8518 51.6689 38.0078C48.788 38.1839 46.1986 39.079 44.1173 41.1475C42.9539 42.3031 42.2447 43.7894 41.9196 45.5281C41.8188 46.0689 41.8501 46.0976 42.3617 46.0126C42.7931 45.9407 43.2375 45.9008 43.6465 45.764C46.3879 44.8481 49.0529 43.7388 51.7206 42.638C54.0665 41.6698 56.3266 40.5112 58.6394 39.469C58.9242 39.3406 59.2491 39.2869 59.5267 39.0372L59.5269 39.0377ZM15.8683 20.6305C15.0354 20.0312 14.2206 19.4401 13.4677 18.7367C11.9185 17.2898 10.4754 15.7124 8.97042 14.2119C8.32235 13.5654 7.60175 13.1814 6.76185 13.2653C5.28034 13.4131 4.2155 14.2888 3.30199 15.4261C3.24846 15.4927 3.18498 15.5698 3.22675 15.6729C3.28355 15.8126 3.40232 15.7753 3.49654 15.7788C4.65924 15.8222 5.82452 15.8962 6.98256 15.8926C8.23655 15.8893 9.14371 16.4643 9.68607 17.8015C10.0012 18.579 10.5654 19.0594 11.2629 19.3476C12.7685 19.9701 14.3506 20.0392 15.8683 20.6305ZM25.5178 15.6305C24.9084 15.6275 24.3932 15.8374 23.8804 16.0619C23.0175 16.4398 22.705 17.2102 22.7231 18.2225C22.7335 18.7969 22.8637 19.3647 23.0006 19.9266C23.1997 20.7449 23.4296 21.5581 23.6665 22.4496C23.8079 22.2071 23.7882 22.014 23.7975 21.8327C23.848 20.8776 23.9 19.9236 24.0425 18.9891C24.2242 17.7943 24.5086 16.6644 25.3997 15.9106C25.4596 15.8597 25.5339 15.8025 25.518 15.6299L25.5178 15.6305ZM26.3735 30.247C25.6038 28.5565 24.7321 26.9241 24.0502 25.1931C23.9283 25.5917 23.9879 26.0001 23.852 26.3587C23.7929 26.514 23.9122 26.6262 24.0229 26.7212C24.6586 27.269 25.0663 27.9931 25.4668 28.7419C25.742 29.2567 25.9559 29.8194 26.3735 30.247ZM41.265 48.1813C41.2819 47.7631 41.2857 47.3902 41.3256 47.0242C41.3599 46.7079 41.2373 46.5565 40.9493 46.4856C40.4784 46.3701 40.0055 46.2512 39.5675 45.9715C39.3685 45.8441 39.1642 45.7293 38.962 45.6087C38.9361 45.6488 38.9096 45.6886 38.8837 45.7288C39.8946 46.2851 40.8438 46.9134 41.265 48.1813Z" fill="#3C5220"/>
</svg>
