<svg width="122" height="180" viewBox="0 0 122 180" fill="none" xmlns="http://www.w3.org/2000/svg">
<mask id="path-1-outside-1_284_2723" maskUnits="userSpaceOnUse" x="-134.841" y="-69.5805" width="301.786" height="312.196" fill="black">
<rect fill="white" x="-134.841" y="-69.5805" width="301.786" height="312.196"/>
<path d="M5.6199 80.6253C7.44548 82.3598 9.16499 83.8632 10.7388 85.5137C16.7332 91.7957 22.6965 98.0869 25.5568 106.495C27.556 112.37 27.9741 118.156 27.5402 123.943C27.1115 129.641 25.8043 135.059 24.7276 140.55C24.3912 142.265 23.7624 143.785 22.6274 145.028C21.3378 146.44 20.4533 146.277 19.5472 144.324C16.6807 138.139 13.8406 131.944 10.9909 125.752C7.51836 118.207 3.7569 110.768 0.63794 103.094C-0.889226 99.3386 -2.16451 95.5437 -2.39954 91.6223C-2.66419 87.2148 -1.96355 83.2183 1.18605 80.3698C2.12764 79.5189 1.11633 79.0279 0.577535 78.5936C-2.88136 75.809 -6.34515 73.0308 -9.85312 70.3201C-13.9483 67.1538 -17.925 63.7803 -22.4942 61.4146C-24.995 60.1205 -27.5333 59.6946 -30.131 59.7436C-31.2453 59.7638 -31.1345 60.4781 -31.0387 61.2852C-30.5956 65.0385 -30.6351 68.7032 -31.5222 72.1997C-33.6244 80.4865 -38.295 86.6961 -44.9772 91.3044C-52.7996 96.6993 -61.9953 98.8631 -71.6403 99.9791C-75.9213 100.474 -80.2177 100.906 -84.6072 100.873C-85.1688 100.869 -85.8817 101.114 -86.2778 100.445C-86.7592 99.6347 -85.9891 99.2691 -85.6101 98.8857C-84.137 97.397 -82.6474 95.9158 -81.0566 94.5563C-74.1899 88.6881 -67.3975 82.7256 -60.3601 77.0654C-53.4762 71.5281 -46.6162 65.9374 -39.0502 61.2852C-37.6189 60.4058 -36.2009 59.4736 -34.4978 59.1084C-33.1903 58.8284 -33.1082 58.0533 -33.4294 56.7903C-34.9085 50.9752 -37.7219 45.6515 -40.8684 40.4415C-42.6853 37.4324 -45.0653 34.8509 -47.3245 32.1785C-47.6023 31.849 -47.8983 31.5321 -48.1593 31.1909C-48.4469 30.8127 -48.87 30.3626 -48.492 29.9683C-48.0898 29.5489 -47.5128 29.8569 -47.1491 30.2405C-46.0044 31.4483 -44.9012 32.6999 -43.8123 33.9588C-42.8362 35.0868 -41.9002 36.2504 -40.8542 37.5094C-41.0039 36.6005 -41.6277 36.0122 -42.0761 35.3396C-42.5036 34.697 -43.4022 33.9822 -42.9139 33.307C-42.4416 32.6545 -41.5251 33.3071 -40.8372 33.6009C-38.7792 34.4802 -36.7533 35.4761 -34.6862 36.3195C-24.5281 40.4615 -14.34 41.9587 -4.13651 41.0668C-3.66204 41.0249 -3.00042 41.0877 -2.89734 40.5717C-2.77719 39.9753 -3.4846 39.7614 -3.8881 39.4654C-10.8438 34.3675 -18.3361 32.612 -26.109 32.6455C-29.4962 32.6601 -32.8022 33.1392 -36.2456 32.8695C-41.3704 32.4692 -46.0953 30.273 -50.6803 27.62C-57.8901 23.4497 -64.4501 18.2028 -70.8102 12.6574C-74.2447 9.66338 -77.6073 6.58359 -80.859 3.37386C-81.124 3.11161 -81.4006 2.84259 -81.6028 2.53528C-81.8119 2.21716 -81.9237 1.85367 -81.6334 1.5605C-81.3674 1.29225 -81.0207 1.26896 -80.6882 1.48453C-80.2934 1.74059 -79.9176 2.0526 -79.5755 2.38554C-71.6525 10.0705 -63.3959 17.3151 -54.3303 23.436C-49.1082 26.9618 -43.7173 30.0801 -37.6634 31.035C-35.0511 31.4467 -32.5218 31.3079 -30.0083 31.0615C-23.4072 30.4126 -16.8196 31.397 -10.2298 34.0135C-6.8057 35.3727 -3.71632 37.4097 -0.857184 39.8934C-0.300328 40.3766 0.398424 40.9665 0.278696 41.7209C0.145491 42.5551 -0.775984 42.3938 -1.40696 42.4664C-13.655 43.9008 -25.8636 42.2119 -38.0136 36.5587C-38.345 36.4036 -38.6788 36.2554 -39.0152 36.1187C-39.1026 36.0825 -39.2054 36.1065 -39.3207 36.1006C-39.6301 36.5185 -39.231 36.8536 -39.0209 37.1828C-36.3368 41.4055 -33.8998 45.7272 -32.0839 50.3474C-31.061 52.9498 -29.4437 55.3421 -26.6464 56.0305C-21.618 57.2675 -17.3819 60.2244 -13.1928 63.3931C-10.4692 65.4526 -7.74075 67.5058 -4.99632 69.5338C-2.26246 71.5541 -0.0595293 71.4286 1.89763 69.1783C2.85 68.0844 3.76053 66.9401 4.38227 65.596C6.97257 59.9916 11.3273 56.0851 16.0494 52.5567C20.8608 48.9636 26.0081 45.8386 31.222 42.8309C45.1495 34.7992 59.7533 27.9435 74.4629 21.2743C75.0141 21.0244 75.6499 20.6498 76.2411 21.2629C76.8311 21.8746 76.4742 22.5282 76.1991 23.0759C70.749 33.9528 65.8973 45.2004 60.1545 55.8948C55.6475 64.2881 48.9027 70.1331 40.262 73.8906C32.9201 77.082 25.1184 78.9791 16.9792 80.0192C16.1655 80.1231 14.8556 79.8068 14.7385 80.7885C14.6143 81.828 15.9604 82.1165 16.6977 82.6223C24.1615 87.7285 30.8613 93.7837 37.173 100.388C40.3277 103.688 44.1513 105.851 48.4105 106.748C51.2808 107.352 52.6517 106.156 52.2507 103.165C51.4796 97.4117 51.9481 92.0451 54.2789 87.1624C56.9512 81.5633 61.0283 77.3743 66.306 74.3892C76.9278 68.3805 88.9436 66.1152 101.48 65.269C104.005 65.0981 106.565 65.0946 109.112 65.0287C109.549 65.0179 110 65.0398 110.443 65.1192C110.838 65.1908 111.28 65.3413 111.452 65.7872C111.676 66.3671 111.224 66.5888 110.886 66.8126C108.249 68.5641 105.609 70.3104 102.957 72.0413C96.06 76.5393 90.0652 81.9527 85.9249 89.3224C82.584 95.2666 77.5165 99.2901 71.3966 102.012C65.5193 104.628 59.5617 107.093 53.6373 109.617C53.2881 109.765 52.8673 109.862 52.8827 110.343C52.9025 110.963 53.4328 111.225 53.8873 111.471C56.322 112.797 58.9101 113.349 61.4604 114.127C69.0238 116.433 76.4089 116.216 83.8023 115.94C85.4136 115.88 87.0393 115.877 88.6682 115.952C91.6561 116.09 94.2427 117.435 96.4566 119.812C97.08 120.481 97.7568 121.096 98.3923 121.755C99.921 123.337 101.673 123.917 103.537 123.489C108.706 122.301 113.857 121.061 119.005 119.813C120.002 119.57 120.673 119.765 120.387 120.972C119.083 126.487 116.738 131.274 111.808 133.956C108.437 135.79 104.655 135.681 100.839 133.619C94.9588 130.441 89.1377 127.118 83.299 123.837C79.3516 121.619 75.2296 120.166 71.0026 119.142C70.6082 119.047 70.1209 118.893 69.9379 119.303C69.7286 119.77 70.2631 119.882 70.5419 120.048C76.3953 123.543 81.6771 127.901 86.6458 132.68C94.4194 140.158 101.019 148.543 106.096 158.048C108.154 161.901 109.448 165.85 109.231 170.014C109.073 173.061 108.056 175.663 106.268 177.851C105.294 179.041 104.831 179.016 103.927 177.564C99.397 170.292 93.3353 164.463 87.0791 158.777C82.6312 154.736 78.3553 150.49 74.4458 145.883C68.8609 139.299 64.5004 132.121 62.1922 123.949C61.4618 121.363 59.9971 119.133 57.7745 117.615C53.4901 114.688 49.1021 111.947 44.5293 108.984C44.7294 111.911 45.379 114.374 47.0424 116.723C49.8449 120.68 52.3341 124.83 54.2771 129.217C57.3364 136.122 55.5617 141.167 49.3289 143.586C47.0729 144.462 44.6435 144.849 42.1422 144.96C41.5812 144.984 40.8411 145.038 40.6459 144.198C40.4694 143.439 41.1713 143.393 41.6511 143.259C45.7807 142.121 47.257 138.913 47.4146 134.697C47.4927 132.627 47.1439 130.533 46.7333 128.441C45.9857 124.621 45.2322 120.802 44.5251 116.98C44.2908 115.715 43.8238 114.54 43.0147 113.515C38.311 107.558 33.6643 101.549 28.1394 96.3124C22.3926 90.8651 16.348 85.8473 9.69052 81.7312C8.51373 81.0041 7.28482 80.2044 5.62231 80.6233L5.6199 80.6253ZM73.5966 23.6657C71.3456 24.7155 69.2465 25.7217 67.1199 26.6799C56.5924 31.4234 46.3387 36.6368 36.2655 42.1708C29.915 45.6594 23.731 49.3951 17.96 53.7264C14.5375 56.2957 11.2297 59.0202 8.50195 62.3789C6.75502 64.5302 5.88408 67.3346 4.11624 69.4608C2.44832 71.4684 0.632669 73.3056 -2.56763 72.5382C-2.9182 72.4536 -3.29776 72.4497 -3.41655 72.8581C-3.55972 73.3554 -3.13974 73.6 -2.80931 73.8598C-0.924132 75.3509 0.964668 76.839 2.85226 78.3281C3.24244 78.6352 3.67079 78.8185 4.12989 78.8319C7.31756 78.9169 10.4869 79.5066 13.6905 78.9092C19.5387 77.8194 25.4726 77.0273 31.12 75.324C37.4714 73.4071 43.3518 70.6945 48.5493 66.7191C53.8676 62.6528 57.6495 57.2667 60.6589 51.2362C64.9201 42.6924 69.0251 34.0492 73.1864 25.4442C73.4098 24.9843 73.6925 24.5319 73.5943 23.6653L73.5966 23.6657ZM106.782 67.0048C105.915 66.4811 105.394 66.6867 104.875 66.7018C97.7569 66.9079 90.7846 67.7328 84.0742 69.4539C75.9606 71.5344 68.2548 74.3567 62.0451 79.9817C55.9239 85.5261 52.7764 92.4636 53.7719 101.653C53.9368 103.173 53.9907 104.715 53.488 106.114C52.8305 107.939 51.9701 108.479 49.9823 108.258C48.4529 108.086 46.922 107.871 45.3825 107.672C46.8142 108.748 48.3497 109.749 49.9668 110.598C50.6086 110.935 51.0156 110.875 51.0767 110.08C51.1475 109.149 51.7284 108.666 52.5019 108.307C57.0565 106.197 61.5529 103.967 66.2805 102.196C74.2034 99.2289 80.748 94.5363 85.077 87.1942C87.8468 82.4976 91.3405 78.5616 95.4637 75.1691C98.0539 73.0383 100.759 71.0676 103.588 69.2563C104.629 68.5896 105.612 67.8348 106.783 67.0062L106.782 67.0048ZM16.3799 94.0636C12.5792 89.9149 8.78156 85.7306 4.6318 81.9003C3.65833 81.0018 3.01858 81.0368 2.23038 81.7744C-0.420513 84.2606 -1.09276 87.6661 -0.821493 91.4415C-0.515107 95.7245 0.878782 99.8984 2.72288 103.935C8.43075 116.43 14.2285 128.893 20.0143 141.361C20.3783 142.147 20.6604 143.461 21.4639 143.451C22.2769 143.44 22.4091 142.181 22.6279 141.351C24.2398 135.276 25.5334 129.108 25.9656 122.634C26.6613 112.238 23.9076 102.656 16.381 94.065L16.3799 94.0636ZM56.7977 114.371C56.8464 114.974 57.085 115.121 57.3011 115.265C61.2612 117.924 63.5772 121.566 64.6677 126.096C65.3658 128.994 66.7166 131.745 68.2801 134.393C73.2319 142.773 79.891 149.741 86.8422 156.387C92.9361 162.213 99.3479 167.675 104.072 174.823C104.989 176.211 105.501 176.189 106.188 174.867C108.14 171.103 108.127 166.974 106.487 162.593C104.455 157.159 101.04 152.403 97.6127 147.744C88.8398 135.816 78.2774 125.968 65.5588 118.804C64.6138 118.272 63.6343 117.797 64.7944 116.493C61.9304 116.165 59.4311 115.16 56.7965 114.372L56.7977 114.371ZM-82.793 98.931C-82.4261 99.0328 -82.2353 99.1345 -82.0638 99.1267C-73.359 98.7352 -64.7817 97.8702 -56.7819 95.0424C-47.7513 91.8501 -40.3073 86.63 -35.5554 78.1303C-32.8988 73.3812 -31.9931 67.9919 -32.5434 62.1476C-32.7155 60.3304 -32.8416 60.2673 -34.3962 61.0056C-35.707 61.6288 -37.0885 62.1618 -38.2685 62.9719C-46.1784 68.3969 -53.6683 74.3691 -61.1744 80.317C-67.775 85.5479 -73.9278 91.3078 -80.3551 96.7447C-81.1467 97.4142 -82.1343 97.8824 -82.7918 98.9324L-82.793 98.931ZM73.3047 117.797C76.5093 118.949 79.6486 120.091 82.6927 121.647C88.9567 124.849 95.0009 128.564 101.173 131.977C103.83 133.448 106.48 134.016 109.083 132.981C113.675 131.157 116.273 127.391 118.149 122.928C118.259 122.667 118.391 122.363 118.164 122.072C117.855 121.678 117.51 121.906 117.206 121.981C113.457 122.904 109.672 123.731 105.98 124.8C101.982 125.956 98.5632 124.95 95.6118 121.178C93.8965 118.986 91.658 117.968 89.1693 117.685C83.7976 117.074 78.6869 118.298 73.3047 117.797ZM47.0834 142.56C49.0305 142.013 50.4824 140.873 51.9138 139.688C54.3216 137.695 54.6154 134.952 53.6332 131.738C53.0756 129.915 52.1417 128.223 51.1919 126.555C49.8097 124.126 48.3338 121.741 46.764 119.113C46.5342 120.016 46.7735 120.614 46.9094 121.201C47.6202 124.294 48.3252 127.386 48.7239 130.497C49.2351 134.475 49.3594 138.34 47.2045 141.558C47.0597 141.775 46.875 142.026 47.0833 142.562L47.0834 142.56ZM31.0079 96.7075C35.0073 101.398 39.2788 105.811 43.0348 110.711C43.0599 109.328 42.4968 108.079 42.603 106.811C42.6496 106.261 42.1666 106.012 41.7267 105.81C39.1984 104.643 37.2365 102.705 35.275 100.681C33.9269 99.2903 32.7306 97.6904 31.0079 96.7075ZM-32.8774 53.0851C-32.5496 54.4348 -32.221 55.6279 -32.0141 56.8321C-31.8348 57.8726 -31.3055 58.2438 -30.3218 58.2068C-28.714 58.1455 -27.0968 58.0929 -25.4441 58.5854C-24.6929 58.8101 -23.936 58.99 -23.1807 59.19C-23.1349 59.0385 -23.0866 58.8873 -23.0408 58.7357C-26.7737 57.8836 -30.376 56.7457 -32.8774 53.0851Z"/>
</mask>
<path d="M5.6199 80.6253C7.44548 82.3598 9.16499 83.8632 10.7388 85.5137C16.7332 91.7957 22.6965 98.0869 25.5568 106.495C27.556 112.37 27.9741 118.156 27.5402 123.943C27.1115 129.641 25.8043 135.059 24.7276 140.55C24.3912 142.265 23.7624 143.785 22.6274 145.028C21.3378 146.44 20.4533 146.277 19.5472 144.324C16.6807 138.139 13.8406 131.944 10.9909 125.752C7.51836 118.207 3.7569 110.768 0.63794 103.094C-0.889226 99.3386 -2.16451 95.5437 -2.39954 91.6223C-2.66419 87.2148 -1.96355 83.2183 1.18605 80.3698C2.12764 79.5189 1.11633 79.0279 0.577535 78.5936C-2.88136 75.809 -6.34515 73.0308 -9.85312 70.3201C-13.9483 67.1538 -17.925 63.7803 -22.4942 61.4146C-24.995 60.1205 -27.5333 59.6946 -30.131 59.7436C-31.2453 59.7638 -31.1345 60.4781 -31.0387 61.2852C-30.5956 65.0385 -30.6351 68.7032 -31.5222 72.1997C-33.6244 80.4865 -38.295 86.6961 -44.9772 91.3044C-52.7996 96.6993 -61.9953 98.8631 -71.6403 99.9791C-75.9213 100.474 -80.2177 100.906 -84.6072 100.873C-85.1688 100.869 -85.8817 101.114 -86.2778 100.445C-86.7592 99.6347 -85.9891 99.2691 -85.6101 98.8857C-84.137 97.397 -82.6474 95.9158 -81.0566 94.5563C-74.1899 88.6881 -67.3975 82.7256 -60.3601 77.0654C-53.4762 71.5281 -46.6162 65.9374 -39.0502 61.2852C-37.6189 60.4058 -36.2009 59.4736 -34.4978 59.1084C-33.1903 58.8284 -33.1082 58.0533 -33.4294 56.7903C-34.9085 50.9752 -37.7219 45.6515 -40.8684 40.4415C-42.6853 37.4324 -45.0653 34.8509 -47.3245 32.1785C-47.6023 31.849 -47.8983 31.5321 -48.1593 31.1909C-48.4469 30.8127 -48.87 30.3626 -48.492 29.9683C-48.0898 29.5489 -47.5128 29.8569 -47.1491 30.2405C-46.0044 31.4483 -44.9012 32.6999 -43.8123 33.9588C-42.8362 35.0868 -41.9002 36.2504 -40.8542 37.5094C-41.0039 36.6005 -41.6277 36.0122 -42.0761 35.3396C-42.5036 34.697 -43.4022 33.9822 -42.9139 33.307C-42.4416 32.6545 -41.5251 33.3071 -40.8372 33.6009C-38.7792 34.4802 -36.7533 35.4761 -34.6862 36.3195C-24.5281 40.4615 -14.34 41.9587 -4.13651 41.0668C-3.66204 41.0249 -3.00042 41.0877 -2.89734 40.5717C-2.77719 39.9753 -3.4846 39.7614 -3.8881 39.4654C-10.8438 34.3675 -18.3361 32.612 -26.109 32.6455C-29.4962 32.6601 -32.8022 33.1392 -36.2456 32.8695C-41.3704 32.4692 -46.0953 30.273 -50.6803 27.62C-57.8901 23.4497 -64.4501 18.2028 -70.8102 12.6574C-74.2447 9.66338 -77.6073 6.58359 -80.859 3.37386C-81.124 3.11161 -81.4006 2.84259 -81.6028 2.53528C-81.8119 2.21716 -81.9237 1.85367 -81.6334 1.5605C-81.3674 1.29225 -81.0207 1.26896 -80.6882 1.48453C-80.2934 1.74059 -79.9176 2.0526 -79.5755 2.38554C-71.6525 10.0705 -63.3959 17.3151 -54.3303 23.436C-49.1082 26.9618 -43.7173 30.0801 -37.6634 31.035C-35.0511 31.4467 -32.5218 31.3079 -30.0083 31.0615C-23.4072 30.4126 -16.8196 31.397 -10.2298 34.0135C-6.8057 35.3727 -3.71632 37.4097 -0.857184 39.8934C-0.300328 40.3766 0.398424 40.9665 0.278696 41.7209C0.145491 42.5551 -0.775984 42.3938 -1.40696 42.4664C-13.655 43.9008 -25.8636 42.2119 -38.0136 36.5587C-38.345 36.4036 -38.6788 36.2554 -39.0152 36.1187C-39.1026 36.0825 -39.2054 36.1065 -39.3207 36.1006C-39.6301 36.5185 -39.231 36.8536 -39.0209 37.1828C-36.3368 41.4055 -33.8998 45.7272 -32.0839 50.3474C-31.061 52.9498 -29.4437 55.3421 -26.6464 56.0305C-21.618 57.2675 -17.3819 60.2244 -13.1928 63.3931C-10.4692 65.4526 -7.74075 67.5058 -4.99632 69.5338C-2.26246 71.5541 -0.0595293 71.4286 1.89763 69.1783C2.85 68.0844 3.76053 66.9401 4.38227 65.596C6.97257 59.9916 11.3273 56.0851 16.0494 52.5567C20.8608 48.9636 26.0081 45.8386 31.222 42.8309C45.1495 34.7992 59.7533 27.9435 74.4629 21.2743C75.0141 21.0244 75.6499 20.6498 76.2411 21.2629C76.8311 21.8746 76.4742 22.5282 76.1991 23.0759C70.749 33.9528 65.8973 45.2004 60.1545 55.8948C55.6475 64.2881 48.9027 70.1331 40.262 73.8906C32.9201 77.082 25.1184 78.9791 16.9792 80.0192C16.1655 80.1231 14.8556 79.8068 14.7385 80.7885C14.6143 81.828 15.9604 82.1165 16.6977 82.6223C24.1615 87.7285 30.8613 93.7837 37.173 100.388C40.3277 103.688 44.1513 105.851 48.4105 106.748C51.2808 107.352 52.6517 106.156 52.2507 103.165C51.4796 97.4117 51.9481 92.0451 54.2789 87.1624C56.9512 81.5633 61.0283 77.3743 66.306 74.3892C76.9278 68.3805 88.9436 66.1152 101.48 65.269C104.005 65.0981 106.565 65.0946 109.112 65.0287C109.549 65.0179 110 65.0398 110.443 65.1192C110.838 65.1908 111.28 65.3413 111.452 65.7872C111.676 66.3671 111.224 66.5888 110.886 66.8126C108.249 68.5641 105.609 70.3104 102.957 72.0413C96.06 76.5393 90.0652 81.9527 85.9249 89.3224C82.584 95.2666 77.5165 99.2901 71.3966 102.012C65.5193 104.628 59.5617 107.093 53.6373 109.617C53.2881 109.765 52.8673 109.862 52.8827 110.343C52.9025 110.963 53.4328 111.225 53.8873 111.471C56.322 112.797 58.9101 113.349 61.4604 114.127C69.0238 116.433 76.4089 116.216 83.8023 115.94C85.4136 115.88 87.0393 115.877 88.6682 115.952C91.6561 116.09 94.2427 117.435 96.4566 119.812C97.08 120.481 97.7568 121.096 98.3923 121.755C99.921 123.337 101.673 123.917 103.537 123.489C108.706 122.301 113.857 121.061 119.005 119.813C120.002 119.57 120.673 119.765 120.387 120.972C119.083 126.487 116.738 131.274 111.808 133.956C108.437 135.79 104.655 135.681 100.839 133.619C94.9588 130.441 89.1377 127.118 83.299 123.837C79.3516 121.619 75.2296 120.166 71.0026 119.142C70.6082 119.047 70.1209 118.893 69.9379 119.303C69.7286 119.77 70.2631 119.882 70.5419 120.048C76.3953 123.543 81.6771 127.901 86.6458 132.68C94.4194 140.158 101.019 148.543 106.096 158.048C108.154 161.901 109.448 165.85 109.231 170.014C109.073 173.061 108.056 175.663 106.268 177.851C105.294 179.041 104.831 179.016 103.927 177.564C99.397 170.292 93.3353 164.463 87.0791 158.777C82.6312 154.736 78.3553 150.49 74.4458 145.883C68.8609 139.299 64.5004 132.121 62.1922 123.949C61.4618 121.363 59.9971 119.133 57.7745 117.615C53.4901 114.688 49.1021 111.947 44.5293 108.984C44.7294 111.911 45.379 114.374 47.0424 116.723C49.8449 120.68 52.3341 124.83 54.2771 129.217C57.3364 136.122 55.5617 141.167 49.3289 143.586C47.0729 144.462 44.6435 144.849 42.1422 144.96C41.5812 144.984 40.8411 145.038 40.6459 144.198C40.4694 143.439 41.1713 143.393 41.6511 143.259C45.7807 142.121 47.257 138.913 47.4146 134.697C47.4927 132.627 47.1439 130.533 46.7333 128.441C45.9857 124.621 45.2322 120.802 44.5251 116.98C44.2908 115.715 43.8238 114.54 43.0147 113.515C38.311 107.558 33.6643 101.549 28.1394 96.3124C22.3926 90.8651 16.348 85.8473 9.69052 81.7312C8.51373 81.0041 7.28482 80.2044 5.62231 80.6233L5.6199 80.6253ZM73.5966 23.6657C71.3456 24.7155 69.2465 25.7217 67.1199 26.6799C56.5924 31.4234 46.3387 36.6368 36.2655 42.1708C29.915 45.6594 23.731 49.3951 17.96 53.7264C14.5375 56.2957 11.2297 59.0202 8.50195 62.3789C6.75502 64.5302 5.88408 67.3346 4.11624 69.4608C2.44832 71.4684 0.632669 73.3056 -2.56763 72.5382C-2.9182 72.4536 -3.29776 72.4497 -3.41655 72.8581C-3.55972 73.3554 -3.13974 73.6 -2.80931 73.8598C-0.924132 75.3509 0.964668 76.839 2.85226 78.3281C3.24244 78.6352 3.67079 78.8185 4.12989 78.8319C7.31756 78.9169 10.4869 79.5066 13.6905 78.9092C19.5387 77.8194 25.4726 77.0273 31.12 75.324C37.4714 73.4071 43.3518 70.6945 48.5493 66.7191C53.8676 62.6528 57.6495 57.2667 60.6589 51.2362C64.9201 42.6924 69.0251 34.0492 73.1864 25.4442C73.4098 24.9843 73.6925 24.5319 73.5943 23.6653L73.5966 23.6657ZM106.782 67.0048C105.915 66.4811 105.394 66.6867 104.875 66.7018C97.7569 66.9079 90.7846 67.7328 84.0742 69.4539C75.9606 71.5344 68.2548 74.3567 62.0451 79.9817C55.9239 85.5261 52.7764 92.4636 53.7719 101.653C53.9368 103.173 53.9907 104.715 53.488 106.114C52.8305 107.939 51.9701 108.479 49.9823 108.258C48.4529 108.086 46.922 107.871 45.3825 107.672C46.8142 108.748 48.3497 109.749 49.9668 110.598C50.6086 110.935 51.0156 110.875 51.0767 110.08C51.1475 109.149 51.7284 108.666 52.5019 108.307C57.0565 106.197 61.5529 103.967 66.2805 102.196C74.2034 99.2289 80.748 94.5363 85.077 87.1942C87.8468 82.4976 91.3405 78.5616 95.4637 75.1691C98.0539 73.0383 100.759 71.0676 103.588 69.2563C104.629 68.5896 105.612 67.8348 106.783 67.0062L106.782 67.0048ZM16.3799 94.0636C12.5792 89.9149 8.78156 85.7306 4.6318 81.9003C3.65833 81.0018 3.01858 81.0368 2.23038 81.7744C-0.420513 84.2606 -1.09276 87.6661 -0.821493 91.4415C-0.515107 95.7245 0.878782 99.8984 2.72288 103.935C8.43075 116.43 14.2285 128.893 20.0143 141.361C20.3783 142.147 20.6604 143.461 21.4639 143.451C22.2769 143.44 22.4091 142.181 22.6279 141.351C24.2398 135.276 25.5334 129.108 25.9656 122.634C26.6613 112.238 23.9076 102.656 16.381 94.065L16.3799 94.0636ZM56.7977 114.371C56.8464 114.974 57.085 115.121 57.3011 115.265C61.2612 117.924 63.5772 121.566 64.6677 126.096C65.3658 128.994 66.7166 131.745 68.2801 134.393C73.2319 142.773 79.891 149.741 86.8422 156.387C92.9361 162.213 99.3479 167.675 104.072 174.823C104.989 176.211 105.501 176.189 106.188 174.867C108.14 171.103 108.127 166.974 106.487 162.593C104.455 157.159 101.04 152.403 97.6127 147.744C88.8398 135.816 78.2774 125.968 65.5588 118.804C64.6138 118.272 63.6343 117.797 64.7944 116.493C61.9304 116.165 59.4311 115.16 56.7965 114.372L56.7977 114.371ZM-82.793 98.931C-82.4261 99.0328 -82.2353 99.1345 -82.0638 99.1267C-73.359 98.7352 -64.7817 97.8702 -56.7819 95.0424C-47.7513 91.8501 -40.3073 86.63 -35.5554 78.1303C-32.8988 73.3812 -31.9931 67.9919 -32.5434 62.1476C-32.7155 60.3304 -32.8416 60.2673 -34.3962 61.0056C-35.707 61.6288 -37.0885 62.1618 -38.2685 62.9719C-46.1784 68.3969 -53.6683 74.3691 -61.1744 80.317C-67.775 85.5479 -73.9278 91.3078 -80.3551 96.7447C-81.1467 97.4142 -82.1343 97.8824 -82.7918 98.9324L-82.793 98.931ZM73.3047 117.797C76.5093 118.949 79.6486 120.091 82.6927 121.647C88.9567 124.849 95.0009 128.564 101.173 131.977C103.83 133.448 106.48 134.016 109.083 132.981C113.675 131.157 116.273 127.391 118.149 122.928C118.259 122.667 118.391 122.363 118.164 122.072C117.855 121.678 117.51 121.906 117.206 121.981C113.457 122.904 109.672 123.731 105.98 124.8C101.982 125.956 98.5632 124.95 95.6118 121.178C93.8965 118.986 91.658 117.968 89.1693 117.685C83.7976 117.074 78.6869 118.298 73.3047 117.797ZM47.0834 142.56C49.0305 142.013 50.4824 140.873 51.9138 139.688C54.3216 137.695 54.6154 134.952 53.6332 131.738C53.0756 129.915 52.1417 128.223 51.1919 126.555C49.8097 124.126 48.3338 121.741 46.764 119.113C46.5342 120.016 46.7735 120.614 46.9094 121.201C47.6202 124.294 48.3252 127.386 48.7239 130.497C49.2351 134.475 49.3594 138.34 47.2045 141.558C47.0597 141.775 46.875 142.026 47.0833 142.562L47.0834 142.56ZM31.0079 96.7075C35.0073 101.398 39.2788 105.811 43.0348 110.711C43.0599 109.328 42.4968 108.079 42.603 106.811C42.6496 106.261 42.1666 106.012 41.7267 105.81C39.1984 104.643 37.2365 102.705 35.275 100.681C33.9269 99.2903 32.7306 97.6904 31.0079 96.7075ZM-32.8774 53.0851C-32.5496 54.4348 -32.221 55.6279 -32.0141 56.8321C-31.8348 57.8726 -31.3055 58.2438 -30.3218 58.2068C-28.714 58.1455 -27.0968 58.0929 -25.4441 58.5854C-24.6929 58.8101 -23.936 58.99 -23.1807 59.19C-23.1349 59.0385 -23.0866 58.8873 -23.0408 58.7357C-26.7737 57.8836 -30.376 56.7457 -32.8774 53.0851Z" fill="#3C5220"/>
<path d="M5.6199 80.6253C7.44548 82.3598 9.16499 83.8632 10.7388 85.5137C16.7332 91.7957 22.6965 98.0869 25.5568 106.495C27.556 112.37 27.9741 118.156 27.5402 123.943C27.1115 129.641 25.8043 135.059 24.7276 140.55C24.3912 142.265 23.7624 143.785 22.6274 145.028C21.3378 146.44 20.4533 146.277 19.5472 144.324C16.6807 138.139 13.8406 131.944 10.9909 125.752C7.51836 118.207 3.7569 110.768 0.63794 103.094C-0.889226 99.3386 -2.16451 95.5437 -2.39954 91.6223C-2.66419 87.2148 -1.96355 83.2183 1.18605 80.3698C2.12764 79.5189 1.11633 79.0279 0.577535 78.5936C-2.88136 75.809 -6.34515 73.0308 -9.85312 70.3201C-13.9483 67.1538 -17.925 63.7803 -22.4942 61.4146C-24.995 60.1205 -27.5333 59.6946 -30.131 59.7436C-31.2453 59.7638 -31.1345 60.4781 -31.0387 61.2852C-30.5956 65.0385 -30.6351 68.7032 -31.5222 72.1997C-33.6244 80.4865 -38.295 86.6961 -44.9772 91.3044C-52.7996 96.6993 -61.9953 98.8631 -71.6403 99.9791C-75.9213 100.474 -80.2177 100.906 -84.6072 100.873C-85.1688 100.869 -85.8817 101.114 -86.2778 100.445C-86.7592 99.6347 -85.9891 99.2691 -85.6101 98.8857C-84.137 97.397 -82.6474 95.9158 -81.0566 94.5563C-74.1899 88.6881 -67.3975 82.7256 -60.3601 77.0654C-53.4762 71.5281 -46.6162 65.9374 -39.0502 61.2852C-37.6189 60.4058 -36.2009 59.4736 -34.4978 59.1084C-33.1903 58.8284 -33.1082 58.0533 -33.4294 56.7903C-34.9085 50.9752 -37.7219 45.6515 -40.8684 40.4415C-42.6853 37.4324 -45.0653 34.8509 -47.3245 32.1785C-47.6023 31.849 -47.8983 31.5321 -48.1593 31.1909C-48.4469 30.8127 -48.87 30.3626 -48.492 29.9683C-48.0898 29.5489 -47.5128 29.8569 -47.1491 30.2405C-46.0044 31.4483 -44.9012 32.6999 -43.8123 33.9588C-42.8362 35.0868 -41.9002 36.2504 -40.8542 37.5094C-41.0039 36.6005 -41.6277 36.0122 -42.0761 35.3396C-42.5036 34.697 -43.4022 33.9822 -42.9139 33.307C-42.4416 32.6545 -41.5251 33.3071 -40.8372 33.6009C-38.7792 34.4802 -36.7533 35.4761 -34.6862 36.3195C-24.5281 40.4615 -14.34 41.9587 -4.13651 41.0668C-3.66204 41.0249 -3.00042 41.0877 -2.89734 40.5717C-2.77719 39.9753 -3.4846 39.7614 -3.8881 39.4654C-10.8438 34.3675 -18.3361 32.612 -26.109 32.6455C-29.4962 32.6601 -32.8022 33.1392 -36.2456 32.8695C-41.3704 32.4692 -46.0953 30.273 -50.6803 27.62C-57.8901 23.4497 -64.4501 18.2028 -70.8102 12.6574C-74.2447 9.66338 -77.6073 6.58359 -80.859 3.37386C-81.124 3.11161 -81.4006 2.84259 -81.6028 2.53528C-81.8119 2.21716 -81.9237 1.85367 -81.6334 1.5605C-81.3674 1.29225 -81.0207 1.26896 -80.6882 1.48453C-80.2934 1.74059 -79.9176 2.0526 -79.5755 2.38554C-71.6525 10.0705 -63.3959 17.3151 -54.3303 23.436C-49.1082 26.9618 -43.7173 30.0801 -37.6634 31.035C-35.0511 31.4467 -32.5218 31.3079 -30.0083 31.0615C-23.4072 30.4126 -16.8196 31.397 -10.2298 34.0135C-6.8057 35.3727 -3.71632 37.4097 -0.857184 39.8934C-0.300328 40.3766 0.398424 40.9665 0.278696 41.7209C0.145491 42.5551 -0.775984 42.3938 -1.40696 42.4664C-13.655 43.9008 -25.8636 42.2119 -38.0136 36.5587C-38.345 36.4036 -38.6788 36.2554 -39.0152 36.1187C-39.1026 36.0825 -39.2054 36.1065 -39.3207 36.1006C-39.6301 36.5185 -39.231 36.8536 -39.0209 37.1828C-36.3368 41.4055 -33.8998 45.7272 -32.0839 50.3474C-31.061 52.9498 -29.4437 55.3421 -26.6464 56.0305C-21.618 57.2675 -17.3819 60.2244 -13.1928 63.3931C-10.4692 65.4526 -7.74075 67.5058 -4.99632 69.5338C-2.26246 71.5541 -0.0595293 71.4286 1.89763 69.1783C2.85 68.0844 3.76053 66.9401 4.38227 65.596C6.97257 59.9916 11.3273 56.0851 16.0494 52.5567C20.8608 48.9636 26.0081 45.8386 31.222 42.8309C45.1495 34.7992 59.7533 27.9435 74.4629 21.2743C75.0141 21.0244 75.6499 20.6498 76.2411 21.2629C76.8311 21.8746 76.4742 22.5282 76.1991 23.0759C70.749 33.9528 65.8973 45.2004 60.1545 55.8948C55.6475 64.2881 48.9027 70.1331 40.262 73.8906C32.9201 77.082 25.1184 78.9791 16.9792 80.0192C16.1655 80.1231 14.8556 79.8068 14.7385 80.7885C14.6143 81.828 15.9604 82.1165 16.6977 82.6223C24.1615 87.7285 30.8613 93.7837 37.173 100.388C40.3277 103.688 44.1513 105.851 48.4105 106.748C51.2808 107.352 52.6517 106.156 52.2507 103.165C51.4796 97.4117 51.9481 92.0451 54.2789 87.1624C56.9512 81.5633 61.0283 77.3743 66.306 74.3892C76.9278 68.3805 88.9436 66.1152 101.48 65.269C104.005 65.0981 106.565 65.0946 109.112 65.0287C109.549 65.0179 110 65.0398 110.443 65.1192C110.838 65.1908 111.28 65.3413 111.452 65.7872C111.676 66.3671 111.224 66.5888 110.886 66.8126C108.249 68.5641 105.609 70.3104 102.957 72.0413C96.06 76.5393 90.0652 81.9527 85.9249 89.3224C82.584 95.2666 77.5165 99.2901 71.3966 102.012C65.5193 104.628 59.5617 107.093 53.6373 109.617C53.2881 109.765 52.8673 109.862 52.8827 110.343C52.9025 110.963 53.4328 111.225 53.8873 111.471C56.322 112.797 58.9101 113.349 61.4604 114.127C69.0238 116.433 76.4089 116.216 83.8023 115.94C85.4136 115.88 87.0393 115.877 88.6682 115.952C91.6561 116.09 94.2427 117.435 96.4566 119.812C97.08 120.481 97.7568 121.096 98.3923 121.755C99.921 123.337 101.673 123.917 103.537 123.489C108.706 122.301 113.857 121.061 119.005 119.813C120.002 119.57 120.673 119.765 120.387 120.972C119.083 126.487 116.738 131.274 111.808 133.956C108.437 135.79 104.655 135.681 100.839 133.619C94.9588 130.441 89.1377 127.118 83.299 123.837C79.3516 121.619 75.2296 120.166 71.0026 119.142C70.6082 119.047 70.1209 118.893 69.9379 119.303C69.7286 119.77 70.2631 119.882 70.5419 120.048C76.3953 123.543 81.6771 127.901 86.6458 132.68C94.4194 140.158 101.019 148.543 106.096 158.048C108.154 161.901 109.448 165.85 109.231 170.014C109.073 173.061 108.056 175.663 106.268 177.851C105.294 179.041 104.831 179.016 103.927 177.564C99.397 170.292 93.3353 164.463 87.0791 158.777C82.6312 154.736 78.3553 150.49 74.4458 145.883C68.8609 139.299 64.5004 132.121 62.1922 123.949C61.4618 121.363 59.9971 119.133 57.7745 117.615C53.4901 114.688 49.1021 111.947 44.5293 108.984C44.7294 111.911 45.379 114.374 47.0424 116.723C49.8449 120.68 52.3341 124.83 54.2771 129.217C57.3364 136.122 55.5617 141.167 49.3289 143.586C47.0729 144.462 44.6435 144.849 42.1422 144.96C41.5812 144.984 40.8411 145.038 40.6459 144.198C40.4694 143.439 41.1713 143.393 41.6511 143.259C45.7807 142.121 47.257 138.913 47.4146 134.697C47.4927 132.627 47.1439 130.533 46.7333 128.441C45.9857 124.621 45.2322 120.802 44.5251 116.98C44.2908 115.715 43.8238 114.54 43.0147 113.515C38.311 107.558 33.6643 101.549 28.1394 96.3124C22.3926 90.8651 16.348 85.8473 9.69052 81.7312C8.51373 81.0041 7.28482 80.2044 5.62231 80.6233L5.6199 80.6253ZM73.5966 23.6657C71.3456 24.7155 69.2465 25.7217 67.1199 26.6799C56.5924 31.4234 46.3387 36.6368 36.2655 42.1708C29.915 45.6594 23.731 49.3951 17.96 53.7264C14.5375 56.2957 11.2297 59.0202 8.50195 62.3789C6.75502 64.5302 5.88408 67.3346 4.11624 69.4608C2.44832 71.4684 0.632669 73.3056 -2.56763 72.5382C-2.9182 72.4536 -3.29776 72.4497 -3.41655 72.8581C-3.55972 73.3554 -3.13974 73.6 -2.80931 73.8598C-0.924132 75.3509 0.964668 76.839 2.85226 78.3281C3.24244 78.6352 3.67079 78.8185 4.12989 78.8319C7.31756 78.9169 10.4869 79.5066 13.6905 78.9092C19.5387 77.8194 25.4726 77.0273 31.12 75.324C37.4714 73.4071 43.3518 70.6945 48.5493 66.7191C53.8676 62.6528 57.6495 57.2667 60.6589 51.2362C64.9201 42.6924 69.0251 34.0492 73.1864 25.4442C73.4098 24.9843 73.6925 24.5319 73.5943 23.6653L73.5966 23.6657ZM106.782 67.0048C105.915 66.4811 105.394 66.6867 104.875 66.7018C97.7569 66.9079 90.7846 67.7328 84.0742 69.4539C75.9606 71.5344 68.2548 74.3567 62.0451 79.9817C55.9239 85.5261 52.7764 92.4636 53.7719 101.653C53.9368 103.173 53.9907 104.715 53.488 106.114C52.8305 107.939 51.9701 108.479 49.9823 108.258C48.4529 108.086 46.922 107.871 45.3825 107.672C46.8142 108.748 48.3497 109.749 49.9668 110.598C50.6086 110.935 51.0156 110.875 51.0767 110.08C51.1475 109.149 51.7284 108.666 52.5019 108.307C57.0565 106.197 61.5529 103.967 66.2805 102.196C74.2034 99.2289 80.748 94.5363 85.077 87.1942C87.8468 82.4976 91.3405 78.5616 95.4637 75.1691C98.0539 73.0383 100.759 71.0676 103.588 69.2563C104.629 68.5896 105.612 67.8348 106.783 67.0062L106.782 67.0048ZM16.3799 94.0636C12.5792 89.9149 8.78156 85.7306 4.6318 81.9003C3.65833 81.0018 3.01858 81.0368 2.23038 81.7744C-0.420513 84.2606 -1.09276 87.6661 -0.821493 91.4415C-0.515107 95.7245 0.878782 99.8984 2.72288 103.935C8.43075 116.43 14.2285 128.893 20.0143 141.361C20.3783 142.147 20.6604 143.461 21.4639 143.451C22.2769 143.44 22.4091 142.181 22.6279 141.351C24.2398 135.276 25.5334 129.108 25.9656 122.634C26.6613 112.238 23.9076 102.656 16.381 94.065L16.3799 94.0636ZM56.7977 114.371C56.8464 114.974 57.085 115.121 57.3011 115.265C61.2612 117.924 63.5772 121.566 64.6677 126.096C65.3658 128.994 66.7166 131.745 68.2801 134.393C73.2319 142.773 79.891 149.741 86.8422 156.387C92.9361 162.213 99.3479 167.675 104.072 174.823C104.989 176.211 105.501 176.189 106.188 174.867C108.14 171.103 108.127 166.974 106.487 162.593C104.455 157.159 101.04 152.403 97.6127 147.744C88.8398 135.816 78.2774 125.968 65.5588 118.804C64.6138 118.272 63.6343 117.797 64.7944 116.493C61.9304 116.165 59.4311 115.16 56.7965 114.372L56.7977 114.371ZM-82.793 98.931C-82.4261 99.0328 -82.2353 99.1345 -82.0638 99.1267C-73.359 98.7352 -64.7817 97.8702 -56.7819 95.0424C-47.7513 91.8501 -40.3073 86.63 -35.5554 78.1303C-32.8988 73.3812 -31.9931 67.9919 -32.5434 62.1476C-32.7155 60.3304 -32.8416 60.2673 -34.3962 61.0056C-35.707 61.6288 -37.0885 62.1618 -38.2685 62.9719C-46.1784 68.3969 -53.6683 74.3691 -61.1744 80.317C-67.775 85.5479 -73.9278 91.3078 -80.3551 96.7447C-81.1467 97.4142 -82.1343 97.8824 -82.7918 98.9324L-82.793 98.931ZM73.3047 117.797C76.5093 118.949 79.6486 120.091 82.6927 121.647C88.9567 124.849 95.0009 128.564 101.173 131.977C103.83 133.448 106.48 134.016 109.083 132.981C113.675 131.157 116.273 127.391 118.149 122.928C118.259 122.667 118.391 122.363 118.164 122.072C117.855 121.678 117.51 121.906 117.206 121.981C113.457 122.904 109.672 123.731 105.98 124.8C101.982 125.956 98.5632 124.95 95.6118 121.178C93.8965 118.986 91.658 117.968 89.1693 117.685C83.7976 117.074 78.6869 118.298 73.3047 117.797ZM47.0834 142.56C49.0305 142.013 50.4824 140.873 51.9138 139.688C54.3216 137.695 54.6154 134.952 53.6332 131.738C53.0756 129.915 52.1417 128.223 51.1919 126.555C49.8097 124.126 48.3338 121.741 46.764 119.113C46.5342 120.016 46.7735 120.614 46.9094 121.201C47.6202 124.294 48.3252 127.386 48.7239 130.497C49.2351 134.475 49.3594 138.34 47.2045 141.558C47.0597 141.775 46.875 142.026 47.0833 142.562L47.0834 142.56ZM31.0079 96.7075C35.0073 101.398 39.2788 105.811 43.0348 110.711C43.0599 109.328 42.4968 108.079 42.603 106.811C42.6496 106.261 42.1666 106.012 41.7267 105.81C39.1984 104.643 37.2365 102.705 35.275 100.681C33.9269 99.2903 32.7306 97.6904 31.0079 96.7075ZM-32.8774 53.0851C-32.5496 54.4348 -32.221 55.6279 -32.0141 56.8321C-31.8348 57.8726 -31.3055 58.2438 -30.3218 58.2068C-28.714 58.1455 -27.0968 58.0929 -25.4441 58.5854C-24.6929 58.8101 -23.936 58.99 -23.1807 59.19C-23.1349 59.0385 -23.0866 58.8873 -23.0408 58.7357C-26.7737 57.8836 -30.376 56.7457 -32.8774 53.0851Z" stroke="#273812" stroke-width="2" mask="url(#path-1-outside-1_284_2723)"/>
</svg>
