<svg width="103" height="101" viewBox="0 0 103 101" fill="none" xmlns="http://www.w3.org/2000/svg">
<g opacity="0.2">
<mask id="path-1-outside-1_1051_921" maskUnits="userSpaceOnUse" x="-23.1995" y="-29.9189" width="154.472" height="163.388" fill="black">
<rect fill="white" x="-23.1995" y="-29.9189" width="154.472" height="163.388"/>
<path d="M59.4026 55.1252C58.4981 54.1666 57.6447 53.3306 56.8667 52.4247C53.9033 48.9766 50.9558 45.525 49.6028 41.1066C48.6571 38.0194 48.5107 35.0378 48.7956 32.0883C49.0768 29.1845 49.7995 26.4574 50.4064 23.684C50.596 22.818 50.9314 22.0628 51.5199 21.4688C52.1886 20.7943 52.6345 20.9119 53.0711 21.947C54.4523 25.2262 55.82 28.5097 57.1926 31.7919C58.8653 35.7911 60.6854 39.7474 62.1776 43.799C62.9082 45.7821 63.511 47.7757 63.5857 49.7945C63.67 52.0635 63.2703 54.0851 61.644 55.4251C61.1578 55.8253 61.6641 56.1155 61.932 56.3586C63.6514 57.9176 65.3733 59.4734 67.1184 60.9964C69.1555 62.7753 71.1304 64.6558 73.4165 66.0424C74.6677 66.8009 75.9477 67.1159 77.2631 67.1898C77.8274 67.2219 77.7794 66.8516 77.74 66.4343C77.558 64.4937 77.6193 62.6169 78.1077 60.8587C79.2652 56.6916 81.6993 53.687 85.1336 51.5797C89.1538 49.1128 93.8328 48.3541 98.7274 48.1496C100.9 48.0592 103.079 48.0016 105.301 48.1854C105.585 48.2088 105.949 48.1105 106.142 48.4684C106.376 48.9022 105.982 49.0602 105.786 49.2423C105.024 49.9492 104.253 50.6516 103.432 51.2877C99.8907 54.0337 96.3853 56.8309 92.7594 59.4637C89.2126 62.0394 85.6773 64.6434 81.7951 66.7395C81.0607 67.1357 80.3325 67.5595 79.4663 67.6817C78.8013 67.7754 78.7511 68.1696 78.8994 68.8291C79.5825 71.8659 80.9466 74.7016 82.4805 77.4918C83.3662 79.1032 84.5418 80.517 85.6552 81.9727C85.7921 82.1522 85.9384 82.3259 86.0666 82.5107C86.2079 82.7155 86.417 82.9623 86.2213 83.15C86.0129 83.3496 85.7243 83.1698 85.5446 82.9593C84.9788 82.2967 84.4345 81.6132 83.8975 80.9265C83.4162 80.3111 82.9555 79.6791 82.4402 78.994C82.5058 79.4655 82.8149 79.7908 83.0342 80.1526C83.2434 80.4983 83.6902 80.8988 83.4354 81.2263C83.189 81.5427 82.7325 81.1734 82.3876 80.9965C81.3558 80.4674 80.3416 79.8799 79.3048 79.3688C74.2098 76.8589 69.0698 75.7033 63.895 75.7717C63.6544 75.7751 63.3202 75.7177 63.2622 75.9782C63.1947 76.2793 63.5503 76.4159 63.7512 76.583C67.2145 79.4608 70.9871 80.6461 74.9219 80.925C76.6365 81.0466 78.3153 80.927 80.0552 81.1965C82.6447 81.5969 85.0116 82.9025 87.3024 84.437C90.9048 86.8491 94.1661 89.7882 97.3229 92.8727C99.0276 94.5381 100.695 96.2447 102.305 98.0136C102.436 98.1581 102.573 98.3066 102.672 98.4718C102.774 98.6428 102.826 98.8333 102.676 98.9725C102.538 99.0999 102.363 99.0986 102.197 98.9755C102 98.8292 101.813 98.6549 101.644 98.4713C97.7201 94.2306 93.6225 90.203 89.1028 86.7205C86.4993 84.7144 83.8057 82.9108 80.7522 82.1907C79.4346 81.8802 78.1528 81.855 76.8777 81.8854C73.5292 81.9665 70.2058 81.211 66.8998 79.6189C65.1819 78.7918 63.6411 77.63 62.2219 76.2481C61.9455 75.9793 61.5985 75.6503 61.6676 75.2682C61.7444 74.8457 62.209 74.9635 62.5292 74.9503C68.7449 74.6819 74.9055 76.0126 80.9917 79.373C81.1577 79.4651 81.325 79.5538 81.4937 79.6367C81.5376 79.6586 81.5899 79.6502 81.6482 79.6576C81.8095 79.4552 81.6112 79.2682 81.5086 79.0915C80.1976 76.825 79.0128 74.5172 78.1457 72.08C77.6573 70.7072 76.8656 69.4195 75.4575 68.9601C72.9262 68.1345 70.8154 66.4576 68.7307 64.6739C67.3753 63.5146 66.0174 62.3583 64.6511 61.2144C63.2901 60.0748 62.1737 60.0551 61.1576 61.1339C60.6632 61.6582 60.1895 62.21 59.8596 62.8753C58.4853 65.6489 56.237 67.4852 53.8071 69.1137C51.3312 70.7719 48.6906 72.1774 46.0176 73.5203C38.8774 77.1061 31.4081 80.0634 23.8874 82.9211C23.6056 83.0281 23.2795 83.1959 22.9872 82.8591C22.6955 82.5232 22.8835 82.2018 23.0289 81.9315C25.9102 76.5645 28.4928 70.9847 31.5201 65.7223C33.896 61.5923 37.3759 58.8535 41.792 57.2569C45.5442 55.901 49.5145 55.226 53.6461 55.003C54.0591 54.9808 54.7186 55.1928 54.7889 54.6941C54.8635 54.166 54.1853 53.9669 53.8178 53.6795C50.0975 50.7781 46.7745 47.4194 43.6542 43.7938C42.0946 41.9823 40.1836 40.7284 38.0378 40.1062C36.5918 39.6873 35.8844 40.2479 36.0537 41.7963C36.3791 44.7743 36.0815 47.507 34.8467 49.9207C33.4309 52.6886 31.32 54.6802 28.6149 56.0091C23.1708 58.684 17.0632 59.3871 10.7082 59.3432C9.42817 59.3346 8.13239 59.2388 6.84252 59.1756C6.62122 59.1644 6.39278 59.136 6.16979 59.0784C5.97073 59.0267 5.74865 58.9327 5.66661 58.6977C5.55971 58.3919 5.79093 58.2955 5.96437 58.1936C7.31912 57.3964 8.67496 56.602 10.0371 55.8159C13.5786 53.7734 16.674 51.2273 18.8528 47.6078C20.6109 44.6886 23.2212 42.8195 26.3496 41.6574C29.354 40.5409 32.3973 39.5047 35.4245 38.4365C35.603 38.3738 35.8171 38.3403 35.8147 38.093C35.8116 37.7747 35.5461 37.6204 35.3189 37.4767C34.1015 36.7046 32.7977 36.3229 31.5156 35.8271C27.7132 34.3568 23.9727 34.1868 20.2273 34.0467C19.411 34.0158 18.5881 33.9553 17.7644 33.8549C16.2536 33.6706 14.9595 32.8823 13.8657 31.5799C13.5577 31.2132 13.2221 30.8721 12.9078 30.5101C12.1519 29.6413 11.2715 29.2772 10.3233 29.4254C7.69332 29.8373 5.07245 30.2769 2.45261 30.7204C1.94507 30.8066 1.60768 30.6813 1.76594 30.0736C2.48838 27.2968 3.729 24.9323 6.25474 23.7455C7.9817 22.9342 9.89491 23.1341 11.8032 24.3364C14.7436 26.1892 17.6527 28.1144 20.571 30.0183C22.5441 31.3055 24.6141 32.2074 26.7422 32.893C26.9407 32.957 27.1856 33.0541 27.2829 32.851C27.3941 32.6196 27.1248 32.542 26.9856 32.4465C24.0621 30.432 21.4378 27.997 18.9767 25.3583C15.1262 21.2294 11.88 16.6806 9.41734 11.6153C8.41948 9.56258 7.80859 7.48935 7.96551 5.36308C8.0799 3.8075 8.62393 2.51281 9.55368 1.45958C10.0604 0.886629 10.2942 0.916989 10.7354 1.69592C12.9464 5.59543 15.949 8.8138 19.0515 11.9665C21.2573 14.2073 23.3739 16.5462 25.3007 19.0563C28.0535 22.6437 30.1797 26.489 31.2559 30.7652C31.5965 32.1181 32.3127 33.3171 33.4206 34.1799C35.5562 35.843 37.7464 37.415 40.0276 39.108C39.9593 37.6004 39.6583 36.3132 38.8428 35.0457C37.4688 32.9111 36.2557 30.689 35.3216 28.3666C33.8509 24.7112 34.8061 22.1932 37.9882 21.1908C39.14 20.8276 40.3741 20.7218 41.6414 20.7603C41.9257 20.7694 42.3009 20.7697 42.3902 21.2079C42.471 21.6036 42.1152 21.6006 41.8708 21.6509C39.7677 22.0765 38.9843 23.6645 38.857 25.8197C38.7941 26.8777 38.947 27.9641 39.1313 29.0519C39.4667 31.038 39.805 33.0241 40.1198 35.0102C40.2242 35.6671 40.4473 36.2871 40.8453 36.8435C43.159 40.0758 45.4433 43.3326 48.1808 46.2271C51.0282 49.2379 54.0312 52.04 57.3546 54.4033C57.9421 54.8208 58.5551 55.2774 59.4013 55.1261L59.4026 55.1252ZM24.3529 81.7284C25.5041 81.2761 26.5779 80.8404 27.6651 80.4303C33.0473 78.4003 38.2962 76.119 43.4573 73.6664C46.711 72.1204 49.8833 70.4414 52.8532 68.4414C54.6145 67.255 56.3195 65.9846 57.7381 64.3671C58.6466 63.3311 59.119 61.9269 60.0378 60.9046C60.9047 59.9392 61.8444 59.0667 63.4557 59.582C63.6322 59.6387 63.8243 59.6552 63.889 59.4503C63.9671 59.2009 63.7572 59.0596 63.5929 58.9138C62.6555 58.0778 61.7162 57.2431 60.7776 56.408C60.5835 56.2357 60.3688 56.1255 60.1366 56.1011C58.524 55.9361 56.9265 55.5131 55.2982 55.6972C52.3257 56.0329 49.3132 56.2128 46.4355 56.8706C43.199 57.6111 40.192 58.7773 37.5163 60.6167C34.7786 62.4982 32.8035 65.1146 31.2123 68.0908C28.9591 72.3073 26.7839 76.5808 24.5805 80.8325C24.4623 81.0597 24.3141 81.2808 24.354 81.7287L24.3529 81.7284ZM8.04424 58.2515C8.47701 58.5529 8.74283 58.4674 9.00578 58.4794C12.6111 58.645 16.1496 58.4879 19.5656 57.8615C23.6959 57.1044 27.6281 55.9515 30.8347 53.3051C33.9955 50.6967 35.6669 47.261 35.2666 42.5134C35.2003 41.7278 35.1904 40.9355 35.4606 40.2377C35.814 39.3271 36.2556 39.0832 37.2592 39.2723C38.0314 39.4186 38.8039 39.5873 39.5809 39.7478C38.8684 39.1419 38.1025 38.5702 37.2935 38.0738C36.9724 37.8767 36.7657 37.8915 36.7259 38.2969C36.6795 38.7715 36.3801 38.9967 35.9845 39.1512C33.6553 40.0591 31.3542 41.0305 28.9413 41.7582C24.8975 42.9771 21.532 45.1329 19.258 48.7309C17.8031 51.0325 15.9903 52.9167 13.865 54.4983C12.5299 55.4917 11.1385 56.3987 9.68614 57.2193C9.15147 57.5213 8.64621 57.8715 8.04424 58.2515ZM54.1077 47.8277C55.9847 50.0988 57.8598 52.3881 59.9171 54.5094C60.3997 55.0069 60.7239 55.0134 61.1312 54.6653C62.501 53.4921 62.8797 51.7724 62.7849 49.827C62.6781 47.6202 62.0196 45.4278 61.1317 43.2888C58.3834 36.6672 55.5893 30.0586 52.8013 23.4478C52.6259 23.0315 52.4979 22.3471 52.0911 22.3217C51.6794 22.2964 51.5983 22.9366 51.4782 23.3535C50.5939 26.4059 49.8695 29.5178 49.5778 32.8193C49.1085 38.1209 50.3949 43.1376 54.1077 47.8277ZM33.8784 35.8795C33.8606 35.5688 33.7414 35.4844 33.6337 35.4021C31.6592 33.8884 30.528 31.9336 30.027 29.5703C29.7064 28.0583 29.0537 26.5969 28.2921 25.1805C25.8801 20.6968 22.588 16.8714 19.1445 13.2004C16.1256 9.98242 12.9418 6.93854 10.6312 3.09488C10.1825 2.34894 9.92303 2.34028 9.56051 2.99193C8.53027 4.84656 8.49036 6.96349 9.27093 9.27143C10.2381 12.1339 11.913 14.7012 13.5954 17.22C17.9015 23.6677 23.1368 29.1172 29.4938 33.2739C29.9661 33.5825 30.4566 33.8633 29.8547 34.4875C31.3006 34.7648 32.5538 35.3753 33.8784 35.8795ZM104.361 49.1118C104.176 49.0456 104.081 48.9862 103.994 48.9837C99.5833 48.8527 95.232 48.9692 91.1509 50.1137C86.5439 51.4058 82.7171 53.7975 80.2161 57.9728C78.8179 60.3056 78.2987 63.0333 78.5113 66.0496C78.578 66.9875 78.6411 67.0247 79.4363 66.7055C80.1068 66.436 80.8121 66.2155 81.4185 65.8452C85.4834 63.3662 89.3419 60.5906 93.2083 57.8282C96.6082 55.3987 99.7875 52.6811 103.102 50.1394C103.51 49.8264 104.016 49.6248 104.361 49.1118ZM25.5617 33.4947C23.9527 32.7824 22.3765 32.0775 20.8532 31.1636C17.7187 29.284 14.7012 27.1496 11.6158 25.1651C10.287 24.3099 8.95221 23.9181 7.62299 24.3493C5.2782 25.1092 3.92083 26.9405 2.92086 29.1562C2.86228 29.286 2.79194 29.4367 2.9038 29.5945C3.05563 29.8081 3.23276 29.7046 3.38736 29.6778C5.29549 29.3475 7.22085 29.0675 9.10137 28.6603C11.1379 28.2204 12.8573 28.8664 14.3087 30.9118C15.1522 32.1009 16.2738 32.7079 17.5303 32.9476C20.2424 33.4656 22.8431 33.0329 25.5617 33.4947ZM39.1133 21.8024C38.1215 22.0083 37.3738 22.5373 36.6359 23.0899C35.3947 24.0198 35.215 25.4147 35.676 27.0989C35.9377 28.0546 36.3913 28.9577 36.8533 29.8486C37.5255 31.1463 38.2457 32.4246 39.0106 33.8314C39.1371 33.3775 39.0228 33.0618 38.9606 32.7558C38.6356 31.1433 38.3137 29.5321 38.1469 27.9222C37.933 25.8639 37.9137 23.8785 39.0407 22.311C39.1164 22.2052 39.2127 22.0839 39.1133 21.8011L39.1133 21.8024ZM46.7333 45.9153C44.7618 43.3588 42.6495 40.9345 40.8035 38.2801C40.7752 38.9879 41.0461 39.6494 40.9781 40.2953C40.9483 40.5751 41.19 40.7211 41.4104 40.8414C42.6769 41.536 43.6482 42.604 44.6182 43.7159C45.2849 44.4803 45.8724 45.3459 46.7333 45.9153ZM78.5782 70.7071C78.4275 70.0028 78.2746 69.3788 78.1835 68.7537C78.1045 68.2137 77.8407 68.0032 77.3424 67.9847C76.5279 67.9549 75.7087 67.9202 74.8777 67.6048C74.5 67.461 74.1189 67.34 73.7389 67.2087C73.714 67.2846 73.6879 67.3603 73.6629 67.4362C75.5428 68.0152 77.3534 68.7356 78.5782 70.7071Z"/>
</mask>
<path d="M59.4026 55.1252C58.4981 54.1666 57.6447 53.3306 56.8667 52.4247C53.9033 48.9766 50.9558 45.525 49.6028 41.1066C48.6571 38.0194 48.5107 35.0378 48.7956 32.0883C49.0768 29.1845 49.7995 26.4574 50.4064 23.684C50.596 22.818 50.9314 22.0628 51.5199 21.4688C52.1886 20.7943 52.6345 20.9119 53.0711 21.947C54.4523 25.2262 55.82 28.5097 57.1926 31.7919C58.8653 35.7911 60.6854 39.7474 62.1776 43.799C62.9082 45.7821 63.511 47.7757 63.5857 49.7945C63.67 52.0635 63.2703 54.0851 61.644 55.4251C61.1578 55.8253 61.6641 56.1155 61.932 56.3586C63.6514 57.9176 65.3733 59.4734 67.1184 60.9964C69.1555 62.7753 71.1304 64.6558 73.4165 66.0424C74.6677 66.8009 75.9477 67.1159 77.2631 67.1898C77.8274 67.2219 77.7794 66.8516 77.74 66.4343C77.558 64.4937 77.6193 62.6169 78.1077 60.8587C79.2652 56.6916 81.6993 53.687 85.1336 51.5797C89.1538 49.1128 93.8328 48.3541 98.7274 48.1496C100.9 48.0592 103.079 48.0016 105.301 48.1854C105.585 48.2088 105.949 48.1105 106.142 48.4684C106.376 48.9022 105.982 49.0602 105.786 49.2423C105.024 49.9492 104.253 50.6516 103.432 51.2877C99.8907 54.0337 96.3853 56.8309 92.7594 59.4637C89.2126 62.0394 85.6773 64.6434 81.7951 66.7395C81.0607 67.1357 80.3325 67.5595 79.4663 67.6817C78.8013 67.7754 78.7511 68.1696 78.8994 68.8291C79.5825 71.8659 80.9466 74.7016 82.4805 77.4918C83.3662 79.1032 84.5418 80.517 85.6552 81.9727C85.7921 82.1522 85.9384 82.3259 86.0666 82.5107C86.2079 82.7155 86.417 82.9623 86.2213 83.15C86.0129 83.3496 85.7243 83.1698 85.5446 82.9593C84.9788 82.2967 84.4345 81.6132 83.8975 80.9265C83.4162 80.3111 82.9555 79.6791 82.4402 78.994C82.5058 79.4655 82.8149 79.7908 83.0342 80.1526C83.2434 80.4983 83.6902 80.8988 83.4354 81.2263C83.189 81.5427 82.7325 81.1734 82.3876 80.9965C81.3558 80.4674 80.3416 79.8799 79.3048 79.3688C74.2098 76.8589 69.0698 75.7033 63.895 75.7717C63.6544 75.7751 63.3202 75.7177 63.2622 75.9782C63.1947 76.2793 63.5503 76.4159 63.7512 76.583C67.2145 79.4608 70.9871 80.6461 74.9219 80.925C76.6365 81.0466 78.3153 80.927 80.0552 81.1965C82.6447 81.5969 85.0116 82.9025 87.3024 84.437C90.9048 86.8491 94.1661 89.7882 97.3229 92.8727C99.0276 94.5381 100.695 96.2447 102.305 98.0136C102.436 98.1581 102.573 98.3066 102.672 98.4718C102.774 98.6428 102.826 98.8333 102.676 98.9725C102.538 99.0999 102.363 99.0986 102.197 98.9755C102 98.8292 101.813 98.6549 101.644 98.4713C97.7201 94.2306 93.6225 90.203 89.1028 86.7205C86.4993 84.7144 83.8057 82.9108 80.7522 82.1907C79.4346 81.8802 78.1528 81.855 76.8777 81.8854C73.5292 81.9665 70.2058 81.211 66.8998 79.6189C65.1819 78.7918 63.6411 77.63 62.2219 76.2481C61.9455 75.9793 61.5985 75.6503 61.6676 75.2682C61.7444 74.8457 62.209 74.9635 62.5292 74.9503C68.7449 74.6819 74.9055 76.0126 80.9917 79.373C81.1577 79.4651 81.325 79.5538 81.4937 79.6367C81.5376 79.6586 81.5899 79.6502 81.6482 79.6576C81.8095 79.4552 81.6112 79.2682 81.5086 79.0915C80.1976 76.825 79.0128 74.5172 78.1457 72.08C77.6573 70.7072 76.8656 69.4195 75.4575 68.9601C72.9262 68.1345 70.8154 66.4576 68.7307 64.6739C67.3753 63.5146 66.0174 62.3583 64.6511 61.2144C63.2901 60.0748 62.1737 60.0551 61.1576 61.1339C60.6632 61.6582 60.1895 62.21 59.8596 62.8753C58.4853 65.6489 56.237 67.4852 53.8071 69.1137C51.3312 70.7719 48.6906 72.1774 46.0176 73.5203C38.8774 77.1061 31.4081 80.0634 23.8874 82.9211C23.6056 83.0281 23.2795 83.1959 22.9872 82.8591C22.6955 82.5232 22.8835 82.2018 23.0289 81.9315C25.9102 76.5645 28.4928 70.9847 31.5201 65.7223C33.896 61.5923 37.3759 58.8535 41.792 57.2569C45.5442 55.901 49.5145 55.226 53.6461 55.003C54.0591 54.9808 54.7186 55.1928 54.7889 54.6941C54.8635 54.166 54.1853 53.9669 53.8178 53.6795C50.0975 50.7781 46.7745 47.4194 43.6542 43.7938C42.0946 41.9823 40.1836 40.7284 38.0378 40.1062C36.5918 39.6873 35.8844 40.2479 36.0537 41.7963C36.3791 44.7743 36.0815 47.507 34.8467 49.9207C33.4309 52.6886 31.32 54.6802 28.6149 56.0091C23.1708 58.684 17.0632 59.3871 10.7082 59.3432C9.42817 59.3346 8.13239 59.2388 6.84252 59.1756C6.62122 59.1644 6.39278 59.136 6.16979 59.0784C5.97073 59.0267 5.74865 58.9327 5.66661 58.6977C5.55971 58.3919 5.79093 58.2955 5.96437 58.1936C7.31912 57.3964 8.67496 56.602 10.0371 55.8159C13.5786 53.7734 16.674 51.2273 18.8528 47.6078C20.6109 44.6886 23.2212 42.8195 26.3496 41.6574C29.354 40.5409 32.3973 39.5047 35.4245 38.4365C35.603 38.3738 35.8171 38.3403 35.8147 38.093C35.8116 37.7747 35.5461 37.6204 35.3189 37.4767C34.1015 36.7046 32.7977 36.3229 31.5156 35.8271C27.7132 34.3568 23.9727 34.1868 20.2273 34.0467C19.411 34.0158 18.5881 33.9553 17.7644 33.8549C16.2536 33.6706 14.9595 32.8823 13.8657 31.5799C13.5577 31.2132 13.2221 30.8721 12.9078 30.5101C12.1519 29.6413 11.2715 29.2772 10.3233 29.4254C7.69332 29.8373 5.07245 30.2769 2.45261 30.7204C1.94507 30.8066 1.60768 30.6813 1.76594 30.0736C2.48838 27.2968 3.729 24.9323 6.25474 23.7455C7.9817 22.9342 9.89491 23.1341 11.8032 24.3364C14.7436 26.1892 17.6527 28.1144 20.571 30.0183C22.5441 31.3055 24.6141 32.2074 26.7422 32.893C26.9407 32.957 27.1856 33.0541 27.2829 32.851C27.3941 32.6196 27.1248 32.542 26.9856 32.4465C24.0621 30.432 21.4378 27.997 18.9767 25.3583C15.1262 21.2294 11.88 16.6806 9.41734 11.6153C8.41948 9.56258 7.80859 7.48935 7.96551 5.36308C8.0799 3.8075 8.62393 2.51281 9.55368 1.45958C10.0604 0.886629 10.2942 0.916989 10.7354 1.69592C12.9464 5.59543 15.949 8.8138 19.0515 11.9665C21.2573 14.2073 23.3739 16.5462 25.3007 19.0563C28.0535 22.6437 30.1797 26.489 31.2559 30.7652C31.5965 32.1181 32.3127 33.3171 33.4206 34.1799C35.5562 35.843 37.7464 37.415 40.0276 39.108C39.9593 37.6004 39.6583 36.3132 38.8428 35.0457C37.4688 32.9111 36.2557 30.689 35.3216 28.3666C33.8509 24.7112 34.8061 22.1932 37.9882 21.1908C39.14 20.8276 40.3741 20.7218 41.6414 20.7603C41.9257 20.7694 42.3009 20.7697 42.3902 21.2079C42.471 21.6036 42.1152 21.6006 41.8708 21.6509C39.7677 22.0765 38.9843 23.6645 38.857 25.8197C38.7941 26.8777 38.947 27.9641 39.1313 29.0519C39.4667 31.038 39.805 33.0241 40.1198 35.0102C40.2242 35.6671 40.4473 36.2871 40.8453 36.8435C43.159 40.0758 45.4433 43.3326 48.1808 46.2271C51.0282 49.2379 54.0312 52.04 57.3546 54.4033C57.9421 54.8208 58.5551 55.2774 59.4013 55.1261L59.4026 55.1252ZM24.3529 81.7284C25.5041 81.2761 26.5779 80.8404 27.6651 80.4303C33.0473 78.4003 38.2962 76.119 43.4573 73.6664C46.711 72.1204 49.8833 70.4414 52.8532 68.4414C54.6145 67.255 56.3195 65.9846 57.7381 64.3671C58.6466 63.3311 59.119 61.9269 60.0378 60.9046C60.9047 59.9392 61.8444 59.0667 63.4557 59.582C63.6322 59.6387 63.8243 59.6552 63.889 59.4503C63.9671 59.2009 63.7572 59.0596 63.5929 58.9138C62.6555 58.0778 61.7162 57.2431 60.7776 56.408C60.5835 56.2357 60.3688 56.1255 60.1366 56.1011C58.524 55.9361 56.9265 55.5131 55.2982 55.6972C52.3257 56.0329 49.3132 56.2128 46.4355 56.8706C43.199 57.6111 40.192 58.7773 37.5163 60.6167C34.7786 62.4982 32.8035 65.1146 31.2123 68.0908C28.9591 72.3073 26.7839 76.5808 24.5805 80.8325C24.4623 81.0597 24.3141 81.2808 24.354 81.7287L24.3529 81.7284ZM8.04424 58.2515C8.47701 58.5529 8.74283 58.4674 9.00578 58.4794C12.6111 58.645 16.1496 58.4879 19.5656 57.8615C23.6959 57.1044 27.6281 55.9515 30.8347 53.3051C33.9955 50.6967 35.6669 47.261 35.2666 42.5134C35.2003 41.7278 35.1904 40.9355 35.4606 40.2377C35.814 39.3271 36.2556 39.0832 37.2592 39.2723C38.0314 39.4186 38.8039 39.5873 39.5809 39.7478C38.8684 39.1419 38.1025 38.5702 37.2935 38.0738C36.9724 37.8767 36.7657 37.8915 36.7259 38.2969C36.6795 38.7715 36.3801 38.9967 35.9845 39.1512C33.6553 40.0591 31.3542 41.0305 28.9413 41.7582C24.8975 42.9771 21.532 45.1329 19.258 48.7309C17.8031 51.0325 15.9903 52.9167 13.865 54.4983C12.5299 55.4917 11.1385 56.3987 9.68614 57.2193C9.15147 57.5213 8.64621 57.8715 8.04424 58.2515ZM54.1077 47.8277C55.9847 50.0988 57.8598 52.3881 59.9171 54.5094C60.3997 55.0069 60.7239 55.0134 61.1312 54.6653C62.501 53.4921 62.8797 51.7724 62.7849 49.827C62.6781 47.6202 62.0196 45.4278 61.1317 43.2888C58.3834 36.6672 55.5893 30.0586 52.8013 23.4478C52.6259 23.0315 52.4979 22.3471 52.0911 22.3217C51.6794 22.2964 51.5983 22.9366 51.4782 23.3535C50.5939 26.4059 49.8695 29.5178 49.5778 32.8193C49.1085 38.1209 50.3949 43.1376 54.1077 47.8277ZM33.8784 35.8795C33.8606 35.5688 33.7414 35.4844 33.6337 35.4021C31.6592 33.8884 30.528 31.9336 30.027 29.5703C29.7064 28.0583 29.0537 26.5969 28.2921 25.1805C25.8801 20.6968 22.588 16.8714 19.1445 13.2004C16.1256 9.98242 12.9418 6.93854 10.6312 3.09488C10.1825 2.34894 9.92303 2.34028 9.56051 2.99193C8.53027 4.84656 8.49036 6.96349 9.27093 9.27143C10.2381 12.1339 11.913 14.7012 13.5954 17.22C17.9015 23.6677 23.1368 29.1172 29.4938 33.2739C29.9661 33.5825 30.4566 33.8633 29.8547 34.4875C31.3006 34.7648 32.5538 35.3753 33.8784 35.8795ZM104.361 49.1118C104.176 49.0456 104.081 48.9862 103.994 48.9837C99.5833 48.8527 95.232 48.9692 91.1509 50.1137C86.5439 51.4058 82.7171 53.7975 80.2161 57.9728C78.8179 60.3056 78.2987 63.0333 78.5113 66.0496C78.578 66.9875 78.6411 67.0247 79.4363 66.7055C80.1068 66.436 80.8121 66.2155 81.4185 65.8452C85.4834 63.3662 89.3419 60.5906 93.2083 57.8282C96.6082 55.3987 99.7875 52.6811 103.102 50.1394C103.51 49.8264 104.016 49.6248 104.361 49.1118ZM25.5617 33.4947C23.9527 32.7824 22.3765 32.0775 20.8532 31.1636C17.7187 29.284 14.7012 27.1496 11.6158 25.1651C10.287 24.3099 8.95221 23.9181 7.62299 24.3493C5.2782 25.1092 3.92083 26.9405 2.92086 29.1562C2.86228 29.286 2.79194 29.4367 2.9038 29.5945C3.05563 29.8081 3.23276 29.7046 3.38736 29.6778C5.29549 29.3475 7.22085 29.0675 9.10137 28.6603C11.1379 28.2204 12.8573 28.8664 14.3087 30.9118C15.1522 32.1009 16.2738 32.7079 17.5303 32.9476C20.2424 33.4656 22.8431 33.0329 25.5617 33.4947ZM39.1133 21.8024C38.1215 22.0083 37.3738 22.5373 36.6359 23.0899C35.3947 24.0198 35.215 25.4147 35.676 27.0989C35.9377 28.0546 36.3913 28.9577 36.8533 29.8486C37.5255 31.1463 38.2457 32.4246 39.0106 33.8314C39.1371 33.3775 39.0228 33.0618 38.9606 32.7558C38.6356 31.1433 38.3137 29.5321 38.1469 27.9222C37.933 25.8639 37.9137 23.8785 39.0407 22.311C39.1164 22.2052 39.2127 22.0839 39.1133 21.8011L39.1133 21.8024ZM46.7333 45.9153C44.7618 43.3588 42.6495 40.9345 40.8035 38.2801C40.7752 38.9879 41.0461 39.6494 40.9781 40.2953C40.9483 40.5751 41.19 40.7211 41.4104 40.8414C42.6769 41.536 43.6482 42.604 44.6182 43.7159C45.2849 44.4803 45.8724 45.3459 46.7333 45.9153ZM78.5782 70.7071C78.4275 70.0028 78.2746 69.3788 78.1835 68.7537C78.1045 68.2137 77.8407 68.0032 77.3424 67.9847C76.5279 67.9549 75.7087 67.9202 74.8777 67.6048C74.5 67.461 74.1189 67.34 73.7389 67.2087C73.714 67.2846 73.6879 67.3603 73.6629 67.4362C75.5428 68.0152 77.3534 68.7356 78.5782 70.7071Z" fill="#273812"/>
<path d="M59.4026 55.1252C58.4981 54.1666 57.6447 53.3306 56.8667 52.4247C53.9033 48.9766 50.9558 45.525 49.6028 41.1066C48.6571 38.0194 48.5107 35.0378 48.7956 32.0883C49.0768 29.1845 49.7995 26.4574 50.4064 23.684C50.596 22.818 50.9314 22.0628 51.5199 21.4688C52.1886 20.7943 52.6345 20.9119 53.0711 21.947C54.4523 25.2262 55.82 28.5097 57.1926 31.7919C58.8653 35.7911 60.6854 39.7474 62.1776 43.799C62.9082 45.7821 63.511 47.7757 63.5857 49.7945C63.67 52.0635 63.2703 54.0851 61.644 55.4251C61.1578 55.8253 61.6641 56.1155 61.932 56.3586C63.6514 57.9176 65.3733 59.4734 67.1184 60.9964C69.1555 62.7753 71.1304 64.6558 73.4165 66.0424C74.6677 66.8009 75.9477 67.1159 77.2631 67.1898C77.8274 67.2219 77.7794 66.8516 77.74 66.4343C77.558 64.4937 77.6193 62.6169 78.1077 60.8587C79.2652 56.6916 81.6993 53.687 85.1336 51.5797C89.1538 49.1128 93.8328 48.3541 98.7274 48.1496C100.9 48.0592 103.079 48.0016 105.301 48.1854C105.585 48.2088 105.949 48.1105 106.142 48.4684C106.376 48.9022 105.982 49.0602 105.786 49.2423C105.024 49.9492 104.253 50.6516 103.432 51.2877C99.8907 54.0337 96.3853 56.8309 92.7594 59.4637C89.2126 62.0394 85.6773 64.6434 81.7951 66.7395C81.0607 67.1357 80.3325 67.5595 79.4663 67.6817C78.8013 67.7754 78.7511 68.1696 78.8994 68.8291C79.5825 71.8659 80.9466 74.7016 82.4805 77.4918C83.3662 79.1032 84.5418 80.517 85.6552 81.9727C85.7921 82.1522 85.9384 82.3259 86.0666 82.5107C86.2079 82.7155 86.417 82.9623 86.2213 83.15C86.0129 83.3496 85.7243 83.1698 85.5446 82.9593C84.9788 82.2967 84.4345 81.6132 83.8975 80.9265C83.4162 80.3111 82.9555 79.6791 82.4402 78.994C82.5058 79.4655 82.8149 79.7908 83.0342 80.1526C83.2434 80.4983 83.6902 80.8988 83.4354 81.2263C83.189 81.5427 82.7325 81.1734 82.3876 80.9965C81.3558 80.4674 80.3416 79.8799 79.3048 79.3688C74.2098 76.8589 69.0698 75.7033 63.895 75.7717C63.6544 75.7751 63.3202 75.7177 63.2622 75.9782C63.1947 76.2793 63.5503 76.4159 63.7512 76.583C67.2145 79.4608 70.9871 80.6461 74.9219 80.925C76.6365 81.0466 78.3153 80.927 80.0552 81.1965C82.6447 81.5969 85.0116 82.9025 87.3024 84.437C90.9048 86.8491 94.1661 89.7882 97.3229 92.8727C99.0276 94.5381 100.695 96.2447 102.305 98.0136C102.436 98.1581 102.573 98.3066 102.672 98.4718C102.774 98.6428 102.826 98.8333 102.676 98.9725C102.538 99.0999 102.363 99.0986 102.197 98.9755C102 98.8292 101.813 98.6549 101.644 98.4713C97.7201 94.2306 93.6225 90.203 89.1028 86.7205C86.4993 84.7144 83.8057 82.9108 80.7522 82.1907C79.4346 81.8802 78.1528 81.855 76.8777 81.8854C73.5292 81.9665 70.2058 81.211 66.8998 79.6189C65.1819 78.7918 63.6411 77.63 62.2219 76.2481C61.9455 75.9793 61.5985 75.6503 61.6676 75.2682C61.7444 74.8457 62.209 74.9635 62.5292 74.9503C68.7449 74.6819 74.9055 76.0126 80.9917 79.373C81.1577 79.4651 81.325 79.5538 81.4937 79.6367C81.5376 79.6586 81.5899 79.6502 81.6482 79.6576C81.8095 79.4552 81.6112 79.2682 81.5086 79.0915C80.1976 76.825 79.0128 74.5172 78.1457 72.08C77.6573 70.7072 76.8656 69.4195 75.4575 68.9601C72.9262 68.1345 70.8154 66.4576 68.7307 64.6739C67.3753 63.5146 66.0174 62.3583 64.6511 61.2144C63.2901 60.0748 62.1737 60.0551 61.1576 61.1339C60.6632 61.6582 60.1895 62.21 59.8596 62.8753C58.4853 65.6489 56.237 67.4852 53.8071 69.1137C51.3312 70.7719 48.6906 72.1774 46.0176 73.5203C38.8774 77.1061 31.4081 80.0634 23.8874 82.9211C23.6056 83.0281 23.2795 83.1959 22.9872 82.8591C22.6955 82.5232 22.8835 82.2018 23.0289 81.9315C25.9102 76.5645 28.4928 70.9847 31.5201 65.7223C33.896 61.5923 37.3759 58.8535 41.792 57.2569C45.5442 55.901 49.5145 55.226 53.6461 55.003C54.0591 54.9808 54.7186 55.1928 54.7889 54.6941C54.8635 54.166 54.1853 53.9669 53.8178 53.6795C50.0975 50.7781 46.7745 47.4194 43.6542 43.7938C42.0946 41.9823 40.1836 40.7284 38.0378 40.1062C36.5918 39.6873 35.8844 40.2479 36.0537 41.7963C36.3791 44.7743 36.0815 47.507 34.8467 49.9207C33.4309 52.6886 31.32 54.6802 28.6149 56.0091C23.1708 58.684 17.0632 59.3871 10.7082 59.3432C9.42817 59.3346 8.13239 59.2388 6.84252 59.1756C6.62122 59.1644 6.39278 59.136 6.16979 59.0784C5.97073 59.0267 5.74865 58.9327 5.66661 58.6977C5.55971 58.3919 5.79093 58.2955 5.96437 58.1936C7.31912 57.3964 8.67496 56.602 10.0371 55.8159C13.5786 53.7734 16.674 51.2273 18.8528 47.6078C20.6109 44.6886 23.2212 42.8195 26.3496 41.6574C29.354 40.5409 32.3973 39.5047 35.4245 38.4365C35.603 38.3738 35.8171 38.3403 35.8147 38.093C35.8116 37.7747 35.5461 37.6204 35.3189 37.4767C34.1015 36.7046 32.7977 36.3229 31.5156 35.8271C27.7132 34.3568 23.9727 34.1868 20.2273 34.0467C19.411 34.0158 18.5881 33.9553 17.7644 33.8549C16.2536 33.6706 14.9595 32.8823 13.8657 31.5799C13.5577 31.2132 13.2221 30.8721 12.9078 30.5101C12.1519 29.6413 11.2715 29.2772 10.3233 29.4254C7.69332 29.8373 5.07245 30.2769 2.45261 30.7204C1.94507 30.8066 1.60768 30.6813 1.76594 30.0736C2.48838 27.2968 3.729 24.9323 6.25474 23.7455C7.9817 22.9342 9.89491 23.1341 11.8032 24.3364C14.7436 26.1892 17.6527 28.1144 20.571 30.0183C22.5441 31.3055 24.6141 32.2074 26.7422 32.893C26.9407 32.957 27.1856 33.0541 27.2829 32.851C27.3941 32.6196 27.1248 32.542 26.9856 32.4465C24.0621 30.432 21.4378 27.997 18.9767 25.3583C15.1262 21.2294 11.88 16.6806 9.41734 11.6153C8.41948 9.56258 7.80859 7.48935 7.96551 5.36308C8.0799 3.8075 8.62393 2.51281 9.55368 1.45958C10.0604 0.886629 10.2942 0.916989 10.7354 1.69592C12.9464 5.59543 15.949 8.8138 19.0515 11.9665C21.2573 14.2073 23.3739 16.5462 25.3007 19.0563C28.0535 22.6437 30.1797 26.489 31.2559 30.7652C31.5965 32.1181 32.3127 33.3171 33.4206 34.1799C35.5562 35.843 37.7464 37.415 40.0276 39.108C39.9593 37.6004 39.6583 36.3132 38.8428 35.0457C37.4688 32.9111 36.2557 30.689 35.3216 28.3666C33.8509 24.7112 34.8061 22.1932 37.9882 21.1908C39.14 20.8276 40.3741 20.7218 41.6414 20.7603C41.9257 20.7694 42.3009 20.7697 42.3902 21.2079C42.471 21.6036 42.1152 21.6006 41.8708 21.6509C39.7677 22.0765 38.9843 23.6645 38.857 25.8197C38.7941 26.8777 38.947 27.9641 39.1313 29.0519C39.4667 31.038 39.805 33.0241 40.1198 35.0102C40.2242 35.6671 40.4473 36.2871 40.8453 36.8435C43.159 40.0758 45.4433 43.3326 48.1808 46.2271C51.0282 49.2379 54.0312 52.04 57.3546 54.4033C57.9421 54.8208 58.5551 55.2774 59.4013 55.1261L59.4026 55.1252ZM24.3529 81.7284C25.5041 81.2761 26.5779 80.8404 27.6651 80.4303C33.0473 78.4003 38.2962 76.119 43.4573 73.6664C46.711 72.1204 49.8833 70.4414 52.8532 68.4414C54.6145 67.255 56.3195 65.9846 57.7381 64.3671C58.6466 63.3311 59.119 61.9269 60.0378 60.9046C60.9047 59.9392 61.8444 59.0667 63.4557 59.582C63.6322 59.6387 63.8243 59.6552 63.889 59.4503C63.9671 59.2009 63.7572 59.0596 63.5929 58.9138C62.6555 58.0778 61.7162 57.2431 60.7776 56.408C60.5835 56.2357 60.3688 56.1255 60.1366 56.1011C58.524 55.9361 56.9265 55.5131 55.2982 55.6972C52.3257 56.0329 49.3132 56.2128 46.4355 56.8706C43.199 57.6111 40.192 58.7773 37.5163 60.6167C34.7786 62.4982 32.8035 65.1146 31.2123 68.0908C28.9591 72.3073 26.7839 76.5808 24.5805 80.8325C24.4623 81.0597 24.3141 81.2808 24.354 81.7287L24.3529 81.7284ZM8.04424 58.2515C8.47701 58.5529 8.74283 58.4674 9.00578 58.4794C12.6111 58.645 16.1496 58.4879 19.5656 57.8615C23.6959 57.1044 27.6281 55.9515 30.8347 53.3051C33.9955 50.6967 35.6669 47.261 35.2666 42.5134C35.2003 41.7278 35.1904 40.9355 35.4606 40.2377C35.814 39.3271 36.2556 39.0832 37.2592 39.2723C38.0314 39.4186 38.8039 39.5873 39.5809 39.7478C38.8684 39.1419 38.1025 38.5702 37.2935 38.0738C36.9724 37.8767 36.7657 37.8915 36.7259 38.2969C36.6795 38.7715 36.3801 38.9967 35.9845 39.1512C33.6553 40.0591 31.3542 41.0305 28.9413 41.7582C24.8975 42.9771 21.532 45.1329 19.258 48.7309C17.8031 51.0325 15.9903 52.9167 13.865 54.4983C12.5299 55.4917 11.1385 56.3987 9.68614 57.2193C9.15147 57.5213 8.64621 57.8715 8.04424 58.2515ZM54.1077 47.8277C55.9847 50.0988 57.8598 52.3881 59.9171 54.5094C60.3997 55.0069 60.7239 55.0134 61.1312 54.6653C62.501 53.4921 62.8797 51.7724 62.7849 49.827C62.6781 47.6202 62.0196 45.4278 61.1317 43.2888C58.3834 36.6672 55.5893 30.0586 52.8013 23.4478C52.6259 23.0315 52.4979 22.3471 52.0911 22.3217C51.6794 22.2964 51.5983 22.9366 51.4782 23.3535C50.5939 26.4059 49.8695 29.5178 49.5778 32.8193C49.1085 38.1209 50.3949 43.1376 54.1077 47.8277ZM33.8784 35.8795C33.8606 35.5688 33.7414 35.4844 33.6337 35.4021C31.6592 33.8884 30.528 31.9336 30.027 29.5703C29.7064 28.0583 29.0537 26.5969 28.2921 25.1805C25.8801 20.6968 22.588 16.8714 19.1445 13.2004C16.1256 9.98242 12.9418 6.93854 10.6312 3.09488C10.1825 2.34894 9.92303 2.34028 9.56051 2.99193C8.53027 4.84656 8.49036 6.96349 9.27093 9.27143C10.2381 12.1339 11.913 14.7012 13.5954 17.22C17.9015 23.6677 23.1368 29.1172 29.4938 33.2739C29.9661 33.5825 30.4566 33.8633 29.8547 34.4875C31.3006 34.7648 32.5538 35.3753 33.8784 35.8795ZM104.361 49.1118C104.176 49.0456 104.081 48.9862 103.994 48.9837C99.5833 48.8527 95.232 48.9692 91.1509 50.1137C86.5439 51.4058 82.7171 53.7975 80.2161 57.9728C78.8179 60.3056 78.2987 63.0333 78.5113 66.0496C78.578 66.9875 78.6411 67.0247 79.4363 66.7055C80.1068 66.436 80.8121 66.2155 81.4185 65.8452C85.4834 63.3662 89.3419 60.5906 93.2083 57.8282C96.6082 55.3987 99.7875 52.6811 103.102 50.1394C103.51 49.8264 104.016 49.6248 104.361 49.1118ZM25.5617 33.4947C23.9527 32.7824 22.3765 32.0775 20.8532 31.1636C17.7187 29.284 14.7012 27.1496 11.6158 25.1651C10.287 24.3099 8.95221 23.9181 7.62299 24.3493C5.2782 25.1092 3.92083 26.9405 2.92086 29.1562C2.86228 29.286 2.79194 29.4367 2.9038 29.5945C3.05563 29.8081 3.23276 29.7046 3.38736 29.6778C5.29549 29.3475 7.22085 29.0675 9.10137 28.6603C11.1379 28.2204 12.8573 28.8664 14.3087 30.9118C15.1522 32.1009 16.2738 32.7079 17.5303 32.9476C20.2424 33.4656 22.8431 33.0329 25.5617 33.4947ZM39.1133 21.8024C38.1215 22.0083 37.3738 22.5373 36.6359 23.0899C35.3947 24.0198 35.215 25.4147 35.676 27.0989C35.9377 28.0546 36.3913 28.9577 36.8533 29.8486C37.5255 31.1463 38.2457 32.4246 39.0106 33.8314C39.1371 33.3775 39.0228 33.0618 38.9606 32.7558C38.6356 31.1433 38.3137 29.5321 38.1469 27.9222C37.933 25.8639 37.9137 23.8785 39.0407 22.311C39.1164 22.2052 39.2127 22.0839 39.1133 21.8011L39.1133 21.8024ZM46.7333 45.9153C44.7618 43.3588 42.6495 40.9345 40.8035 38.2801C40.7752 38.9879 41.0461 39.6494 40.9781 40.2953C40.9483 40.5751 41.19 40.7211 41.4104 40.8414C42.6769 41.536 43.6482 42.604 44.6182 43.7159C45.2849 44.4803 45.8724 45.3459 46.7333 45.9153ZM78.5782 70.7071C78.4275 70.0028 78.2746 69.3788 78.1835 68.7537C78.1045 68.2137 77.8407 68.0032 77.3424 67.9847C76.5279 67.9549 75.7087 67.9202 74.8777 67.6048C74.5 67.461 74.1189 67.34 73.7389 67.2087C73.714 67.2846 73.6879 67.3603 73.6629 67.4362C75.5428 68.0152 77.3534 68.7356 78.5782 70.7071Z" stroke="#273812" stroke-width="2" mask="url(#path-1-outside-1_1051_921)"/>
</g>
</svg>
