<svg width="126" height="559" viewBox="0 0 126 559" fill="none" xmlns="http://www.w3.org/2000/svg">
<g opacity="0.5">
<g opacity="0.3">
<mask id="path-1-outside-1_1051_980" maskUnits="userSpaceOnUse" x="-27.1952" y="458.899" width="121.294" height="100.57" fill="black">
<rect fill="white" x="-27.1952" y="458.899" width="121.294" height="100.57"/>
<path d="M65.7682 495.553C66.4867 495.222 66.9601 494.65 67.4868 494.161C69.878 491.938 72.6529 490.55 75.9669 490.231C80.1787 489.826 82.9167 491.666 84.0898 495.708C85.2191 499.599 84.312 503.065 81.9841 506.228C80.4196 508.354 78.2742 509.861 76.1708 511.406C74.7603 512.443 73.3745 513.513 71.9371 514.512C69.302 516.342 67.4428 518.795 65.8906 521.547C64.7464 523.575 63.6688 525.681 61.5498 526.965C60.7513 527.449 60.002 528.012 59.0379 528.142C58.4922 528.215 58.2275 528.581 57.9658 529.016C55.9792 532.322 54.0731 535.681 51.5014 538.6C50.7644 539.436 50.4764 540.559 49.7567 541.436C47.0033 544.79 43.2643 546.595 39.2709 547.996C33.2131 550.122 27.1868 549.287 21.234 547.404C9.97706 543.842 1.12415 537.156 -5.43477 527.339C-11.2126 518.689 -16.5201 509.795 -21.1569 500.503C-22.1978 498.417 -23.1104 496.461 -22.1506 494.151C-21.3161 492.142 -20.1328 490.379 -18.6587 488.763C-15.7568 485.58 -12.1858 483.298 -8.47289 481.213C-2.21279 477.698 4.53821 475.415 11.4938 473.62C17.0542 472.186 22.6683 470.902 28.3795 470.414C38.1473 469.58 47.9031 469.879 57.4271 472.806C59.7402 473.517 61.9597 474.445 63.987 475.788C66.793 477.648 68.015 480.261 67.7112 483.542C67.384 487.066 66.4485 490.482 65.8738 493.963C65.7923 494.457 65.5502 494.948 65.7692 495.553L65.7682 495.553ZM19.0388 473.313C17.9374 473.541 16.8363 473.77 15.7348 473.997C4.88362 476.225 -5.21683 480.058 -14.0649 486.835C-16.746 488.888 -18.3362 491.523 -19.76 494.383C-20.1817 495.231 -20.1842 496.193 -19.9647 497.121C-19.1941 500.373 -17.1284 502.613 -14.1459 503.995C-7.17743 507.225 0.227625 507.954 7.71225 507.277C15.7479 506.549 23.7245 505.338 31.5139 503.163C38.3845 501.244 45.1219 499.034 51.3726 495.565C55.8897 493.058 59.8418 489.88 63.2629 486.049C64.6897 484.45 65.0307 482.603 64.4992 480.534C63.8835 478.135 62.168 476.778 60.045 475.776C55.246 473.512 50.1483 472.337 44.9159 471.874C36.2188 471.104 27.5635 471.329 19.04 473.314L19.0388 473.313ZM-6.97402 514.663C-6.92815 514.871 -6.92222 514.976 -6.88274 515.067C-4.82636 519.75 -2.24175 524.151 0.912601 528.178C4.66025 532.964 9.25967 536.811 14.7828 539.511C15.221 539.725 16.1245 539.911 15.7931 540.55C15.5257 541.066 14.8442 540.512 14.4079 540.282C8.98753 537.43 4.27199 533.703 0.0830504 529.245C-4.41987 524.453 -7.54299 518.972 -9.25315 512.682C-9.64856 511.229 -9.70655 509.812 -9.05905 508.432C-8.74133 507.754 -8.95044 507.421 -9.66534 507.221C-11.5893 506.683 -13.4733 506.02 -15.2935 505.191C-16.0483 504.848 -16.768 504.428 -17.7389 503.919C-13.4327 511.68 -9.39895 519.247 -4.45063 526.294C-0.573061 531.815 4.02006 536.649 9.64406 540.422C13.0569 542.711 16.8483 544.189 21.031 544.399C21.2861 544.412 21.5807 544.534 21.7744 544.306C21.9289 544.123 21.7121 543.982 21.6178 543.83C20.7742 542.459 20.8099 541.527 21.772 540.257C22.5524 539.227 23.6041 538.538 24.7397 537.937C28.9015 535.734 33.4386 534.778 38.0609 534.115C40.6902 533.738 43.3081 533.918 45.9042 534.503C46.9902 534.748 48.0033 535.128 48.7001 536.062C49.0021 536.467 49.314 536.607 49.7038 536.181C51.9354 533.741 54.3641 531.447 55.8217 528.415C58.1202 523.636 59.6136 518.578 60.6458 513.397C62.4224 504.472 63.7541 495.456 66.0845 486.648C66.1205 486.51 66.166 486.349 65.8185 486.215C63.8548 488.201 61.6133 489.974 59.3701 491.749C58.8708 492.144 59.1554 492.433 59.567 492.685C60.3782 493.181 61.0834 493.796 61.6599 494.552C62.6085 495.799 62.8252 497.159 62.1376 498.544C61.5748 499.676 61.415 500.873 61.2815 502.092C61.1358 503.422 61.0741 504.766 60.8545 506.082C60.2737 509.554 60.0935 513.116 58.6087 516.39C57.9346 517.878 57.2754 519.376 56.7139 520.909C55.4835 524.267 53.8723 527.443 52.2182 530.601C52.017 530.985 51.9145 531.523 50.968 531.584C56.2067 522.348 58.4668 512.443 59.7165 501.962C58.5978 502.876 57.7316 503.68 56.7712 504.355C49.438 509.515 41.3207 513.049 32.6846 515.503C25.4776 517.552 18.14 518.736 10.6001 518.728C4.46147 518.721 -1.60219 518.474 -6.9749 514.659L-6.97402 514.663ZM26.6872 515.426C27.1586 515.303 27.6252 515.164 28.1012 515.062C36.7226 513.223 44.7373 509.921 52.252 505.424C54.8904 503.846 57.3089 501.978 59.3765 499.716C61.2996 497.611 60.8409 494.745 58.4864 493.419C57.9978 493.144 57.604 493.135 57.1381 493.444C51.2862 497.33 44.8791 500.018 38.1941 502.22C29.0436 505.233 19.6775 507.104 10.0695 507.97C4.70081 508.453 -0.661639 508.218 -6.02821 507.844C-7.41886 507.747 -7.54776 507.85 -7.74674 509.223C-8.0614 511.389 -7.17416 512.868 -4.63991 514.297C-2.03998 515.762 0.761064 516.569 3.72946 516.812C6.99242 517.079 10.2532 517.197 13.5253 517.023C17.9549 516.787 22.3611 516.412 26.686 515.425L26.6872 515.426ZM74.6832 491.318C71.6525 491.758 69.5165 493.735 67.3174 495.653C65.4088 497.318 64.7405 499.484 64.4901 501.872C64.4146 502.588 64.7452 502.812 65.4253 502.715C66.4619 502.566 67.2004 502.009 67.7872 501.18C68.7361 499.841 69.4166 498.351 70.2542 496.949C70.9309 495.817 71.7455 494.812 72.9723 494.224C74.8555 493.321 76.5507 493.835 78.1316 495.01C79.5552 496.068 79.8083 497.504 79.4503 499.113C79.1723 500.359 78.5966 501.476 77.9549 502.571C76.1031 505.735 73.2858 508.03 70.6908 510.519C67.9841 513.115 64.8867 515.284 62.3972 518.134C61.037 519.69 60.6897 521.547 60.1967 523.398C60.0757 523.853 60.297 524.19 60.7048 524.416C61.1512 524.662 61.495 524.492 61.8023 524.166C62.4984 523.427 62.973 522.54 63.4725 521.673C64.6282 519.665 65.942 517.783 67.7851 516.328C70.2385 514.39 72.6077 512.351 75.2596 510.662C76.9271 509.6 78.4415 508.328 79.8408 506.929C82.514 504.256 83.5279 500.944 83.2871 497.277C82.985 492.665 80.0799 490.46 75.4995 491.151C75.2405 491.19 74.9852 491.255 74.6851 491.317L74.6832 491.318ZM77.593 498.148C77.2486 496.466 76.0833 495.668 74.5131 495.849C72.872 496.038 71.7265 496.84 71.1026 498.36C70.6944 499.356 70.2871 500.352 69.8585 501.341C68.9223 503.497 67.2412 504.489 64.8781 504.191C64.1143 504.095 64.0815 504.536 64.0005 505.018C63.4668 508.206 62.9361 511.394 62.4099 514.584C62.3626 514.871 62.208 515.243 62.4617 515.43C62.816 515.692 63.0722 515.292 63.3232 515.115C66.591 512.812 69.4527 510.031 72.5138 507.484C74.7339 505.638 76.2328 503.382 77.2282 500.723C77.5643 499.827 77.7021 498.938 77.5928 498.147L77.593 498.148ZM37.2686 536.292C34.1633 536.993 31.1004 537.821 28.1874 539.113C26.6453 539.796 25.1692 540.569 23.9424 541.751C23.4495 542.225 23.4631 542.584 23.9729 543.038C24.6603 543.651 25.4485 543.886 26.3478 543.895C31.5291 543.95 36.6044 543.504 41.3696 541.289C43.4295 540.331 45.6193 539.636 47.4696 538.274C48.3436 537.63 48.3525 536.98 47.5252 536.277C46.947 535.786 46.2429 535.673 45.5265 535.614C42.7314 535.386 39.984 535.669 37.2682 536.29L37.2686 536.292ZM25.8392 546.923C31.0196 548.514 40.6584 546.28 42.7401 543.965C37.2779 545.718 31.6573 546.83 25.8392 546.923Z"/>
</mask>
<path d="M65.7682 495.553C66.4867 495.222 66.9601 494.65 67.4868 494.161C69.878 491.938 72.6529 490.55 75.9669 490.231C80.1787 489.826 82.9167 491.666 84.0898 495.708C85.2191 499.599 84.312 503.065 81.9841 506.228C80.4196 508.354 78.2742 509.861 76.1708 511.406C74.7603 512.443 73.3745 513.513 71.9371 514.512C69.302 516.342 67.4428 518.795 65.8906 521.547C64.7464 523.575 63.6688 525.681 61.5498 526.965C60.7513 527.449 60.002 528.012 59.0379 528.142C58.4922 528.215 58.2275 528.581 57.9658 529.016C55.9792 532.322 54.0731 535.681 51.5014 538.6C50.7644 539.436 50.4764 540.559 49.7567 541.436C47.0033 544.79 43.2643 546.595 39.2709 547.996C33.2131 550.122 27.1868 549.287 21.234 547.404C9.97706 543.842 1.12415 537.156 -5.43477 527.339C-11.2126 518.689 -16.5201 509.795 -21.1569 500.503C-22.1978 498.417 -23.1104 496.461 -22.1506 494.151C-21.3161 492.142 -20.1328 490.379 -18.6587 488.763C-15.7568 485.58 -12.1858 483.298 -8.47289 481.213C-2.21279 477.698 4.53821 475.415 11.4938 473.62C17.0542 472.186 22.6683 470.902 28.3795 470.414C38.1473 469.58 47.9031 469.879 57.4271 472.806C59.7402 473.517 61.9597 474.445 63.987 475.788C66.793 477.648 68.015 480.261 67.7112 483.542C67.384 487.066 66.4485 490.482 65.8738 493.963C65.7923 494.457 65.5502 494.948 65.7692 495.553L65.7682 495.553ZM19.0388 473.313C17.9374 473.541 16.8363 473.77 15.7348 473.997C4.88362 476.225 -5.21683 480.058 -14.0649 486.835C-16.746 488.888 -18.3362 491.523 -19.76 494.383C-20.1817 495.231 -20.1842 496.193 -19.9647 497.121C-19.1941 500.373 -17.1284 502.613 -14.1459 503.995C-7.17743 507.225 0.227625 507.954 7.71225 507.277C15.7479 506.549 23.7245 505.338 31.5139 503.163C38.3845 501.244 45.1219 499.034 51.3726 495.565C55.8897 493.058 59.8418 489.88 63.2629 486.049C64.6897 484.45 65.0307 482.603 64.4992 480.534C63.8835 478.135 62.168 476.778 60.045 475.776C55.246 473.512 50.1483 472.337 44.9159 471.874C36.2188 471.104 27.5635 471.329 19.04 473.314L19.0388 473.313ZM-6.97402 514.663C-6.92815 514.871 -6.92222 514.976 -6.88274 515.067C-4.82636 519.75 -2.24175 524.151 0.912601 528.178C4.66025 532.964 9.25967 536.811 14.7828 539.511C15.221 539.725 16.1245 539.911 15.7931 540.55C15.5257 541.066 14.8442 540.512 14.4079 540.282C8.98753 537.43 4.27199 533.703 0.0830504 529.245C-4.41987 524.453 -7.54299 518.972 -9.25315 512.682C-9.64856 511.229 -9.70655 509.812 -9.05905 508.432C-8.74133 507.754 -8.95044 507.421 -9.66534 507.221C-11.5893 506.683 -13.4733 506.02 -15.2935 505.191C-16.0483 504.848 -16.768 504.428 -17.7389 503.919C-13.4327 511.68 -9.39895 519.247 -4.45063 526.294C-0.573061 531.815 4.02006 536.649 9.64406 540.422C13.0569 542.711 16.8483 544.189 21.031 544.399C21.2861 544.412 21.5807 544.534 21.7744 544.306C21.9289 544.123 21.7121 543.982 21.6178 543.83C20.7742 542.459 20.8099 541.527 21.772 540.257C22.5524 539.227 23.6041 538.538 24.7397 537.937C28.9015 535.734 33.4386 534.778 38.0609 534.115C40.6902 533.738 43.3081 533.918 45.9042 534.503C46.9902 534.748 48.0033 535.128 48.7001 536.062C49.0021 536.467 49.314 536.607 49.7038 536.181C51.9354 533.741 54.3641 531.447 55.8217 528.415C58.1202 523.636 59.6136 518.578 60.6458 513.397C62.4224 504.472 63.7541 495.456 66.0845 486.648C66.1205 486.51 66.166 486.349 65.8185 486.215C63.8548 488.201 61.6133 489.974 59.3701 491.749C58.8708 492.144 59.1554 492.433 59.567 492.685C60.3782 493.181 61.0834 493.796 61.6599 494.552C62.6085 495.799 62.8252 497.159 62.1376 498.544C61.5748 499.676 61.415 500.873 61.2815 502.092C61.1358 503.422 61.0741 504.766 60.8545 506.082C60.2737 509.554 60.0935 513.116 58.6087 516.39C57.9346 517.878 57.2754 519.376 56.7139 520.909C55.4835 524.267 53.8723 527.443 52.2182 530.601C52.017 530.985 51.9145 531.523 50.968 531.584C56.2067 522.348 58.4668 512.443 59.7165 501.962C58.5978 502.876 57.7316 503.68 56.7712 504.355C49.438 509.515 41.3207 513.049 32.6846 515.503C25.4776 517.552 18.14 518.736 10.6001 518.728C4.46147 518.721 -1.60219 518.474 -6.9749 514.659L-6.97402 514.663ZM26.6872 515.426C27.1586 515.303 27.6252 515.164 28.1012 515.062C36.7226 513.223 44.7373 509.921 52.252 505.424C54.8904 503.846 57.3089 501.978 59.3765 499.716C61.2996 497.611 60.8409 494.745 58.4864 493.419C57.9978 493.144 57.604 493.135 57.1381 493.444C51.2862 497.33 44.8791 500.018 38.1941 502.22C29.0436 505.233 19.6775 507.104 10.0695 507.97C4.70081 508.453 -0.661639 508.218 -6.02821 507.844C-7.41886 507.747 -7.54776 507.85 -7.74674 509.223C-8.0614 511.389 -7.17416 512.868 -4.63991 514.297C-2.03998 515.762 0.761064 516.569 3.72946 516.812C6.99242 517.079 10.2532 517.197 13.5253 517.023C17.9549 516.787 22.3611 516.412 26.686 515.425L26.6872 515.426ZM74.6832 491.318C71.6525 491.758 69.5165 493.735 67.3174 495.653C65.4088 497.318 64.7405 499.484 64.4901 501.872C64.4146 502.588 64.7452 502.812 65.4253 502.715C66.4619 502.566 67.2004 502.009 67.7872 501.18C68.7361 499.841 69.4166 498.351 70.2542 496.949C70.9309 495.817 71.7455 494.812 72.9723 494.224C74.8555 493.321 76.5507 493.835 78.1316 495.01C79.5552 496.068 79.8083 497.504 79.4503 499.113C79.1723 500.359 78.5966 501.476 77.9549 502.571C76.1031 505.735 73.2858 508.03 70.6908 510.519C67.9841 513.115 64.8867 515.284 62.3972 518.134C61.037 519.69 60.6897 521.547 60.1967 523.398C60.0757 523.853 60.297 524.19 60.7048 524.416C61.1512 524.662 61.495 524.492 61.8023 524.166C62.4984 523.427 62.973 522.54 63.4725 521.673C64.6282 519.665 65.942 517.783 67.7851 516.328C70.2385 514.39 72.6077 512.351 75.2596 510.662C76.9271 509.6 78.4415 508.328 79.8408 506.929C82.514 504.256 83.5279 500.944 83.2871 497.277C82.985 492.665 80.0799 490.46 75.4995 491.151C75.2405 491.19 74.9852 491.255 74.6851 491.317L74.6832 491.318ZM77.593 498.148C77.2486 496.466 76.0833 495.668 74.5131 495.849C72.872 496.038 71.7265 496.84 71.1026 498.36C70.6944 499.356 70.2871 500.352 69.8585 501.341C68.9223 503.497 67.2412 504.489 64.8781 504.191C64.1143 504.095 64.0815 504.536 64.0005 505.018C63.4668 508.206 62.9361 511.394 62.4099 514.584C62.3626 514.871 62.208 515.243 62.4617 515.43C62.816 515.692 63.0722 515.292 63.3232 515.115C66.591 512.812 69.4527 510.031 72.5138 507.484C74.7339 505.638 76.2328 503.382 77.2282 500.723C77.5643 499.827 77.7021 498.938 77.5928 498.147L77.593 498.148ZM37.2686 536.292C34.1633 536.993 31.1004 537.821 28.1874 539.113C26.6453 539.796 25.1692 540.569 23.9424 541.751C23.4495 542.225 23.4631 542.584 23.9729 543.038C24.6603 543.651 25.4485 543.886 26.3478 543.895C31.5291 543.95 36.6044 543.504 41.3696 541.289C43.4295 540.331 45.6193 539.636 47.4696 538.274C48.3436 537.63 48.3525 536.98 47.5252 536.277C46.947 535.786 46.2429 535.673 45.5265 535.614C42.7314 535.386 39.984 535.669 37.2682 536.29L37.2686 536.292ZM25.8392 546.923C31.0196 548.514 40.6584 546.28 42.7401 543.965C37.2779 545.718 31.6573 546.83 25.8392 546.923Z" fill="#273812"/>
<path d="M65.7682 495.553C66.4867 495.222 66.9601 494.65 67.4868 494.161C69.878 491.938 72.6529 490.55 75.9669 490.231C80.1787 489.826 82.9167 491.666 84.0898 495.708C85.2191 499.599 84.312 503.065 81.9841 506.228C80.4196 508.354 78.2742 509.861 76.1708 511.406C74.7603 512.443 73.3745 513.513 71.9371 514.512C69.302 516.342 67.4428 518.795 65.8906 521.547C64.7464 523.575 63.6688 525.681 61.5498 526.965C60.7513 527.449 60.002 528.012 59.0379 528.142C58.4922 528.215 58.2275 528.581 57.9658 529.016C55.9792 532.322 54.0731 535.681 51.5014 538.6C50.7644 539.436 50.4764 540.559 49.7567 541.436C47.0033 544.79 43.2643 546.595 39.2709 547.996C33.2131 550.122 27.1868 549.287 21.234 547.404C9.97706 543.842 1.12415 537.156 -5.43477 527.339C-11.2126 518.689 -16.5201 509.795 -21.1569 500.503C-22.1978 498.417 -23.1104 496.461 -22.1506 494.151C-21.3161 492.142 -20.1328 490.379 -18.6587 488.763C-15.7568 485.58 -12.1858 483.298 -8.47289 481.213C-2.21279 477.698 4.53821 475.415 11.4938 473.62C17.0542 472.186 22.6683 470.902 28.3795 470.414C38.1473 469.58 47.9031 469.879 57.4271 472.806C59.7402 473.517 61.9597 474.445 63.987 475.788C66.793 477.648 68.015 480.261 67.7112 483.542C67.384 487.066 66.4485 490.482 65.8738 493.963C65.7923 494.457 65.5502 494.948 65.7692 495.553L65.7682 495.553ZM19.0388 473.313C17.9374 473.541 16.8363 473.77 15.7348 473.997C4.88362 476.225 -5.21683 480.058 -14.0649 486.835C-16.746 488.888 -18.3362 491.523 -19.76 494.383C-20.1817 495.231 -20.1842 496.193 -19.9647 497.121C-19.1941 500.373 -17.1284 502.613 -14.1459 503.995C-7.17743 507.225 0.227625 507.954 7.71225 507.277C15.7479 506.549 23.7245 505.338 31.5139 503.163C38.3845 501.244 45.1219 499.034 51.3726 495.565C55.8897 493.058 59.8418 489.88 63.2629 486.049C64.6897 484.45 65.0307 482.603 64.4992 480.534C63.8835 478.135 62.168 476.778 60.045 475.776C55.246 473.512 50.1483 472.337 44.9159 471.874C36.2188 471.104 27.5635 471.329 19.04 473.314L19.0388 473.313ZM-6.97402 514.663C-6.92815 514.871 -6.92222 514.976 -6.88274 515.067C-4.82636 519.75 -2.24175 524.151 0.912601 528.178C4.66025 532.964 9.25967 536.811 14.7828 539.511C15.221 539.725 16.1245 539.911 15.7931 540.55C15.5257 541.066 14.8442 540.512 14.4079 540.282C8.98753 537.43 4.27199 533.703 0.0830504 529.245C-4.41987 524.453 -7.54299 518.972 -9.25315 512.682C-9.64856 511.229 -9.70655 509.812 -9.05905 508.432C-8.74133 507.754 -8.95044 507.421 -9.66534 507.221C-11.5893 506.683 -13.4733 506.02 -15.2935 505.191C-16.0483 504.848 -16.768 504.428 -17.7389 503.919C-13.4327 511.68 -9.39895 519.247 -4.45063 526.294C-0.573061 531.815 4.02006 536.649 9.64406 540.422C13.0569 542.711 16.8483 544.189 21.031 544.399C21.2861 544.412 21.5807 544.534 21.7744 544.306C21.9289 544.123 21.7121 543.982 21.6178 543.83C20.7742 542.459 20.8099 541.527 21.772 540.257C22.5524 539.227 23.6041 538.538 24.7397 537.937C28.9015 535.734 33.4386 534.778 38.0609 534.115C40.6902 533.738 43.3081 533.918 45.9042 534.503C46.9902 534.748 48.0033 535.128 48.7001 536.062C49.0021 536.467 49.314 536.607 49.7038 536.181C51.9354 533.741 54.3641 531.447 55.8217 528.415C58.1202 523.636 59.6136 518.578 60.6458 513.397C62.4224 504.472 63.7541 495.456 66.0845 486.648C66.1205 486.51 66.166 486.349 65.8185 486.215C63.8548 488.201 61.6133 489.974 59.3701 491.749C58.8708 492.144 59.1554 492.433 59.567 492.685C60.3782 493.181 61.0834 493.796 61.6599 494.552C62.6085 495.799 62.8252 497.159 62.1376 498.544C61.5748 499.676 61.415 500.873 61.2815 502.092C61.1358 503.422 61.0741 504.766 60.8545 506.082C60.2737 509.554 60.0935 513.116 58.6087 516.39C57.9346 517.878 57.2754 519.376 56.7139 520.909C55.4835 524.267 53.8723 527.443 52.2182 530.601C52.017 530.985 51.9145 531.523 50.968 531.584C56.2067 522.348 58.4668 512.443 59.7165 501.962C58.5978 502.876 57.7316 503.68 56.7712 504.355C49.438 509.515 41.3207 513.049 32.6846 515.503C25.4776 517.552 18.14 518.736 10.6001 518.728C4.46147 518.721 -1.60219 518.474 -6.9749 514.659L-6.97402 514.663ZM26.6872 515.426C27.1586 515.303 27.6252 515.164 28.1012 515.062C36.7226 513.223 44.7373 509.921 52.252 505.424C54.8904 503.846 57.3089 501.978 59.3765 499.716C61.2996 497.611 60.8409 494.745 58.4864 493.419C57.9978 493.144 57.604 493.135 57.1381 493.444C51.2862 497.33 44.8791 500.018 38.1941 502.22C29.0436 505.233 19.6775 507.104 10.0695 507.97C4.70081 508.453 -0.661639 508.218 -6.02821 507.844C-7.41886 507.747 -7.54776 507.85 -7.74674 509.223C-8.0614 511.389 -7.17416 512.868 -4.63991 514.297C-2.03998 515.762 0.761064 516.569 3.72946 516.812C6.99242 517.079 10.2532 517.197 13.5253 517.023C17.9549 516.787 22.3611 516.412 26.686 515.425L26.6872 515.426ZM74.6832 491.318C71.6525 491.758 69.5165 493.735 67.3174 495.653C65.4088 497.318 64.7405 499.484 64.4901 501.872C64.4146 502.588 64.7452 502.812 65.4253 502.715C66.4619 502.566 67.2004 502.009 67.7872 501.18C68.7361 499.841 69.4166 498.351 70.2542 496.949C70.9309 495.817 71.7455 494.812 72.9723 494.224C74.8555 493.321 76.5507 493.835 78.1316 495.01C79.5552 496.068 79.8083 497.504 79.4503 499.113C79.1723 500.359 78.5966 501.476 77.9549 502.571C76.1031 505.735 73.2858 508.03 70.6908 510.519C67.9841 513.115 64.8867 515.284 62.3972 518.134C61.037 519.69 60.6897 521.547 60.1967 523.398C60.0757 523.853 60.297 524.19 60.7048 524.416C61.1512 524.662 61.495 524.492 61.8023 524.166C62.4984 523.427 62.973 522.54 63.4725 521.673C64.6282 519.665 65.942 517.783 67.7851 516.328C70.2385 514.39 72.6077 512.351 75.2596 510.662C76.9271 509.6 78.4415 508.328 79.8408 506.929C82.514 504.256 83.5279 500.944 83.2871 497.277C82.985 492.665 80.0799 490.46 75.4995 491.151C75.2405 491.19 74.9852 491.255 74.6851 491.317L74.6832 491.318ZM77.593 498.148C77.2486 496.466 76.0833 495.668 74.5131 495.849C72.872 496.038 71.7265 496.84 71.1026 498.36C70.6944 499.356 70.2871 500.352 69.8585 501.341C68.9223 503.497 67.2412 504.489 64.8781 504.191C64.1143 504.095 64.0815 504.536 64.0005 505.018C63.4668 508.206 62.9361 511.394 62.4099 514.584C62.3626 514.871 62.208 515.243 62.4617 515.43C62.816 515.692 63.0722 515.292 63.3232 515.115C66.591 512.812 69.4527 510.031 72.5138 507.484C74.7339 505.638 76.2328 503.382 77.2282 500.723C77.5643 499.827 77.7021 498.938 77.5928 498.147L77.593 498.148ZM37.2686 536.292C34.1633 536.993 31.1004 537.821 28.1874 539.113C26.6453 539.796 25.1692 540.569 23.9424 541.751C23.4495 542.225 23.4631 542.584 23.9729 543.038C24.6603 543.651 25.4485 543.886 26.3478 543.895C31.5291 543.95 36.6044 543.504 41.3696 541.289C43.4295 540.331 45.6193 539.636 47.4696 538.274C48.3436 537.63 48.3525 536.98 47.5252 536.277C46.947 535.786 46.2429 535.673 45.5265 535.614C42.7314 535.386 39.984 535.669 37.2682 536.29L37.2686 536.292ZM25.8392 546.923C31.0196 548.514 40.6584 546.28 42.7401 543.965C37.2779 545.718 31.6573 546.83 25.8392 546.923Z" stroke="#273812" mask="url(#path-1-outside-1_1051_980)"/>
<path d="M19.6629 497.324L19.8446 497.497C19.8446 497.498 19.8445 497.498 19.8444 497.498C19.2161 498.148 18.4095 498.49 17.6393 498.78L17.6393 498.78C14.1372 500.1 10.6567 501.417 7.3769 503.182L7.37682 503.182C7.28591 503.231 7.1957 503.278 7.10626 503.324C6.75646 503.506 6.41833 503.682 6.09507 503.944C22.9706 504.681 37.9624 499.389 52.5591 491.576C52.5578 491.575 52.5566 491.574 52.5554 491.573C52.5355 491.562 52.5175 491.551 52.5013 491.541C52.4052 491.485 52.3914 491.482 52.3861 491.481L52.3848 491.48C48.3819 490.549 44.3139 490.151 40.2523 490.446C32.1986 491.029 24.3022 492.445 16.6234 494.936C10.3448 496.973 4.24135 499.312 -1.29071 502.889C-1.38989 502.953 -1.48276 503.003 -1.56837 503.048C-1.74785 503.144 -1.89541 503.223 -2.00231 503.385M19.6629 497.324C19.991 496.985 20.2258 496.614 20.041 496.126C19.8474 495.617 19.4017 495.48 18.9324 495.56L18.8868 495.315C18.8868 495.315 18.8868 495.315 18.8868 495.315C14.4501 496.075 9.96711 496.913 6.00516 499.255C4.45235 500.172 3.00951 501.444 2.58367 503.445M19.6629 497.324C19.0761 497.931 18.3166 498.257 17.5479 498.547M19.6629 497.324L17.5479 498.547M2.58367 503.445C2.58367 503.445 2.58367 503.445 2.58367 503.445L2.82896 503.5L2.58367 503.445ZM2.58367 503.445C2.55009 503.603 2.49123 503.695 2.42901 503.746C2.37066 503.794 2.28291 503.826 2.14035 503.813L2.14013 503.813C1.07426 503.711 0.0102581 503.598 -1.07105 503.483C-1.37991 503.45 -1.69018 503.418 -2.00231 503.385M-2.00231 503.385C-2.09266 503.375 -2.18316 503.366 -2.27383 503.356L2.11922 504.061C1.0519 503.959 -0.0141448 503.846 -1.09601 503.731C-1.43227 503.695 -1.77008 503.659 -2.10992 503.624C-2.08084 503.527 -2.04478 503.449 -2.00231 503.385ZM17.5479 498.547C14.048 499.866 10.5522 501.189 7.2555 502.962L17.5479 498.547ZM14.938 477.155C15.1482 477.07 15.3424 476.925 15.4665 476.664L15.9909 476.555L15.4054 476.229C14.7675 475.874 14.1274 476.037 13.6245 476.165L13.5946 476.173C13.5946 476.173 13.5946 476.173 13.5946 476.173C12.9073 476.347 12.2152 476.515 11.5215 476.683C9.66336 477.134 7.7941 477.587 5.97681 478.179L5.97678 478.179C-1.84913 480.731 -9.30955 484.035 -15.3389 489.854L-15.3389 489.854C-17.3936 491.838 -18.3613 493.948 -18.1772 496.007C-17.9931 498.066 -16.6634 500.002 -14.279 501.648L-14.2782 501.649L-14.2749 501.651C-14.2455 501.671 -14.2055 501.698 -14.1621 501.722L-14.1599 501.724C-10.2358 503.846 -6.13996 505.573 -1.52936 505.524L-1.52933 505.524C-0.0813367 505.508 1.36947 505.509 2.8219 505.509C6.5543 505.51 10.2974 505.511 14.0311 505.241L14.0312 505.241C19.2666 504.862 24.4504 504.123 29.4555 502.556C35.5172 500.659 41.5875 498.742 47.3705 495.983C47.6206 495.864 47.8708 495.745 48.121 495.626C51.3111 494.107 54.5043 492.586 57.5184 490.72C60.4006 488.935 62.5499 486.51 63.6512 483.245C64.2054 481.602 63.7168 480.057 62.8271 478.834C61.9407 477.616 60.6411 476.692 59.5077 476.265C59.5076 476.265 59.5076 476.265 59.5076 476.265L59.5019 476.263C59.4214 476.233 59.2946 476.185 59.1631 476.177C59.011 476.167 58.8415 476.209 58.7097 476.363L58.7095 476.363C58.5831 476.511 58.5601 476.682 58.5849 476.83C58.6083 476.969 58.6734 477.092 58.7301 477.18L58.7305 477.181C59.0569 477.686 59.3963 478.188 59.7539 478.675C60.4446 479.618 60.8522 480.536 60.9347 481.465C61.0169 482.391 60.7787 483.355 60.1306 484.395C58.8035 486.524 57.1983 488.314 55.1493 489.749C54.4674 490.226 53.8516 490.399 53.0554 490.189C45.8842 488.286 38.6964 488.562 31.4795 489.552C25.5245 490.368 19.8551 492.138 14.2027 493.903C13.9321 493.987 13.6614 494.072 13.3908 494.156C7.29969 496.056 1.56507 498.721 -3.76507 502.203C-4.37162 502.599 -4.8766 502.906 -5.54719 502.738L-5.60571 502.979L-5.5472 502.738C-8.47029 502.004 -11.2258 500.9 -13.731 499.231L-13.7312 499.231C-14.2598 498.879 -14.675 498.385 -15.0894 497.848L-15.0894 497.848C-15.5679 497.228 -15.849 496.619 -15.9102 496.012C-15.9709 495.408 -15.8176 494.78 -15.3802 494.114L-15.3802 494.114C-15.1955 493.833 -15.0205 493.543 -14.8485 493.257C-14.7901 493.161 -14.7321 493.064 -14.6742 492.969C-14.4435 492.59 -14.211 492.224 -13.9499 491.882C-11.1373 488.202 -7.32312 485.765 -3.21327 483.668L-3.21325 483.668C2.1698 480.92 7.94902 479.207 13.7538 477.487C13.947 477.429 14.1402 477.372 14.3335 477.315L14.3336 477.315C14.3962 477.296 14.4609 477.282 14.5374 477.266C14.5591 477.261 14.5817 477.256 14.6055 477.251C14.7067 477.229 14.8237 477.201 14.938 477.155ZM15.7187 497.524L5.72132 502.205C8.50941 499.315 12.0861 498.412 15.7187 497.524Z" fill="#273812" stroke="#273812" stroke-width="0.5"/>
<path d="M80.7131 495.555L80.7131 495.555C81.2073 495.796 81.695 495.695 82.01 495.358C82.3144 495.032 82.428 494.519 82.2899 493.976L82.2854 493.956L82.276 493.934C81.7726 492.764 80.7292 492.056 79.6255 491.507C78.9094 491.151 78.1062 490.934 77.2602 491.264L77.2601 491.264C76.8144 491.439 76.495 491.773 76.3936 492.159C76.2885 492.56 76.4293 492.982 76.8344 493.259L76.8345 493.259C78.0683 494.105 79.3618 494.897 80.7131 495.555Z" fill="#273812" stroke="#273812" stroke-width="0.5"/>
</g>
<g opacity="0.3">
<mask id="path-4-outside-2_1051_980" maskUnits="userSpaceOnUse" x="-49.0202" y="238.348" width="150.594" height="160.741" fill="black">
<rect fill="white" x="-49.0202" y="238.348" width="150.594" height="160.741"/>
<path d="M21.0221 321.815C21.8917 320.856 22.7134 320.019 23.4598 319.115C26.3029 315.673 29.1303 312.228 30.3738 307.864C31.2429 304.815 31.3294 301.885 30.993 298.995C30.6612 296.149 29.8992 293.486 29.2502 290.775C29.0474 289.928 28.7036 289.193 28.1144 288.621C27.445 287.972 27.0095 288.096 26.6007 289.121C25.3077 292.367 24.028 295.616 22.7435 298.865C21.1782 302.823 19.4673 306.742 18.0802 310.749C17.4009 312.71 16.8475 314.678 16.8129 316.662C16.7737 318.891 17.205 320.868 18.8274 322.152C19.3124 322.536 18.8208 322.831 18.5626 323.074C16.9045 324.638 15.2439 326.199 13.5599 327.727C11.5941 329.513 9.69137 331.397 7.47361 332.802C6.25979 333.571 5.00921 333.905 3.71922 334.002C3.16588 334.045 3.2059 333.68 3.23657 333.27C3.37793 331.361 3.28169 329.52 2.76841 327.803C1.55204 323.734 -0.895388 320.831 -4.30744 318.828C-8.30172 316.484 -12.9099 315.829 -17.7191 315.722C-19.8536 315.675 -21.9945 315.66 -24.1719 315.883C-24.4505 315.912 -24.8094 315.822 -24.9919 316.177C-25.2138 316.608 -24.824 316.755 -24.628 316.93C-23.8659 317.61 -23.0958 318.284 -22.278 318.893C-18.7481 321.521 -15.253 324.2 -11.6427 326.715C-8.11108 329.176 -4.59027 331.664 -0.738718 333.647C-0.0101316 334.022 0.712992 334.424 1.5657 334.528C2.22033 334.607 2.27725 334.993 2.14429 335.643C1.53197 338.638 0.24729 341.448 -1.20505 344.217C-2.04367 345.816 -3.17063 347.226 -4.23574 348.677C-4.36673 348.856 -4.50697 349.029 -4.62933 349.213C-4.76414 349.417 -4.96464 349.663 -4.76886 349.843C-4.56049 350.035 -4.28062 349.853 -4.10819 349.643C-3.56548 348.982 -3.0442 348.3 -2.53023 347.616C-2.06951 347.003 -1.62937 346.373 -1.13666 345.691C-1.19195 346.155 -1.48917 346.48 -1.69759 346.84C-1.8963 347.183 -2.32722 347.585 -2.07083 347.901C-1.82282 348.207 -1.38171 347.836 -1.04649 347.656C-0.0437043 347.116 0.940726 346.52 1.94875 345.998C6.90258 343.436 11.9266 342.203 17.0082 342.171C17.2445 342.17 17.5715 342.107 17.6334 342.362C17.7055 342.656 17.359 342.797 17.165 342.965C13.8201 345.857 10.1392 347.093 6.28157 347.442C4.60054 347.594 2.95009 347.509 1.2471 347.807C-1.28743 348.25 -3.586 349.577 -5.80556 351.128C-9.29584 353.565 -12.4412 356.513 -15.4811 359.602C-17.1227 361.27 -18.7268 362.977 -20.2732 364.745C-20.3992 364.889 -20.5308 365.037 -20.6247 365.202C-20.7218 365.371 -20.7697 365.56 -20.6195 365.693C-20.4819 365.816 -20.3094 365.811 -20.1489 365.687C-19.9584 365.54 -19.7784 365.365 -19.6157 365.181C-15.845 360.943 -11.8996 356.91 -7.52921 353.404C-5.01174 351.385 -2.40201 349.562 0.581962 348.797C1.86959 348.466 3.1275 348.417 4.37987 348.422C7.66889 348.438 10.9171 347.632 14.1322 346.006C15.8028 345.161 17.2932 343.99 18.6599 342.607C18.9261 342.337 19.2605 342.008 19.1853 341.634C19.1018 341.221 18.6479 341.345 18.3333 341.338C12.2259 341.194 6.20329 342.619 0.292686 346.035C0.131527 346.129 -0.0310212 346.219 -0.19511 346.303C-0.237697 346.326 -0.289213 346.319 -0.346315 346.327C-0.508567 346.131 -0.317523 345.944 -0.220177 345.769C1.02338 343.518 2.14225 341.23 2.94665 338.82C3.39979 337.463 4.15229 336.184 5.52588 335.706C7.9951 334.847 10.0352 333.16 12.0476 331.369C13.356 330.204 14.6669 329.043 15.9863 327.894C17.3006 326.749 18.3963 326.708 19.4145 327.748C19.9099 328.253 20.3856 328.786 20.7223 329.432C22.1248 332.129 24.3673 333.889 26.7841 335.441C29.2467 337.021 31.8661 338.35 34.5162 339.617C41.5949 343 48.9847 345.76 56.423 348.421C56.7018 348.521 57.0251 348.679 57.3056 348.343C57.5856 348.008 57.3948 347.696 57.2469 347.433C54.3151 342.22 51.6724 336.791 48.5992 331.683C46.1874 327.674 42.7184 325.052 38.3523 323.57C34.6425 322.31 30.7317 321.724 26.6712 321.584C26.2653 321.571 25.6219 321.791 25.5433 321.303C25.4599 320.786 26.1219 320.578 26.4771 320.288C30.0738 317.368 33.2717 314.007 36.2654 310.388C37.7618 308.579 39.6138 307.312 41.7085 306.66C43.1201 306.221 43.8253 306.757 43.6889 308.281C43.4266 311.211 43.7712 313.888 45.0299 316.234C46.473 318.924 48.5836 320.839 51.2649 322.091C56.661 324.613 62.6706 325.186 68.9088 325.021C70.1653 324.988 71.4356 324.869 72.7008 324.782C72.9178 324.767 73.1415 324.734 73.3593 324.674C73.5538 324.619 73.77 324.522 73.846 324.29C73.9451 323.988 73.7162 323.898 73.544 323.801C72.1987 323.044 70.8523 322.29 69.4999 321.545C65.9838 319.608 62.896 317.167 60.6874 313.656C58.9054 310.824 56.3068 309.039 53.2132 307.958C50.2422 306.92 47.2344 305.961 44.242 304.97C44.0656 304.912 43.8548 304.883 43.8524 304.641C43.8492 304.328 44.1069 304.171 44.3273 304.026C45.5076 303.245 46.7803 302.845 48.0295 302.333C51.7342 300.817 55.4032 300.578 59.0776 300.369C59.8784 300.323 60.6851 300.247 61.4918 300.133C62.9715 299.923 64.2268 299.124 65.2757 297.825C65.571 297.459 65.894 297.117 66.1955 296.756C66.921 295.889 67.7783 295.514 68.712 295.641C71.3019 295.995 73.8834 296.377 76.464 296.762C76.9639 296.836 77.2927 296.707 77.1257 296.113C76.3631 293.401 75.0997 291.104 72.5973 289.987C70.8862 289.224 69.0118 289.457 67.1614 290.674C64.3102 292.549 61.4913 294.495 58.6627 296.42C56.7504 297.722 54.7355 298.647 52.6594 299.361C52.4657 299.428 52.2272 299.528 52.1277 299.33C52.0142 299.105 52.2771 299.024 52.4119 298.927C55.2433 296.894 57.7729 294.453 60.1385 291.815C63.8393 287.687 66.9389 283.159 69.2594 278.139C70.1996 276.105 70.7595 274.057 70.5646 271.973C70.4224 270.448 69.8635 269.187 68.9304 268.171C68.422 267.618 68.1931 267.653 67.7748 268.426C65.6791 272.297 62.7931 275.514 59.8077 278.669C57.6852 280.911 55.6523 283.248 53.8088 285.749C51.1752 289.324 49.1616 293.14 48.1872 297.359C47.8788 298.694 47.1987 299.885 46.1276 300.753C44.0629 302.427 41.9429 304.012 39.7358 305.718C39.7739 304.236 40.0447 302.967 40.821 301.707C42.1289 299.585 43.2772 297.38 44.1496 295.082C45.5232 291.465 44.5371 289.011 41.3938 288.089C40.2561 287.754 39.0425 287.674 37.799 287.736C37.5202 287.75 37.1518 287.758 37.0725 288.19C37.0008 288.58 37.3501 288.57 37.591 288.615C39.6638 288.992 40.4635 290.536 40.6299 292.65C40.7119 293.687 40.5826 294.757 40.4226 295.828C40.1315 297.784 39.8375 299.741 39.5665 301.697C39.4767 302.344 39.2696 302.957 38.8896 303.51C36.6802 306.728 34.5001 309.969 31.8682 312.864C29.1305 315.874 26.2362 318.683 23.0188 321.067C22.4501 321.488 21.857 321.948 21.0233 321.816L21.0221 321.815ZM55.9432 347.259C54.8043 346.838 53.7417 346.43 52.6664 346.049C47.3435 344.159 42.1466 342.02 37.0325 339.712C33.8085 338.256 30.6619 336.669 27.7077 334.762C25.9557 333.631 24.2575 332.417 22.8337 330.856C21.9219 329.857 21.4311 328.487 20.5094 327.501C19.6398 326.57 18.7005 325.731 17.1286 326.268C16.9564 326.327 16.7681 326.347 16.7006 326.147C16.6192 325.904 16.8225 325.761 16.981 325.615C17.8852 324.776 18.7913 323.939 19.6968 323.101C19.884 322.928 20.0927 322.816 20.3202 322.787C21.9002 322.594 23.4605 322.148 25.0626 322.298C27.9872 322.57 30.9482 322.689 33.786 323.279C36.9777 323.944 39.9523 325.031 42.6144 326.786C45.3383 328.58 47.3276 331.111 48.9469 334.002C51.24 338.099 53.4576 342.252 55.7024 346.384C55.8229 346.605 55.9726 346.819 55.942 347.26L55.9432 347.259ZM71.5032 323.898C71.0841 324.202 70.8215 324.123 70.5636 324.14C67.0272 324.372 63.5503 324.285 60.1846 323.736C56.1152 323.072 52.2325 322.016 49.0337 319.479C45.8804 316.979 44.1735 313.638 44.4753 308.97C44.5254 308.197 44.5198 307.419 44.2412 306.739C43.8767 305.852 43.4385 305.621 42.4568 305.826C41.7015 305.984 40.9464 306.165 40.1866 306.337C40.8745 305.729 41.6155 305.153 42.4002 304.65C42.7116 304.45 42.9148 304.461 42.9617 304.858C43.0164 305.323 43.3147 305.539 43.706 305.683C46.0101 306.529 48.2878 307.439 50.6707 308.107C54.6641 309.226 58.0096 311.278 60.3112 314.766C61.7838 316.998 63.5997 318.813 65.7165 320.325C67.0464 321.274 68.4298 322.138 69.8714 322.916C70.4022 323.202 70.9055 323.535 71.5038 323.897L71.5032 323.898ZM26.0801 314.549C24.281 316.815 22.4841 319.098 20.5051 321.22C20.0409 321.718 19.7227 321.731 19.3162 321.397C17.9488 320.271 17.544 318.59 17.5997 316.678C17.6621 314.51 18.2665 312.345 19.0971 310.228C21.6681 303.674 24.2843 297.133 26.8945 290.589C27.0587 290.177 27.1712 289.502 27.5701 289.47C27.9737 289.437 28.0656 290.064 28.1915 290.471C29.1184 293.451 29.8893 296.492 30.2391 299.727C30.8017 304.923 29.6357 309.872 26.0807 314.548L26.0801 314.549ZM45.7107 302.43C45.7223 302.125 45.8377 302.04 45.9419 301.957C47.8512 300.433 48.9243 298.492 49.3707 296.162C49.6564 294.672 50.2692 293.224 50.9896 291.819C53.2715 287.371 56.43 283.552 59.7402 279.882C62.6421 276.665 65.7094 273.615 67.904 269.797C68.3302 269.056 68.5848 269.043 68.9532 269.676C70.0002 271.477 70.0801 273.554 69.3581 275.835C68.4636 278.664 66.8685 281.217 65.2652 283.722C61.1616 290.134 56.1264 295.585 49.9653 299.788C49.5075 300.1 49.0314 300.385 49.6343 300.986C48.2201 301.286 47.0009 301.909 45.7101 302.43L45.7107 302.43ZM-23.2311 316.775C-23.0512 316.706 -22.9586 316.646 -22.8734 316.642C-18.5459 316.429 -14.2718 316.459 -10.2431 317.505C-5.69539 318.685 -1.8925 320.959 0.643124 325.01C2.06064 327.274 2.62273 329.942 2.4719 332.907C2.42448 333.829 2.36325 333.867 1.5764 333.569C0.912985 333.317 0.216318 333.114 -0.386128 332.762C-4.42444 330.406 -8.26584 327.756 -12.1147 325.118C-15.4993 322.798 -18.6728 320.191 -21.9757 317.76C-22.3825 317.46 -22.8823 317.271 -23.2305 316.774L-23.2311 316.775ZM53.8299 299.929C55.3959 299.199 56.9297 298.477 58.4077 297.55C61.4489 295.645 64.3703 293.491 67.3613 291.484C68.6494 290.619 69.9523 290.208 71.2656 290.606C73.5822 291.307 74.9499 293.079 75.9742 295.235C76.0342 295.361 76.1062 295.508 75.9994 295.665C75.8544 295.878 75.6786 295.779 75.5263 295.756C73.6466 295.468 71.751 295.23 69.897 294.867C67.8891 294.474 66.2135 295.141 64.8279 297.177C64.0226 298.361 62.9332 298.978 61.7042 299.238C59.0516 299.798 56.4901 299.424 53.8299 299.929ZM40.3011 288.711C41.2786 288.894 42.0229 289.399 42.7579 289.927C43.9944 290.816 44.1975 292.182 43.7773 293.844C43.5388 294.788 43.1108 295.683 42.6744 296.567C42.0393 297.853 41.3569 299.122 40.6329 300.518C40.5 300.075 40.6062 299.763 40.6613 299.461C40.9494 297.872 41.2345 296.284 41.3673 294.7C41.5378 292.675 41.5186 290.726 40.3821 289.208C40.3057 289.106 40.2088 288.989 40.301 288.709L40.3011 288.711ZM33.2833 312.53C35.1697 309.982 37.1969 307.561 38.9582 304.92C38.9995 305.614 38.7463 306.269 38.8254 306.902C38.8601 307.176 38.6256 307.324 38.4116 307.446C37.1815 308.152 36.2485 309.22 35.3175 310.33C34.6777 311.093 34.1175 311.954 33.2833 312.53ZM2.4957 337.481C2.63013 336.786 2.7682 336.171 2.8457 335.556C2.91289 335.024 3.16778 334.812 3.65668 334.784C4.45575 334.739 5.25928 334.69 6.06906 334.364C6.43711 334.216 6.80891 334.089 7.1795 333.953C7.20542 334.027 7.23251 334.101 7.25844 334.175C5.42397 334.78 3.66031 335.522 2.4957 337.481Z"/>
</mask>
<path d="M21.0221 321.815C21.8917 320.856 22.7134 320.019 23.4598 319.115C26.3029 315.673 29.1303 312.228 30.3738 307.864C31.2429 304.815 31.3294 301.885 30.993 298.995C30.6612 296.149 29.8992 293.486 29.2502 290.775C29.0474 289.928 28.7036 289.193 28.1144 288.621C27.445 287.972 27.0095 288.096 26.6007 289.121C25.3077 292.367 24.028 295.616 22.7435 298.865C21.1782 302.823 19.4673 306.742 18.0802 310.749C17.4009 312.71 16.8475 314.678 16.8129 316.662C16.7737 318.891 17.205 320.868 18.8274 322.152C19.3124 322.536 18.8208 322.831 18.5626 323.074C16.9045 324.638 15.2439 326.199 13.5599 327.727C11.5941 329.513 9.69137 331.397 7.47361 332.802C6.25979 333.571 5.00921 333.905 3.71922 334.002C3.16588 334.045 3.2059 333.68 3.23657 333.27C3.37793 331.361 3.28169 329.52 2.76841 327.803C1.55204 323.734 -0.895388 320.831 -4.30744 318.828C-8.30172 316.484 -12.9099 315.829 -17.7191 315.722C-19.8536 315.675 -21.9945 315.66 -24.1719 315.883C-24.4505 315.912 -24.8094 315.822 -24.9919 316.177C-25.2138 316.608 -24.824 316.755 -24.628 316.93C-23.8659 317.61 -23.0958 318.284 -22.278 318.893C-18.7481 321.521 -15.253 324.2 -11.6427 326.715C-8.11108 329.176 -4.59027 331.664 -0.738718 333.647C-0.0101316 334.022 0.712992 334.424 1.5657 334.528C2.22033 334.607 2.27725 334.993 2.14429 335.643C1.53197 338.638 0.24729 341.448 -1.20505 344.217C-2.04367 345.816 -3.17063 347.226 -4.23574 348.677C-4.36673 348.856 -4.50697 349.029 -4.62933 349.213C-4.76414 349.417 -4.96464 349.663 -4.76886 349.843C-4.56049 350.035 -4.28062 349.853 -4.10819 349.643C-3.56548 348.982 -3.0442 348.3 -2.53023 347.616C-2.06951 347.003 -1.62937 346.373 -1.13666 345.691C-1.19195 346.155 -1.48917 346.48 -1.69759 346.84C-1.8963 347.183 -2.32722 347.585 -2.07083 347.901C-1.82282 348.207 -1.38171 347.836 -1.04649 347.656C-0.0437043 347.116 0.940726 346.52 1.94875 345.998C6.90258 343.436 11.9266 342.203 17.0082 342.171C17.2445 342.17 17.5715 342.107 17.6334 342.362C17.7055 342.656 17.359 342.797 17.165 342.965C13.8201 345.857 10.1392 347.093 6.28157 347.442C4.60054 347.594 2.95009 347.509 1.2471 347.807C-1.28743 348.25 -3.586 349.577 -5.80556 351.128C-9.29584 353.565 -12.4412 356.513 -15.4811 359.602C-17.1227 361.27 -18.7268 362.977 -20.2732 364.745C-20.3992 364.889 -20.5308 365.037 -20.6247 365.202C-20.7218 365.371 -20.7697 365.56 -20.6195 365.693C-20.4819 365.816 -20.3094 365.811 -20.1489 365.687C-19.9584 365.54 -19.7784 365.365 -19.6157 365.181C-15.845 360.943 -11.8996 356.91 -7.52921 353.404C-5.01174 351.385 -2.40201 349.562 0.581962 348.797C1.86959 348.466 3.1275 348.417 4.37987 348.422C7.66889 348.438 10.9171 347.632 14.1322 346.006C15.8028 345.161 17.2932 343.99 18.6599 342.607C18.9261 342.337 19.2605 342.008 19.1853 341.634C19.1018 341.221 18.6479 341.345 18.3333 341.338C12.2259 341.194 6.20329 342.619 0.292686 346.035C0.131527 346.129 -0.0310212 346.219 -0.19511 346.303C-0.237697 346.326 -0.289213 346.319 -0.346315 346.327C-0.508567 346.131 -0.317523 345.944 -0.220177 345.769C1.02338 343.518 2.14225 341.23 2.94665 338.82C3.39979 337.463 4.15229 336.184 5.52588 335.706C7.9951 334.847 10.0352 333.16 12.0476 331.369C13.356 330.204 14.6669 329.043 15.9863 327.894C17.3006 326.749 18.3963 326.708 19.4145 327.748C19.9099 328.253 20.3856 328.786 20.7223 329.432C22.1248 332.129 24.3673 333.889 26.7841 335.441C29.2467 337.021 31.8661 338.35 34.5162 339.617C41.5949 343 48.9847 345.76 56.423 348.421C56.7018 348.521 57.0251 348.679 57.3056 348.343C57.5856 348.008 57.3948 347.696 57.2469 347.433C54.3151 342.22 51.6724 336.791 48.5992 331.683C46.1874 327.674 42.7184 325.052 38.3523 323.57C34.6425 322.31 30.7317 321.724 26.6712 321.584C26.2653 321.571 25.6219 321.791 25.5433 321.303C25.4599 320.786 26.1219 320.578 26.4771 320.288C30.0738 317.368 33.2717 314.007 36.2654 310.388C37.7618 308.579 39.6138 307.312 41.7085 306.66C43.1201 306.221 43.8253 306.757 43.6889 308.281C43.4266 311.211 43.7712 313.888 45.0299 316.234C46.473 318.924 48.5836 320.839 51.2649 322.091C56.661 324.613 62.6706 325.186 68.9088 325.021C70.1653 324.988 71.4356 324.869 72.7008 324.782C72.9178 324.767 73.1415 324.734 73.3593 324.674C73.5538 324.619 73.77 324.522 73.846 324.29C73.9451 323.988 73.7162 323.898 73.544 323.801C72.1987 323.044 70.8523 322.29 69.4999 321.545C65.9838 319.608 62.896 317.167 60.6874 313.656C58.9054 310.824 56.3068 309.039 53.2132 307.958C50.2422 306.92 47.2344 305.961 44.242 304.97C44.0656 304.912 43.8548 304.883 43.8524 304.641C43.8492 304.328 44.1069 304.171 44.3273 304.026C45.5076 303.245 46.7803 302.845 48.0295 302.333C51.7342 300.817 55.4032 300.578 59.0776 300.369C59.8784 300.323 60.6851 300.247 61.4918 300.133C62.9715 299.923 64.2268 299.124 65.2757 297.825C65.571 297.459 65.894 297.117 66.1955 296.756C66.921 295.889 67.7783 295.514 68.712 295.641C71.3019 295.995 73.8834 296.377 76.464 296.762C76.9639 296.836 77.2927 296.707 77.1257 296.113C76.3631 293.401 75.0997 291.104 72.5973 289.987C70.8862 289.224 69.0118 289.457 67.1614 290.674C64.3102 292.549 61.4913 294.495 58.6627 296.42C56.7504 297.722 54.7355 298.647 52.6594 299.361C52.4657 299.428 52.2272 299.528 52.1277 299.33C52.0142 299.105 52.2771 299.024 52.4119 298.927C55.2433 296.894 57.7729 294.453 60.1385 291.815C63.8393 287.687 66.9389 283.159 69.2594 278.139C70.1996 276.105 70.7595 274.057 70.5646 271.973C70.4224 270.448 69.8635 269.187 68.9304 268.171C68.422 267.618 68.1931 267.653 67.7748 268.426C65.6791 272.297 62.7931 275.514 59.8077 278.669C57.6852 280.911 55.6523 283.248 53.8088 285.749C51.1752 289.324 49.1616 293.14 48.1872 297.359C47.8788 298.694 47.1987 299.885 46.1276 300.753C44.0629 302.427 41.9429 304.012 39.7358 305.718C39.7739 304.236 40.0447 302.967 40.821 301.707C42.1289 299.585 43.2772 297.38 44.1496 295.082C45.5232 291.465 44.5371 289.011 41.3938 288.089C40.2561 287.754 39.0425 287.674 37.799 287.736C37.5202 287.75 37.1518 287.758 37.0725 288.19C37.0008 288.58 37.3501 288.57 37.591 288.615C39.6638 288.992 40.4635 290.536 40.6299 292.65C40.7119 293.687 40.5826 294.757 40.4226 295.828C40.1315 297.784 39.8375 299.741 39.5665 301.697C39.4767 302.344 39.2696 302.957 38.8896 303.51C36.6802 306.728 34.5001 309.969 31.8682 312.864C29.1305 315.874 26.2362 318.683 23.0188 321.067C22.4501 321.488 21.857 321.948 21.0233 321.816L21.0221 321.815ZM55.9432 347.259C54.8043 346.838 53.7417 346.43 52.6664 346.049C47.3435 344.159 42.1466 342.02 37.0325 339.712C33.8085 338.256 30.6619 336.669 27.7077 334.762C25.9557 333.631 24.2575 332.417 22.8337 330.856C21.9219 329.857 21.4311 328.487 20.5094 327.501C19.6398 326.57 18.7005 325.731 17.1286 326.268C16.9564 326.327 16.7681 326.347 16.7006 326.147C16.6192 325.904 16.8225 325.761 16.981 325.615C17.8852 324.776 18.7913 323.939 19.6968 323.101C19.884 322.928 20.0927 322.816 20.3202 322.787C21.9002 322.594 23.4605 322.148 25.0626 322.298C27.9872 322.57 30.9482 322.689 33.786 323.279C36.9777 323.944 39.9523 325.031 42.6144 326.786C45.3383 328.58 47.3276 331.111 48.9469 334.002C51.24 338.099 53.4576 342.252 55.7024 346.384C55.8229 346.605 55.9726 346.819 55.942 347.26L55.9432 347.259ZM71.5032 323.898C71.0841 324.202 70.8215 324.123 70.5636 324.14C67.0272 324.372 63.5503 324.285 60.1846 323.736C56.1152 323.072 52.2325 322.016 49.0337 319.479C45.8804 316.979 44.1735 313.638 44.4753 308.97C44.5254 308.197 44.5198 307.419 44.2412 306.739C43.8767 305.852 43.4385 305.621 42.4568 305.826C41.7015 305.984 40.9464 306.165 40.1866 306.337C40.8745 305.729 41.6155 305.153 42.4002 304.65C42.7116 304.45 42.9148 304.461 42.9617 304.858C43.0164 305.323 43.3147 305.539 43.706 305.683C46.0101 306.529 48.2878 307.439 50.6707 308.107C54.6641 309.226 58.0096 311.278 60.3112 314.766C61.7838 316.998 63.5997 318.813 65.7165 320.325C67.0464 321.274 68.4298 322.138 69.8714 322.916C70.4022 323.202 70.9055 323.535 71.5038 323.897L71.5032 323.898ZM26.0801 314.549C24.281 316.815 22.4841 319.098 20.5051 321.22C20.0409 321.718 19.7227 321.731 19.3162 321.397C17.9488 320.271 17.544 318.59 17.5997 316.678C17.6621 314.51 18.2665 312.345 19.0971 310.228C21.6681 303.674 24.2843 297.133 26.8945 290.589C27.0587 290.177 27.1712 289.502 27.5701 289.47C27.9737 289.437 28.0656 290.064 28.1915 290.471C29.1184 293.451 29.8893 296.492 30.2391 299.727C30.8017 304.923 29.6357 309.872 26.0807 314.548L26.0801 314.549ZM45.7107 302.43C45.7223 302.125 45.8377 302.04 45.9419 301.957C47.8512 300.433 48.9243 298.492 49.3707 296.162C49.6564 294.672 50.2692 293.224 50.9896 291.819C53.2715 287.371 56.43 283.552 59.7402 279.882C62.6421 276.665 65.7094 273.615 67.904 269.797C68.3302 269.056 68.5848 269.043 68.9532 269.676C70.0002 271.477 70.0801 273.554 69.3581 275.835C68.4636 278.664 66.8685 281.217 65.2652 283.722C61.1616 290.134 56.1264 295.585 49.9653 299.788C49.5075 300.1 49.0314 300.385 49.6343 300.986C48.2201 301.286 47.0009 301.909 45.7101 302.43L45.7107 302.43ZM-23.2311 316.775C-23.0512 316.706 -22.9586 316.646 -22.8734 316.642C-18.5459 316.429 -14.2718 316.459 -10.2431 317.505C-5.69539 318.685 -1.8925 320.959 0.643124 325.01C2.06064 327.274 2.62273 329.942 2.4719 332.907C2.42448 333.829 2.36325 333.867 1.5764 333.569C0.912985 333.317 0.216318 333.114 -0.386128 332.762C-4.42444 330.406 -8.26584 327.756 -12.1147 325.118C-15.4993 322.798 -18.6728 320.191 -21.9757 317.76C-22.3825 317.46 -22.8823 317.271 -23.2305 316.774L-23.2311 316.775ZM53.8299 299.929C55.3959 299.199 56.9297 298.477 58.4077 297.55C61.4489 295.645 64.3703 293.491 67.3613 291.484C68.6494 290.619 69.9523 290.208 71.2656 290.606C73.5822 291.307 74.9499 293.079 75.9742 295.235C76.0342 295.361 76.1062 295.508 75.9994 295.665C75.8544 295.878 75.6786 295.779 75.5263 295.756C73.6466 295.468 71.751 295.23 69.897 294.867C67.8891 294.474 66.2135 295.141 64.8279 297.177C64.0226 298.361 62.9332 298.978 61.7042 299.238C59.0516 299.798 56.4901 299.424 53.8299 299.929ZM40.3011 288.711C41.2786 288.894 42.0229 289.399 42.7579 289.927C43.9944 290.816 44.1975 292.182 43.7773 293.844C43.5388 294.788 43.1108 295.683 42.6744 296.567C42.0393 297.853 41.3569 299.122 40.6329 300.518C40.5 300.075 40.6062 299.763 40.6613 299.461C40.9494 297.872 41.2345 296.284 41.3673 294.7C41.5378 292.675 41.5186 290.726 40.3821 289.208C40.3057 289.106 40.2088 288.989 40.301 288.709L40.3011 288.711ZM33.2833 312.53C35.1697 309.982 37.1969 307.561 38.9582 304.92C38.9995 305.614 38.7463 306.269 38.8254 306.902C38.8601 307.176 38.6256 307.324 38.4116 307.446C37.1815 308.152 36.2485 309.22 35.3175 310.33C34.6777 311.093 34.1175 311.954 33.2833 312.53ZM2.4957 337.481C2.63013 336.786 2.7682 336.171 2.8457 335.556C2.91289 335.024 3.16778 334.812 3.65668 334.784C4.45575 334.739 5.25928 334.69 6.06906 334.364C6.43711 334.216 6.80891 334.089 7.1795 333.953C7.20542 334.027 7.23251 334.101 7.25844 334.175C5.42397 334.78 3.66031 335.522 2.4957 337.481Z" fill="#273812"/>
<path d="M21.0221 321.815C21.8917 320.856 22.7134 320.019 23.4598 319.115C26.3029 315.673 29.1303 312.228 30.3738 307.864C31.2429 304.815 31.3294 301.885 30.993 298.995C30.6612 296.149 29.8992 293.486 29.2502 290.775C29.0474 289.928 28.7036 289.193 28.1144 288.621C27.445 287.972 27.0095 288.096 26.6007 289.121C25.3077 292.367 24.028 295.616 22.7435 298.865C21.1782 302.823 19.4673 306.742 18.0802 310.749C17.4009 312.71 16.8475 314.678 16.8129 316.662C16.7737 318.891 17.205 320.868 18.8274 322.152C19.3124 322.536 18.8208 322.831 18.5626 323.074C16.9045 324.638 15.2439 326.199 13.5599 327.727C11.5941 329.513 9.69137 331.397 7.47361 332.802C6.25979 333.571 5.00921 333.905 3.71922 334.002C3.16588 334.045 3.2059 333.68 3.23657 333.27C3.37793 331.361 3.28169 329.52 2.76841 327.803C1.55204 323.734 -0.895388 320.831 -4.30744 318.828C-8.30172 316.484 -12.9099 315.829 -17.7191 315.722C-19.8536 315.675 -21.9945 315.66 -24.1719 315.883C-24.4505 315.912 -24.8094 315.822 -24.9919 316.177C-25.2138 316.608 -24.824 316.755 -24.628 316.93C-23.8659 317.61 -23.0958 318.284 -22.278 318.893C-18.7481 321.521 -15.253 324.2 -11.6427 326.715C-8.11108 329.176 -4.59027 331.664 -0.738718 333.647C-0.0101316 334.022 0.712992 334.424 1.5657 334.528C2.22033 334.607 2.27725 334.993 2.14429 335.643C1.53197 338.638 0.24729 341.448 -1.20505 344.217C-2.04367 345.816 -3.17063 347.226 -4.23574 348.677C-4.36673 348.856 -4.50697 349.029 -4.62933 349.213C-4.76414 349.417 -4.96464 349.663 -4.76886 349.843C-4.56049 350.035 -4.28062 349.853 -4.10819 349.643C-3.56548 348.982 -3.0442 348.3 -2.53023 347.616C-2.06951 347.003 -1.62937 346.373 -1.13666 345.691C-1.19195 346.155 -1.48917 346.48 -1.69759 346.84C-1.8963 347.183 -2.32722 347.585 -2.07083 347.901C-1.82282 348.207 -1.38171 347.836 -1.04649 347.656C-0.0437043 347.116 0.940726 346.52 1.94875 345.998C6.90258 343.436 11.9266 342.203 17.0082 342.171C17.2445 342.17 17.5715 342.107 17.6334 342.362C17.7055 342.656 17.359 342.797 17.165 342.965C13.8201 345.857 10.1392 347.093 6.28157 347.442C4.60054 347.594 2.95009 347.509 1.2471 347.807C-1.28743 348.25 -3.586 349.577 -5.80556 351.128C-9.29584 353.565 -12.4412 356.513 -15.4811 359.602C-17.1227 361.27 -18.7268 362.977 -20.2732 364.745C-20.3992 364.889 -20.5308 365.037 -20.6247 365.202C-20.7218 365.371 -20.7697 365.56 -20.6195 365.693C-20.4819 365.816 -20.3094 365.811 -20.1489 365.687C-19.9584 365.54 -19.7784 365.365 -19.6157 365.181C-15.845 360.943 -11.8996 356.91 -7.52921 353.404C-5.01174 351.385 -2.40201 349.562 0.581962 348.797C1.86959 348.466 3.1275 348.417 4.37987 348.422C7.66889 348.438 10.9171 347.632 14.1322 346.006C15.8028 345.161 17.2932 343.99 18.6599 342.607C18.9261 342.337 19.2605 342.008 19.1853 341.634C19.1018 341.221 18.6479 341.345 18.3333 341.338C12.2259 341.194 6.20329 342.619 0.292686 346.035C0.131527 346.129 -0.0310212 346.219 -0.19511 346.303C-0.237697 346.326 -0.289213 346.319 -0.346315 346.327C-0.508567 346.131 -0.317523 345.944 -0.220177 345.769C1.02338 343.518 2.14225 341.23 2.94665 338.82C3.39979 337.463 4.15229 336.184 5.52588 335.706C7.9951 334.847 10.0352 333.16 12.0476 331.369C13.356 330.204 14.6669 329.043 15.9863 327.894C17.3006 326.749 18.3963 326.708 19.4145 327.748C19.9099 328.253 20.3856 328.786 20.7223 329.432C22.1248 332.129 24.3673 333.889 26.7841 335.441C29.2467 337.021 31.8661 338.35 34.5162 339.617C41.5949 343 48.9847 345.76 56.423 348.421C56.7018 348.521 57.0251 348.679 57.3056 348.343C57.5856 348.008 57.3948 347.696 57.2469 347.433C54.3151 342.22 51.6724 336.791 48.5992 331.683C46.1874 327.674 42.7184 325.052 38.3523 323.57C34.6425 322.31 30.7317 321.724 26.6712 321.584C26.2653 321.571 25.6219 321.791 25.5433 321.303C25.4599 320.786 26.1219 320.578 26.4771 320.288C30.0738 317.368 33.2717 314.007 36.2654 310.388C37.7618 308.579 39.6138 307.312 41.7085 306.66C43.1201 306.221 43.8253 306.757 43.6889 308.281C43.4266 311.211 43.7712 313.888 45.0299 316.234C46.473 318.924 48.5836 320.839 51.2649 322.091C56.661 324.613 62.6706 325.186 68.9088 325.021C70.1653 324.988 71.4356 324.869 72.7008 324.782C72.9178 324.767 73.1415 324.734 73.3593 324.674C73.5538 324.619 73.77 324.522 73.846 324.29C73.9451 323.988 73.7162 323.898 73.544 323.801C72.1987 323.044 70.8523 322.29 69.4999 321.545C65.9838 319.608 62.896 317.167 60.6874 313.656C58.9054 310.824 56.3068 309.039 53.2132 307.958C50.2422 306.92 47.2344 305.961 44.242 304.97C44.0656 304.912 43.8548 304.883 43.8524 304.641C43.8492 304.328 44.1069 304.171 44.3273 304.026C45.5076 303.245 46.7803 302.845 48.0295 302.333C51.7342 300.817 55.4032 300.578 59.0776 300.369C59.8784 300.323 60.6851 300.247 61.4918 300.133C62.9715 299.923 64.2268 299.124 65.2757 297.825C65.571 297.459 65.894 297.117 66.1955 296.756C66.921 295.889 67.7783 295.514 68.712 295.641C71.3019 295.995 73.8834 296.377 76.464 296.762C76.9639 296.836 77.2927 296.707 77.1257 296.113C76.3631 293.401 75.0997 291.104 72.5973 289.987C70.8862 289.224 69.0118 289.457 67.1614 290.674C64.3102 292.549 61.4913 294.495 58.6627 296.42C56.7504 297.722 54.7355 298.647 52.6594 299.361C52.4657 299.428 52.2272 299.528 52.1277 299.33C52.0142 299.105 52.2771 299.024 52.4119 298.927C55.2433 296.894 57.7729 294.453 60.1385 291.815C63.8393 287.687 66.9389 283.159 69.2594 278.139C70.1996 276.105 70.7595 274.057 70.5646 271.973C70.4224 270.448 69.8635 269.187 68.9304 268.171C68.422 267.618 68.1931 267.653 67.7748 268.426C65.6791 272.297 62.7931 275.514 59.8077 278.669C57.6852 280.911 55.6523 283.248 53.8088 285.749C51.1752 289.324 49.1616 293.14 48.1872 297.359C47.8788 298.694 47.1987 299.885 46.1276 300.753C44.0629 302.427 41.9429 304.012 39.7358 305.718C39.7739 304.236 40.0447 302.967 40.821 301.707C42.1289 299.585 43.2772 297.38 44.1496 295.082C45.5232 291.465 44.5371 289.011 41.3938 288.089C40.2561 287.754 39.0425 287.674 37.799 287.736C37.5202 287.75 37.1518 287.758 37.0725 288.19C37.0008 288.58 37.3501 288.57 37.591 288.615C39.6638 288.992 40.4635 290.536 40.6299 292.65C40.7119 293.687 40.5826 294.757 40.4226 295.828C40.1315 297.784 39.8375 299.741 39.5665 301.697C39.4767 302.344 39.2696 302.957 38.8896 303.51C36.6802 306.728 34.5001 309.969 31.8682 312.864C29.1305 315.874 26.2362 318.683 23.0188 321.067C22.4501 321.488 21.857 321.948 21.0233 321.816L21.0221 321.815ZM55.9432 347.259C54.8043 346.838 53.7417 346.43 52.6664 346.049C47.3435 344.159 42.1466 342.02 37.0325 339.712C33.8085 338.256 30.6619 336.669 27.7077 334.762C25.9557 333.631 24.2575 332.417 22.8337 330.856C21.9219 329.857 21.4311 328.487 20.5094 327.501C19.6398 326.57 18.7005 325.731 17.1286 326.268C16.9564 326.327 16.7681 326.347 16.7006 326.147C16.6192 325.904 16.8225 325.761 16.981 325.615C17.8852 324.776 18.7913 323.939 19.6968 323.101C19.884 322.928 20.0927 322.816 20.3202 322.787C21.9002 322.594 23.4605 322.148 25.0626 322.298C27.9872 322.57 30.9482 322.689 33.786 323.279C36.9777 323.944 39.9523 325.031 42.6144 326.786C45.3383 328.58 47.3276 331.111 48.9469 334.002C51.24 338.099 53.4576 342.252 55.7024 346.384C55.8229 346.605 55.9726 346.819 55.942 347.26L55.9432 347.259ZM71.5032 323.898C71.0841 324.202 70.8215 324.123 70.5636 324.14C67.0272 324.372 63.5503 324.285 60.1846 323.736C56.1152 323.072 52.2325 322.016 49.0337 319.479C45.8804 316.979 44.1735 313.638 44.4753 308.97C44.5254 308.197 44.5198 307.419 44.2412 306.739C43.8767 305.852 43.4385 305.621 42.4568 305.826C41.7015 305.984 40.9464 306.165 40.1866 306.337C40.8745 305.729 41.6155 305.153 42.4002 304.65C42.7116 304.45 42.9148 304.461 42.9617 304.858C43.0164 305.323 43.3147 305.539 43.706 305.683C46.0101 306.529 48.2878 307.439 50.6707 308.107C54.6641 309.226 58.0096 311.278 60.3112 314.766C61.7838 316.998 63.5997 318.813 65.7165 320.325C67.0464 321.274 68.4298 322.138 69.8714 322.916C70.4022 323.202 70.9055 323.535 71.5038 323.897L71.5032 323.898ZM26.0801 314.549C24.281 316.815 22.4841 319.098 20.5051 321.22C20.0409 321.718 19.7227 321.731 19.3162 321.397C17.9488 320.271 17.544 318.59 17.5997 316.678C17.6621 314.51 18.2665 312.345 19.0971 310.228C21.6681 303.674 24.2843 297.133 26.8945 290.589C27.0587 290.177 27.1712 289.502 27.5701 289.47C27.9737 289.437 28.0656 290.064 28.1915 290.471C29.1184 293.451 29.8893 296.492 30.2391 299.727C30.8017 304.923 29.6357 309.872 26.0807 314.548L26.0801 314.549ZM45.7107 302.43C45.7223 302.125 45.8377 302.04 45.9419 301.957C47.8512 300.433 48.9243 298.492 49.3707 296.162C49.6564 294.672 50.2692 293.224 50.9896 291.819C53.2715 287.371 56.43 283.552 59.7402 279.882C62.6421 276.665 65.7094 273.615 67.904 269.797C68.3302 269.056 68.5848 269.043 68.9532 269.676C70.0002 271.477 70.0801 273.554 69.3581 275.835C68.4636 278.664 66.8685 281.217 65.2652 283.722C61.1616 290.134 56.1264 295.585 49.9653 299.788C49.5075 300.1 49.0314 300.385 49.6343 300.986C48.2201 301.286 47.0009 301.909 45.7101 302.43L45.7107 302.43ZM-23.2311 316.775C-23.0512 316.706 -22.9586 316.646 -22.8734 316.642C-18.5459 316.429 -14.2718 316.459 -10.2431 317.505C-5.69539 318.685 -1.8925 320.959 0.643124 325.01C2.06064 327.274 2.62273 329.942 2.4719 332.907C2.42448 333.829 2.36325 333.867 1.5764 333.569C0.912985 333.317 0.216318 333.114 -0.386128 332.762C-4.42444 330.406 -8.26584 327.756 -12.1147 325.118C-15.4993 322.798 -18.6728 320.191 -21.9757 317.76C-22.3825 317.46 -22.8823 317.271 -23.2305 316.774L-23.2311 316.775ZM53.8299 299.929C55.3959 299.199 56.9297 298.477 58.4077 297.55C61.4489 295.645 64.3703 293.491 67.3613 291.484C68.6494 290.619 69.9523 290.208 71.2656 290.606C73.5822 291.307 74.9499 293.079 75.9742 295.235C76.0342 295.361 76.1062 295.508 75.9994 295.665C75.8544 295.878 75.6786 295.779 75.5263 295.756C73.6466 295.468 71.751 295.23 69.897 294.867C67.8891 294.474 66.2135 295.141 64.8279 297.177C64.0226 298.361 62.9332 298.978 61.7042 299.238C59.0516 299.798 56.4901 299.424 53.8299 299.929ZM40.3011 288.711C41.2786 288.894 42.0229 289.399 42.7579 289.927C43.9944 290.816 44.1975 292.182 43.7773 293.844C43.5388 294.788 43.1108 295.683 42.6744 296.567C42.0393 297.853 41.3569 299.122 40.6329 300.518C40.5 300.075 40.6062 299.763 40.6613 299.461C40.9494 297.872 41.2345 296.284 41.3673 294.7C41.5378 292.675 41.5186 290.726 40.3821 289.208C40.3057 289.106 40.2088 288.989 40.301 288.709L40.3011 288.711ZM33.2833 312.53C35.1697 309.982 37.1969 307.561 38.9582 304.92C38.9995 305.614 38.7463 306.269 38.8254 306.902C38.8601 307.176 38.6256 307.324 38.4116 307.446C37.1815 308.152 36.2485 309.22 35.3175 310.33C34.6777 311.093 34.1175 311.954 33.2833 312.53ZM2.4957 337.481C2.63013 336.786 2.7682 336.171 2.8457 335.556C2.91289 335.024 3.16778 334.812 3.65668 334.784C4.45575 334.739 5.25928 334.69 6.06906 334.364C6.43711 334.216 6.80891 334.089 7.1795 333.953C7.20542 334.027 7.23251 334.101 7.25844 334.175C5.42397 334.78 3.66031 335.522 2.4957 337.481Z" stroke="#273812" stroke-width="2" mask="url(#path-4-outside-2_1051_980)"/>
</g>
<g opacity="0.3">
<mask id="path-5-outside-3_1051_980" maskUnits="userSpaceOnUse" x="-48.4057" y="-1.7458" width="175.546" height="173.065" fill="black">
<rect fill="white" x="-48.4057" y="-1.7458" width="175.546" height="173.065"/>
<path d="M85.0612 131.52C82.4311 134.728 79.5773 137.729 76.7006 140.714C74.7593 142.728 72.8398 144.75 70.5337 146.357C67.1787 148.695 63.5285 150.43 59.6274 151.632C57.8229 152.189 55.9657 152.288 54.1285 151.82C52.9868 151.53 52.105 151.799 51.2339 152.566C49.145 154.406 46.9142 156.045 44.2325 156.945C42.7849 157.431 41.2704 157.529 39.7662 157.666C39.3115 157.707 38.929 157.465 38.58 157.193C31.5255 151.699 26.4798 144.777 23.681 136.249C22.8814 133.813 21.9924 131.405 21.2147 128.961C20.8345 127.766 20.8096 126.476 20.3744 125.283C20.098 124.523 19.7844 123.793 19.2441 123.18C18.7389 122.608 18.3419 121.986 18.1378 121.233C17.9902 120.692 17.6476 120.239 17.138 119.969C14.9336 118.8 12.8279 117.461 10.6474 116.255C7.67948 114.615 4.43073 113.836 1.1005 113.366C-1.55371 112.993 -4.2064 112.633 -6.75481 111.74C-10.231 110.522 -13.2187 108.564 -15.8437 105.991C-18.7753 103.117 -21.3566 99.9841 -23.1487 96.2712C-25.2677 91.8818 -26.9763 87.3182 -26.7236 82.368C-26.3755 75.5423 -25.6224 68.7574 -23.2586 62.2573C-21.4144 57.1855 -18.6468 52.6944 -14.8968 48.8282C-10.5526 44.3501 -5.67171 40.5245 -0.285965 37.3873C3.89131 34.9545 8.44857 33.4995 13.2139 32.7063C17.0988 32.0589 20.9975 31.7774 24.9109 32.397C29.3138 33.0934 33.5236 34.4062 37.3554 36.723C40.1774 38.4295 42.4038 40.7969 44.2348 43.5239C47.2081 47.9515 49.5294 52.727 51.6513 57.606C53.4412 61.7223 55.2262 65.8409 57.0261 69.9527C57.5149 71.0696 57.8113 71.2598 58.9915 71.064C60.884 70.7516 62.5822 71.2042 64.1599 72.2178C64.5832 72.4892 65.0256 72.6151 65.5221 72.6046C67.1711 72.5685 68.8197 72.5289 70.4683 72.5129C70.9304 72.508 71.0927 72.3605 71.1092 71.8723C71.2299 68.3679 70.6488 65.0437 68.9019 61.9425C68.0269 60.3899 67.3196 58.74 66.5701 57.1192C64.9889 53.7031 65.3305 50.5223 67.6815 47.5295C69.298 45.4729 71.3194 43.862 73.2662 42.1614C73.6111 41.8607 74.021 41.642 74.4537 41.4812C75.5631 41.0693 76.1529 41.4237 76.2099 42.5983C76.2607 43.6528 76.1579 44.7025 75.925 45.7378C75.7292 46.6089 75.5107 47.4729 75.49 48.3771C75.4238 51.3261 76.6664 53.7267 78.5397 55.8901C80.0396 57.6217 81.8758 58.9355 83.7171 60.2628C90.2062 64.9377 93.909 71.2743 94.8441 79.2118C94.9652 80.2454 95.4271 80.9088 96.3396 81.3184C96.9679 81.6011 97.567 81.9361 98.0873 82.3909C99.3706 83.5107 99.7351 84.9302 99.3991 86.5577C99.0545 88.2256 98.3544 89.779 97.8231 91.3871C97.2919 92.997 96.7707 94.6102 96.1894 96.202C95.8154 97.2267 96.0555 98.1885 96.3145 99.1639C96.7536 100.824 97.2145 102.477 97.4901 104.179C97.9723 107.151 97.2036 109.906 96.1149 112.614C94.2387 117.282 91.9164 121.718 89.1452 125.913C87.8706 127.842 86.5455 129.741 85.0602 131.52L85.0612 131.52ZM72.9961 129.986C74.045 128.56 75.4767 126.859 76.7991 125.072C79.4548 121.482 82.0676 117.862 84.7242 114.274C86.5961 111.746 88.1927 109.052 89.7279 106.317C92.2912 101.748 94.2048 96.8868 96.0973 92.024C96.9756 89.7668 97.6183 87.4106 97.816 84.9674C97.8876 84.0804 97.5707 83.3913 96.7844 82.9598C96.2837 82.6848 95.7563 82.4608 95.2454 82.2044C94.8827 82.0224 94.6439 82.1181 94.478 82.4881C94.0402 83.4648 93.2369 83.8444 92.2102 83.8447C91.6355 83.8446 91.0673 83.9112 90.5081 84.0511C88.0253 84.6679 85.6468 84.3275 83.3411 83.2872C80.7501 82.1175 78.3703 80.5605 75.8675 79.2298C73.7222 78.0893 72.0169 76.5336 70.9234 74.344C70.7406 73.9767 70.428 73.7971 70.0475 73.765C68.4727 73.632 66.8972 73.5173 65.3144 73.5671C64.7776 73.5847 64.4213 73.8368 64.2356 74.3613C63.9223 75.2454 63.6202 76.1371 63.2402 76.9945C61.6023 80.6928 59.4566 84.0914 57.195 87.4364C54.6789 91.1578 52.0213 94.7689 49.2663 98.313C46.9185 101.335 44.4265 104.239 41.8803 107.094C40.0974 109.093 38.2893 111.07 36.4314 113C33.6695 115.867 30.8628 118.691 28.058 121.518C26.3535 123.234 24.4759 124.736 22.2598 125.743C21.6308 126.029 21.4741 126.331 21.6535 126.995C23.0154 132.05 24.8052 136.947 27.0121 141.692C28.1974 144.241 29.6538 146.614 31.5996 148.656C33.6816 150.84 35.8399 152.954 37.8768 155.181C39.0115 156.421 40.309 156.761 41.894 156.516C44.0251 156.186 45.9477 155.39 47.6509 154.076C51.9288 150.773 56.0761 147.317 60.1068 143.713C64.6951 139.612 68.9447 135.205 72.9961 129.986ZM50.6111 66.9359C50.7711 66.744 50.7198 66.6351 50.6831 66.5316C50.1636 65.0384 49.6502 63.5454 49.0248 62.0919C47.2653 57.9984 45.0024 54.1795 42.7448 50.3522C41.2142 47.7571 39.2406 45.6127 36.8056 43.879C34.6323 42.3314 32.2522 41.162 29.7763 40.1808C23.8507 37.8322 17.8054 37.2402 11.6006 38.928C7.11299 40.1487 3.11175 42.3363 -0.553701 45.154C-3.6456 47.531 -6.43543 50.2383 -9.084 53.1015C-11.0053 55.1788 -12.7352 57.3906 -14.1874 59.8139C-16.5847 63.8134 -18.1778 68.1435 -19.3992 72.6265C-20.3266 76.0316 -20.8854 79.4735 -20.6558 83.0143C-20.2804 88.8036 -18.2905 93.9868 -14.8259 98.6205C-13.2571 100.718 -11.4965 102.651 -9.46487 104.294C-7.04077 106.256 -4.23829 107.472 -1.17301 108.077C0.779282 108.462 2.77686 108.614 4.68792 109.222C5.6257 109.519 6.58682 109.742 7.52749 110.034C8.14865 110.227 8.55634 110.037 8.93475 109.523C9.74122 108.431 10.3142 107.203 11.0246 106.055C12.3978 103.836 13.7236 101.585 15.2251 99.4514C17.0566 96.8496 18.9694 94.3035 20.8358 91.7249C21.587 90.6871 22.3353 89.6454 23.0365 88.5738C23.5414 87.8022 23.3288 87.378 22.3959 87.3005C21.5309 87.2286 20.6581 87.2529 19.7878 87.2366C17.226 87.1878 15.9788 85.6223 16.5183 83.114C17.1708 80.0815 19.0891 78.2083 22.0036 77.3651C24.4713 76.6512 26.173 77.9816 26.2105 80.5597C26.2182 81.0373 26.1361 81.517 26.0791 81.9948C26.0052 82.6215 26.162 83.1823 26.7504 83.4441C27.3545 83.7138 27.5993 83.1137 27.8661 82.763C29.6209 80.4671 31.5394 78.3087 33.405 76.1063C34.9741 74.2544 36.5669 72.42 38.2883 70.7059C40.2669 68.7359 42.3278 66.8478 44.2772 64.8513C45.8524 63.2392 46.1879 63.0288 48.0273 64.8496C48.8159 65.6298 49.7163 66.2803 50.6113 66.9376L50.6111 66.9359ZM44.0409 92.4796C44.4247 91.9437 44.8721 91.2773 45.3624 90.6438C48.3362 86.8051 51.2671 82.9353 53.9947 78.9167C55.0368 77.3804 55.8077 75.6836 56.5966 74.0075C56.9549 73.246 56.7709 72.8842 56.0205 72.4532C53.9347 71.2563 51.9128 69.964 50.0538 68.427C49.1537 67.6837 48.2656 66.9295 47.4167 66.1262C46.7962 65.5391 46.6274 65.5631 46.1158 66.2663C45.4971 67.117 44.9545 68.024 44.3272 68.8677C41.8287 72.2312 39.3199 75.5879 36.7931 78.9317C34.5154 81.947 32.2676 84.9878 29.9065 87.9362C23.7792 95.5846 17.9488 103.485 10.9406 110.39C10.6122 110.713 10.612 110.983 10.9292 111.323C13.1204 113.69 15.3028 116.063 17.4812 118.441C18.2322 119.26 18.8344 119.273 19.6366 118.5C21.0201 117.166 22.4016 115.829 23.8177 114.53C26.72 111.867 29.5563 109.137 32.1431 106.164C33.977 104.056 35.7259 101.874 37.5154 99.727C37.9553 99.1996 38.4189 98.6898 38.8563 98.1636C40.4673 96.224 42.3441 94.5303 44.0405 92.4762L44.0409 92.4796ZM55.6006 70.0733C55.5444 69.9509 55.4889 69.8277 55.4317 69.7045C53.6134 65.7768 51.8063 61.847 50.2055 57.8207C48.2723 52.9558 45.9744 48.2748 42.8336 44.0504C41.4088 42.1328 39.8901 40.2852 37.9734 38.8517C34.1049 35.9599 29.5989 34.6101 24.9358 33.6862C22.4506 33.1941 19.953 33.5798 17.4635 33.6235C12.6645 33.7102 7.99878 34.6148 3.69676 36.7632C-4.87096 41.0401 -12.2211 46.8272 -17.789 54.7283C-19.5298 57.1994 -20.8786 59.8648 -21.9424 62.6797C-23.7168 67.3755 -24.5371 72.2618 -24.8229 77.2533C-24.9625 79.6988 -25.2525 82.1373 -25.0846 84.5959C-24.767 89.2431 -23.2378 93.4942 -20.912 97.4881C-19.0895 100.617 -16.8852 103.454 -14.1482 105.82C-11.5274 108.084 -8.44835 109.622 -5.27302 110.96C-3.10805 111.873 -0.809365 112.099 1.5061 112.271C4.80731 112.515 7.96061 113.317 10.89 114.909C11.6051 115.298 12.2617 115.799 13.0742 116.046C12.785 115.586 12.4595 115.161 12.1203 114.747C11.0292 113.417 9.94723 112.083 8.20946 111.525C7.36091 111.252 6.52953 110.928 5.65939 110.713C3.29713 110.13 0.862043 109.968 -1.51011 109.447C-4.86892 108.709 -7.96913 107.458 -10.5916 105.146C-12.4067 103.547 -13.9128 101.678 -15.4253 99.8145C-18.4348 96.11 -20.563 91.9718 -21.3796 87.2243C-21.9047 84.172 -21.765 81.1116 -21.4968 78.0439C-20.7717 69.7654 -17.8156 62.3572 -12.835 55.7371C-9.61868 51.4621 -5.69349 47.8939 -1.5971 44.4913C2.97064 40.697 8.06768 38.0379 13.974 37.09C18.0918 36.429 22.1747 36.4245 26.2056 37.7326C28.4283 38.4541 30.6103 39.2834 32.815 40.049C35.9982 41.1555 38.6574 43.0279 40.9021 45.5393C42.505 47.333 43.6854 49.3905 44.8442 51.4732C47.7268 56.6543 50.7584 61.7577 52.7464 67.3872C53.2131 68.7087 54.2631 69.5675 55.5968 70.0702L55.6006 70.0733ZM75.0482 77.0438C77.7101 79.1722 82.0996 81.4709 85.2701 82.4065C87.3118 83.0082 89.3797 83.0839 91.4478 82.57C93.0757 82.1653 93.4829 81.5472 93.2796 79.899C93.1844 79.1258 93.0625 78.3565 92.926 77.5896C91.8496 71.4924 89.1923 66.3483 84.0719 62.6236C81.8539 61.0102 79.6701 59.3344 77.7852 57.313C74.7002 54.0053 73.3062 50.2378 74.5905 45.7233C74.8048 44.9726 74.8991 44.1967 74.9697 43.4209C74.9832 43.2724 75.0348 43.0568 74.8442 43.0018C74.6771 42.953 74.5599 43.1209 74.4704 43.2541C73.8456 44.1851 73.254 45.1395 72.5959 46.0453C71.8981 47.0045 71.3441 48.079 70.4358 48.8726C70.1253 49.1441 69.6875 49.4429 69.3376 49.1073C69.0727 48.8525 69.4543 48.4961 69.6012 48.2086C69.6898 48.0352 69.9575 47.8603 69.7374 47.687C69.4561 47.4663 69.3572 47.8254 69.2311 47.975C66.9991 50.6091 66.5001 53.4794 68.0151 56.65C69.1002 58.9228 70.1336 61.2188 71.193 63.5041C71.9155 65.0623 72.3189 66.6926 72.3468 68.4162C72.3735 70.0647 72.4159 71.7133 72.4662 73.3618C72.4929 74.2204 72.8057 74.9677 73.4241 75.5752C73.9789 76.1207 74.5157 76.6865 75.0483 77.0455L75.0482 77.0438ZM95.2452 99.0386C94.9733 99.0714 94.9275 99.2365 94.8561 99.3748C94.2026 100.634 93.5435 101.891 92.8992 103.155C90.5089 107.849 88.049 112.506 84.8773 116.733C82.1138 120.416 79.2788 124.044 76.4676 127.69C75.0135 129.577 73.4605 131.383 71.9201 133.201C70.4967 134.882 68.9624 136.452 67.4105 138.006C65.4858 139.932 63.5149 141.812 61.5419 143.689C59.2553 145.864 57.0126 148.089 54.5554 150.081C54.3859 150.218 54.0724 150.318 54.1331 150.569C54.2056 150.871 54.5476 150.792 54.7807 150.812C57.1356 151.017 59.4011 150.596 61.5665 149.702C68.2832 146.929 73.779 142.482 78.6648 137.192C80.2348 135.492 81.7626 133.759 83.2503 131.986C84.3991 130.618 85.4639 129.185 86.488 127.724C87.7119 125.979 88.6866 124.082 89.755 122.242C91.4208 119.374 93.2295 116.588 94.4666 113.486C95.9072 109.871 96.7794 106.193 95.9308 102.287C95.6957 101.203 95.5707 100.094 95.2442 99.0378L95.2452 99.0386ZM50.8561 93.8084C53.7256 90.4554 56.1618 86.7472 58.5126 82.9707C60.2461 80.1846 61.4556 77.1821 62.5259 74.1076C62.8075 73.3004 62.6446 72.9791 61.8185 72.7035C60.0338 72.1074 58.6091 72.4195 57.8061 74.2939C55.7168 79.1725 52.7449 83.5156 49.5311 87.7012C47.326 90.5728 44.9602 93.3109 42.5545 96.0202C40.0158 98.8799 37.5374 101.796 35.1179 104.762C33.8596 106.305 32.5497 107.816 31.1523 109.231C27.9207 112.504 24.5632 115.65 21.1679 118.754C19.2663 120.492 19.1115 121.65 20.4588 123.346C21.4134 124.548 22.0724 124.616 23.2753 123.637C26.2264 121.236 28.9395 118.571 31.6979 115.96C34.6789 113.137 37.3377 110.016 39.946 106.849C41.1393 105.4 42.4452 104.043 43.6279 102.585C44.8431 101.088 46.3297 99.8243 47.4402 98.2577C48.5167 96.7395 49.7185 95.3281 50.8578 93.8082L50.8561 93.8084ZM27.246 89.325C26.5204 89.3994 25.8741 89.5595 25.2601 89.304C24.6415 89.0464 24.2359 89.2638 23.8589 89.7736C22.5818 91.5048 21.2545 93.2004 19.9286 94.8924C16.636 99.0936 13.6305 103.489 10.7316 107.963C10.6135 108.146 10.3814 108.366 10.6416 108.555C10.8687 108.719 11.0631 108.49 11.2212 108.328C12.5774 106.937 13.9773 105.584 15.2742 104.139C18.0101 101.09 20.6491 97.9562 23.1796 94.7335C24.2954 93.3115 25.3864 91.8696 26.4831 90.4322C26.7285 90.1102 27.0651 89.8533 27.246 89.325ZM44.8251 66.0361C44.6189 66.0065 44.557 66.1839 44.4545 66.2863C42.8804 67.8519 41.2876 69.3994 39.7449 70.9965C37.5353 73.2843 35.2304 75.4847 33.2168 77.9563C32.0002 79.4489 30.8499 80.9963 29.5946 82.4548C28.5364 83.6849 28.2292 85.0075 28.7262 86.5347C28.787 86.7221 28.752 86.9937 28.9994 87.0406C29.2405 87.0856 29.3202 86.823 29.4548 86.6786C29.5323 86.5957 29.5969 86.4993 29.6646 86.4069C32.1937 82.9797 34.7028 79.5381 37.2556 76.1284C39.6719 72.901 42.133 69.7079 44.5702 66.4956C44.6725 66.36 44.8455 66.2542 44.8243 66.037L44.8251 66.0361ZM23.8622 83.162C24.7193 82.2516 24.7847 81.1483 24.5871 80.0078C24.3829 78.8224 23.6446 78.4137 22.5409 78.8852C21.8484 79.1817 21.1998 79.5764 20.5274 79.9205C18.5876 80.9109 18.1012 82.563 18.3284 84.4526C18.4235 85.2494 18.8296 85.6189 19.6422 85.6757C20.6963 85.7493 21.6359 85.4884 22.3868 84.6948C22.8735 84.1798 23.3698 83.6724 23.8605 83.1622L23.8622 83.162ZM24.949 87.4859C25.0918 87.6004 25.2308 87.7196 25.3775 87.8293C26.1584 88.4109 26.7651 88.2885 27.2511 87.4481C27.5557 86.9227 27.4547 86.4082 27.1036 85.974C26.6159 85.3703 26.076 84.8083 25.5498 84.2369C25.2819 83.9465 25.0136 84.0358 24.7857 84.2946C23.205 86.0884 23.2446 85.8994 24.8406 87.3991C24.8738 87.4304 24.9125 87.4567 24.948 87.4851L24.949 87.4859Z"/>
</mask>
<path d="M85.0612 131.52C82.4311 134.728 79.5773 137.729 76.7006 140.714C74.7593 142.728 72.8398 144.75 70.5337 146.357C67.1787 148.695 63.5285 150.43 59.6274 151.632C57.8229 152.189 55.9657 152.288 54.1285 151.82C52.9868 151.53 52.105 151.799 51.2339 152.566C49.145 154.406 46.9142 156.045 44.2325 156.945C42.7849 157.431 41.2704 157.529 39.7662 157.666C39.3115 157.707 38.929 157.465 38.58 157.193C31.5255 151.699 26.4798 144.777 23.681 136.249C22.8814 133.813 21.9924 131.405 21.2147 128.961C20.8345 127.766 20.8096 126.476 20.3744 125.283C20.098 124.523 19.7844 123.793 19.2441 123.18C18.7389 122.608 18.3419 121.986 18.1378 121.233C17.9902 120.692 17.6476 120.239 17.138 119.969C14.9336 118.8 12.8279 117.461 10.6474 116.255C7.67948 114.615 4.43073 113.836 1.1005 113.366C-1.55371 112.993 -4.2064 112.633 -6.75481 111.74C-10.231 110.522 -13.2187 108.564 -15.8437 105.991C-18.7753 103.117 -21.3566 99.9841 -23.1487 96.2712C-25.2677 91.8818 -26.9763 87.3182 -26.7236 82.368C-26.3755 75.5423 -25.6224 68.7574 -23.2586 62.2573C-21.4144 57.1855 -18.6468 52.6944 -14.8968 48.8282C-10.5526 44.3501 -5.67171 40.5245 -0.285965 37.3873C3.89131 34.9545 8.44857 33.4995 13.2139 32.7063C17.0988 32.0589 20.9975 31.7774 24.9109 32.397C29.3138 33.0934 33.5236 34.4062 37.3554 36.723C40.1774 38.4295 42.4038 40.7969 44.2348 43.5239C47.2081 47.9515 49.5294 52.727 51.6513 57.606C53.4412 61.7223 55.2262 65.8409 57.0261 69.9527C57.5149 71.0696 57.8113 71.2598 58.9915 71.064C60.884 70.7516 62.5822 71.2042 64.1599 72.2178C64.5832 72.4892 65.0256 72.6151 65.5221 72.6046C67.1711 72.5685 68.8197 72.5289 70.4683 72.5129C70.9304 72.508 71.0927 72.3605 71.1092 71.8723C71.2299 68.3679 70.6488 65.0437 68.9019 61.9425C68.0269 60.3899 67.3196 58.74 66.5701 57.1192C64.9889 53.7031 65.3305 50.5223 67.6815 47.5295C69.298 45.4729 71.3194 43.862 73.2662 42.1614C73.6111 41.8607 74.021 41.642 74.4537 41.4812C75.5631 41.0693 76.1529 41.4237 76.2099 42.5983C76.2607 43.6528 76.1579 44.7025 75.925 45.7378C75.7292 46.6089 75.5107 47.4729 75.49 48.3771C75.4238 51.3261 76.6664 53.7267 78.5397 55.8901C80.0396 57.6217 81.8758 58.9355 83.7171 60.2628C90.2062 64.9377 93.909 71.2743 94.8441 79.2118C94.9652 80.2454 95.4271 80.9088 96.3396 81.3184C96.9679 81.6011 97.567 81.9361 98.0873 82.3909C99.3706 83.5107 99.7351 84.9302 99.3991 86.5577C99.0545 88.2256 98.3544 89.779 97.8231 91.3871C97.2919 92.997 96.7707 94.6102 96.1894 96.202C95.8154 97.2267 96.0555 98.1885 96.3145 99.1639C96.7536 100.824 97.2145 102.477 97.4901 104.179C97.9723 107.151 97.2036 109.906 96.1149 112.614C94.2387 117.282 91.9164 121.718 89.1452 125.913C87.8706 127.842 86.5455 129.741 85.0602 131.52L85.0612 131.52ZM72.9961 129.986C74.045 128.56 75.4767 126.859 76.7991 125.072C79.4548 121.482 82.0676 117.862 84.7242 114.274C86.5961 111.746 88.1927 109.052 89.7279 106.317C92.2912 101.748 94.2048 96.8868 96.0973 92.024C96.9756 89.7668 97.6183 87.4106 97.816 84.9674C97.8876 84.0804 97.5707 83.3913 96.7844 82.9598C96.2837 82.6848 95.7563 82.4608 95.2454 82.2044C94.8827 82.0224 94.6439 82.1181 94.478 82.4881C94.0402 83.4648 93.2369 83.8444 92.2102 83.8447C91.6355 83.8446 91.0673 83.9112 90.5081 84.0511C88.0253 84.6679 85.6468 84.3275 83.3411 83.2872C80.7501 82.1175 78.3703 80.5605 75.8675 79.2298C73.7222 78.0893 72.0169 76.5336 70.9234 74.344C70.7406 73.9767 70.428 73.7971 70.0475 73.765C68.4727 73.632 66.8972 73.5173 65.3144 73.5671C64.7776 73.5847 64.4213 73.8368 64.2356 74.3613C63.9223 75.2454 63.6202 76.1371 63.2402 76.9945C61.6023 80.6928 59.4566 84.0914 57.195 87.4364C54.6789 91.1578 52.0213 94.7689 49.2663 98.313C46.9185 101.335 44.4265 104.239 41.8803 107.094C40.0974 109.093 38.2893 111.07 36.4314 113C33.6695 115.867 30.8628 118.691 28.058 121.518C26.3535 123.234 24.4759 124.736 22.2598 125.743C21.6308 126.029 21.4741 126.331 21.6535 126.995C23.0154 132.05 24.8052 136.947 27.0121 141.692C28.1974 144.241 29.6538 146.614 31.5996 148.656C33.6816 150.84 35.8399 152.954 37.8768 155.181C39.0115 156.421 40.309 156.761 41.894 156.516C44.0251 156.186 45.9477 155.39 47.6509 154.076C51.9288 150.773 56.0761 147.317 60.1068 143.713C64.6951 139.612 68.9447 135.205 72.9961 129.986ZM50.6111 66.9359C50.7711 66.744 50.7198 66.6351 50.6831 66.5316C50.1636 65.0384 49.6502 63.5454 49.0248 62.0919C47.2653 57.9984 45.0024 54.1795 42.7448 50.3522C41.2142 47.7571 39.2406 45.6127 36.8056 43.879C34.6323 42.3314 32.2522 41.162 29.7763 40.1808C23.8507 37.8322 17.8054 37.2402 11.6006 38.928C7.11299 40.1487 3.11175 42.3363 -0.553701 45.154C-3.6456 47.531 -6.43543 50.2383 -9.084 53.1015C-11.0053 55.1788 -12.7352 57.3906 -14.1874 59.8139C-16.5847 63.8134 -18.1778 68.1435 -19.3992 72.6265C-20.3266 76.0316 -20.8854 79.4735 -20.6558 83.0143C-20.2804 88.8036 -18.2905 93.9868 -14.8259 98.6205C-13.2571 100.718 -11.4965 102.651 -9.46487 104.294C-7.04077 106.256 -4.23829 107.472 -1.17301 108.077C0.779282 108.462 2.77686 108.614 4.68792 109.222C5.6257 109.519 6.58682 109.742 7.52749 110.034C8.14865 110.227 8.55634 110.037 8.93475 109.523C9.74122 108.431 10.3142 107.203 11.0246 106.055C12.3978 103.836 13.7236 101.585 15.2251 99.4514C17.0566 96.8496 18.9694 94.3035 20.8358 91.7249C21.587 90.6871 22.3353 89.6454 23.0365 88.5738C23.5414 87.8022 23.3288 87.378 22.3959 87.3005C21.5309 87.2286 20.6581 87.2529 19.7878 87.2366C17.226 87.1878 15.9788 85.6223 16.5183 83.114C17.1708 80.0815 19.0891 78.2083 22.0036 77.3651C24.4713 76.6512 26.173 77.9816 26.2105 80.5597C26.2182 81.0373 26.1361 81.517 26.0791 81.9948C26.0052 82.6215 26.162 83.1823 26.7504 83.4441C27.3545 83.7138 27.5993 83.1137 27.8661 82.763C29.6209 80.4671 31.5394 78.3087 33.405 76.1063C34.9741 74.2544 36.5669 72.42 38.2883 70.7059C40.2669 68.7359 42.3278 66.8478 44.2772 64.8513C45.8524 63.2392 46.1879 63.0288 48.0273 64.8496C48.8159 65.6298 49.7163 66.2803 50.6113 66.9376L50.6111 66.9359ZM44.0409 92.4796C44.4247 91.9437 44.8721 91.2773 45.3624 90.6438C48.3362 86.8051 51.2671 82.9353 53.9947 78.9167C55.0368 77.3804 55.8077 75.6836 56.5966 74.0075C56.9549 73.246 56.7709 72.8842 56.0205 72.4532C53.9347 71.2563 51.9128 69.964 50.0538 68.427C49.1537 67.6837 48.2656 66.9295 47.4167 66.1262C46.7962 65.5391 46.6274 65.5631 46.1158 66.2663C45.4971 67.117 44.9545 68.024 44.3272 68.8677C41.8287 72.2312 39.3199 75.5879 36.7931 78.9317C34.5154 81.947 32.2676 84.9878 29.9065 87.9362C23.7792 95.5846 17.9488 103.485 10.9406 110.39C10.6122 110.713 10.612 110.983 10.9292 111.323C13.1204 113.69 15.3028 116.063 17.4812 118.441C18.2322 119.26 18.8344 119.273 19.6366 118.5C21.0201 117.166 22.4016 115.829 23.8177 114.53C26.72 111.867 29.5563 109.137 32.1431 106.164C33.977 104.056 35.7259 101.874 37.5154 99.727C37.9553 99.1996 38.4189 98.6898 38.8563 98.1636C40.4673 96.224 42.3441 94.5303 44.0405 92.4762L44.0409 92.4796ZM55.6006 70.0733C55.5444 69.9509 55.4889 69.8277 55.4317 69.7045C53.6134 65.7768 51.8063 61.847 50.2055 57.8207C48.2723 52.9558 45.9744 48.2748 42.8336 44.0504C41.4088 42.1328 39.8901 40.2852 37.9734 38.8517C34.1049 35.9599 29.5989 34.6101 24.9358 33.6862C22.4506 33.1941 19.953 33.5798 17.4635 33.6235C12.6645 33.7102 7.99878 34.6148 3.69676 36.7632C-4.87096 41.0401 -12.2211 46.8272 -17.789 54.7283C-19.5298 57.1994 -20.8786 59.8648 -21.9424 62.6797C-23.7168 67.3755 -24.5371 72.2618 -24.8229 77.2533C-24.9625 79.6988 -25.2525 82.1373 -25.0846 84.5959C-24.767 89.2431 -23.2378 93.4942 -20.912 97.4881C-19.0895 100.617 -16.8852 103.454 -14.1482 105.82C-11.5274 108.084 -8.44835 109.622 -5.27302 110.96C-3.10805 111.873 -0.809365 112.099 1.5061 112.271C4.80731 112.515 7.96061 113.317 10.89 114.909C11.6051 115.298 12.2617 115.799 13.0742 116.046C12.785 115.586 12.4595 115.161 12.1203 114.747C11.0292 113.417 9.94723 112.083 8.20946 111.525C7.36091 111.252 6.52953 110.928 5.65939 110.713C3.29713 110.13 0.862043 109.968 -1.51011 109.447C-4.86892 108.709 -7.96913 107.458 -10.5916 105.146C-12.4067 103.547 -13.9128 101.678 -15.4253 99.8145C-18.4348 96.11 -20.563 91.9718 -21.3796 87.2243C-21.9047 84.172 -21.765 81.1116 -21.4968 78.0439C-20.7717 69.7654 -17.8156 62.3572 -12.835 55.7371C-9.61868 51.4621 -5.69349 47.8939 -1.5971 44.4913C2.97064 40.697 8.06768 38.0379 13.974 37.09C18.0918 36.429 22.1747 36.4245 26.2056 37.7326C28.4283 38.4541 30.6103 39.2834 32.815 40.049C35.9982 41.1555 38.6574 43.0279 40.9021 45.5393C42.505 47.333 43.6854 49.3905 44.8442 51.4732C47.7268 56.6543 50.7584 61.7577 52.7464 67.3872C53.2131 68.7087 54.2631 69.5675 55.5968 70.0702L55.6006 70.0733ZM75.0482 77.0438C77.7101 79.1722 82.0996 81.4709 85.2701 82.4065C87.3118 83.0082 89.3797 83.0839 91.4478 82.57C93.0757 82.1653 93.4829 81.5472 93.2796 79.899C93.1844 79.1258 93.0625 78.3565 92.926 77.5896C91.8496 71.4924 89.1923 66.3483 84.0719 62.6236C81.8539 61.0102 79.6701 59.3344 77.7852 57.313C74.7002 54.0053 73.3062 50.2378 74.5905 45.7233C74.8048 44.9726 74.8991 44.1967 74.9697 43.4209C74.9832 43.2724 75.0348 43.0568 74.8442 43.0018C74.6771 42.953 74.5599 43.1209 74.4704 43.2541C73.8456 44.1851 73.254 45.1395 72.5959 46.0453C71.8981 47.0045 71.3441 48.079 70.4358 48.8726C70.1253 49.1441 69.6875 49.4429 69.3376 49.1073C69.0727 48.8525 69.4543 48.4961 69.6012 48.2086C69.6898 48.0352 69.9575 47.8603 69.7374 47.687C69.4561 47.4663 69.3572 47.8254 69.2311 47.975C66.9991 50.6091 66.5001 53.4794 68.0151 56.65C69.1002 58.9228 70.1336 61.2188 71.193 63.5041C71.9155 65.0623 72.3189 66.6926 72.3468 68.4162C72.3735 70.0647 72.4159 71.7133 72.4662 73.3618C72.4929 74.2204 72.8057 74.9677 73.4241 75.5752C73.9789 76.1207 74.5157 76.6865 75.0483 77.0455L75.0482 77.0438ZM95.2452 99.0386C94.9733 99.0714 94.9275 99.2365 94.8561 99.3748C94.2026 100.634 93.5435 101.891 92.8992 103.155C90.5089 107.849 88.049 112.506 84.8773 116.733C82.1138 120.416 79.2788 124.044 76.4676 127.69C75.0135 129.577 73.4605 131.383 71.9201 133.201C70.4967 134.882 68.9624 136.452 67.4105 138.006C65.4858 139.932 63.5149 141.812 61.5419 143.689C59.2553 145.864 57.0126 148.089 54.5554 150.081C54.3859 150.218 54.0724 150.318 54.1331 150.569C54.2056 150.871 54.5476 150.792 54.7807 150.812C57.1356 151.017 59.4011 150.596 61.5665 149.702C68.2832 146.929 73.779 142.482 78.6648 137.192C80.2348 135.492 81.7626 133.759 83.2503 131.986C84.3991 130.618 85.4639 129.185 86.488 127.724C87.7119 125.979 88.6866 124.082 89.755 122.242C91.4208 119.374 93.2295 116.588 94.4666 113.486C95.9072 109.871 96.7794 106.193 95.9308 102.287C95.6957 101.203 95.5707 100.094 95.2442 99.0378L95.2452 99.0386ZM50.8561 93.8084C53.7256 90.4554 56.1618 86.7472 58.5126 82.9707C60.2461 80.1846 61.4556 77.1821 62.5259 74.1076C62.8075 73.3004 62.6446 72.9791 61.8185 72.7035C60.0338 72.1074 58.6091 72.4195 57.8061 74.2939C55.7168 79.1725 52.7449 83.5156 49.5311 87.7012C47.326 90.5728 44.9602 93.3109 42.5545 96.0202C40.0158 98.8799 37.5374 101.796 35.1179 104.762C33.8596 106.305 32.5497 107.816 31.1523 109.231C27.9207 112.504 24.5632 115.65 21.1679 118.754C19.2663 120.492 19.1115 121.65 20.4588 123.346C21.4134 124.548 22.0724 124.616 23.2753 123.637C26.2264 121.236 28.9395 118.571 31.6979 115.96C34.6789 113.137 37.3377 110.016 39.946 106.849C41.1393 105.4 42.4452 104.043 43.6279 102.585C44.8431 101.088 46.3297 99.8243 47.4402 98.2577C48.5167 96.7395 49.7185 95.3281 50.8578 93.8082L50.8561 93.8084ZM27.246 89.325C26.5204 89.3994 25.8741 89.5595 25.2601 89.304C24.6415 89.0464 24.2359 89.2638 23.8589 89.7736C22.5818 91.5048 21.2545 93.2004 19.9286 94.8924C16.636 99.0936 13.6305 103.489 10.7316 107.963C10.6135 108.146 10.3814 108.366 10.6416 108.555C10.8687 108.719 11.0631 108.49 11.2212 108.328C12.5774 106.937 13.9773 105.584 15.2742 104.139C18.0101 101.09 20.6491 97.9562 23.1796 94.7335C24.2954 93.3115 25.3864 91.8696 26.4831 90.4322C26.7285 90.1102 27.0651 89.8533 27.246 89.325ZM44.8251 66.0361C44.6189 66.0065 44.557 66.1839 44.4545 66.2863C42.8804 67.8519 41.2876 69.3994 39.7449 70.9965C37.5353 73.2843 35.2304 75.4847 33.2168 77.9563C32.0002 79.4489 30.8499 80.9963 29.5946 82.4548C28.5364 83.6849 28.2292 85.0075 28.7262 86.5347C28.787 86.7221 28.752 86.9937 28.9994 87.0406C29.2405 87.0856 29.3202 86.823 29.4548 86.6786C29.5323 86.5957 29.5969 86.4993 29.6646 86.4069C32.1937 82.9797 34.7028 79.5381 37.2556 76.1284C39.6719 72.901 42.133 69.7079 44.5702 66.4956C44.6725 66.36 44.8455 66.2542 44.8243 66.037L44.8251 66.0361ZM23.8622 83.162C24.7193 82.2516 24.7847 81.1483 24.5871 80.0078C24.3829 78.8224 23.6446 78.4137 22.5409 78.8852C21.8484 79.1817 21.1998 79.5764 20.5274 79.9205C18.5876 80.9109 18.1012 82.563 18.3284 84.4526C18.4235 85.2494 18.8296 85.6189 19.6422 85.6757C20.6963 85.7493 21.6359 85.4884 22.3868 84.6948C22.8735 84.1798 23.3698 83.6724 23.8605 83.1622L23.8622 83.162ZM24.949 87.4859C25.0918 87.6004 25.2308 87.7196 25.3775 87.8293C26.1584 88.4109 26.7651 88.2885 27.2511 87.4481C27.5557 86.9227 27.4547 86.4082 27.1036 85.974C26.6159 85.3703 26.076 84.8083 25.5498 84.2369C25.2819 83.9465 25.0136 84.0358 24.7857 84.2946C23.205 86.0884 23.2446 85.8994 24.8406 87.3991C24.8738 87.4304 24.9125 87.4567 24.948 87.4851L24.949 87.4859Z" fill="#273812"/>
<path d="M85.0612 131.52C82.4311 134.728 79.5773 137.729 76.7006 140.714C74.7593 142.728 72.8398 144.75 70.5337 146.357C67.1787 148.695 63.5285 150.43 59.6274 151.632C57.8229 152.189 55.9657 152.288 54.1285 151.82C52.9868 151.53 52.105 151.799 51.2339 152.566C49.145 154.406 46.9142 156.045 44.2325 156.945C42.7849 157.431 41.2704 157.529 39.7662 157.666C39.3115 157.707 38.929 157.465 38.58 157.193C31.5255 151.699 26.4798 144.777 23.681 136.249C22.8814 133.813 21.9924 131.405 21.2147 128.961C20.8345 127.766 20.8096 126.476 20.3744 125.283C20.098 124.523 19.7844 123.793 19.2441 123.18C18.7389 122.608 18.3419 121.986 18.1378 121.233C17.9902 120.692 17.6476 120.239 17.138 119.969C14.9336 118.8 12.8279 117.461 10.6474 116.255C7.67948 114.615 4.43073 113.836 1.1005 113.366C-1.55371 112.993 -4.2064 112.633 -6.75481 111.74C-10.231 110.522 -13.2187 108.564 -15.8437 105.991C-18.7753 103.117 -21.3566 99.9841 -23.1487 96.2712C-25.2677 91.8818 -26.9763 87.3182 -26.7236 82.368C-26.3755 75.5423 -25.6224 68.7574 -23.2586 62.2573C-21.4144 57.1855 -18.6468 52.6944 -14.8968 48.8282C-10.5526 44.3501 -5.67171 40.5245 -0.285965 37.3873C3.89131 34.9545 8.44857 33.4995 13.2139 32.7063C17.0988 32.0589 20.9975 31.7774 24.9109 32.397C29.3138 33.0934 33.5236 34.4062 37.3554 36.723C40.1774 38.4295 42.4038 40.7969 44.2348 43.5239C47.2081 47.9515 49.5294 52.727 51.6513 57.606C53.4412 61.7223 55.2262 65.8409 57.0261 69.9527C57.5149 71.0696 57.8113 71.2598 58.9915 71.064C60.884 70.7516 62.5822 71.2042 64.1599 72.2178C64.5832 72.4892 65.0256 72.6151 65.5221 72.6046C67.1711 72.5685 68.8197 72.5289 70.4683 72.5129C70.9304 72.508 71.0927 72.3605 71.1092 71.8723C71.2299 68.3679 70.6488 65.0437 68.9019 61.9425C68.0269 60.3899 67.3196 58.74 66.5701 57.1192C64.9889 53.7031 65.3305 50.5223 67.6815 47.5295C69.298 45.4729 71.3194 43.862 73.2662 42.1614C73.6111 41.8607 74.021 41.642 74.4537 41.4812C75.5631 41.0693 76.1529 41.4237 76.2099 42.5983C76.2607 43.6528 76.1579 44.7025 75.925 45.7378C75.7292 46.6089 75.5107 47.4729 75.49 48.3771C75.4238 51.3261 76.6664 53.7267 78.5397 55.8901C80.0396 57.6217 81.8758 58.9355 83.7171 60.2628C90.2062 64.9377 93.909 71.2743 94.8441 79.2118C94.9652 80.2454 95.4271 80.9088 96.3396 81.3184C96.9679 81.6011 97.567 81.9361 98.0873 82.3909C99.3706 83.5107 99.7351 84.9302 99.3991 86.5577C99.0545 88.2256 98.3544 89.779 97.8231 91.3871C97.2919 92.997 96.7707 94.6102 96.1894 96.202C95.8154 97.2267 96.0555 98.1885 96.3145 99.1639C96.7536 100.824 97.2145 102.477 97.4901 104.179C97.9723 107.151 97.2036 109.906 96.1149 112.614C94.2387 117.282 91.9164 121.718 89.1452 125.913C87.8706 127.842 86.5455 129.741 85.0602 131.52L85.0612 131.52ZM72.9961 129.986C74.045 128.56 75.4767 126.859 76.7991 125.072C79.4548 121.482 82.0676 117.862 84.7242 114.274C86.5961 111.746 88.1927 109.052 89.7279 106.317C92.2912 101.748 94.2048 96.8868 96.0973 92.024C96.9756 89.7668 97.6183 87.4106 97.816 84.9674C97.8876 84.0804 97.5707 83.3913 96.7844 82.9598C96.2837 82.6848 95.7563 82.4608 95.2454 82.2044C94.8827 82.0224 94.6439 82.1181 94.478 82.4881C94.0402 83.4648 93.2369 83.8444 92.2102 83.8447C91.6355 83.8446 91.0673 83.9112 90.5081 84.0511C88.0253 84.6679 85.6468 84.3275 83.3411 83.2872C80.7501 82.1175 78.3703 80.5605 75.8675 79.2298C73.7222 78.0893 72.0169 76.5336 70.9234 74.344C70.7406 73.9767 70.428 73.7971 70.0475 73.765C68.4727 73.632 66.8972 73.5173 65.3144 73.5671C64.7776 73.5847 64.4213 73.8368 64.2356 74.3613C63.9223 75.2454 63.6202 76.1371 63.2402 76.9945C61.6023 80.6928 59.4566 84.0914 57.195 87.4364C54.6789 91.1578 52.0213 94.7689 49.2663 98.313C46.9185 101.335 44.4265 104.239 41.8803 107.094C40.0974 109.093 38.2893 111.07 36.4314 113C33.6695 115.867 30.8628 118.691 28.058 121.518C26.3535 123.234 24.4759 124.736 22.2598 125.743C21.6308 126.029 21.4741 126.331 21.6535 126.995C23.0154 132.05 24.8052 136.947 27.0121 141.692C28.1974 144.241 29.6538 146.614 31.5996 148.656C33.6816 150.84 35.8399 152.954 37.8768 155.181C39.0115 156.421 40.309 156.761 41.894 156.516C44.0251 156.186 45.9477 155.39 47.6509 154.076C51.9288 150.773 56.0761 147.317 60.1068 143.713C64.6951 139.612 68.9447 135.205 72.9961 129.986ZM50.6111 66.9359C50.7711 66.744 50.7198 66.6351 50.6831 66.5316C50.1636 65.0384 49.6502 63.5454 49.0248 62.0919C47.2653 57.9984 45.0024 54.1795 42.7448 50.3522C41.2142 47.7571 39.2406 45.6127 36.8056 43.879C34.6323 42.3314 32.2522 41.162 29.7763 40.1808C23.8507 37.8322 17.8054 37.2402 11.6006 38.928C7.11299 40.1487 3.11175 42.3363 -0.553701 45.154C-3.6456 47.531 -6.43543 50.2383 -9.084 53.1015C-11.0053 55.1788 -12.7352 57.3906 -14.1874 59.8139C-16.5847 63.8134 -18.1778 68.1435 -19.3992 72.6265C-20.3266 76.0316 -20.8854 79.4735 -20.6558 83.0143C-20.2804 88.8036 -18.2905 93.9868 -14.8259 98.6205C-13.2571 100.718 -11.4965 102.651 -9.46487 104.294C-7.04077 106.256 -4.23829 107.472 -1.17301 108.077C0.779282 108.462 2.77686 108.614 4.68792 109.222C5.6257 109.519 6.58682 109.742 7.52749 110.034C8.14865 110.227 8.55634 110.037 8.93475 109.523C9.74122 108.431 10.3142 107.203 11.0246 106.055C12.3978 103.836 13.7236 101.585 15.2251 99.4514C17.0566 96.8496 18.9694 94.3035 20.8358 91.7249C21.587 90.6871 22.3353 89.6454 23.0365 88.5738C23.5414 87.8022 23.3288 87.378 22.3959 87.3005C21.5309 87.2286 20.6581 87.2529 19.7878 87.2366C17.226 87.1878 15.9788 85.6223 16.5183 83.114C17.1708 80.0815 19.0891 78.2083 22.0036 77.3651C24.4713 76.6512 26.173 77.9816 26.2105 80.5597C26.2182 81.0373 26.1361 81.517 26.0791 81.9948C26.0052 82.6215 26.162 83.1823 26.7504 83.4441C27.3545 83.7138 27.5993 83.1137 27.8661 82.763C29.6209 80.4671 31.5394 78.3087 33.405 76.1063C34.9741 74.2544 36.5669 72.42 38.2883 70.7059C40.2669 68.7359 42.3278 66.8478 44.2772 64.8513C45.8524 63.2392 46.1879 63.0288 48.0273 64.8496C48.8159 65.6298 49.7163 66.2803 50.6113 66.9376L50.6111 66.9359ZM44.0409 92.4796C44.4247 91.9437 44.8721 91.2773 45.3624 90.6438C48.3362 86.8051 51.2671 82.9353 53.9947 78.9167C55.0368 77.3804 55.8077 75.6836 56.5966 74.0075C56.9549 73.246 56.7709 72.8842 56.0205 72.4532C53.9347 71.2563 51.9128 69.964 50.0538 68.427C49.1537 67.6837 48.2656 66.9295 47.4167 66.1262C46.7962 65.5391 46.6274 65.5631 46.1158 66.2663C45.4971 67.117 44.9545 68.024 44.3272 68.8677C41.8287 72.2312 39.3199 75.5879 36.7931 78.9317C34.5154 81.947 32.2676 84.9878 29.9065 87.9362C23.7792 95.5846 17.9488 103.485 10.9406 110.39C10.6122 110.713 10.612 110.983 10.9292 111.323C13.1204 113.69 15.3028 116.063 17.4812 118.441C18.2322 119.26 18.8344 119.273 19.6366 118.5C21.0201 117.166 22.4016 115.829 23.8177 114.53C26.72 111.867 29.5563 109.137 32.1431 106.164C33.977 104.056 35.7259 101.874 37.5154 99.727C37.9553 99.1996 38.4189 98.6898 38.8563 98.1636C40.4673 96.224 42.3441 94.5303 44.0405 92.4762L44.0409 92.4796ZM55.6006 70.0733C55.5444 69.9509 55.4889 69.8277 55.4317 69.7045C53.6134 65.7768 51.8063 61.847 50.2055 57.8207C48.2723 52.9558 45.9744 48.2748 42.8336 44.0504C41.4088 42.1328 39.8901 40.2852 37.9734 38.8517C34.1049 35.9599 29.5989 34.6101 24.9358 33.6862C22.4506 33.1941 19.953 33.5798 17.4635 33.6235C12.6645 33.7102 7.99878 34.6148 3.69676 36.7632C-4.87096 41.0401 -12.2211 46.8272 -17.789 54.7283C-19.5298 57.1994 -20.8786 59.8648 -21.9424 62.6797C-23.7168 67.3755 -24.5371 72.2618 -24.8229 77.2533C-24.9625 79.6988 -25.2525 82.1373 -25.0846 84.5959C-24.767 89.2431 -23.2378 93.4942 -20.912 97.4881C-19.0895 100.617 -16.8852 103.454 -14.1482 105.82C-11.5274 108.084 -8.44835 109.622 -5.27302 110.96C-3.10805 111.873 -0.809365 112.099 1.5061 112.271C4.80731 112.515 7.96061 113.317 10.89 114.909C11.6051 115.298 12.2617 115.799 13.0742 116.046C12.785 115.586 12.4595 115.161 12.1203 114.747C11.0292 113.417 9.94723 112.083 8.20946 111.525C7.36091 111.252 6.52953 110.928 5.65939 110.713C3.29713 110.13 0.862043 109.968 -1.51011 109.447C-4.86892 108.709 -7.96913 107.458 -10.5916 105.146C-12.4067 103.547 -13.9128 101.678 -15.4253 99.8145C-18.4348 96.11 -20.563 91.9718 -21.3796 87.2243C-21.9047 84.172 -21.765 81.1116 -21.4968 78.0439C-20.7717 69.7654 -17.8156 62.3572 -12.835 55.7371C-9.61868 51.4621 -5.69349 47.8939 -1.5971 44.4913C2.97064 40.697 8.06768 38.0379 13.974 37.09C18.0918 36.429 22.1747 36.4245 26.2056 37.7326C28.4283 38.4541 30.6103 39.2834 32.815 40.049C35.9982 41.1555 38.6574 43.0279 40.9021 45.5393C42.505 47.333 43.6854 49.3905 44.8442 51.4732C47.7268 56.6543 50.7584 61.7577 52.7464 67.3872C53.2131 68.7087 54.2631 69.5675 55.5968 70.0702L55.6006 70.0733ZM75.0482 77.0438C77.7101 79.1722 82.0996 81.4709 85.2701 82.4065C87.3118 83.0082 89.3797 83.0839 91.4478 82.57C93.0757 82.1653 93.4829 81.5472 93.2796 79.899C93.1844 79.1258 93.0625 78.3565 92.926 77.5896C91.8496 71.4924 89.1923 66.3483 84.0719 62.6236C81.8539 61.0102 79.6701 59.3344 77.7852 57.313C74.7002 54.0053 73.3062 50.2378 74.5905 45.7233C74.8048 44.9726 74.8991 44.1967 74.9697 43.4209C74.9832 43.2724 75.0348 43.0568 74.8442 43.0018C74.6771 42.953 74.5599 43.1209 74.4704 43.2541C73.8456 44.1851 73.254 45.1395 72.5959 46.0453C71.8981 47.0045 71.3441 48.079 70.4358 48.8726C70.1253 49.1441 69.6875 49.4429 69.3376 49.1073C69.0727 48.8525 69.4543 48.4961 69.6012 48.2086C69.6898 48.0352 69.9575 47.8603 69.7374 47.687C69.4561 47.4663 69.3572 47.8254 69.2311 47.975C66.9991 50.6091 66.5001 53.4794 68.0151 56.65C69.1002 58.9228 70.1336 61.2188 71.193 63.5041C71.9155 65.0623 72.3189 66.6926 72.3468 68.4162C72.3735 70.0647 72.4159 71.7133 72.4662 73.3618C72.4929 74.2204 72.8057 74.9677 73.4241 75.5752C73.9789 76.1207 74.5157 76.6865 75.0483 77.0455L75.0482 77.0438ZM95.2452 99.0386C94.9733 99.0714 94.9275 99.2365 94.8561 99.3748C94.2026 100.634 93.5435 101.891 92.8992 103.155C90.5089 107.849 88.049 112.506 84.8773 116.733C82.1138 120.416 79.2788 124.044 76.4676 127.69C75.0135 129.577 73.4605 131.383 71.9201 133.201C70.4967 134.882 68.9624 136.452 67.4105 138.006C65.4858 139.932 63.5149 141.812 61.5419 143.689C59.2553 145.864 57.0126 148.089 54.5554 150.081C54.3859 150.218 54.0724 150.318 54.1331 150.569C54.2056 150.871 54.5476 150.792 54.7807 150.812C57.1356 151.017 59.4011 150.596 61.5665 149.702C68.2832 146.929 73.779 142.482 78.6648 137.192C80.2348 135.492 81.7626 133.759 83.2503 131.986C84.3991 130.618 85.4639 129.185 86.488 127.724C87.7119 125.979 88.6866 124.082 89.755 122.242C91.4208 119.374 93.2295 116.588 94.4666 113.486C95.9072 109.871 96.7794 106.193 95.9308 102.287C95.6957 101.203 95.5707 100.094 95.2442 99.0378L95.2452 99.0386ZM50.8561 93.8084C53.7256 90.4554 56.1618 86.7472 58.5126 82.9707C60.2461 80.1846 61.4556 77.1821 62.5259 74.1076C62.8075 73.3004 62.6446 72.9791 61.8185 72.7035C60.0338 72.1074 58.6091 72.4195 57.8061 74.2939C55.7168 79.1725 52.7449 83.5156 49.5311 87.7012C47.326 90.5728 44.9602 93.3109 42.5545 96.0202C40.0158 98.8799 37.5374 101.796 35.1179 104.762C33.8596 106.305 32.5497 107.816 31.1523 109.231C27.9207 112.504 24.5632 115.65 21.1679 118.754C19.2663 120.492 19.1115 121.65 20.4588 123.346C21.4134 124.548 22.0724 124.616 23.2753 123.637C26.2264 121.236 28.9395 118.571 31.6979 115.96C34.6789 113.137 37.3377 110.016 39.946 106.849C41.1393 105.4 42.4452 104.043 43.6279 102.585C44.8431 101.088 46.3297 99.8243 47.4402 98.2577C48.5167 96.7395 49.7185 95.3281 50.8578 93.8082L50.8561 93.8084ZM27.246 89.325C26.5204 89.3994 25.8741 89.5595 25.2601 89.304C24.6415 89.0464 24.2359 89.2638 23.8589 89.7736C22.5818 91.5048 21.2545 93.2004 19.9286 94.8924C16.636 99.0936 13.6305 103.489 10.7316 107.963C10.6135 108.146 10.3814 108.366 10.6416 108.555C10.8687 108.719 11.0631 108.49 11.2212 108.328C12.5774 106.937 13.9773 105.584 15.2742 104.139C18.0101 101.09 20.6491 97.9562 23.1796 94.7335C24.2954 93.3115 25.3864 91.8696 26.4831 90.4322C26.7285 90.1102 27.0651 89.8533 27.246 89.325ZM44.8251 66.0361C44.6189 66.0065 44.557 66.1839 44.4545 66.2863C42.8804 67.8519 41.2876 69.3994 39.7449 70.9965C37.5353 73.2843 35.2304 75.4847 33.2168 77.9563C32.0002 79.4489 30.8499 80.9963 29.5946 82.4548C28.5364 83.6849 28.2292 85.0075 28.7262 86.5347C28.787 86.7221 28.752 86.9937 28.9994 87.0406C29.2405 87.0856 29.3202 86.823 29.4548 86.6786C29.5323 86.5957 29.5969 86.4993 29.6646 86.4069C32.1937 82.9797 34.7028 79.5381 37.2556 76.1284C39.6719 72.901 42.133 69.7079 44.5702 66.4956C44.6725 66.36 44.8455 66.2542 44.8243 66.037L44.8251 66.0361ZM23.8622 83.162C24.7193 82.2516 24.7847 81.1483 24.5871 80.0078C24.3829 78.8224 23.6446 78.4137 22.5409 78.8852C21.8484 79.1817 21.1998 79.5764 20.5274 79.9205C18.5876 80.9109 18.1012 82.563 18.3284 84.4526C18.4235 85.2494 18.8296 85.6189 19.6422 85.6757C20.6963 85.7493 21.6359 85.4884 22.3868 84.6948C22.8735 84.1798 23.3698 83.6724 23.8605 83.1622L23.8622 83.162ZM24.949 87.4859C25.0918 87.6004 25.2308 87.7196 25.3775 87.8293C26.1584 88.4109 26.7651 88.2885 27.2511 87.4481C27.5557 86.9227 27.4547 86.4082 27.1036 85.974C26.6159 85.3703 26.076 84.8083 25.5498 84.2369C25.2819 83.9465 25.0136 84.0358 24.7857 84.2946C23.205 86.0884 23.2446 85.8994 24.8406 87.3991C24.8738 87.4304 24.9125 87.4567 24.948 87.4851L24.949 87.4859Z" stroke="#273812" stroke-width="2" mask="url(#path-5-outside-3_1051_980)"/>
</g>
</g>
</svg>
