<svg width="141" height="767" viewBox="0 0 141 767" fill="none" xmlns="http://www.w3.org/2000/svg">
<g opacity="0.5">
<path opacity="0.3" d="M76.3462 202.024C76.3568 199.877 76.9172 195.046 77.4725 191.28C76.9646 185.392 76.9698 184.318 79.1333 179.995C82.3811 173.509 83.4603 172.419 94.2561 158.319C96.9487 155.599 100.725 150.715 102.344 149.08C103.428 146.917 108.279 140.948 113.129 136.049C117.446 130.62 121.223 125.737 121.223 125.737C121.762 125.192 126.618 119.218 133.082 112.689C145.475 100.17 147.094 98.5354 146.036 95.34C145.512 92.6633 143.909 92.1555 139.08 91.6908L134.261 91.2261L129.944 96.6544C126.712 99.9191 124.015 103.713 122.93 105.876C121.312 108.58 119.154 110.76 118.614 111.305C117.535 112.395 114.832 117.262 112.663 121.58C108.876 128.611 106.723 130.786 101.323 137.299C97.5513 141.109 93.2297 147.611 91.0715 150.86C83.5179 160.627 71.6431 175.817 69.4953 176.918C68.4216 176.934 66.8083 177.495 65.2001 178.051C60.9049 179.184 57.6834 180.311 51.2302 183.624C46.3902 186.376 44.2374 187.482 38.8474 192.926C31.8438 200 32.9179 198.916 29.6385 211.835C29.078 216.665 29.6016 219.342 31.7493 218.241C32.2836 218.77 35.5155 215.505 39.287 211.696L46.2855 205.695L41.9637 212.197C40.3397 215.975 37.1024 220.313 35.4839 221.948C33.8651 224.652 32.7757 227.89 34.9183 227.853C34.9183 227.853 38.1449 225.662 41.9164 221.852L50.5385 213.143C53.2257 211.497 53.2258 211.497 52.6861 213.111C52.1358 216.872 47.275 222.841 43.5137 225.582C40.287 227.772 37.5841 231.571 39.7264 232.613C40.8001 232.597 50.4698 228.162 57.4678 223.23C61.2341 220.494 64.466 218.299 68.7773 212.875C74.1724 207.416 74.7222 205.802 76.3462 202.024ZM52.1091 224.369C44.5768 228.772 40.8155 231.513 45.1163 228.227C48.8825 225.491 55.3571 216.814 56.4467 213.577C58.631 206.037 56.4887 204.996 49.4904 210.996C47.3324 213.176 44.6452 214.822 44.6452 214.822C44.1057 215.367 44.1108 214.293 44.6503 213.748C45.1899 213.203 46.8035 211.573 47.3536 208.881C48.4378 206.717 50.0565 204.013 50.596 203.468C51.6803 201.304 51.6803 201.304 50.0723 200.792C47.3853 201.369 43.0796 204.649 38.229 209.549C35.5365 212.269 32.8388 214.993 32.3046 214.464C31.7651 215.009 33.4206 205.868 34.5051 202.635C35.0446 202.09 35.5892 200.471 37.2027 198.841L38.8216 196.138L39.3452 198.814C38.8005 200.433 39.3294 202.036 39.8689 201.491C40.4032 202.02 41.4983 196.64 40.4348 195.587C40.9743 195.042 40.9794 193.968 41.5189 193.423L43.1375 191.788L43.1216 195.01C43.6298 199.829 44.709 198.739 44.7351 194.449C45.2851 191.756 45.8249 190.142 46.3644 189.597C47.4381 189.581 47.438 189.581 47.412 193.872C47.4015 196.02 47.3962 197.093 47.3962 197.093C47.9357 196.548 49.0201 193.316 49.0462 189.025C49.0567 186.878 49.5963 186.333 50.67 186.317C51.2043 186.846 50.6595 188.464 50.644 190.607C49.5597 192.771 50.0937 194.369 50.0937 194.369C50.628 194.897 51.1727 193.279 51.7177 190.591C52.823 184.142 54.4312 183.576 53.3362 188.956C52.7862 191.649 52.7757 193.787 53.8442 194.844C54.3785 195.373 54.918 194.828 55.9972 192.67C56.542 191.051 57.0815 190.506 58.1553 190.49C58.6895 191.019 59.2342 189.4 59.2397 187.257C59.266 181.898 60.8792 181.337 60.3187 186.167C60.8424 188.844 60.8322 189.913 61.3717 189.368C61.3717 189.368 62.456 187.204 61.922 185.606C62.4775 180.771 63.0172 180.226 63.5354 185.046C64.0644 186.648 64.0591 187.722 64.5884 188.246C65.1279 187.701 66.2016 187.685 65.6674 187.156C65.1539 183.411 65.1593 181.268 66.233 181.252C66.233 181.252 66.7673 181.781 66.7621 182.855C67.2858 185.531 67.2858 185.531 69.4438 183.351C70.5228 182.261 71.5969 181.177 71.0626 180.648C70.5284 180.119 71.6072 179.029 73.7602 176.854C78.6108 171.955 92.6441 153.516 92.6546 151.368C93.1941 150.823 94.8128 148.119 106.138 135.611C108.83 132.892 112.072 128.548 112.612 126.934C113.157 125.316 115.315 122.067 116.939 119.358C119.103 115.036 119.642 114.491 119.637 115.565C120.171 116.094 121.245 116.078 121.245 116.078C122.319 116.062 122.324 114.988 121.25 115.004C120.182 113.946 120.182 113.946 120.726 112.327C121.805 111.237 122.345 110.692 122.879 111.221C124.487 111.734 125.566 110.644 124.498 109.586C123.429 108.528 123.429 108.528 123.974 106.91C126.127 104.735 126.127 104.735 126.121 106.877C126.65 108.48 127.185 109.009 127.185 109.009C127.724 108.464 127.729 107.39 127.735 106.316C127.206 104.714 127.221 102.571 127.221 102.571C128.3 101.481 128.834 102.01 129.353 104.681C129.882 106.284 129.882 106.284 129.882 106.284C130.422 105.739 130.427 104.665 130.432 103.592C129.903 101.989 130.448 100.37 130.987 99.825C132.066 98.7351 131.527 99.2801 132.056 100.883C132.58 103.56 132.58 103.56 133.119 103.015C133.659 102.47 133.67 99.2532 132.606 98.2003C132.606 98.2003 132.072 97.6713 132.611 97.1263C133.69 96.0364 134.224 96.5653 134.743 99.237C135.257 102.983 136.336 101.893 135.822 98.147C135.838 94.9255 136.383 93.3167 136.912 93.8407C137.446 94.3696 137.441 95.4434 137.436 96.5173C137.425 98.665 137.425 98.6651 137.425 98.6651C137.965 98.1201 138.504 97.5751 137.975 95.9723L137.986 93.8248L140.668 94.3215C142.815 94.2894 142.815 94.2894 143.339 95.8872C143.329 98.035 141.71 100.739 136.32 106.183C133.627 108.903 127.698 114.892 124.46 119.231C120.149 123.585 113.68 131.189 109.903 136.072C102.36 143.691 93.7277 154.548 88.3272 162.13C87.2481 163.22 85.0899 166.469 82.9317 169.718C80.2392 172.437 77.0019 176.776 75.9123 180.013C73.2146 183.807 73.2092 184.881 73.7172 190.769C74.2304 195.583 74.7541 198.26 73.125 202.042C71.501 205.82 71.4957 206.894 65.5662 212.883C60.7205 217.808 56.9543 220.544 52.1091 224.369ZM57.1335 183.004C57.6677 183.533 57.6624 184.606 57.6572 185.68C57.1176 186.225 57.1122 187.299 57.6464 187.828C57.6464 187.828 56.5674 188.918 56.0279 189.463C54.4094 191.098 54.4094 191.098 56.0437 186.241C56.0543 184.093 57.1335 183.004 57.1335 183.004Z" fill="#273812"/>
<path opacity="0.3" d="M7.96456 119.272C7.0141 126.955 8.20081 131.368 12.6416 133.605C18.2046 136.954 33.5571 134.904 38.4087 130.004C40.5622 127.828 41.1231 128.384 41.6842 128.939C42.2453 129.495 42.2455 129.495 42.2455 129.495C42.7851 128.95 43.3246 128.405 42.7635 127.849C42.2023 127.294 42.181 126.193 43.2603 125.103C45.9534 122.383 49.143 116.916 51.2372 111.444C56.9748 95.5584 57.5095 95.0186 70.9851 81.4069C75.8152 75.4056 80.127 71.0499 83.3167 65.5833C87.5857 59.0265 90.8186 55.7613 98.903 47.5953C104.834 41.6045 110.781 36.7193 112.94 34.539C115.12 33.4593 119.453 30.2044 123.226 26.3939C130.792 19.8736 132.929 16.5928 131.742 12.1903C131.16 10.5341 130.042 9.42813 129.481 8.87261C127.798 7.20606 123.427 8.26511 119.067 10.4246C116.887 11.5043 108.284 21.3159 104.538 26.2219C103.459 27.312 101.327 30.588 99.1688 32.7683C97.5765 35.4991 91.6671 42.5904 87.3766 48.0466C83.0861 53.5027 77.1818 60.589 75.0448 63.8699C70.2361 70.9717 61.6122 79.6828 59.4157 79.6568C58.3149 79.6464 57.7751 80.1913 57.7751 80.1913C57.7966 81.2919 49.6478 86.1561 46.9119 86.6855C44.7319 87.7653 33.3075 93.704 31.1326 94.7786C31.1326 94.7786 28.9527 95.8585 26.7778 96.9331C22.9624 98.5424 21.3434 100.178 16.4918 105.078C8.93662 112.689 8.95803 113.789 7.96456 119.272ZM53.5601 90.0293C53.0635 92.7756 52.5023 92.22 52.4378 88.9182C52.4163 87.8176 53.4956 86.7276 53.4956 86.7276C54.062 87.2883 54.0783 88.3837 53.5601 90.0293ZM17.7916 116.069C16.6479 113.857 18.1596 106.729 19.2388 105.639C19.7785 105.094 19.8214 107.295 20.4202 110.047C19.9236 112.793 20.5275 115.539 20.5275 115.539C21.0671 114.994 21.5852 113.349 22.0768 110.607C21.9695 105.115 23.0274 102.924 25.2074 101.844C25.747 101.299 25.7684 102.4 25.2983 106.241C24.3263 112.824 26.5064 111.745 26.9172 104.606C27.9269 100.219 28.4451 98.5737 29.5458 98.5841C30.107 99.1396 30.1284 100.24 30.1927 103.532C30.3 109.024 31.3742 107.939 31.8116 101.896C32.2816 98.0546 33.3232 94.7685 34.9798 95.3293C35.5409 95.8848 35.0443 98.6311 34.526 100.266C34.569 102.468 34.0559 104.108 34.6118 104.659C34.6118 104.659 35.6696 102.468 36.1612 99.7266C36.6578 96.9804 37.7105 94.7947 38.2501 94.2497C38.7898 93.7046 39.3509 94.2601 38.3146 97.5514C37.7965 99.1971 37.8445 101.393 38.4004 101.944C38.4004 101.944 39.4582 99.7528 39.9498 97.0116C40.986 93.7203 41.4992 92.0797 42.5784 90.9895C44.2188 90.4549 44.2188 90.4549 43.7384 94.2966C42.6807 96.4873 42.7022 97.5879 43.2633 98.1434C43.2848 99.244 44.364 98.1538 44.8341 94.312C45.3522 92.6664 45.8705 91.0209 46.4051 90.4809C46.4051 90.4809 46.966 91.0362 46.4479 92.6819C45.9298 94.3275 45.9512 95.4281 46.5124 95.9836C46.5339 97.0842 48.1313 94.3484 48.6014 90.5067C49.098 87.7604 49.6326 87.2204 50.7548 88.3314C51.316 88.8869 50.7978 90.5326 50.8193 91.6332C49.227 94.3639 49.7881 94.9194 52.5027 93.2997C54.1216 91.6645 55.196 90.5796 55.6926 87.8333C56.1892 85.0871 56.7238 84.5471 60.0046 83.4778C63.7984 80.7679 72.9619 71.5116 78.3101 63.8647C80.4421 60.5889 83.68 57.3185 85.2938 55.6883C86.9127 54.0531 89.0446 50.7772 90.6369 48.0464C92.2343 45.3106 94.9061 41.4899 97.0596 39.3147C99.7312 35.4938 100.832 35.5041 100.853 36.6047C100.875 37.7053 100.896 38.806 101.436 38.2609C102.537 38.2713 102.494 36.0701 101.372 34.9591C100.81 34.4036 100.249 33.848 101.328 32.7579C102.408 31.6677 103.509 31.6782 103.53 32.7788C103.573 34.98 105.235 35.5458 105.192 33.3446C105.731 32.7995 105.71 31.6991 105.149 31.1436C104.588 30.588 105.127 30.0428 105.667 29.4977C107.286 27.8625 107.286 27.8626 106.768 29.5083C106.228 30.0534 106.789 30.6087 107.35 31.1643C107.911 31.7198 108.991 30.6298 108.382 27.8782C108.339 25.677 109.931 22.9462 110.492 23.5017C111.053 24.0572 111.075 25.1579 110.535 25.7029C109.456 26.7931 110.017 27.3484 110.578 27.9039C111.7 29.015 112.24 28.4701 111.609 24.6179C112.128 22.9722 112.641 21.3315 113.18 20.7865C113.72 20.2414 113.18 20.7864 113.202 21.887C113.223 22.9876 113.245 24.0882 113.784 23.5432C114.345 24.0987 114.864 22.4531 114.842 21.3525C115.312 17.5107 115.852 16.9656 116.461 19.7173C116.552 24.1145 117.626 23.0295 117.54 18.6271C117.454 14.235 119.073 12.5998 119.159 16.9918C119.785 20.8492 120.864 19.759 120.778 15.3566C121.248 11.5148 122.349 11.5251 122.979 15.3773C123.022 17.5785 123.022 17.5785 124.663 17.0438C126.303 16.5092 126.843 15.9641 126.816 14.8686C126.795 13.768 126.773 12.6676 127.313 12.1225C127.853 11.5774 128.975 12.6885 129.013 14.8845C129.056 17.0857 127.981 18.1706 120.41 24.6961C116.098 29.0516 109.071 35.0268 105.273 37.7418C96.0874 45.8973 90.1566 51.8881 86.4057 56.7992C79.9833 65.5311 77.8462 68.812 68.148 78.6082C62.2172 84.599 57.3922 90.5953 55.7734 92.2305C54.7156 94.4213 52.562 96.5964 52.562 96.5964C52.0224 97.1415 51.5043 98.7871 51.5523 100.983C51.5953 103.184 50.0192 107.011 47.3906 113.033C44.7782 120.15 43.7257 122.336 39.9483 126.152C36.1709 129.967 35.0752 129.952 30.1643 131.556C15.9343 134.717 9.83145 131.913 10.7174 120.928C11.1498 114.89 12.2453 114.895 11.7967 119.837C11.3643 125.875 13.0263 126.441 13.4586 120.403C13.9125 115.466 14.3662 110.519 14.9058 109.974C14.9058 109.974 16.0495 112.185 15.5476 114.927C16.1518 117.683 16.1946 119.874 16.7558 120.43C17.3431 121.011 17.8346 118.27 17.7916 116.069Z" fill="#273812"/>
<g opacity="0.3">
<path d="M92.0128 747.663C95.3348 746.051 98.6541 744.441 102.19 742.727C101.442 742.664 100.881 742.657 100.371 742.571C98.3428 742.23 96.8177 741.335 95.4927 740.219C95.1781 739.954 95.2729 739.565 95.7552 739.11C96.2647 738.628 96.7602 738.49 97.1349 738.718C99.1741 739.945 101.888 740.183 104.798 740.137C105.274 740.131 105.712 740.168 105.92 740.497C106.053 740.71 106.304 740.756 106.666 740.545C107.108 740.29 107.582 740.122 108.007 739.768C107.88 739.577 107.589 739.617 107.377 739.563C106.091 739.244 105.011 738.705 104.13 737.95C103.718 737.597 103.447 737.131 104.186 736.409C104.945 735.666 105.473 735.971 105.936 736.187C107.326 736.839 108.95 737.168 110.651 737.402C111.979 737.586 113.345 737.209 114.824 736.125C115.052 735.959 115.406 735.849 115.449 735.585C115.492 735.32 115.156 735.388 114.949 735.365C114.022 735.27 113.082 735.198 112.155 735.102C111.731 735.061 111.454 734.887 111.684 734.378C111.913 733.868 112.368 733.67 112.853 733.553C112.994 733.519 113.14 733.484 113.269 733.475C115.167 733.331 117.141 733.025 118.945 733.086C119.854 733.117 120.699 732.775 121.577 732.073C121.767 731.922 122.088 731.798 122.073 731.567C122.061 731.399 121.797 731.464 121.631 731.448C120.794 731.367 120.005 731.221 119.369 730.874C119.056 730.704 119.065 730.371 119.284 729.953C119.471 729.598 119.785 729.447 120.099 729.432C122.171 729.315 124.481 728.542 126.489 728.593C126.795 728.601 127.085 728.494 127.401 728.275C129.204 727.017 131.037 725.804 132.807 724.496C136.533 721.741 140.259 718.985 143.863 716.068C147.44 713.174 150.872 710.156 154.278 707.111C154.969 706.494 155.214 705.994 155.167 705.364C155.084 704.235 154.689 703.272 154.546 702.18C154.496 701.803 154.547 701.356 155.075 700.975C155.646 700.563 156.049 700.722 156.4 700.901C157.026 701.224 157.268 701.832 157.509 702.439C158.01 703.713 158.181 703.683 159.639 702.037C159.854 701.795 159.922 701.61 159.838 701.417C159.397 700.357 159.502 699.033 159.315 697.848C159.245 697.404 159.418 696.913 160.09 696.559C160.755 696.208 160.961 696.528 161.12 696.885C161.417 697.548 161.741 698.196 162.047 698.853C162.219 699.228 162.438 699.203 162.968 698.707C163.921 697.813 164.216 697.027 164.087 696.213C164.014 695.752 163.74 695.441 163.484 695.113C163.269 694.839 163.159 694.558 163.649 694.085C164.137 693.61 164.592 693.546 164.991 693.654C165.505 693.793 165.881 694.087 166.109 694.49C166.382 694.969 166.711 694.78 167.218 694.224C172.974 687.907 178.382 681.467 182.942 674.749C184.817 671.988 186.532 669.197 186.856 666.477C187.01 665.177 187.004 663.918 187.771 662.472C187.823 662.377 187.842 662.261 187.818 662.188C187.525 661.238 187.221 660.295 186.872 659.194C185.995 661.108 185.336 662.796 184.385 664.496C183.316 666.407 182.128 668.295 180.325 670.027C179.802 670.528 179.243 670.903 178.641 670.83C178.002 670.753 177.971 670.29 178.153 669.696C178.409 668.87 178.813 668.031 179.25 667.195C180.83 664.177 182.517 661.155 183.486 658.156C183.678 657.563 184.055 656.993 184.818 656.584C185.349 656.299 185.423 656.029 185.221 655.725C183.961 653.812 182.814 651.814 181.394 650.017C179.989 648.234 178.564 646.464 177.146 644.692C177.033 644.553 176.892 644.437 176.757 644.317C175.8 643.456 174.644 642.751 174.006 641.635C172.621 639.216 170.777 637.147 169.073 634.967C169.026 634.904 168.959 634.856 168.738 634.979C168.393 636.001 168.092 637.042 168.298 637.918C168.499 638.777 168.208 639.701 167.533 640.725C167.001 641.535 166.394 642.321 165.719 643.08C164.814 644.098 164.15 645.13 163.682 646.218C163.091 647.581 162.599 649.012 161.382 650.287C160.357 651.361 159.943 652.416 159.335 653.488C159.098 653.904 159.228 653.942 159.655 653.848C161.129 653.521 161.235 653.599 161.44 654.714C161.555 655.346 161.559 656.024 161.507 656.723C161.428 657.782 161.255 658.858 160.452 660.04C160.073 660.601 159.61 661.275 158.946 661.393C158.292 661.509 158.296 660.894 158.304 660.418C158.318 659.553 158.346 658.676 158.451 657.78C158.525 657.147 158.347 656.899 157.508 657.154C156.795 657.373 156.076 657.495 155.481 657.395C154.996 657.314 154.691 657.506 154.315 657.99C153.127 659.515 151.769 660.954 150.319 662.365C148.024 664.592 145.375 666.342 142.764 668.15C142.435 668.379 142.082 668.543 141.741 668.6C141.255 668.68 140.774 668.684 140.675 668.307C140.566 667.887 141.107 667.541 141.521 667.242C142.844 666.289 143.874 665.18 144.676 663.945C145.425 662.79 146.41 661.728 147.526 660.764C151.551 657.287 154.774 653.53 157.092 649.39C158.227 647.362 159.636 645.364 161.24 643.408C162.855 641.438 163.849 639.462 164.187 637.493C164.614 635.023 164.721 632.677 164.378 630.501C164.265 629.782 164.125 629.07 163.727 628.512C162.351 626.579 160.657 624.897 159.102 623.108C156.878 620.553 154.45 618.165 151.804 615.963C151.083 615.363 150.356 614.766 149.627 614.167C149.357 614.429 149.436 614.54 149.437 614.67C149.442 615.706 149.846 616.513 150.259 617.319C150.836 618.447 150.964 619.788 150.736 621.294C150.676 621.694 150.449 622.055 149.946 622.311C149.435 622.57 149.237 622.359 149.074 622.12C148.906 621.873 148.785 621.59 148.59 621.365C148.318 621.057 148.161 620.638 147.531 620.434C148 621.361 148.428 622.128 148.787 622.938C149.211 623.893 149.79 624.785 149.378 626.158C149.164 626.875 148.679 627.641 147.86 627.999C146.988 628.381 146.748 627.77 146.611 627.283C145.99 625.089 144.89 623.219 143.646 621.433C143.075 620.615 142.696 619.667 142.641 618.54C142.627 618.294 142.591 618.035 142.898 617.759C143.253 617.439 143.563 617.499 143.849 617.534C144.585 617.627 145.088 617.985 145.613 618.319C146.236 618.719 146.552 619.402 147.356 619.663C147.438 619.361 147.289 619.216 147.218 619.029C146.486 617.125 145.114 615.631 144.614 613.581C144.305 612.304 143.392 611.471 142.498 610.648C140.704 608.996 137.832 608.912 134.568 609.489C129.028 610.468 123.393 612.619 117.731 615.392C110.105 619.126 102.881 623.834 95.8556 628.98C92.302 631.584 88.8657 634.332 85.4318 637.089C80.4161 641.117 75.4916 645.237 70.6412 649.432C64.5411 654.707 58.6716 660.148 53.3271 665.952C47.8727 671.874 43.0338 677.957 39.6944 684.411C37.5532 688.551 36.3352 692.506 36.6147 696.108C36.823 698.802 37.6221 701.139 40.1718 702.26C42.0561 703.088 44.0674 703.751 46.2411 704.214C48.1117 704.614 50.0084 704.979 51.6883 705.635C52.6545 706.011 53.4772 706.529 54.1449 707.2C54.2842 707.338 54.4625 707.487 54.2327 707.796C54.0388 708.06 53.7536 708.114 53.5043 708.158C53.0055 708.245 52.4849 708.367 52.0208 708.377C49.3344 708.439 46.6021 708.586 44.122 708.255C43.9261 708.229 43.7665 708.087 43.3938 708.306C43.6604 708.549 43.9213 708.767 44.1568 709.003C46.5397 711.436 49.1917 713.623 52.2134 715.475C54.7322 717.017 57.4657 718.347 59.6645 720.207C60.1874 720.65 60.459 721.362 61.2407 721.516C62.409 721.75 63.572 722.012 64.905 721.997C66.0612 721.982 67.2446 721.692 68.5138 720.907C69.0646 720.567 69.6373 720.25 70.2094 719.98C72.47 718.913 74.6444 718.318 76.6922 718.31C77.5978 718.306 78.378 717.973 79.267 717.145C80.9613 715.573 82.3539 715.133 83.7608 715.567C84.4502 715.78 84.3846 716.431 83.5446 717.072C82.979 717.503 82.9294 717.7 83.3206 717.892C83.5096 717.985 83.6244 718.155 83.7847 718.28C84.4506 718.807 84.935 719.503 85.8632 719.788C87.0021 720.135 87.863 719.85 89.1291 718.675C89.9643 717.899 90.7863 717.111 91.6423 716.357C92.7047 715.421 93.7346 715.343 93.9816 716.151C94.1561 716.722 93.7546 717.5 92.7544 718.349C91.1056 719.754 89.3398 720.886 87.4031 721.639C86.0017 722.184 84.879 722.209 84.0034 721.72C83.3627 721.361 82.7478 720.971 82.161 720.561C81.7535 720.277 81.3574 720.348 80.7087 720.874C78.9151 722.327 77.0998 722.948 75.3137 722.941C74.8501 722.94 74.4062 722.895 73.9274 722.933C72.6125 723.03 72.0998 723.462 71.9098 724.62C71.8415 725.027 71.8185 725.424 71.8149 725.811C71.7998 726.704 71.6813 727.63 71.4691 728.583C71.3557 729.088 71.1892 729.622 70.4587 729.94C69.6921 730.274 69.5242 729.829 69.3857 729.457C69.1864 728.924 69.0612 728.342 68.9581 727.754C68.6108 725.806 68.4859 723.808 70.9264 721.289C68.2955 723.38 65.6788 724.383 62.9765 724.558C63.2612 725.926 63.6248 727.14 63.7079 728.486C63.9559 732.585 65.5694 735.781 68.4285 738.202C72.0501 741.273 75.57 744.431 79.152 747.536C80.8134 748.976 82.7933 750.071 85.3982 750.469C85.837 750.537 86.2668 750.563 86.8319 750.266C88.4255 749.432 90.0215 748.606 91.6161 747.78C91.7487 747.733 91.8853 747.686 92.0179 747.64L92.0128 747.663ZM181.744 641.508C181.243 641.832 183.292 644.588 183.483 644.818C185.595 647.39 187.62 650.031 189.188 652.997C190.217 654.944 191.405 656.796 191.885 659.09C191.925 659.277 191.985 659.456 191.985 659.656C192.013 664.399 191.073 669.268 187.305 674.731C181.051 683.799 173.713 692.424 165.489 700.72C160.205 706.049 154.58 711.1 148.696 715.953C143.875 719.93 138.903 723.699 133.785 727.27C122.601 735.072 111.036 741.772 99.0857 747.279C95.1039 749.116 91.1224 750.607 87.1798 751.588C86.8898 751.659 86.5959 751.726 86.3431 751.97C85.2893 752.988 84.189 753.212 83.1182 753.324C80.3999 753.613 78.4957 752.805 76.884 751.625C73.5643 749.195 70.8516 746.231 67.6804 743.671C65.9925 742.307 64.3724 740.888 62.8882 739.344C61.0843 737.47 60.0896 735.095 59.5991 732.389C59.2374 730.399 58.9577 728.365 58.1853 726.59C58.1853 726.59 57.6096 723.566 55.1434 722.984C54.5595 722.846 54.228 722.412 53.7746 722.12C51.2757 720.529 48.525 719.188 46.2734 717.351C44.4352 715.853 42.6943 714.273 41.1628 712.508C39.6083 710.713 38.1168 708.873 36.9108 706.821C36.3357 705.841 35.8767 704.786 35.0141 704.004C32.9474 702.138 31.8742 699.665 32.1416 696.391C32.3953 693.274 33.3901 690 34.6265 686.672C34.6265 686.672 47.3784 661.032 90.2213 630.004C90.6014 630.415 96.7271 624.805 97.4987 624.267C101.078 621.767 104.693 619.338 108.418 617.126C108.418 617.126 134.616 597.64 150.568 608.873C166.521 620.105 181.751 641.5 181.751 641.5L181.744 641.508Z" fill="#273812"/>
<path d="M91.6111 747.802C87.8924 748.15 85.4706 746.965 83.8697 744.804C83.8581 744.789 83.8481 744.769 83.845 744.748C83.7566 744.349 83.3983 743.967 84.0162 743.43C84.6413 742.884 84.9899 743.271 85.3477 743.418C85.8283 743.618 86.2672 743.867 86.6949 744.125C87.7401 744.746 88.8644 745.267 90.2728 745.451C91.0892 745.558 91.8359 745.765 92.4577 746.122C93.1697 746.529 93.0655 746.889 92.0129 747.662C91.8803 747.709 91.7437 747.756 91.6111 747.802Z" fill="#273812"/>
<path d="M64.5743 665.007C65.6256 664.108 66.791 663.121 67.9471 662.128C68.5676 661.593 69.138 660.993 69.8004 660.526C70.7098 659.884 71.1141 659.227 71.3591 658.423C71.7645 657.099 72.6411 655.846 74.0467 654.745C74.1495 654.665 74.2539 654.581 74.3656 654.513C74.8938 654.19 75.5634 653.744 75.8642 654.044C76.148 654.327 75.6054 654.883 75.2088 655.304C74.5267 656.032 73.747 656.723 73.2039 657.688C74.4649 656.875 75.5496 656.173 76.6369 655.474C77.0175 655.23 76.9367 655.029 76.9621 654.794C77.1017 653.422 77.9086 652.117 79.3757 650.887C79.8812 650.463 80.3804 650.242 80.7768 650.47C81.1493 650.684 80.8777 651.108 80.6037 651.522C80.0149 652.414 79.1079 653.247 78.7179 654.257C79.6837 653.783 80.5859 653.337 81.4916 652.9C81.9347 652.687 82.1552 652.406 82.2295 652.048C82.467 650.923 83.252 649.835 84.1534 648.761C84.274 648.617 84.4054 648.475 84.5472 648.341C85.0424 647.875 85.5607 647.715 85.9924 647.82C86.4375 647.931 86.2727 648.397 86.0182 648.802C85.5589 649.533 85.0241 650.251 84.5297 650.976C84.4179 651.137 84.1637 651.35 84.3238 651.451C84.3991 651.499 84.6425 651.406 84.8076 651.333C89.9959 649.021 95.1792 646.702 100.136 643.351C101.276 642.581 102.416 641.813 103.562 641.052C103.841 640.866 104.205 640.512 104.398 640.751C104.551 640.943 104.165 641.215 103.964 641.439C101.478 644.161 98.4985 646.257 95.2903 648.061C91.4645 650.21 87.5578 651.824 83.6846 653.664C80.6586 655.101 77.685 656.673 74.8183 658.626C73.4809 659.537 72.1993 660.539 71.0734 661.649C68.7094 663.977 66.1003 665.944 63.2755 667.719C59.4564 670.117 56.0929 673.002 53.1989 676.307C52.4443 677.166 51.6951 678.027 50.9726 678.899C50.5245 679.44 50.0885 679.739 49.5422 679.611C48.9623 679.473 48.8436 679.023 49.3231 678.389C50.2804 677.126 51.4354 675.943 52.6255 674.796C53.7205 673.739 54.854 672.704 56.007 671.688C56.4994 671.253 56.6506 670.939 56.5781 670.521C56.4013 669.508 56.8301 668.362 57.5967 667.167C57.7078 666.993 57.8447 666.818 57.996 666.656C58.5084 666.107 59.1105 665.619 59.7093 665.758C60.2948 665.892 59.9613 666.485 59.6678 667.002C59.2827 667.685 58.7931 668.364 58.5573 669.052C58.5059 669.2 58.4041 669.381 58.5512 669.436C58.7065 669.49 58.8826 669.32 59.0317 669.207C60.0569 668.438 61.0769 667.662 62.1088 666.896C62.4729 666.624 62.6112 666.386 62.6132 666.067C62.6249 664.637 63.313 663.098 64.1571 661.538C64.2665 661.338 64.4224 661.135 64.5764 660.941C64.8125 660.646 65.1076 660.458 65.4398 660.449C65.7596 660.44 65.7767 660.668 65.7414 660.914C65.6505 661.583 65.4637 662.272 65.2149 662.977C64.977 663.651 64.7993 664.316 64.5892 665.009L64.5743 665.007Z" fill="#273812"/>
<path d="M87.7548 680.973C86.5111 681.827 85.3724 682.03 84.2659 681.994C82.3271 681.937 82.1846 682.023 81.0127 683.955C79.7336 686.067 77.888 687.129 75.8352 686.943C74.0045 686.777 72.7851 685.884 71.3619 685.235C70.9582 685.05 71.1885 684.578 71.4803 684.128C71.7737 683.675 72.1787 683.493 72.6291 683.453C73.1246 683.408 73.5139 683.521 73.9029 683.64C74.8928 683.942 75.881 684.253 77.064 684.278C78.103 684.3 78.2683 684.192 78.8253 683.187C79.1208 682.655 79.3974 682.12 79.7308 681.592C80.585 680.232 81.8058 679.436 83.2599 679.295C83.7979 679.242 84.3144 679.243 84.8312 679.239C85.6131 679.235 86.4023 679.159 87.3036 678.793C88.3087 678.383 88.8749 678.491 89.0025 679.018C89.1273 679.547 88.5824 680.398 87.7536 680.971L87.7548 680.973Z" fill="#273812"/>
<path d="M134.321 657.927C133.296 658.767 132.11 659.503 130.842 659.98C130.395 660.148 129.844 660.416 129.628 660.095C129.411 659.772 129.745 659.302 130.075 658.88C130.964 657.742 132.014 656.69 133.138 655.689C136.423 652.758 139.017 649.511 141.585 646.254C141.738 646.059 141.892 645.86 142.057 645.669C142.364 645.316 142.717 645.012 143.143 645.028C143.599 645.042 143.398 645.442 143.315 645.748C142.356 649.316 138.459 654.987 134.321 657.927Z" fill="#273812"/>
<path d="M134.738 694.42C134.03 694.973 133.344 695.192 132.68 695.136C131.735 695.057 131.53 694.335 132.376 693.455C133.312 692.48 133.303 691.878 132.929 691.205C131.685 688.968 132.975 685.026 135.824 682.049C136.425 681.423 136.991 681.098 137.592 681.276C138.185 681.449 137.814 682.004 137.537 682.515C136.942 683.604 136.389 684.689 136.076 685.766C135.614 687.359 135.823 688.639 136.384 689.782C136.811 690.652 136.957 691.643 136.085 692.96C135.729 693.495 135.313 693.996 134.737 694.419L134.738 694.42Z" fill="#273812"/>
<path d="M138.332 633.365C139.794 635.013 140.593 637.07 140.802 639.483C140.872 640.291 140.724 641.148 140.067 642.096C139.749 642.558 139.362 643.021 138.769 643.147C138.174 643.271 138.012 642.926 137.943 642.531C137.872 642.109 137.751 641.701 137.789 641.242C138.061 638.034 136.935 635.572 135.83 633.098C135.788 633.007 135.733 632.923 135.702 632.823C135.609 632.53 135.607 632.211 136.063 631.862C136.571 631.477 136.926 631.568 137.133 631.802C137.564 632.298 137.934 632.842 138.329 633.367L138.332 633.365Z" fill="#273812"/>
<path d="M72.3287 698.799C72.6528 699.247 72.3998 699.772 71.5941 700.282C70.5449 700.95 69.6504 700.979 68.8497 700.823C66.4398 700.351 64.9172 699.032 63.9319 697.214C63.7422 696.862 63.5819 696.492 63.4147 696.123C63.2313 695.722 63.374 695.261 63.9658 694.824C64.57 694.379 65.0524 694.446 65.3731 694.696C65.9843 695.169 66.5516 695.682 67.1148 696.196C68.1023 697.103 69.323 697.752 70.8819 698.037C71.4902 698.148 72.0164 698.361 72.3302 698.796L72.3287 698.799Z" fill="#273812"/>
<path d="M143.587 626.785C144.593 628.396 145.085 630.284 144.894 632.519C144.814 633.472 144.478 634.471 143.611 635.492C142.974 636.244 142.458 636.361 142.088 635.851C141.852 635.527 141.911 635.079 141.982 634.622C142.24 632.987 142.485 631.357 141.862 630.085C141.501 629.341 140.911 628.757 140.607 627.973C140.414 627.477 140.175 627.008 140.341 626.343C140.526 625.594 140.9 625.324 141.606 625.449C142.547 625.614 143.129 626.135 143.588 626.781L143.587 626.785Z" fill="#273812"/>
<path d="M133.44 639.253C134.776 641.026 135.558 643.048 135.88 645.349C135.992 646.141 135.791 647.011 135.247 647.95C134.797 648.729 134.177 649.164 133.521 649.206C132.739 649.256 132.696 648.789 132.872 648.162C133.569 645.687 132.946 643.818 132.16 642.031C131.809 641.238 131.373 640.5 130.983 639.73C130.921 639.606 130.874 639.468 130.845 639.324C130.764 638.947 130.969 638.541 131.441 638.202C131.882 637.886 132.212 637.979 132.466 638.146C132.916 638.446 133.153 638.919 133.443 639.251L133.44 639.253Z" fill="#273812"/>
<path d="M52.8091 681.823C53.0227 682.435 52.7318 683.26 52.2838 684.105C51.4337 685.71 50.3013 687.273 49.1312 688.828C48.7238 689.37 48.3487 689.919 47.9925 690.471C47.4378 691.332 47.2299 692.127 47.3622 692.853C47.478 693.493 46.9936 693.962 46.1879 693.981C45.4924 693.999 45.0378 693.765 45.0086 693.135C44.9859 692.636 45.1059 692.105 45.332 691.545C45.7229 690.577 46.2916 689.617 46.9765 688.671C48.1467 687.052 49.2166 685.429 49.9943 683.769C50.2677 683.184 50.6253 682.599 51.1939 682.072C51.8375 681.475 52.486 681.353 52.8132 681.823L52.8091 681.823Z" fill="#273812"/>
<path d="M106.739 671.459C106.592 671.193 106.239 670.858 105.801 670.571C104.673 669.828 104.379 668.529 104.325 667.111C104.298 666.45 105.525 664.994 106.376 664.596C107.065 664.275 107.164 664.665 107.26 664.997C107.513 665.872 107.69 666.786 108.056 667.6C108.515 668.613 109.023 669.587 109.723 670.434C110.017 670.789 110.23 671.201 110.228 671.731C110.223 672.52 109.692 672.968 108.825 672.918C107.792 672.857 107.274 672.28 106.738 671.457L106.739 671.459Z" fill="#273812"/>
<path d="M107.22 714.331C107.951 713.78 108.555 713.756 108.57 714.292C108.59 714.974 109.038 714.837 109.695 714.462C109.92 714.333 110.16 714.23 110.37 714.077C112.967 712.193 114.85 712.638 116.773 712.932C117.272 713.01 117.156 713.458 116.999 713.894C116.811 714.423 116.415 714.858 115.784 715.096C114.95 715.411 114.183 715.494 113.542 715.344C112.815 715.175 112.081 715.359 111.207 715.955C110.247 716.612 109.252 717.129 108.236 717.301C106.421 717.607 105.702 716.348 106.815 714.806C106.956 714.612 107.137 714.425 107.221 714.327L107.22 714.331Z" fill="#273812"/>
<path d="M130.363 645.002C131.469 646.477 132.038 647.929 132.274 649.582C132.387 650.371 132.24 651.229 131.59 652.181C131.112 652.88 130.686 653.017 130.27 652.635C129.654 652.074 129.55 651.211 129.465 650.337C129.246 648.132 128.44 646.3 126.994 644.872C126.652 644.534 126.637 644.093 127.26 643.515C127.9 642.92 128.291 643.128 128.61 643.359C129.361 643.894 130.027 644.503 130.361 645L130.363 645.002Z" fill="#273812"/>
<path d="M59.5058 704.63C59.6783 704.941 59.7619 705.263 59.3155 705.765C58.8461 706.294 58.3508 706.52 57.8086 706.515C55.9213 706.49 54.4941 705.871 53.2173 705.077C52.3455 704.534 51.7658 703.747 51.4542 702.771C51.3862 702.558 51.3616 702.315 51.3576 702.069C51.3534 701.765 51.4431 701.428 51.862 701.147C52.2712 700.871 52.6839 700.763 52.981 700.9C53.3686 701.081 53.7881 701.246 54.0681 701.524C55.2881 702.74 56.9259 703.516 58.693 704.165C59.0034 704.279 59.3179 704.392 59.5099 704.63L59.5058 704.63Z" fill="#273812"/>
<path d="M58.1745 701.183C58.0403 700.899 57.8262 700.516 57.6665 700.099C57.5399 699.767 57.6602 699.382 58.124 698.979C58.5849 698.579 58.9724 698.578 59.2859 698.714C59.9795 699.014 60.6704 699.317 61.307 699.676C62.5656 700.388 63.8716 701.045 65.2889 701.581C65.7395 701.752 66.0428 702.055 65.6699 702.707C65.2808 703.39 64.646 703.724 63.9447 703.905C63.2131 704.092 62.5902 704.067 62.062 703.869C60.4996 703.293 59.271 702.393 58.1802 701.179L58.1745 701.183Z" fill="#273812"/>
<path d="M133.694 616.341C134.037 617.242 134.858 617.687 135.882 617.947C137.318 618.314 137.714 619.373 137.416 620.886C137.375 621.101 137.323 621.335 137.193 621.556C137.017 621.86 136.937 622.31 136.47 622.41C136.075 622.494 136.147 622.087 136.134 621.835C136.051 620.121 134.971 619.283 133.058 619.219C132.379 619.196 132.049 618.956 131.943 618.4C131.608 616.656 131.083 616.48 128.714 617.197C128.186 617.357 127.598 617.576 127.537 617.063C127.481 616.59 127.996 616.191 128.49 615.84C130.17 614.647 132.528 614.541 133.259 615.623C133.415 615.854 133.55 616.102 133.694 616.341Z" fill="#273812"/>
<path d="M123.118 651.596C124.277 653.093 124.87 654.917 124.906 657.06C124.92 657.998 124.783 658.969 124.027 660.049C123.766 660.422 123.469 660.848 122.984 660.976C122.443 661.119 122.444 660.704 122.371 660.409C122.075 659.202 122.346 657.753 122.182 656.487C121.98 654.937 121.529 653.53 121.008 652.159C120.871 651.797 120.712 651.457 121.348 650.972C122.035 650.45 122.357 650.72 122.646 650.981C122.838 651.154 122.965 651.387 123.121 651.593L123.118 651.596Z" fill="#273812"/>
<path d="M113.244 658.299C113.973 657.745 114.563 657.803 114.666 658.426C114.861 659.609 115.101 660.77 115.524 661.83C115.876 662.719 116.24 663.6 116.771 664.375C117.057 664.79 117.177 665.301 117.196 665.864C117.207 666.259 117.121 666.69 116.585 667.072C116.043 667.459 115.648 667.35 115.29 667.214C114.433 666.884 114.095 666.137 113.798 665.385C113.098 663.619 112.766 661.657 112.612 659.609C112.577 659.152 112.741 658.708 113.247 658.297L113.244 658.299Z" fill="#273812"/>
<path d="M98.0631 744.469C97.446 744.925 96.8168 745.167 96.2226 745.168C93.1675 745.174 90.7729 744.388 89.3022 742.511C89.1928 742.372 89.1159 742.205 89.0556 742.031C88.9592 741.751 89.0741 741.43 89.4482 741.118C89.7954 740.83 90.1333 740.782 90.407 740.864C90.7276 740.962 91.0321 741.085 91.3139 741.231C92.9487 742.073 94.8196 742.591 97.0358 742.648C97.5165 742.66 97.9874 742.712 98.3897 742.836C99.1446 743.072 98.9811 743.785 98.0618 744.467L98.0631 744.469Z" fill="#273812"/>
<path d="M119.176 663.454C118.892 663.066 118.789 662.66 118.754 662.221C118.577 660.006 118.196 657.891 117.639 655.863C117.526 655.456 117.527 655.036 118.195 654.571C118.839 654.121 119.358 654.149 119.628 654.758C120.221 656.085 120.801 657.423 121.107 658.918C121.265 659.684 121.43 660.447 121.565 661.224C121.655 661.741 121.547 662.317 121.176 662.949C120.611 663.914 120.151 664.122 119.492 663.71C119.352 663.623 119.236 663.51 119.17 663.458L119.176 663.454Z" fill="#273812"/>
<path d="M79.0232 694.789C79.2751 695.147 79.2044 695.515 78.8685 695.947C78.5022 696.421 78.0606 696.783 77.4887 696.866C76.985 696.941 76.5526 696.882 76.1419 696.793C74.2405 696.381 72.7376 695.568 71.8522 694.135C71.6479 693.805 71.5365 693.434 71.5728 692.985C71.6378 692.223 72.1333 691.809 72.9752 691.833C73.6229 691.85 74.124 692.076 74.5278 692.384C75.6407 693.224 76.978 693.817 78.3322 694.398C78.6069 694.517 78.8401 694.686 79.0232 694.789Z" fill="#273812"/>
<path d="M131.998 627.213C132.36 627.805 132.518 628.518 132.409 629.363C132.187 631.088 131.436 632.859 130.17 634.667C129.967 634.959 129.714 635.278 129.419 635.508C128.929 635.888 128.454 635.917 128.073 635.792C127.699 635.67 127.716 635.329 127.95 634.909C128.307 634.277 128.705 633.646 129.035 633.013C130.008 631.156 130.423 629.454 129.84 628.041C129.78 627.891 129.737 627.729 129.695 627.568C129.628 627.303 129.527 627.005 129.944 626.686C130.314 626.405 130.676 626.429 130.962 626.523C131.39 626.663 131.72 626.903 131.998 627.213Z" fill="#273812"/>
<path d="M100.45 677.262C99.6287 676.002 99.1609 674.655 99.6004 672.867C99.7063 672.44 99.7081 671.816 100.411 671.573C100.992 671.373 101.152 671.838 101.258 672.236C101.504 673.141 101.835 673.99 102.337 674.74C102.782 675.406 103.387 675.934 104.001 676.458C104.17 676.6 104.337 676.752 104.442 676.943C104.627 677.282 104.794 677.675 104.261 678.202C103.768 678.688 103.218 678.784 102.713 678.763C101.457 678.71 101.131 677.756 100.451 677.263L100.45 677.262Z" fill="#273812"/>
<path d="M77.1841 731.261C77.4327 731.971 77.6747 732.738 78.0914 733.396C78.235 733.622 78.388 733.79 78.8806 733.596C80.7016 732.876 81.6513 733.043 82.2531 734.158C82.4629 734.548 82.5987 734.98 82.5135 735.522C82.4702 735.793 82.4047 736.074 82.0305 736.297C81.687 736.503 81.4234 736.469 81.1911 736.371C80.78 736.2 80.578 735.85 80.2983 735.566C79.9575 735.219 79.5853 735.058 78.7327 735.583C77.7042 736.213 76.8665 736.096 76.378 735.4C75.7207 734.463 75.6545 733.228 75.7563 731.911C75.777 731.628 75.887 731.294 76.3161 731.092C76.741 730.889 77.0173 730.975 77.1854 731.263L77.1841 731.261Z" fill="#273812"/>
<path d="M92.4209 710.741C92.7841 711.258 92.5388 711.945 91.5402 713.036C90.7186 713.936 89.8779 714.868 88.6365 714.964C88.2859 714.99 88.0339 714.848 87.8547 714.657C87.3065 714.082 86.7852 713.483 86.2357 712.906C85.8954 712.547 85.9726 712.094 86.5469 711.528C87.1524 710.933 87.7359 710.806 88.2747 710.948C88.4723 710.999 88.6451 711.088 88.7941 711.193C89.1911 711.468 89.6452 711.375 90.2887 710.906C91.2116 710.235 92.0398 710.199 92.4196 710.739L92.4209 710.741Z" fill="#273812"/>
<path d="M95.8882 681.447C95.1559 680.516 94.8971 679.452 95.038 678.176C95.0835 677.762 95.1792 677.351 95.8309 677.034C96.5312 676.694 96.7799 676.971 96.871 677.338C97.2537 678.888 98.3173 679.891 99.669 680.679C100.099 680.927 100.262 681.338 99.6684 682.013C99.1216 682.633 98.3086 682.97 97.7079 682.781C96.8645 682.516 96.253 682.02 95.8869 681.446L95.8882 681.447Z" fill="#273812"/>
<path d="M88.5583 699.057C88.0734 699.385 87.5957 699.734 87.1023 700.039C85.0478 701.303 83.5167 701.002 83.5097 699.319C83.507 698.829 84.0254 698.359 84.503 698.32C85.9085 698.202 87.1036 697.617 88.3371 696.41C88.9567 695.805 89.6047 695.969 90.0265 696.236C90.4325 696.494 90.4311 696.955 90.0443 697.553C89.6708 698.129 89.1003 698.577 88.5568 699.061L88.5583 699.057Z" fill="#273812"/>
<path d="M84.4026 690.647C84.583 691.086 84.4682 691.589 84.0104 692.134C83.5727 692.653 83.0185 693.041 82.4485 692.957C80.7275 692.709 79.2645 692.13 77.8789 691.461C77.5449 691.298 77.6504 690.912 77.8954 690.505C78.1509 690.078 78.5502 689.964 78.8918 689.955C80.7511 689.907 82.497 690.054 84.0716 690.477C84.2033 690.511 84.2977 690.59 84.4038 690.649L84.4026 690.647Z" fill="#273812"/>
<path d="M92.2257 674.114C90.589 675.247 88.886 675.696 87.236 675.747C86.7118 675.765 86.4876 675.485 86.6525 674.955C86.808 674.453 87.1565 674.014 87.7648 673.815C88.9636 673.423 90.1212 672.794 91.2855 672.169C91.4262 672.092 91.5718 672.028 91.7174 671.964C92.8517 671.462 93.4612 671.452 93.6358 671.93C93.8272 672.459 93.285 673.343 92.2298 674.113L92.2257 674.114Z" fill="#273812"/>
<path d="M53.8451 688.088C53.9941 688.315 53.9476 688.628 53.8888 688.942C53.6199 690.318 52.9371 691.735 52.1888 693.159C51.871 693.767 51.3669 693.882 50.841 693.968C50.3454 694.048 50.1499 693.888 50.221 693.449C50.3877 692.418 50.5296 691.395 50.8312 690.326C50.9781 689.801 51.2165 689.269 51.5894 688.74C52.2115 687.862 53.448 687.508 53.8479 688.086L53.8451 688.088Z" fill="#273812"/>
<path d="M92.8967 683.187C93.2076 683.782 93.9491 684.228 94.4396 684.879C94.6694 685.184 94.8404 685.499 94.3195 686.025C93.8086 686.541 93.2463 686.742 92.7099 686.697C92.305 686.663 92.0615 686.451 91.8451 686.21C91.2052 685.495 90.7505 684.651 90.3195 683.792C90.2321 683.618 90.2027 683.391 90.2278 683.161C90.2706 682.779 90.5239 682.401 91.0035 682.131C91.4832 681.861 91.861 681.865 92.0809 682.116C92.3423 682.416 92.5642 682.746 92.8967 683.187Z" fill="#273812"/>
<path d="M128.756 695.288C128.173 695.695 127.604 695.835 127.082 695.739C126.571 695.646 126.327 695.357 126.512 694.784C126.846 693.758 127.337 692.723 128.05 691.692C128.375 691.222 128.778 690.908 129.327 690.842C129.893 690.774 130.167 690.974 130.13 691.451C130.068 692.218 130.054 692.972 129.785 693.803C129.616 694.322 129.317 694.809 128.759 695.286L128.756 695.288Z" fill="#273812"/>
<path d="M118.205 708.191C118.002 707.903 117.88 707.578 118.285 707.085C118.653 706.637 119.094 706.463 119.552 706.455C120.541 706.44 121.611 706.011 122.671 705.645C123.63 705.315 123.774 705.448 123.507 706.269C123.263 707.011 122.754 707.594 121.87 708.041C120.246 708.863 118.783 708.941 118.205 708.191Z" fill="#273812"/>
<path d="M85.9613 687.641C85.8272 687.352 85.6672 687.005 85.4988 686.664C85.3517 686.363 85.4748 686.041 85.9305 685.727C86.3443 685.439 86.7973 685.28 86.9738 685.561C87.5661 686.523 88.6721 686.967 89.7704 687.431C90.1308 687.582 90.356 687.869 89.9716 688.383C89.6015 688.881 89.0818 689.01 88.6221 689.014C87.337 689.023 86.6619 688.366 85.9597 687.645L85.9613 687.641Z" fill="#273812"/>
<path d="M96.0534 692.397C95.1502 692.989 94.1338 693.501 93.0871 693.773C92.5081 693.923 92.1224 693.792 92.1112 693.338C92.0979 692.84 92.5994 692.447 93.1428 692.179C93.8878 691.81 94.6131 691.398 95.3321 690.942C96.3882 690.272 96.9696 690.16 97.2106 690.551C97.4616 690.96 97.0639 691.62 96.0534 692.397Z" fill="#273812"/>
<path d="M73.8676 714.165C74.9754 713.646 76.0997 713.126 77.1599 713.1C77.5792 713.088 77.8073 713.309 77.7267 713.717C77.6478 714.116 77.3604 714.466 76.8679 714.72C75.919 715.21 74.973 715.604 74.0322 715.818C73.5351 715.931 73.1879 715.821 73.1719 715.413C73.1529 715.014 73.3867 714.586 73.8704 714.163L73.8676 714.165Z" fill="#273812"/>
<path d="M136.669 673.863C136.413 673.371 136.628 672.691 137.117 671.965C137.57 671.295 138.037 670.599 138.964 670.296C139.916 669.985 140.322 670.396 139.738 671.212C139.157 672.027 138.533 672.82 138.048 673.658C137.739 674.195 137.022 674.308 136.665 673.863L136.669 673.863Z" fill="#273812"/>
<path d="M86.607 730.364C85.523 731.172 83.486 731.429 82.9898 730.846C82.7998 730.623 82.8443 730.325 83.122 729.98C83.3838 729.654 83.7085 729.354 84.1118 729.362C84.8141 729.376 85.5799 729.152 86.346 728.952C86.7958 728.835 87.3074 728.671 87.3365 729.149C87.3674 729.588 87.1308 730.017 86.607 730.364Z" fill="#273812"/>
<path d="M125.755 703.277C125.194 703.657 124.457 703.984 123.722 704.079C123.333 704.131 122.956 704.127 122.95 703.738C122.946 703.353 123.107 702.963 123.573 702.588C124.241 702.052 124.954 701.711 125.677 701.553C126.18 701.442 126.761 701.301 126.793 701.811C126.821 702.276 126.477 702.744 125.753 703.276L125.755 703.277Z" fill="#273812"/>
<path d="M138.124 613.637C138.256 613.907 138.489 614.116 138.132 614.491C137.78 614.861 137.487 614.735 137.239 614.651C136.773 614.495 136.186 614.635 135.597 614.76C135.128 614.862 134.679 614.893 134.781 614.373C134.881 613.862 135.278 613.488 135.886 613.282C136.972 612.915 137.636 613.177 138.123 613.636L138.124 613.637Z" fill="#273812"/>
</g>
</g>
</svg>
