<svg width="112" height="225" viewBox="0 0 112 225" fill="none" xmlns="http://www.w3.org/2000/svg">
<mask id="path-1-outside-1_284_2717" maskUnits="userSpaceOnUse" x="-34.3181" y="-39.4695" width="266.837" height="307.84" fill="black">
<rect fill="white" x="-34.3181" y="-39.4695" width="266.837" height="307.84"/>
<path d="M107.509 122.985C106.231 120.816 104.992 118.897 103.933 116.877C99.8981 109.189 95.8958 101.499 95.4592 92.6288C95.1536 86.4307 96.3435 80.7527 98.353 75.3083C100.333 69.9485 103.08 65.0993 105.626 60.1162C106.421 58.5602 107.444 57.2716 108.877 56.3886C110.506 55.386 111.311 55.7866 111.645 57.9128C112.699 64.6479 113.725 71.3855 114.761 78.1226C116.024 86.3317 117.593 94.5191 118.481 102.754C118.916 106.785 119.098 110.785 118.245 114.619C117.287 118.93 115.513 122.579 111.702 124.451C110.562 125.01 111.399 125.76 111.798 126.326C114.357 129.955 116.923 133.579 119.55 137.15C122.616 141.321 125.511 145.658 129.253 149.19C131.301 151.122 133.624 152.23 136.135 152.897C137.212 153.185 137.302 152.467 137.432 151.665C138.039 147.935 139.085 144.422 140.9 141.305C145.201 133.916 151.4 129.231 159.092 126.639C168.096 123.605 177.533 124.054 187.113 125.635C191.364 126.337 195.614 127.104 199.825 128.343C200.364 128.501 201.117 128.462 201.313 129.214C201.553 130.126 200.712 130.266 200.242 130.53C198.416 131.556 196.577 132.57 194.673 133.439C186.457 137.192 178.286 141.056 169.963 144.561C161.822 147.991 153.688 151.478 145.134 153.869C143.516 154.321 141.896 154.827 140.159 154.71C138.825 154.619 138.532 155.342 138.494 156.644C138.316 162.642 139.556 168.534 141.148 174.409C142.066 177.802 143.644 180.938 145.081 184.129C145.258 184.522 145.455 184.908 145.612 185.308C145.784 185.751 146.067 186.3 145.595 186.575C145.093 186.868 144.623 186.413 144.379 185.944C143.611 184.468 142.895 182.961 142.194 181.451C141.566 180.098 140.986 178.722 140.327 177.224C140.221 178.139 140.659 178.876 140.905 179.646C141.139 180.382 141.806 181.316 141.151 181.831C140.518 182.328 139.816 181.449 139.235 180.977C137.499 179.565 135.825 178.05 134.07 176.671C125.443 169.894 116.06 165.651 106.005 163.702C105.538 163.611 104.919 163.369 104.678 163.837C104.398 164.377 105.019 164.777 105.326 165.173C110.611 171.988 117.331 175.737 124.813 177.843C128.073 178.761 131.384 179.21 134.62 180.417C139.437 182.212 143.375 185.623 147.053 189.435C152.837 195.428 157.701 202.277 162.29 209.359C164.768 213.182 167.153 217.068 169.396 221.049C169.579 221.374 169.771 221.708 169.881 222.059C169.994 222.423 170.002 222.803 169.642 223.005C169.313 223.19 168.973 223.117 168.712 222.818C168.403 222.463 168.128 222.06 167.891 221.646C162.388 212.077 156.443 202.841 149.411 194.462C145.361 189.635 141.036 185.154 135.478 182.57C133.08 181.456 130.61 180.894 128.126 180.439C121.601 179.247 115.538 176.488 109.923 172.159C107.005 169.91 104.595 167.102 102.53 163.927C102.127 163.31 101.618 162.55 101.94 161.858C102.298 161.093 103.14 161.501 103.766 161.605C115.936 163.596 127.209 168.578 137.335 177.356C137.611 177.597 137.891 177.831 138.177 178.055C138.251 178.114 138.356 178.119 138.465 178.156C138.878 177.84 138.586 177.408 138.475 177.033C137.056 172.235 135.902 167.41 135.428 162.468C135.16 159.685 134.263 156.94 131.763 155.509C127.269 152.936 124.01 148.927 120.855 144.729C118.803 141.999 116.745 139.275 114.664 136.57C112.592 133.875 110.439 133.39 107.938 135.015C106.722 135.804 105.532 136.654 104.564 137.775C100.532 142.451 95.2703 145.008 89.7597 147.101C84.1454 149.232 78.337 150.82 72.4967 152.277C56.897 156.167 40.9706 158.74 24.9938 161.105C24.3951 161.194 23.6808 161.379 23.2811 160.627C22.8821 159.877 23.4051 159.346 23.8203 158.895C32.0526 149.938 39.8116 140.459 48.2751 131.757C54.9174 124.928 63.0101 121.164 72.3511 119.929C80.2877 118.881 88.3102 119.204 96.4215 120.443C97.2324 120.567 98.4047 121.231 98.7874 120.32C99.1928 119.355 97.978 118.707 97.4083 118.018C91.6375 111.055 86.8621 103.39 82.6112 95.3038C80.4861 91.2634 77.4051 88.1325 73.5571 86.0981C70.9637 84.7277 69.3167 85.5001 68.8793 88.4863C68.0378 94.2295 66.1109 99.2601 62.5267 103.313C58.417 107.961 53.3447 110.867 47.4493 112.284C35.5844 115.139 23.409 114.011 11.1237 111.375C8.64905 110.845 6.187 110.144 3.7203 109.506C3.29724 109.397 2.86891 109.251 2.46551 109.053C2.10557 108.876 1.72196 108.609 1.67923 108.133C1.62333 107.514 2.11877 107.425 2.50497 107.303C5.52255 106.345 8.54089 105.392 11.5673 104.458C19.4352 102.031 26.6881 98.4759 32.6963 92.5297C37.5436 87.7341 43.5225 85.2601 50.1552 84.3266C56.5253 83.4291 62.9311 82.6986 69.3214 81.9016C69.6979 81.8551 70.1291 81.878 70.2467 81.4109C70.3981 80.8098 69.9603 80.4123 69.5912 80.0501C67.6151 78.1061 65.2789 76.8629 63.0409 75.4136C56.404 71.1152 49.2442 69.2923 42.0601 67.5237C40.4946 67.1376 38.9308 66.6931 37.3854 66.173C34.5507 65.2188 32.4341 63.2133 30.9596 60.3193C30.5443 59.5045 30.0629 58.7269 29.6332 57.9184C28.5986 55.9773 27.0737 54.9375 25.1642 54.836C19.8674 54.5558 14.5746 54.3315 9.28187 54.1151C8.25639 54.0735 7.66491 53.7019 8.27174 52.6202C11.0432 47.677 14.6143 43.7192 20.0921 42.497C23.8375 41.6616 27.4438 42.8069 30.5452 45.8394C35.3239 50.5124 40.006 55.3093 44.7167 60.0698C47.9015 63.2882 51.4646 65.8195 55.247 67.9663C55.5998 68.1667 56.0261 68.448 56.3149 68.1044C56.6446 67.7129 56.1614 67.4586 55.939 67.2226C51.2731 62.2516 47.3943 56.6085 43.9322 50.6468C38.5161 41.3186 34.4776 31.4418 32.2117 20.9062C31.2938 16.6366 31.1354 12.4839 32.4901 8.53968C33.4804 5.65391 35.1738 3.43239 37.4949 1.8209C38.7593 0.94461 39.1971 1.09574 39.6667 2.741C42.0212 10.9783 46.2453 18.2499 50.6956 25.4379C53.8599 30.547 56.8028 35.8053 59.2938 41.31C62.8517 49.1768 65.0689 57.2778 65.0397 65.7693C65.0307 68.4558 65.8251 71.0033 67.5443 73.0743C70.8582 77.0665 74.3227 80.9089 77.9037 85.016C78.5166 82.1473 78.5698 79.6004 77.6169 76.8842C76.0111 72.3093 74.7599 67.634 74.0988 62.8818C73.0573 55.402 76.1515 51.04 82.8094 50.4292C85.2194 50.2073 87.6615 50.5037 90.0968 51.0852C90.6428 51.2166 91.3693 51.3678 91.3257 52.2295C91.2865 53.0077 90.599 52.8592 90.1008 52.8559C85.8178 52.8132 83.5157 55.4913 82.204 59.502C81.5595 61.4707 81.3187 63.5795 81.1379 65.7037C80.8058 69.5815 80.4795 73.4607 80.1077 77.3301C79.9851 78.61 80.1107 79.8681 80.6064 81.0767C83.4897 88.0978 86.3039 95.1533 90.1748 101.708C94.2011 108.526 98.6318 115.013 103.9 120.802C104.831 121.825 105.793 122.932 107.506 122.987L107.509 122.985ZM26.4846 159.044C28.9376 158.654 31.2324 158.265 33.5406 157.928C44.967 156.265 56.2593 154.073 67.4663 151.524C74.5315 149.918 81.5047 148.028 88.2446 145.451C92.2419 143.923 96.1717 142.213 99.7182 139.735C101.99 138.147 103.599 135.691 105.883 134.133C108.039 132.662 110.29 131.395 113.156 133.013C113.469 133.191 113.833 133.299 114.06 132.939C114.334 132.5 113.998 132.15 113.752 131.809C112.35 129.857 110.943 127.906 109.538 125.955C109.247 125.553 108.886 125.259 108.448 125.12C105.407 124.161 102.522 122.722 99.2779 122.415C93.3556 121.854 87.4327 120.983 81.5347 121.066C74.901 121.162 68.5012 122.152 62.4106 124.544C56.1788 126.99 51.0609 131.128 46.5085 136.098C40.061 143.139 33.7365 150.319 27.3683 157.447C27.027 157.828 26.6308 158.185 26.4868 159.045L26.4846 159.044ZM6.50422 108.248C7.19335 108.99 7.75037 108.935 8.25368 109.064C15.1539 110.824 22.0841 111.949 29.0091 112.141C37.3819 112.373 45.5668 111.779 53.0845 108.08C60.4949 104.434 65.4297 98.6299 67.0008 89.5216C67.2605 88.0144 67.633 86.5172 68.5011 85.3106C69.6355 83.7364 70.6113 83.4541 72.4614 84.2137C73.8846 84.7995 75.2971 85.4278 76.7226 86.0424C75.6421 84.6143 74.4414 83.2292 73.1201 81.9686C72.5957 81.4682 72.1881 81.413 71.9106 82.1611C71.5862 83.037 70.895 83.3412 70.0526 83.4734C65.0931 84.2489 60.1569 85.1553 55.1244 85.5576C46.6909 86.2305 39.1078 88.9414 32.9258 94.8091C28.9708 98.5623 24.529 101.385 19.6316 103.512C16.555 104.848 13.4123 105.999 10.194 106.962C9.00936 107.316 7.85708 107.772 6.50348 108.246L6.50422 108.248ZM100.862 107.105C103.374 112.14 105.874 117.207 108.81 122.032C109.499 123.163 110.123 123.306 111.084 122.813C114.317 121.152 115.9 118.063 116.678 114.359C117.562 110.157 117.37 105.761 116.708 101.373C114.658 87.7892 112.513 74.212 110.381 60.633C110.247 59.7779 110.337 58.4366 109.562 58.2254C108.777 58.0123 108.304 59.1863 107.865 59.9238C104.644 65.3212 101.703 70.8953 99.5066 77.0003C95.9775 86.8033 95.9887 96.7732 100.861 107.104L100.862 107.105ZM67.591 76.4615C67.71 75.8687 67.5209 75.6617 67.3529 75.4635C64.2773 71.8175 63.0526 67.6789 63.2506 63.0237C63.3768 60.0452 62.835 57.0289 62.0603 54.0535C59.6051 44.6344 55.1203 36.1025 50.2659 27.8008C46.0099 20.5234 41.3485 13.5078 38.7734 5.33569C38.2731 3.74962 37.7749 3.62907 36.7508 4.71159C33.8391 7.79309 32.7156 11.7667 33.0866 16.4299C33.5448 22.2132 35.5197 27.7245 37.533 33.1474C42.6855 47.0286 50.1309 59.4021 60.3874 69.7896C61.1497 70.561 61.9607 71.287 60.4866 72.2218C63.1497 73.3251 65.2763 74.9784 67.5924 76.4609L67.591 76.4615ZM197.546 129.711C197.222 129.512 197.066 129.362 196.899 129.322C188.423 127.304 179.938 125.776 171.469 126.293C161.909 126.878 153.316 129.848 146.409 136.713C142.548 140.548 140.195 145.48 139.116 151.25C138.781 153.044 138.885 153.14 140.583 152.858C142.015 152.619 143.489 152.487 144.847 152.033C153.944 148.993 162.788 145.312 171.641 141.659C179.426 138.446 186.926 134.601 194.601 131.142C195.546 130.717 196.625 130.538 197.546 129.71L197.546 129.711ZM52.6636 68.6262C49.8995 66.6374 47.1956 64.6758 44.6972 62.3416C39.5559 57.5401 34.7671 52.3053 29.7727 47.3259C27.622 45.1804 25.2307 43.9059 22.4435 44.1846C17.527 44.6749 13.9933 47.581 10.9618 51.3551C10.7841 51.5763 10.5735 51.8319 10.7121 52.1743C10.9006 52.6378 11.2947 52.514 11.6074 52.5255C15.4658 52.6696 19.3329 52.9152 23.1759 52.9032C27.3373 52.8922 30.3478 54.8003 32.1476 59.2382C33.1935 61.8181 35.0655 63.4125 37.3805 64.369C42.3767 66.4346 47.6269 66.6638 52.6636 68.6262ZM84.6858 52.0336C82.6635 52.0234 80.9539 52.72 79.2519 53.465C76.3885 54.719 75.3514 57.2757 75.4116 60.6351C75.4461 62.5413 75.8782 64.4256 76.3326 66.2902C76.993 69.0059 77.7559 71.7044 78.5421 74.6629C79.0114 73.8583 78.9459 73.2175 78.9768 72.6157C79.1444 69.4462 79.3172 66.2804 79.7899 63.1793C80.3929 59.2141 81.3366 55.4646 84.2939 52.9631C84.4928 52.7941 84.7393 52.6042 84.6865 52.0313L84.6858 52.0336ZM87.5256 100.539C84.9711 94.929 82.0785 89.5116 79.8156 83.7674C79.411 85.09 79.6087 86.4455 79.1578 87.6355C78.9618 88.1509 79.3576 88.5232 79.725 88.8384C81.8345 90.6562 83.1876 93.0592 84.5166 95.5443C85.4299 97.2527 86.1399 99.12 87.5256 100.539ZM136.944 160.055C137 158.667 137.012 157.429 137.145 156.215C137.258 155.165 136.852 154.663 135.896 154.427C134.333 154.044 132.764 153.65 131.31 152.721C130.65 152.299 129.972 151.918 129.301 151.517C129.215 151.651 129.127 151.783 129.041 151.916C132.396 153.762 135.546 155.847 136.944 160.055Z"/>
</mask>
<path d="M107.509 122.985C106.231 120.816 104.992 118.897 103.933 116.877C99.8981 109.189 95.8958 101.499 95.4592 92.6288C95.1536 86.4307 96.3435 80.7527 98.353 75.3083C100.333 69.9485 103.08 65.0993 105.626 60.1162C106.421 58.5602 107.444 57.2716 108.877 56.3886C110.506 55.386 111.311 55.7866 111.645 57.9128C112.699 64.6479 113.725 71.3855 114.761 78.1226C116.024 86.3317 117.593 94.5191 118.481 102.754C118.916 106.785 119.098 110.785 118.245 114.619C117.287 118.93 115.513 122.579 111.702 124.451C110.562 125.01 111.399 125.76 111.798 126.326C114.357 129.955 116.923 133.579 119.55 137.15C122.616 141.321 125.511 145.658 129.253 149.19C131.301 151.122 133.624 152.23 136.135 152.897C137.212 153.185 137.302 152.467 137.432 151.665C138.039 147.935 139.085 144.422 140.9 141.305C145.201 133.916 151.4 129.231 159.092 126.639C168.096 123.605 177.533 124.054 187.113 125.635C191.364 126.337 195.614 127.104 199.825 128.343C200.364 128.501 201.117 128.462 201.313 129.214C201.553 130.126 200.712 130.266 200.242 130.53C198.416 131.556 196.577 132.57 194.673 133.439C186.457 137.192 178.286 141.056 169.963 144.561C161.822 147.991 153.688 151.478 145.134 153.869C143.516 154.321 141.896 154.827 140.159 154.71C138.825 154.619 138.532 155.342 138.494 156.644C138.316 162.642 139.556 168.534 141.148 174.409C142.066 177.802 143.644 180.938 145.081 184.129C145.258 184.522 145.455 184.908 145.612 185.308C145.784 185.751 146.067 186.3 145.595 186.575C145.093 186.868 144.623 186.413 144.379 185.944C143.611 184.468 142.895 182.961 142.194 181.451C141.566 180.098 140.986 178.722 140.327 177.224C140.221 178.139 140.659 178.876 140.905 179.646C141.139 180.382 141.806 181.316 141.151 181.831C140.518 182.328 139.816 181.449 139.235 180.977C137.499 179.565 135.825 178.05 134.07 176.671C125.443 169.894 116.06 165.651 106.005 163.702C105.538 163.611 104.919 163.369 104.678 163.837C104.398 164.377 105.019 164.777 105.326 165.173C110.611 171.988 117.331 175.737 124.813 177.843C128.073 178.761 131.384 179.21 134.62 180.417C139.437 182.212 143.375 185.623 147.053 189.435C152.837 195.428 157.701 202.277 162.29 209.359C164.768 213.182 167.153 217.068 169.396 221.049C169.579 221.374 169.771 221.708 169.881 222.059C169.994 222.423 170.002 222.803 169.642 223.005C169.313 223.19 168.973 223.117 168.712 222.818C168.403 222.463 168.128 222.06 167.891 221.646C162.388 212.077 156.443 202.841 149.411 194.462C145.361 189.635 141.036 185.154 135.478 182.57C133.08 181.456 130.61 180.894 128.126 180.439C121.601 179.247 115.538 176.488 109.923 172.159C107.005 169.91 104.595 167.102 102.53 163.927C102.127 163.31 101.618 162.55 101.94 161.858C102.298 161.093 103.14 161.501 103.766 161.605C115.936 163.596 127.209 168.578 137.335 177.356C137.611 177.597 137.891 177.831 138.177 178.055C138.251 178.114 138.356 178.119 138.465 178.156C138.878 177.84 138.586 177.408 138.475 177.033C137.056 172.235 135.902 167.41 135.428 162.468C135.16 159.685 134.263 156.94 131.763 155.509C127.269 152.936 124.01 148.927 120.855 144.729C118.803 141.999 116.745 139.275 114.664 136.57C112.592 133.875 110.439 133.39 107.938 135.015C106.722 135.804 105.532 136.654 104.564 137.775C100.532 142.451 95.2703 145.008 89.7597 147.101C84.1454 149.232 78.337 150.82 72.4967 152.277C56.897 156.167 40.9706 158.74 24.9938 161.105C24.3951 161.194 23.6808 161.379 23.2811 160.627C22.8821 159.877 23.4051 159.346 23.8203 158.895C32.0526 149.938 39.8116 140.459 48.2751 131.757C54.9174 124.928 63.0101 121.164 72.3511 119.929C80.2877 118.881 88.3102 119.204 96.4215 120.443C97.2324 120.567 98.4047 121.231 98.7874 120.32C99.1928 119.355 97.978 118.707 97.4083 118.018C91.6375 111.055 86.8621 103.39 82.6112 95.3038C80.4861 91.2634 77.4051 88.1325 73.5571 86.0981C70.9637 84.7277 69.3167 85.5001 68.8793 88.4863C68.0378 94.2295 66.1109 99.2601 62.5267 103.313C58.417 107.961 53.3447 110.867 47.4493 112.284C35.5844 115.139 23.409 114.011 11.1237 111.375C8.64905 110.845 6.187 110.144 3.7203 109.506C3.29724 109.397 2.86891 109.251 2.46551 109.053C2.10557 108.876 1.72196 108.609 1.67923 108.133C1.62333 107.514 2.11877 107.425 2.50497 107.303C5.52255 106.345 8.54089 105.392 11.5673 104.458C19.4352 102.031 26.6881 98.4759 32.6963 92.5297C37.5436 87.7341 43.5225 85.2601 50.1552 84.3266C56.5253 83.4291 62.9311 82.6986 69.3214 81.9016C69.6979 81.8551 70.1291 81.878 70.2467 81.4109C70.3981 80.8098 69.9603 80.4123 69.5912 80.0501C67.6151 78.1061 65.2789 76.8629 63.0409 75.4136C56.404 71.1152 49.2442 69.2923 42.0601 67.5237C40.4946 67.1376 38.9308 66.6931 37.3854 66.173C34.5507 65.2188 32.4341 63.2133 30.9596 60.3193C30.5443 59.5045 30.0629 58.7269 29.6332 57.9184C28.5986 55.9773 27.0737 54.9375 25.1642 54.836C19.8674 54.5558 14.5746 54.3315 9.28187 54.1151C8.25639 54.0735 7.66491 53.7019 8.27174 52.6202C11.0432 47.677 14.6143 43.7192 20.0921 42.497C23.8375 41.6616 27.4438 42.8069 30.5452 45.8394C35.3239 50.5124 40.006 55.3093 44.7167 60.0698C47.9015 63.2882 51.4646 65.8195 55.247 67.9663C55.5998 68.1667 56.0261 68.448 56.3149 68.1044C56.6446 67.7129 56.1614 67.4586 55.939 67.2226C51.2731 62.2516 47.3943 56.6085 43.9322 50.6468C38.5161 41.3186 34.4776 31.4418 32.2117 20.9062C31.2938 16.6366 31.1354 12.4839 32.4901 8.53968C33.4804 5.65391 35.1738 3.43239 37.4949 1.8209C38.7593 0.94461 39.1971 1.09574 39.6667 2.741C42.0212 10.9783 46.2453 18.2499 50.6956 25.4379C53.8599 30.547 56.8028 35.8053 59.2938 41.31C62.8517 49.1768 65.0689 57.2778 65.0397 65.7693C65.0307 68.4558 65.8251 71.0033 67.5443 73.0743C70.8582 77.0665 74.3227 80.9089 77.9037 85.016C78.5166 82.1473 78.5698 79.6004 77.6169 76.8842C76.0111 72.3093 74.7599 67.634 74.0988 62.8818C73.0573 55.402 76.1515 51.04 82.8094 50.4292C85.2194 50.2073 87.6615 50.5037 90.0968 51.0852C90.6428 51.2166 91.3693 51.3678 91.3257 52.2295C91.2865 53.0077 90.599 52.8592 90.1008 52.8559C85.8178 52.8132 83.5157 55.4913 82.204 59.502C81.5595 61.4707 81.3187 63.5795 81.1379 65.7037C80.8058 69.5815 80.4795 73.4607 80.1077 77.3301C79.9851 78.61 80.1107 79.8681 80.6064 81.0767C83.4897 88.0978 86.3039 95.1533 90.1748 101.708C94.2011 108.526 98.6318 115.013 103.9 120.802C104.831 121.825 105.793 122.932 107.506 122.987L107.509 122.985ZM26.4846 159.044C28.9376 158.654 31.2324 158.265 33.5406 157.928C44.967 156.265 56.2593 154.073 67.4663 151.524C74.5315 149.918 81.5047 148.028 88.2446 145.451C92.2419 143.923 96.1717 142.213 99.7182 139.735C101.99 138.147 103.599 135.691 105.883 134.133C108.039 132.662 110.29 131.395 113.156 133.013C113.469 133.191 113.833 133.299 114.06 132.939C114.334 132.5 113.998 132.15 113.752 131.809C112.35 129.857 110.943 127.906 109.538 125.955C109.247 125.553 108.886 125.259 108.448 125.12C105.407 124.161 102.522 122.722 99.2779 122.415C93.3556 121.854 87.4327 120.983 81.5347 121.066C74.901 121.162 68.5012 122.152 62.4106 124.544C56.1788 126.99 51.0609 131.128 46.5085 136.098C40.061 143.139 33.7365 150.319 27.3683 157.447C27.027 157.828 26.6308 158.185 26.4868 159.045L26.4846 159.044ZM6.50422 108.248C7.19335 108.99 7.75037 108.935 8.25368 109.064C15.1539 110.824 22.0841 111.949 29.0091 112.141C37.3819 112.373 45.5668 111.779 53.0845 108.08C60.4949 104.434 65.4297 98.6299 67.0008 89.5216C67.2605 88.0144 67.633 86.5172 68.5011 85.3106C69.6355 83.7364 70.6113 83.4541 72.4614 84.2137C73.8846 84.7995 75.2971 85.4278 76.7226 86.0424C75.6421 84.6143 74.4414 83.2292 73.1201 81.9686C72.5957 81.4682 72.1881 81.413 71.9106 82.1611C71.5862 83.037 70.895 83.3412 70.0526 83.4734C65.0931 84.2489 60.1569 85.1553 55.1244 85.5576C46.6909 86.2305 39.1078 88.9414 32.9258 94.8091C28.9708 98.5623 24.529 101.385 19.6316 103.512C16.555 104.848 13.4123 105.999 10.194 106.962C9.00936 107.316 7.85708 107.772 6.50348 108.246L6.50422 108.248ZM100.862 107.105C103.374 112.14 105.874 117.207 108.81 122.032C109.499 123.163 110.123 123.306 111.084 122.813C114.317 121.152 115.9 118.063 116.678 114.359C117.562 110.157 117.37 105.761 116.708 101.373C114.658 87.7892 112.513 74.212 110.381 60.633C110.247 59.7779 110.337 58.4366 109.562 58.2254C108.777 58.0123 108.304 59.1863 107.865 59.9238C104.644 65.3212 101.703 70.8953 99.5066 77.0003C95.9775 86.8033 95.9887 96.7732 100.861 107.104L100.862 107.105ZM67.591 76.4615C67.71 75.8687 67.5209 75.6617 67.3529 75.4635C64.2773 71.8175 63.0526 67.6789 63.2506 63.0237C63.3768 60.0452 62.835 57.0289 62.0603 54.0535C59.6051 44.6344 55.1203 36.1025 50.2659 27.8008C46.0099 20.5234 41.3485 13.5078 38.7734 5.33569C38.2731 3.74962 37.7749 3.62907 36.7508 4.71159C33.8391 7.79309 32.7156 11.7667 33.0866 16.4299C33.5448 22.2132 35.5197 27.7245 37.533 33.1474C42.6855 47.0286 50.1309 59.4021 60.3874 69.7896C61.1497 70.561 61.9607 71.287 60.4866 72.2218C63.1497 73.3251 65.2763 74.9784 67.5924 76.4609L67.591 76.4615ZM197.546 129.711C197.222 129.512 197.066 129.362 196.899 129.322C188.423 127.304 179.938 125.776 171.469 126.293C161.909 126.878 153.316 129.848 146.409 136.713C142.548 140.548 140.195 145.48 139.116 151.25C138.781 153.044 138.885 153.14 140.583 152.858C142.015 152.619 143.489 152.487 144.847 152.033C153.944 148.993 162.788 145.312 171.641 141.659C179.426 138.446 186.926 134.601 194.601 131.142C195.546 130.717 196.625 130.538 197.546 129.71L197.546 129.711ZM52.6636 68.6262C49.8995 66.6374 47.1956 64.6758 44.6972 62.3416C39.5559 57.5401 34.7671 52.3053 29.7727 47.3259C27.622 45.1804 25.2307 43.9059 22.4435 44.1846C17.527 44.6749 13.9933 47.581 10.9618 51.3551C10.7841 51.5763 10.5735 51.8319 10.7121 52.1743C10.9006 52.6378 11.2947 52.514 11.6074 52.5255C15.4658 52.6696 19.3329 52.9152 23.1759 52.9032C27.3373 52.8922 30.3478 54.8003 32.1476 59.2382C33.1935 61.8181 35.0655 63.4125 37.3805 64.369C42.3767 66.4346 47.6269 66.6638 52.6636 68.6262ZM84.6858 52.0336C82.6635 52.0234 80.9539 52.72 79.2519 53.465C76.3885 54.719 75.3514 57.2757 75.4116 60.6351C75.4461 62.5413 75.8782 64.4256 76.3326 66.2902C76.993 69.0059 77.7559 71.7044 78.5421 74.6629C79.0114 73.8583 78.9459 73.2175 78.9768 72.6157C79.1444 69.4462 79.3172 66.2804 79.7899 63.1793C80.3929 59.2141 81.3366 55.4646 84.2939 52.9631C84.4928 52.7941 84.7393 52.6042 84.6865 52.0313L84.6858 52.0336ZM87.5256 100.539C84.9711 94.929 82.0785 89.5116 79.8156 83.7674C79.411 85.09 79.6087 86.4455 79.1578 87.6355C78.9618 88.1509 79.3576 88.5232 79.725 88.8384C81.8345 90.6562 83.1876 93.0592 84.5166 95.5443C85.4299 97.2527 86.1399 99.12 87.5256 100.539ZM136.944 160.055C137 158.667 137.012 157.429 137.145 156.215C137.258 155.165 136.852 154.663 135.896 154.427C134.333 154.044 132.764 153.65 131.31 152.721C130.65 152.299 129.972 151.918 129.301 151.517C129.215 151.651 129.127 151.783 129.041 151.916C132.396 153.762 135.546 155.847 136.944 160.055Z" fill="#3C5220"/>
<path d="M107.509 122.985C106.231 120.816 104.992 118.897 103.933 116.877C99.8981 109.189 95.8958 101.499 95.4592 92.6288C95.1536 86.4307 96.3435 80.7527 98.353 75.3083C100.333 69.9485 103.08 65.0993 105.626 60.1162C106.421 58.5602 107.444 57.2716 108.877 56.3886C110.506 55.386 111.311 55.7866 111.645 57.9128C112.699 64.6479 113.725 71.3855 114.761 78.1226C116.024 86.3317 117.593 94.5191 118.481 102.754C118.916 106.785 119.098 110.785 118.245 114.619C117.287 118.93 115.513 122.579 111.702 124.451C110.562 125.01 111.399 125.76 111.798 126.326C114.357 129.955 116.923 133.579 119.55 137.15C122.616 141.321 125.511 145.658 129.253 149.19C131.301 151.122 133.624 152.23 136.135 152.897C137.212 153.185 137.302 152.467 137.432 151.665C138.039 147.935 139.085 144.422 140.9 141.305C145.201 133.916 151.4 129.231 159.092 126.639C168.096 123.605 177.533 124.054 187.113 125.635C191.364 126.337 195.614 127.104 199.825 128.343C200.364 128.501 201.117 128.462 201.313 129.214C201.553 130.126 200.712 130.266 200.242 130.53C198.416 131.556 196.577 132.57 194.673 133.439C186.457 137.192 178.286 141.056 169.963 144.561C161.822 147.991 153.688 151.478 145.134 153.869C143.516 154.321 141.896 154.827 140.159 154.71C138.825 154.619 138.532 155.342 138.494 156.644C138.316 162.642 139.556 168.534 141.148 174.409C142.066 177.802 143.644 180.938 145.081 184.129C145.258 184.522 145.455 184.908 145.612 185.308C145.784 185.751 146.067 186.3 145.595 186.575C145.093 186.868 144.623 186.413 144.379 185.944C143.611 184.468 142.895 182.961 142.194 181.451C141.566 180.098 140.986 178.722 140.327 177.224C140.221 178.139 140.659 178.876 140.905 179.646C141.139 180.382 141.806 181.316 141.151 181.831C140.518 182.328 139.816 181.449 139.235 180.977C137.499 179.565 135.825 178.05 134.07 176.671C125.443 169.894 116.06 165.651 106.005 163.702C105.538 163.611 104.919 163.369 104.678 163.837C104.398 164.377 105.019 164.777 105.326 165.173C110.611 171.988 117.331 175.737 124.813 177.843C128.073 178.761 131.384 179.21 134.62 180.417C139.437 182.212 143.375 185.623 147.053 189.435C152.837 195.428 157.701 202.277 162.29 209.359C164.768 213.182 167.153 217.068 169.396 221.049C169.579 221.374 169.771 221.708 169.881 222.059C169.994 222.423 170.002 222.803 169.642 223.005C169.313 223.19 168.973 223.117 168.712 222.818C168.403 222.463 168.128 222.06 167.891 221.646C162.388 212.077 156.443 202.841 149.411 194.462C145.361 189.635 141.036 185.154 135.478 182.57C133.08 181.456 130.61 180.894 128.126 180.439C121.601 179.247 115.538 176.488 109.923 172.159C107.005 169.91 104.595 167.102 102.53 163.927C102.127 163.31 101.618 162.55 101.94 161.858C102.298 161.093 103.14 161.501 103.766 161.605C115.936 163.596 127.209 168.578 137.335 177.356C137.611 177.597 137.891 177.831 138.177 178.055C138.251 178.114 138.356 178.119 138.465 178.156C138.878 177.84 138.586 177.408 138.475 177.033C137.056 172.235 135.902 167.41 135.428 162.468C135.16 159.685 134.263 156.94 131.763 155.509C127.269 152.936 124.01 148.927 120.855 144.729C118.803 141.999 116.745 139.275 114.664 136.57C112.592 133.875 110.439 133.39 107.938 135.015C106.722 135.804 105.532 136.654 104.564 137.775C100.532 142.451 95.2703 145.008 89.7597 147.101C84.1454 149.232 78.337 150.82 72.4967 152.277C56.897 156.167 40.9706 158.74 24.9938 161.105C24.3951 161.194 23.6808 161.379 23.2811 160.627C22.8821 159.877 23.4051 159.346 23.8203 158.895C32.0526 149.938 39.8116 140.459 48.2751 131.757C54.9174 124.928 63.0101 121.164 72.3511 119.929C80.2877 118.881 88.3102 119.204 96.4215 120.443C97.2324 120.567 98.4047 121.231 98.7874 120.32C99.1928 119.355 97.978 118.707 97.4083 118.018C91.6375 111.055 86.8621 103.39 82.6112 95.3038C80.4861 91.2634 77.4051 88.1325 73.5571 86.0981C70.9637 84.7277 69.3167 85.5001 68.8793 88.4863C68.0378 94.2295 66.1109 99.2601 62.5267 103.313C58.417 107.961 53.3447 110.867 47.4493 112.284C35.5844 115.139 23.409 114.011 11.1237 111.375C8.64905 110.845 6.187 110.144 3.7203 109.506C3.29724 109.397 2.86891 109.251 2.46551 109.053C2.10557 108.876 1.72196 108.609 1.67923 108.133C1.62333 107.514 2.11877 107.425 2.50497 107.303C5.52255 106.345 8.54089 105.392 11.5673 104.458C19.4352 102.031 26.6881 98.4759 32.6963 92.5297C37.5436 87.7341 43.5225 85.2601 50.1552 84.3266C56.5253 83.4291 62.9311 82.6986 69.3214 81.9016C69.6979 81.8551 70.1291 81.878 70.2467 81.4109C70.3981 80.8098 69.9603 80.4123 69.5912 80.0501C67.6151 78.1061 65.2789 76.8629 63.0409 75.4136C56.404 71.1152 49.2442 69.2923 42.0601 67.5237C40.4946 67.1376 38.9308 66.6931 37.3854 66.173C34.5507 65.2188 32.4341 63.2133 30.9596 60.3193C30.5443 59.5045 30.0629 58.7269 29.6332 57.9184C28.5986 55.9773 27.0737 54.9375 25.1642 54.836C19.8674 54.5558 14.5746 54.3315 9.28187 54.1151C8.25639 54.0735 7.66491 53.7019 8.27174 52.6202C11.0432 47.677 14.6143 43.7192 20.0921 42.497C23.8375 41.6616 27.4438 42.8069 30.5452 45.8394C35.3239 50.5124 40.006 55.3093 44.7167 60.0698C47.9015 63.2882 51.4646 65.8195 55.247 67.9663C55.5998 68.1667 56.0261 68.448 56.3149 68.1044C56.6446 67.7129 56.1614 67.4586 55.939 67.2226C51.2731 62.2516 47.3943 56.6085 43.9322 50.6468C38.5161 41.3186 34.4776 31.4418 32.2117 20.9062C31.2938 16.6366 31.1354 12.4839 32.4901 8.53968C33.4804 5.65391 35.1738 3.43239 37.4949 1.8209C38.7593 0.94461 39.1971 1.09574 39.6667 2.741C42.0212 10.9783 46.2453 18.2499 50.6956 25.4379C53.8599 30.547 56.8028 35.8053 59.2938 41.31C62.8517 49.1768 65.0689 57.2778 65.0397 65.7693C65.0307 68.4558 65.8251 71.0033 67.5443 73.0743C70.8582 77.0665 74.3227 80.9089 77.9037 85.016C78.5166 82.1473 78.5698 79.6004 77.6169 76.8842C76.0111 72.3093 74.7599 67.634 74.0988 62.8818C73.0573 55.402 76.1515 51.04 82.8094 50.4292C85.2194 50.2073 87.6615 50.5037 90.0968 51.0852C90.6428 51.2166 91.3693 51.3678 91.3257 52.2295C91.2865 53.0077 90.599 52.8592 90.1008 52.8559C85.8178 52.8132 83.5157 55.4913 82.204 59.502C81.5595 61.4707 81.3187 63.5795 81.1379 65.7037C80.8058 69.5815 80.4795 73.4607 80.1077 77.3301C79.9851 78.61 80.1107 79.8681 80.6064 81.0767C83.4897 88.0978 86.3039 95.1533 90.1748 101.708C94.2011 108.526 98.6318 115.013 103.9 120.802C104.831 121.825 105.793 122.932 107.506 122.987L107.509 122.985ZM26.4846 159.044C28.9376 158.654 31.2324 158.265 33.5406 157.928C44.967 156.265 56.2593 154.073 67.4663 151.524C74.5315 149.918 81.5047 148.028 88.2446 145.451C92.2419 143.923 96.1717 142.213 99.7182 139.735C101.99 138.147 103.599 135.691 105.883 134.133C108.039 132.662 110.29 131.395 113.156 133.013C113.469 133.191 113.833 133.299 114.06 132.939C114.334 132.5 113.998 132.15 113.752 131.809C112.35 129.857 110.943 127.906 109.538 125.955C109.247 125.553 108.886 125.259 108.448 125.12C105.407 124.161 102.522 122.722 99.2779 122.415C93.3556 121.854 87.4327 120.983 81.5347 121.066C74.901 121.162 68.5012 122.152 62.4106 124.544C56.1788 126.99 51.0609 131.128 46.5085 136.098C40.061 143.139 33.7365 150.319 27.3683 157.447C27.027 157.828 26.6308 158.185 26.4868 159.045L26.4846 159.044ZM6.50422 108.248C7.19335 108.99 7.75037 108.935 8.25368 109.064C15.1539 110.824 22.0841 111.949 29.0091 112.141C37.3819 112.373 45.5668 111.779 53.0845 108.08C60.4949 104.434 65.4297 98.6299 67.0008 89.5216C67.2605 88.0144 67.633 86.5172 68.5011 85.3106C69.6355 83.7364 70.6113 83.4541 72.4614 84.2137C73.8846 84.7995 75.2971 85.4278 76.7226 86.0424C75.6421 84.6143 74.4414 83.2292 73.1201 81.9686C72.5957 81.4682 72.1881 81.413 71.9106 82.1611C71.5862 83.037 70.895 83.3412 70.0526 83.4734C65.0931 84.2489 60.1569 85.1553 55.1244 85.5576C46.6909 86.2305 39.1078 88.9414 32.9258 94.8091C28.9708 98.5623 24.529 101.385 19.6316 103.512C16.555 104.848 13.4123 105.999 10.194 106.962C9.00936 107.316 7.85708 107.772 6.50348 108.246L6.50422 108.248ZM100.862 107.105C103.374 112.14 105.874 117.207 108.81 122.032C109.499 123.163 110.123 123.306 111.084 122.813C114.317 121.152 115.9 118.063 116.678 114.359C117.562 110.157 117.37 105.761 116.708 101.373C114.658 87.7892 112.513 74.212 110.381 60.633C110.247 59.7779 110.337 58.4366 109.562 58.2254C108.777 58.0123 108.304 59.1863 107.865 59.9238C104.644 65.3212 101.703 70.8953 99.5066 77.0003C95.9775 86.8033 95.9887 96.7732 100.861 107.104L100.862 107.105ZM67.591 76.4615C67.71 75.8687 67.5209 75.6617 67.3529 75.4635C64.2773 71.8175 63.0526 67.6789 63.2506 63.0237C63.3768 60.0452 62.835 57.0289 62.0603 54.0535C59.6051 44.6344 55.1203 36.1025 50.2659 27.8008C46.0099 20.5234 41.3485 13.5078 38.7734 5.33569C38.2731 3.74962 37.7749 3.62907 36.7508 4.71159C33.8391 7.79309 32.7156 11.7667 33.0866 16.4299C33.5448 22.2132 35.5197 27.7245 37.533 33.1474C42.6855 47.0286 50.1309 59.4021 60.3874 69.7896C61.1497 70.561 61.9607 71.287 60.4866 72.2218C63.1497 73.3251 65.2763 74.9784 67.5924 76.4609L67.591 76.4615ZM197.546 129.711C197.222 129.512 197.066 129.362 196.899 129.322C188.423 127.304 179.938 125.776 171.469 126.293C161.909 126.878 153.316 129.848 146.409 136.713C142.548 140.548 140.195 145.48 139.116 151.25C138.781 153.044 138.885 153.14 140.583 152.858C142.015 152.619 143.489 152.487 144.847 152.033C153.944 148.993 162.788 145.312 171.641 141.659C179.426 138.446 186.926 134.601 194.601 131.142C195.546 130.717 196.625 130.538 197.546 129.71L197.546 129.711ZM52.6636 68.6262C49.8995 66.6374 47.1956 64.6758 44.6972 62.3416C39.5559 57.5401 34.7671 52.3053 29.7727 47.3259C27.622 45.1804 25.2307 43.9059 22.4435 44.1846C17.527 44.6749 13.9933 47.581 10.9618 51.3551C10.7841 51.5763 10.5735 51.8319 10.7121 52.1743C10.9006 52.6378 11.2947 52.514 11.6074 52.5255C15.4658 52.6696 19.3329 52.9152 23.1759 52.9032C27.3373 52.8922 30.3478 54.8003 32.1476 59.2382C33.1935 61.8181 35.0655 63.4125 37.3805 64.369C42.3767 66.4346 47.6269 66.6638 52.6636 68.6262ZM84.6858 52.0336C82.6635 52.0234 80.9539 52.72 79.2519 53.465C76.3885 54.719 75.3514 57.2757 75.4116 60.6351C75.4461 62.5413 75.8782 64.4256 76.3326 66.2902C76.993 69.0059 77.7559 71.7044 78.5421 74.6629C79.0114 73.8583 78.9459 73.2175 78.9768 72.6157C79.1444 69.4462 79.3172 66.2804 79.7899 63.1793C80.3929 59.2141 81.3366 55.4646 84.2939 52.9631C84.4928 52.7941 84.7393 52.6042 84.6865 52.0313L84.6858 52.0336ZM87.5256 100.539C84.9711 94.929 82.0785 89.5116 79.8156 83.7674C79.411 85.09 79.6087 86.4455 79.1578 87.6355C78.9618 88.1509 79.3576 88.5232 79.725 88.8384C81.8345 90.6562 83.1876 93.0592 84.5166 95.5443C85.4299 97.2527 86.1399 99.12 87.5256 100.539ZM136.944 160.055C137 158.667 137.012 157.429 137.145 156.215C137.258 155.165 136.852 154.663 135.896 154.427C134.333 154.044 132.764 153.65 131.31 152.721C130.65 152.299 129.972 151.918 129.301 151.517C129.215 151.651 129.127 151.783 129.041 151.916C132.396 153.762 135.546 155.847 136.944 160.055Z" stroke="#273812" stroke-width="2" mask="url(#path-1-outside-1_284_2717)"/>
</svg>
