<svg width="39" height="42" viewBox="0 0 39 42" fill="none" xmlns="http://www.w3.org/2000/svg">
<g opacity="0.5">
<path d="M20.7708 22.0968C20.5792 21.8115 20.3949 21.5601 20.2343 21.2934C19.6225 20.2784 19.0152 19.2631 18.8841 18.058C18.7924 17.2159 18.9088 16.4327 19.1386 15.6747C19.3651 14.9285 19.7003 14.2456 20.007 13.5461C20.1027 13.3277 20.2317 13.1439 20.4199 13.012C20.6336 12.8623 20.7466 12.9104 20.8092 13.1974C21.0072 14.1065 21.2014 15.0162 21.3969 15.9258C21.6352 17.0341 21.9151 18.1369 22.1025 19.2518C22.1942 19.7975 22.2513 20.3409 22.166 20.8703C22.0703 21.4653 21.8581 21.9768 21.3539 22.2626C21.2031 22.348 21.3233 22.4435 21.3821 22.5173C21.7601 22.9911 22.1389 23.4641 22.5256 23.9295C22.977 24.4731 23.4065 25.0407 23.9448 25.4916C24.2395 25.7384 24.5649 25.8706 24.9124 25.9412C25.0615 25.9717 25.068 25.8732 25.0792 25.7629C25.1317 25.2497 25.246 24.7627 25.4681 24.3233C25.9944 23.2819 26.8012 22.5936 27.8284 22.1784C29.0308 21.6923 30.3201 21.6774 31.6381 21.8155C32.223 21.8768 32.8082 21.947 33.3919 22.0818C33.4666 22.0991 33.5689 22.0877 33.6018 22.1885C33.6418 22.3108 33.5283 22.3366 33.4665 22.3764C33.226 22.5309 32.9835 22.684 32.7312 22.8178C31.642 23.3953 30.5599 23.9877 29.4542 24.5325C28.3726 25.0654 27.2926 25.6063 26.1464 26.0011C25.9296 26.0756 25.713 26.1577 25.4753 26.1557C25.2928 26.1541 25.2588 26.2549 25.264 26.4327C25.2882 27.2513 25.5047 28.0441 25.769 28.8317C25.9215 29.2866 26.1618 29.7012 26.3833 30.1243C26.4105 30.1765 26.4406 30.2275 26.4652 30.2807C26.4922 30.3396 26.5352 30.4122 26.4731 30.4535C26.4071 30.4974 26.3394 30.4392 26.3023 30.3773C26.1858 30.1824 26.076 29.9828 25.9684 29.7828C25.8719 29.6035 25.7818 29.4207 25.6799 29.2219C25.6728 29.3474 25.7384 29.4443 25.7782 29.5472C25.816 29.6455 25.9145 29.7675 25.8293 29.8429C25.747 29.9158 25.6443 29.8016 25.5614 29.742C25.3134 29.5637 25.0732 29.3708 24.8229 29.197C23.5929 28.3433 22.2802 27.8409 20.8945 27.6564C20.83 27.6479 20.7438 27.6199 20.7147 27.6855C20.681 27.7614 20.7688 27.8109 20.8138 27.8624C21.5888 28.7482 22.5347 29.2048 23.5711 29.4314C24.0227 29.5302 24.4774 29.5646 24.9281 29.7029C25.5988 29.9086 26.1629 30.3416 26.6948 30.8313C27.5313 31.6012 28.2492 32.4952 28.9315 33.423C29.3 33.9239 29.6564 34.4341 29.9942 34.9583C30.0217 35.0012 30.0505 35.0452 30.0683 35.0922C30.0867 35.1408 30.0908 35.1925 30.0434 35.2229C30 35.2508 29.9531 35.2435 29.9152 35.2049C29.8703 35.1591 29.8295 35.1064 29.7938 35.0518C28.9668 33.7926 28.0823 32.5821 27.0567 31.4972C26.4659 30.8723 25.8404 30.2966 25.0624 29.9895C24.7266 29.857 24.3856 29.8003 24.0434 29.7584C23.1448 29.6486 22.2965 29.3216 21.4965 28.7771C21.0808 28.4943 20.7298 28.1311 20.4228 27.7152C20.3629 27.6343 20.2874 27.535 20.3258 27.438C20.3683 27.3309 20.4863 27.3797 20.5725 27.3888C22.2467 27.5619 23.8228 28.1498 25.2732 29.2641C25.3128 29.2946 25.3528 29.3242 25.3936 29.3524C25.4041 29.3599 25.4186 29.3597 25.4337 29.3639C25.4874 29.3175 25.4442 29.261 25.426 29.2109C25.194 28.5686 24.9978 27.9204 24.8933 27.251C24.8344 26.8739 24.69 26.5072 24.3379 26.3323C23.7048 26.018 23.2284 25.4982 22.7646 24.9516C22.463 24.5962 22.1606 24.2416 21.8553 23.8899C21.5512 23.5395 21.254 23.4907 20.9264 23.7323C20.767 23.8497 20.6117 23.9751 20.4889 24.1356C19.9772 24.8052 19.281 25.1961 18.5471 25.5258C17.7993 25.8614 17.0208 26.1246 16.2368 26.3703C14.1428 27.0261 11.9936 27.5052 9.83583 27.9564C9.75497 27.9733 9.65914 28.0043 9.59862 27.905C9.53821 27.806 9.60518 27.7295 9.65811 27.6647C10.7075 26.3779 11.6881 25.0238 12.7711 23.7699C13.621 22.7858 14.6932 22.2077 15.9559 21.9641C17.0288 21.7572 18.1245 21.7364 19.2396 21.8398C19.3511 21.8502 19.5162 21.9312 19.561 21.804C19.6084 21.6692 19.4377 21.5907 19.3545 21.5014C18.5121 20.5994 17.7996 19.5936 17.1552 18.5261C16.833 17.9928 16.388 17.591 15.8473 17.3449C15.4829 17.1791 15.2647 17.2976 15.2292 17.708C15.1609 18.4973 14.9389 19.1983 14.4833 19.7794C13.9609 20.4458 13.2932 20.8827 12.5014 21.1234C10.9079 21.6081 9.2399 21.5526 7.54478 21.2926C7.20333 21.2403 6.86222 21.1647 6.521 21.0978C6.46247 21.0862 6.40294 21.0699 6.34638 21.0461C6.2959 21.0249 6.24149 20.9917 6.23183 20.9272C6.21921 20.8433 6.286 20.8271 6.33763 20.8074C6.74104 20.6525 7.1446 20.4983 7.5494 20.3466C8.60181 19.9524 9.56131 19.4095 10.3319 18.5509C10.9537 17.8584 11.7483 17.4731 12.6445 17.2924C13.5052 17.1187 14.3721 16.9675 15.2363 16.8073C15.2872 16.7979 15.3462 16.7976 15.3584 16.733C15.3742 16.6499 15.3113 16.5992 15.2581 16.5529C14.9732 16.3039 14.6449 16.1534 14.3282 15.974C13.3893 15.4419 12.3991 15.2513 11.406 15.0683C11.1896 15.0283 10.9729 14.9804 10.7582 14.922C10.3642 14.8149 10.0597 14.5587 9.83541 14.1763C9.77226 14.0686 9.70039 13.9666 9.63533 13.8599C9.4787 13.6038 9.26255 13.4744 9.00155 13.476C8.27762 13.4805 7.55467 13.4927 6.83179 13.5059C6.69174 13.5085 6.60815 13.4627 6.6821 13.3104C7.01982 12.6145 7.47444 12.0464 8.21093 11.8357C8.71449 11.6917 9.21509 11.8186 9.66211 12.2068C10.3509 12.8049 11.0275 13.4207 11.7078 14.0313C12.1677 14.4441 12.6736 14.7602 13.2062 15.0222C13.2559 15.0467 13.3163 15.0816 13.3529 15.0324C13.3946 14.9764 13.3267 14.9457 13.2945 14.9153C12.6187 14.2757 12.0447 13.5381 11.5249 12.7538C10.7117 11.5265 10.0817 10.2134 9.68799 8.79621C9.52847 8.2219 9.47338 7.65738 9.62613 7.10905C9.73777 6.70787 9.95057 6.39153 10.2538 6.15324C10.419 6.02364 10.4799 6.0407 10.5571 6.26108C10.9444 7.3644 11.5786 8.32106 12.243 9.2645C12.7153 9.93508 13.1587 10.6278 13.5425 11.3577C14.0908 12.4008 14.4582 13.4867 14.5228 14.6439C14.5432 15.01 14.672 15.3506 14.9229 15.6189C15.4067 16.1361 15.9097 16.6317 16.4308 17.1624C16.4911 16.7666 16.4778 16.4191 16.3261 16.0568C16.0704 15.4464 15.8622 14.8195 15.7337 14.1773C15.5315 13.1666 15.9179 12.5473 16.8201 12.4104C17.1466 12.3607 17.4818 12.3814 17.8183 12.441C17.8937 12.4545 17.9939 12.4692 17.9949 12.587C17.9959 12.6933 17.901 12.6786 17.8331 12.6822C17.2492 12.7109 16.9572 13.0944 16.8108 13.6514C16.7389 13.9249 16.7231 14.2141 16.7156 14.505C16.7016 15.036 16.6885 15.5672 16.669 16.0974C16.6627 16.2728 16.6899 16.4432 16.7672 16.6039C17.2167 17.5372 17.6571 18.4758 18.2374 19.3376C18.841 20.2341 19.497 21.0822 20.2615 21.8285C20.3966 21.9603 20.5365 22.1034 20.7705 22.097L20.7708 22.0968ZM10.0223 27.6635C10.3534 27.5906 10.6629 27.519 10.9747 27.4546C12.5181 27.1357 14.039 26.746 15.5453 26.3083C16.495 26.0323 17.4298 25.7185 18.3273 25.3131C18.8596 25.0726 19.3813 24.808 19.8445 24.4417C20.1411 24.2071 20.3405 23.8594 20.6392 23.6287C20.9211 23.4109 21.2176 23.2201 21.6211 23.4175C21.6653 23.4392 21.7157 23.451 21.7437 23.4001C21.7775 23.3381 21.7289 23.293 21.6926 23.2486C21.4858 22.9939 21.2784 22.7395 21.0712 22.4851C21.0284 22.4326 20.9768 22.3954 20.916 22.38C20.4939 22.2739 20.0892 22.1011 19.6447 22.0855C18.8333 22.0568 18.0193 21.9859 17.2164 22.0449C16.3133 22.1114 15.4493 22.298 14.6388 22.673C13.8095 23.0566 13.1455 23.6616 12.5654 24.3755C11.7438 25.3869 10.94 26.4163 10.1298 27.4388C10.0864 27.4934 10.0353 27.5453 10.0226 27.6637L10.0223 27.6635ZM6.89014 20.9038C6.99002 20.9993 7.06548 20.9874 7.13509 21.0008C8.08944 21.185 9.04275 21.2824 9.98781 21.2526C11.1305 21.2167 12.2409 21.0698 13.2353 20.5051C14.2155 19.9485 14.841 19.1179 14.9816 17.8642C15.0048 17.6568 15.0435 17.4498 15.152 17.2784C15.2939 17.0548 15.4246 17.0084 15.6828 17.097C15.8814 17.1653 16.0789 17.2395 16.2781 17.3118C16.1194 17.1259 15.9446 16.9469 15.7544 16.7858C15.6789 16.7218 15.6229 16.7176 15.5912 16.8218C15.554 16.9437 15.4623 16.9907 15.3486 17.0156C14.6791 17.1612 14.0139 17.3246 13.3315 17.42C12.1879 17.5797 11.1766 18.0103 10.3816 18.8596C9.87303 19.4029 9.29062 19.8233 8.64052 20.1527C8.23212 20.3595 7.81321 20.5416 7.3825 20.6988C7.22395 20.7567 7.07063 20.828 6.89003 20.9036L6.89014 20.9038ZM19.737 19.9868C20.12 20.6524 20.5014 21.3227 20.9404 21.9563C21.0433 22.1049 21.1296 22.1193 21.2565 22.0445C21.6836 21.7921 21.8743 21.3584 21.9504 20.8474C22.037 20.2678 21.9754 19.6703 21.8497 19.0778C21.4608 17.2437 21.059 15.4111 20.6589 13.5782C20.6338 13.4628 20.6353 13.2793 20.528 13.2568C20.4193 13.2341 20.3643 13.3978 20.3105 13.5018C19.9151 14.2632 19.5595 15.0464 19.3094 15.8959C18.9077 17.2601 18.9897 18.6184 19.7369 19.9866L19.737 19.9868ZM14.9566 16.0801C14.9681 15.9983 14.9406 15.9717 14.9161 15.946C14.4677 15.4741 14.2674 14.9201 14.2568 14.2842C14.25 13.8774 14.1518 13.4708 14.0223 13.0716C13.6118 11.8081 12.9319 10.6818 12.2035 9.58992C11.5649 8.63271 10.8732 7.71447 10.4564 6.62181C10.3754 6.40975 10.3066 6.39734 10.1758 6.5531C9.8039 6.99644 9.68289 7.54691 9.77107 8.17927C9.88017 8.96353 10.1937 9.69851 10.5118 10.4211C11.3258 12.2708 12.4401 13.8966 13.9213 15.2291C14.0314 15.3281 14.1478 15.4205 13.9545 15.5597C14.3262 15.6886 14.6293 15.8967 14.9568 16.08L14.9566 16.0801ZM33.0925 22.2866C33.0467 22.2622 33.0243 22.243 33.0012 22.2389C31.83 22.0323 30.6617 21.8925 29.512 22.0314C28.2141 22.1882 27.0673 22.6622 26.1816 23.6532C25.6866 24.2069 25.4057 24.8979 25.3053 25.6927C25.2742 25.9399 25.2891 25.9521 25.5181 25.8999C25.7113 25.8559 25.9111 25.826 26.0924 25.7531C27.3074 25.2656 28.4827 24.6927 29.6594 24.1235C30.6941 23.6229 31.685 23.0386 32.7028 22.5054C32.8282 22.4398 32.9736 22.4067 33.0924 22.2864L33.0925 22.2866ZM12.8596 15.133C12.4669 14.8843 12.0827 14.6388 11.7235 14.341C10.9842 13.7283 10.2895 13.0537 9.56885 12.4155C9.25852 12.1406 8.92242 11.9862 8.54491 12.0467C7.87901 12.1532 7.42099 12.5776 7.03841 13.1163C7.01599 13.1479 6.98935 13.1844 7.011 13.2299C7.04042 13.2916 7.09312 13.2715 7.13582 13.2705C7.66269 13.2591 8.19155 13.2613 8.71505 13.2287C9.28195 13.1936 9.70752 13.4293 9.98855 14.0194C10.1519 14.3625 10.4198 14.5646 10.7429 14.6762C11.4403 14.9174 12.1575 14.9062 12.8596 15.133ZM17.0887 12.6139C16.8131 12.6288 16.5857 12.7375 16.3599 12.8527C15.9798 13.0467 15.8592 13.4034 15.8945 13.8606C15.9146 14.1201 15.9886 14.3733 16.0656 14.6237C16.1775 14.9884 16.3032 15.3499 16.4342 15.7466C16.4916 15.6332 16.4776 15.5464 16.4769 15.4642C16.4742 15.031 16.4722 14.5983 16.5115 14.1719C16.5617 13.6268 16.66 13.1084 17.0428 12.7437C17.0685 12.719 17.1006 12.6912 17.0888 12.6135L17.0887 12.6139ZM17.867 19.1997C17.4737 18.456 17.0358 17.7412 16.6812 16.9768C16.6367 17.1603 16.6746 17.3434 16.6228 17.5092C16.6002 17.581 16.6572 17.6285 16.7097 17.6685C17.0118 17.8991 17.2156 18.2156 17.4167 18.5435C17.5549 18.7689 17.6667 19.0176 17.867 19.1997ZM25.0803 26.9099C25.0768 26.7203 25.0685 26.5516 25.0767 26.3851C25.0838 26.2412 25.0243 26.176 24.8922 26.1516C24.6762 26.112 24.4592 26.0709 24.2537 25.9562C24.1603 25.9039 24.0648 25.8575 23.9701 25.8084C23.9595 25.8272 23.9486 25.8459 23.938 25.8647C24.4099 26.0892 24.856 26.3479 25.0803 26.9099Z" fill="#3C5220"/>
<mask id="path-2-outside-1_117_150" maskUnits="userSpaceOnUse" x="-0.447626" y="-1.36012" width="40.0156" height="44.7865" fill="black">
<rect fill="white" x="-0.447626" y="-1.36012" width="40.0156" height="44.7865"/>
<path d="M20.7708 22.0968C20.5792 21.8115 20.3949 21.5601 20.2343 21.2934C19.6225 20.2784 19.0152 19.2631 18.8841 18.058C18.7924 17.2159 18.9088 16.4327 19.1386 15.6747C19.3651 14.9285 19.7003 14.2456 20.007 13.5461C20.1027 13.3277 20.2317 13.1439 20.4199 13.012C20.6336 12.8623 20.7466 12.9104 20.8092 13.1974C21.0072 14.1065 21.2014 15.0162 21.3969 15.9258C21.6352 17.0341 21.9151 18.1369 22.1025 19.2518C22.1942 19.7975 22.2513 20.3409 22.166 20.8703C22.0703 21.4653 21.8581 21.9768 21.3539 22.2626C21.2031 22.348 21.3233 22.4435 21.3821 22.5173C21.7601 22.9911 22.1389 23.4641 22.5256 23.9295C22.977 24.4731 23.4065 25.0407 23.9448 25.4916C24.2395 25.7384 24.5649 25.8706 24.9124 25.9412C25.0615 25.9717 25.068 25.8732 25.0792 25.7629C25.1317 25.2497 25.246 24.7627 25.4681 24.3233C25.9944 23.2819 26.8012 22.5936 27.8284 22.1784C29.0308 21.6923 30.3201 21.6774 31.6381 21.8155C32.223 21.8768 32.8082 21.947 33.3919 22.0818C33.4666 22.0991 33.5689 22.0877 33.6018 22.1885C33.6418 22.3108 33.5283 22.3366 33.4665 22.3764C33.226 22.5309 32.9835 22.684 32.7312 22.8178C31.642 23.3953 30.5599 23.9877 29.4542 24.5325C28.3726 25.0654 27.2926 25.6063 26.1464 26.0011C25.9296 26.0756 25.713 26.1577 25.4753 26.1557C25.2928 26.1541 25.2588 26.2549 25.264 26.4327C25.2882 27.2513 25.5047 28.0441 25.769 28.8317C25.9215 29.2866 26.1618 29.7012 26.3833 30.1243C26.4105 30.1765 26.4406 30.2275 26.4652 30.2807C26.4922 30.3396 26.5352 30.4122 26.4731 30.4535C26.4071 30.4974 26.3394 30.4392 26.3023 30.3773C26.1858 30.1824 26.076 29.9828 25.9684 29.7828C25.8719 29.6035 25.7818 29.4207 25.6799 29.2219C25.6728 29.3474 25.7384 29.4443 25.7782 29.5472C25.816 29.6455 25.9145 29.7675 25.8293 29.8429C25.747 29.9158 25.6443 29.8016 25.5614 29.742C25.3134 29.5637 25.0732 29.3708 24.8229 29.197C23.5929 28.3433 22.2802 27.8409 20.8945 27.6564C20.83 27.6479 20.7438 27.6199 20.7147 27.6855C20.681 27.7614 20.7688 27.8109 20.8138 27.8624C21.5888 28.7482 22.5347 29.2048 23.5711 29.4314C24.0227 29.5302 24.4774 29.5646 24.9281 29.7029C25.5988 29.9086 26.1629 30.3416 26.6948 30.8313C27.5313 31.6012 28.2492 32.4952 28.9315 33.423C29.3 33.9239 29.6564 34.4341 29.9942 34.9583C30.0217 35.0012 30.0505 35.0452 30.0683 35.0922C30.0867 35.1408 30.0908 35.1925 30.0434 35.2229C30 35.2508 29.9531 35.2435 29.9152 35.2049C29.8703 35.1591 29.8295 35.1064 29.7938 35.0518C28.9668 33.7926 28.0823 32.5821 27.0567 31.4972C26.4659 30.8723 25.8404 30.2966 25.0624 29.9895C24.7266 29.857 24.3856 29.8003 24.0434 29.7584C23.1448 29.6486 22.2965 29.3216 21.4965 28.7771C21.0808 28.4943 20.7298 28.1311 20.4228 27.7152C20.3629 27.6343 20.2874 27.535 20.3258 27.438C20.3683 27.3309 20.4863 27.3797 20.5725 27.3888C22.2467 27.5619 23.8228 28.1498 25.2732 29.2641C25.3128 29.2946 25.3528 29.3242 25.3936 29.3524C25.4041 29.3599 25.4186 29.3597 25.4337 29.3639C25.4874 29.3175 25.4442 29.261 25.426 29.2109C25.194 28.5686 24.9978 27.9204 24.8933 27.251C24.8344 26.8739 24.69 26.5072 24.3379 26.3323C23.7048 26.018 23.2284 25.4982 22.7646 24.9516C22.463 24.5962 22.1606 24.2416 21.8553 23.8899C21.5512 23.5395 21.254 23.4907 20.9264 23.7323C20.767 23.8497 20.6117 23.9751 20.4889 24.1356C19.9772 24.8052 19.281 25.1961 18.5471 25.5258C17.7993 25.8614 17.0208 26.1246 16.2368 26.3703C14.1428 27.0261 11.9936 27.5052 9.83583 27.9564C9.75497 27.9733 9.65914 28.0043 9.59862 27.905C9.53821 27.806 9.60518 27.7295 9.65811 27.6647C10.7075 26.3779 11.6881 25.0238 12.7711 23.7699C13.621 22.7858 14.6932 22.2077 15.9559 21.9641C17.0288 21.7572 18.1245 21.7364 19.2396 21.8398C19.3511 21.8502 19.5162 21.9312 19.561 21.804C19.6084 21.6692 19.4377 21.5907 19.3545 21.5014C18.5121 20.5994 17.7996 19.5936 17.1552 18.5261C16.833 17.9928 16.388 17.591 15.8473 17.3449C15.4829 17.1791 15.2647 17.2976 15.2292 17.708C15.1609 18.4973 14.9389 19.1983 14.4833 19.7794C13.9609 20.4458 13.2932 20.8827 12.5014 21.1234C10.9079 21.6081 9.2399 21.5526 7.54478 21.2926C7.20333 21.2403 6.86222 21.1647 6.521 21.0978C6.46247 21.0862 6.40294 21.0699 6.34638 21.0461C6.2959 21.0249 6.24149 20.9917 6.23183 20.9272C6.21921 20.8433 6.286 20.8271 6.33763 20.8074C6.74104 20.6525 7.1446 20.4983 7.5494 20.3466C8.60181 19.9524 9.56131 19.4095 10.3319 18.5509C10.9537 17.8584 11.7483 17.4731 12.6445 17.2924C13.5052 17.1187 14.3721 16.9675 15.2363 16.8073C15.2872 16.7979 15.3462 16.7976 15.3584 16.733C15.3742 16.6499 15.3113 16.5992 15.2581 16.5529C14.9732 16.3039 14.6449 16.1534 14.3282 15.974C13.3893 15.4419 12.3991 15.2513 11.406 15.0683C11.1896 15.0283 10.9729 14.9804 10.7582 14.922C10.3642 14.8149 10.0597 14.5587 9.83541 14.1763C9.77226 14.0686 9.70039 13.9666 9.63533 13.8599C9.4787 13.6038 9.26255 13.4744 9.00155 13.476C8.27762 13.4805 7.55467 13.4927 6.83179 13.5059C6.69174 13.5085 6.60815 13.4627 6.6821 13.3104C7.01982 12.6145 7.47444 12.0464 8.21093 11.8357C8.71449 11.6917 9.21509 11.8186 9.66211 12.2068C10.3509 12.8049 11.0275 13.4207 11.7078 14.0313C12.1677 14.4441 12.6736 14.7602 13.2062 15.0222C13.2559 15.0467 13.3163 15.0816 13.3529 15.0324C13.3946 14.9764 13.3267 14.9457 13.2945 14.9153C12.6187 14.2757 12.0447 13.5381 11.5249 12.7538C10.7117 11.5265 10.0817 10.2134 9.68799 8.79621C9.52847 8.2219 9.47338 7.65738 9.62613 7.10905C9.73777 6.70787 9.95057 6.39153 10.2538 6.15324C10.419 6.02364 10.4799 6.0407 10.5571 6.26108C10.9444 7.3644 11.5786 8.32106 12.243 9.2645C12.7153 9.93508 13.1587 10.6278 13.5425 11.3577C14.0908 12.4008 14.4582 13.4867 14.5228 14.6439C14.5432 15.01 14.672 15.3506 14.9229 15.6189C15.4067 16.1361 15.9097 16.6317 16.4308 17.1624C16.4911 16.7666 16.4778 16.4191 16.3261 16.0568C16.0704 15.4464 15.8622 14.8195 15.7337 14.1773C15.5315 13.1666 15.9179 12.5473 16.8201 12.4104C17.1466 12.3607 17.4818 12.3814 17.8183 12.441C17.8937 12.4545 17.9939 12.4692 17.9949 12.587C17.9959 12.6933 17.901 12.6786 17.8331 12.6822C17.2492 12.7109 16.9572 13.0944 16.8108 13.6514C16.7389 13.9249 16.7231 14.2141 16.7156 14.505C16.7016 15.036 16.6885 15.5672 16.669 16.0974C16.6627 16.2728 16.6899 16.4432 16.7672 16.6039C17.2167 17.5372 17.6571 18.4758 18.2374 19.3376C18.841 20.2341 19.497 21.0822 20.2615 21.8285C20.3966 21.9603 20.5365 22.1034 20.7705 22.097L20.7708 22.0968ZM10.0223 27.6635C10.3534 27.5906 10.6629 27.519 10.9747 27.4546C12.5181 27.1357 14.039 26.746 15.5453 26.3083C16.495 26.0323 17.4298 25.7185 18.3273 25.3131C18.8596 25.0726 19.3813 24.808 19.8445 24.4417C20.1411 24.2071 20.3405 23.8594 20.6392 23.6287C20.9211 23.4109 21.2176 23.2201 21.6211 23.4175C21.6653 23.4392 21.7157 23.451 21.7437 23.4001C21.7775 23.3381 21.7289 23.293 21.6926 23.2486C21.4858 22.9939 21.2784 22.7395 21.0712 22.4851C21.0284 22.4326 20.9768 22.3954 20.916 22.38C20.4939 22.2739 20.0892 22.1011 19.6447 22.0855C18.8333 22.0568 18.0193 21.9859 17.2164 22.0449C16.3133 22.1114 15.4493 22.298 14.6388 22.673C13.8095 23.0566 13.1455 23.6616 12.5654 24.3755C11.7438 25.3869 10.94 26.4163 10.1298 27.4388C10.0864 27.4934 10.0353 27.5453 10.0226 27.6637L10.0223 27.6635ZM6.89014 20.9038C6.99002 20.9993 7.06548 20.9874 7.13509 21.0008C8.08944 21.185 9.04275 21.2824 9.98781 21.2526C11.1305 21.2167 12.2409 21.0698 13.2353 20.5051C14.2155 19.9485 14.841 19.1179 14.9816 17.8642C15.0048 17.6568 15.0435 17.4498 15.152 17.2784C15.2939 17.0548 15.4246 17.0084 15.6828 17.097C15.8814 17.1653 16.0789 17.2395 16.2781 17.3118C16.1194 17.1259 15.9446 16.9469 15.7544 16.7858C15.6789 16.7218 15.6229 16.7176 15.5912 16.8218C15.554 16.9437 15.4623 16.9907 15.3486 17.0156C14.6791 17.1612 14.0139 17.3246 13.3315 17.42C12.1879 17.5797 11.1766 18.0103 10.3816 18.8596C9.87303 19.4029 9.29062 19.8233 8.64052 20.1527C8.23212 20.3595 7.81321 20.5416 7.3825 20.6988C7.22395 20.7567 7.07063 20.828 6.89003 20.9036L6.89014 20.9038ZM19.737 19.9868C20.12 20.6524 20.5014 21.3227 20.9404 21.9563C21.0433 22.1049 21.1296 22.1193 21.2565 22.0445C21.6836 21.7921 21.8743 21.3584 21.9504 20.8474C22.037 20.2678 21.9754 19.6703 21.8497 19.0778C21.4608 17.2437 21.059 15.4111 20.6589 13.5782C20.6338 13.4628 20.6353 13.2793 20.528 13.2568C20.4193 13.2341 20.3643 13.3978 20.3105 13.5018C19.9151 14.2632 19.5595 15.0464 19.3094 15.8959C18.9077 17.2601 18.9897 18.6184 19.7369 19.9866L19.737 19.9868ZM14.9566 16.0801C14.9681 15.9983 14.9406 15.9717 14.9161 15.946C14.4677 15.4741 14.2674 14.9201 14.2568 14.2842C14.25 13.8774 14.1518 13.4708 14.0223 13.0716C13.6118 11.8081 12.9319 10.6818 12.2035 9.58992C11.5649 8.63271 10.8732 7.71447 10.4564 6.62181C10.3754 6.40975 10.3066 6.39734 10.1758 6.5531C9.8039 6.99644 9.68289 7.54691 9.77107 8.17927C9.88017 8.96353 10.1937 9.69851 10.5118 10.4211C11.3258 12.2708 12.4401 13.8966 13.9213 15.2291C14.0314 15.3281 14.1478 15.4205 13.9545 15.5597C14.3262 15.6886 14.6293 15.8967 14.9568 16.08L14.9566 16.0801ZM33.0925 22.2866C33.0467 22.2622 33.0243 22.243 33.0012 22.2389C31.83 22.0323 30.6617 21.8925 29.512 22.0314C28.2141 22.1882 27.0673 22.6622 26.1816 23.6532C25.6866 24.2069 25.4057 24.8979 25.3053 25.6927C25.2742 25.9399 25.2891 25.9521 25.5181 25.8999C25.7113 25.8559 25.9111 25.826 26.0924 25.7531C27.3074 25.2656 28.4827 24.6927 29.6594 24.1235C30.6941 23.6229 31.685 23.0386 32.7028 22.5054C32.8282 22.4398 32.9736 22.4067 33.0924 22.2864L33.0925 22.2866ZM12.8596 15.133C12.4669 14.8843 12.0827 14.6388 11.7235 14.341C10.9842 13.7283 10.2895 13.0537 9.56885 12.4155C9.25852 12.1406 8.92242 11.9862 8.54491 12.0467C7.87901 12.1532 7.42099 12.5776 7.03841 13.1163C7.01599 13.1479 6.98935 13.1844 7.011 13.2299C7.04042 13.2916 7.09312 13.2715 7.13582 13.2705C7.66269 13.2591 8.19155 13.2613 8.71505 13.2287C9.28195 13.1936 9.70752 13.4293 9.98855 14.0194C10.1519 14.3625 10.4198 14.5646 10.7429 14.6762C11.4403 14.9174 12.1575 14.9062 12.8596 15.133ZM17.0887 12.6139C16.8131 12.6288 16.5857 12.7375 16.3599 12.8527C15.9798 13.0467 15.8592 13.4034 15.8945 13.8606C15.9146 14.1201 15.9886 14.3733 16.0656 14.6237C16.1775 14.9884 16.3032 15.3499 16.4342 15.7466C16.4916 15.6332 16.4776 15.5464 16.4769 15.4642C16.4742 15.031 16.4722 14.5983 16.5115 14.1719C16.5617 13.6268 16.66 13.1084 17.0428 12.7437C17.0685 12.719 17.1006 12.6912 17.0888 12.6135L17.0887 12.6139ZM17.867 19.1997C17.4737 18.456 17.0358 17.7412 16.6812 16.9768C16.6367 17.1603 16.6746 17.3434 16.6228 17.5092C16.6002 17.581 16.6572 17.6285 16.7097 17.6685C17.0118 17.8991 17.2156 18.2156 17.4167 18.5435C17.5549 18.7689 17.6667 19.0176 17.867 19.1997ZM25.0803 26.9099C25.0768 26.7203 25.0685 26.5516 25.0767 26.3851C25.0838 26.2412 25.0243 26.176 24.8922 26.1516C24.6762 26.112 24.4592 26.0709 24.2537 25.9562C24.1603 25.9039 24.0648 25.8575 23.9701 25.8084C23.9595 25.8272 23.9486 25.8459 23.938 25.8647C24.4099 26.0892 24.856 26.3479 25.0803 26.9099Z"/>
</mask>
<path d="M20.7708 22.0968C20.5792 21.8115 20.3949 21.5601 20.2343 21.2934C19.6225 20.2784 19.0152 19.2631 18.8841 18.058C18.7924 17.2159 18.9088 16.4327 19.1386 15.6747C19.3651 14.9285 19.7003 14.2456 20.007 13.5461C20.1027 13.3277 20.2317 13.1439 20.4199 13.012C20.6336 12.8623 20.7466 12.9104 20.8092 13.1974C21.0072 14.1065 21.2014 15.0162 21.3969 15.9258C21.6352 17.0341 21.9151 18.1369 22.1025 19.2518C22.1942 19.7975 22.2513 20.3409 22.166 20.8703C22.0703 21.4653 21.8581 21.9768 21.3539 22.2626C21.2031 22.348 21.3233 22.4435 21.3821 22.5173C21.7601 22.9911 22.1389 23.4641 22.5256 23.9295C22.977 24.4731 23.4065 25.0407 23.9448 25.4916C24.2395 25.7384 24.5649 25.8706 24.9124 25.9412C25.0615 25.9717 25.068 25.8732 25.0792 25.7629C25.1317 25.2497 25.246 24.7627 25.4681 24.3233C25.9944 23.2819 26.8012 22.5936 27.8284 22.1784C29.0308 21.6923 30.3201 21.6774 31.6381 21.8155C32.223 21.8768 32.8082 21.947 33.3919 22.0818C33.4666 22.0991 33.5689 22.0877 33.6018 22.1885C33.6418 22.3108 33.5283 22.3366 33.4665 22.3764C33.226 22.5309 32.9835 22.684 32.7312 22.8178C31.642 23.3953 30.5599 23.9877 29.4542 24.5325C28.3726 25.0654 27.2926 25.6063 26.1464 26.0011C25.9296 26.0756 25.713 26.1577 25.4753 26.1557C25.2928 26.1541 25.2588 26.2549 25.264 26.4327C25.2882 27.2513 25.5047 28.0441 25.769 28.8317C25.9215 29.2866 26.1618 29.7012 26.3833 30.1243C26.4105 30.1765 26.4406 30.2275 26.4652 30.2807C26.4922 30.3396 26.5352 30.4122 26.4731 30.4535C26.4071 30.4974 26.3394 30.4392 26.3023 30.3773C26.1858 30.1824 26.076 29.9828 25.9684 29.7828C25.8719 29.6035 25.7818 29.4207 25.6799 29.2219C25.6728 29.3474 25.7384 29.4443 25.7782 29.5472C25.816 29.6455 25.9145 29.7675 25.8293 29.8429C25.747 29.9158 25.6443 29.8016 25.5614 29.742C25.3134 29.5637 25.0732 29.3708 24.8229 29.197C23.5929 28.3433 22.2802 27.8409 20.8945 27.6564C20.83 27.6479 20.7438 27.6199 20.7147 27.6855C20.681 27.7614 20.7688 27.8109 20.8138 27.8624C21.5888 28.7482 22.5347 29.2048 23.5711 29.4314C24.0227 29.5302 24.4774 29.5646 24.9281 29.7029C25.5988 29.9086 26.1629 30.3416 26.6948 30.8313C27.5313 31.6012 28.2492 32.4952 28.9315 33.423C29.3 33.9239 29.6564 34.4341 29.9942 34.9583C30.0217 35.0012 30.0505 35.0452 30.0683 35.0922C30.0867 35.1408 30.0908 35.1925 30.0434 35.2229C30 35.2508 29.9531 35.2435 29.9152 35.2049C29.8703 35.1591 29.8295 35.1064 29.7938 35.0518C28.9668 33.7926 28.0823 32.5821 27.0567 31.4972C26.4659 30.8723 25.8404 30.2966 25.0624 29.9895C24.7266 29.857 24.3856 29.8003 24.0434 29.7584C23.1448 29.6486 22.2965 29.3216 21.4965 28.7771C21.0808 28.4943 20.7298 28.1311 20.4228 27.7152C20.3629 27.6343 20.2874 27.535 20.3258 27.438C20.3683 27.3309 20.4863 27.3797 20.5725 27.3888C22.2467 27.5619 23.8228 28.1498 25.2732 29.2641C25.3128 29.2946 25.3528 29.3242 25.3936 29.3524C25.4041 29.3599 25.4186 29.3597 25.4337 29.3639C25.4874 29.3175 25.4442 29.261 25.426 29.2109C25.194 28.5686 24.9978 27.9204 24.8933 27.251C24.8344 26.8739 24.69 26.5072 24.3379 26.3323C23.7048 26.018 23.2284 25.4982 22.7646 24.9516C22.463 24.5962 22.1606 24.2416 21.8553 23.8899C21.5512 23.5395 21.254 23.4907 20.9264 23.7323C20.767 23.8497 20.6117 23.9751 20.4889 24.1356C19.9772 24.8052 19.281 25.1961 18.5471 25.5258C17.7993 25.8614 17.0208 26.1246 16.2368 26.3703C14.1428 27.0261 11.9936 27.5052 9.83583 27.9564C9.75497 27.9733 9.65914 28.0043 9.59862 27.905C9.53821 27.806 9.60518 27.7295 9.65811 27.6647C10.7075 26.3779 11.6881 25.0238 12.7711 23.7699C13.621 22.7858 14.6932 22.2077 15.9559 21.9641C17.0288 21.7572 18.1245 21.7364 19.2396 21.8398C19.3511 21.8502 19.5162 21.9312 19.561 21.804C19.6084 21.6692 19.4377 21.5907 19.3545 21.5014C18.5121 20.5994 17.7996 19.5936 17.1552 18.5261C16.833 17.9928 16.388 17.591 15.8473 17.3449C15.4829 17.1791 15.2647 17.2976 15.2292 17.708C15.1609 18.4973 14.9389 19.1983 14.4833 19.7794C13.9609 20.4458 13.2932 20.8827 12.5014 21.1234C10.9079 21.6081 9.2399 21.5526 7.54478 21.2926C7.20333 21.2403 6.86222 21.1647 6.521 21.0978C6.46247 21.0862 6.40294 21.0699 6.34638 21.0461C6.2959 21.0249 6.24149 20.9917 6.23183 20.9272C6.21921 20.8433 6.286 20.8271 6.33763 20.8074C6.74104 20.6525 7.1446 20.4983 7.5494 20.3466C8.60181 19.9524 9.56131 19.4095 10.3319 18.5509C10.9537 17.8584 11.7483 17.4731 12.6445 17.2924C13.5052 17.1187 14.3721 16.9675 15.2363 16.8073C15.2872 16.7979 15.3462 16.7976 15.3584 16.733C15.3742 16.6499 15.3113 16.5992 15.2581 16.5529C14.9732 16.3039 14.6449 16.1534 14.3282 15.974C13.3893 15.4419 12.3991 15.2513 11.406 15.0683C11.1896 15.0283 10.9729 14.9804 10.7582 14.922C10.3642 14.8149 10.0597 14.5587 9.83541 14.1763C9.77226 14.0686 9.70039 13.9666 9.63533 13.8599C9.4787 13.6038 9.26255 13.4744 9.00155 13.476C8.27762 13.4805 7.55467 13.4927 6.83179 13.5059C6.69174 13.5085 6.60815 13.4627 6.6821 13.3104C7.01982 12.6145 7.47444 12.0464 8.21093 11.8357C8.71449 11.6917 9.21509 11.8186 9.66211 12.2068C10.3509 12.8049 11.0275 13.4207 11.7078 14.0313C12.1677 14.4441 12.6736 14.7602 13.2062 15.0222C13.2559 15.0467 13.3163 15.0816 13.3529 15.0324C13.3946 14.9764 13.3267 14.9457 13.2945 14.9153C12.6187 14.2757 12.0447 13.5381 11.5249 12.7538C10.7117 11.5265 10.0817 10.2134 9.68799 8.79621C9.52847 8.2219 9.47338 7.65738 9.62613 7.10905C9.73777 6.70787 9.95057 6.39153 10.2538 6.15324C10.419 6.02364 10.4799 6.0407 10.5571 6.26108C10.9444 7.3644 11.5786 8.32106 12.243 9.2645C12.7153 9.93508 13.1587 10.6278 13.5425 11.3577C14.0908 12.4008 14.4582 13.4867 14.5228 14.6439C14.5432 15.01 14.672 15.3506 14.9229 15.6189C15.4067 16.1361 15.9097 16.6317 16.4308 17.1624C16.4911 16.7666 16.4778 16.4191 16.3261 16.0568C16.0704 15.4464 15.8622 14.8195 15.7337 14.1773C15.5315 13.1666 15.9179 12.5473 16.8201 12.4104C17.1466 12.3607 17.4818 12.3814 17.8183 12.441C17.8937 12.4545 17.9939 12.4692 17.9949 12.587C17.9959 12.6933 17.901 12.6786 17.8331 12.6822C17.2492 12.7109 16.9572 13.0944 16.8108 13.6514C16.7389 13.9249 16.7231 14.2141 16.7156 14.505C16.7016 15.036 16.6885 15.5672 16.669 16.0974C16.6627 16.2728 16.6899 16.4432 16.7672 16.6039C17.2167 17.5372 17.6571 18.4758 18.2374 19.3376C18.841 20.2341 19.497 21.0822 20.2615 21.8285C20.3966 21.9603 20.5365 22.1034 20.7705 22.097L20.7708 22.0968ZM10.0223 27.6635C10.3534 27.5906 10.6629 27.519 10.9747 27.4546C12.5181 27.1357 14.039 26.746 15.5453 26.3083C16.495 26.0323 17.4298 25.7185 18.3273 25.3131C18.8596 25.0726 19.3813 24.808 19.8445 24.4417C20.1411 24.2071 20.3405 23.8594 20.6392 23.6287C20.9211 23.4109 21.2176 23.2201 21.6211 23.4175C21.6653 23.4392 21.7157 23.451 21.7437 23.4001C21.7775 23.3381 21.7289 23.293 21.6926 23.2486C21.4858 22.9939 21.2784 22.7395 21.0712 22.4851C21.0284 22.4326 20.9768 22.3954 20.916 22.38C20.4939 22.2739 20.0892 22.1011 19.6447 22.0855C18.8333 22.0568 18.0193 21.9859 17.2164 22.0449C16.3133 22.1114 15.4493 22.298 14.6388 22.673C13.8095 23.0566 13.1455 23.6616 12.5654 24.3755C11.7438 25.3869 10.94 26.4163 10.1298 27.4388C10.0864 27.4934 10.0353 27.5453 10.0226 27.6637L10.0223 27.6635ZM6.89014 20.9038C6.99002 20.9993 7.06548 20.9874 7.13509 21.0008C8.08944 21.185 9.04275 21.2824 9.98781 21.2526C11.1305 21.2167 12.2409 21.0698 13.2353 20.5051C14.2155 19.9485 14.841 19.1179 14.9816 17.8642C15.0048 17.6568 15.0435 17.4498 15.152 17.2784C15.2939 17.0548 15.4246 17.0084 15.6828 17.097C15.8814 17.1653 16.0789 17.2395 16.2781 17.3118C16.1194 17.1259 15.9446 16.9469 15.7544 16.7858C15.6789 16.7218 15.6229 16.7176 15.5912 16.8218C15.554 16.9437 15.4623 16.9907 15.3486 17.0156C14.6791 17.1612 14.0139 17.3246 13.3315 17.42C12.1879 17.5797 11.1766 18.0103 10.3816 18.8596C9.87303 19.4029 9.29062 19.8233 8.64052 20.1527C8.23212 20.3595 7.81321 20.5416 7.3825 20.6988C7.22395 20.7567 7.07063 20.828 6.89003 20.9036L6.89014 20.9038ZM19.737 19.9868C20.12 20.6524 20.5014 21.3227 20.9404 21.9563C21.0433 22.1049 21.1296 22.1193 21.2565 22.0445C21.6836 21.7921 21.8743 21.3584 21.9504 20.8474C22.037 20.2678 21.9754 19.6703 21.8497 19.0778C21.4608 17.2437 21.059 15.4111 20.6589 13.5782C20.6338 13.4628 20.6353 13.2793 20.528 13.2568C20.4193 13.2341 20.3643 13.3978 20.3105 13.5018C19.9151 14.2632 19.5595 15.0464 19.3094 15.8959C18.9077 17.2601 18.9897 18.6184 19.7369 19.9866L19.737 19.9868ZM14.9566 16.0801C14.9681 15.9983 14.9406 15.9717 14.9161 15.946C14.4677 15.4741 14.2674 14.9201 14.2568 14.2842C14.25 13.8774 14.1518 13.4708 14.0223 13.0716C13.6118 11.8081 12.9319 10.6818 12.2035 9.58992C11.5649 8.63271 10.8732 7.71447 10.4564 6.62181C10.3754 6.40975 10.3066 6.39734 10.1758 6.5531C9.8039 6.99644 9.68289 7.54691 9.77107 8.17927C9.88017 8.96353 10.1937 9.69851 10.5118 10.4211C11.3258 12.2708 12.4401 13.8966 13.9213 15.2291C14.0314 15.3281 14.1478 15.4205 13.9545 15.5597C14.3262 15.6886 14.6293 15.8967 14.9568 16.08L14.9566 16.0801ZM33.0925 22.2866C33.0467 22.2622 33.0243 22.243 33.0012 22.2389C31.83 22.0323 30.6617 21.8925 29.512 22.0314C28.2141 22.1882 27.0673 22.6622 26.1816 23.6532C25.6866 24.2069 25.4057 24.8979 25.3053 25.6927C25.2742 25.9399 25.2891 25.9521 25.5181 25.8999C25.7113 25.8559 25.9111 25.826 26.0924 25.7531C27.3074 25.2656 28.4827 24.6927 29.6594 24.1235C30.6941 23.6229 31.685 23.0386 32.7028 22.5054C32.8282 22.4398 32.9736 22.4067 33.0924 22.2864L33.0925 22.2866ZM12.8596 15.133C12.4669 14.8843 12.0827 14.6388 11.7235 14.341C10.9842 13.7283 10.2895 13.0537 9.56885 12.4155C9.25852 12.1406 8.92242 11.9862 8.54491 12.0467C7.87901 12.1532 7.42099 12.5776 7.03841 13.1163C7.01599 13.1479 6.98935 13.1844 7.011 13.2299C7.04042 13.2916 7.09312 13.2715 7.13582 13.2705C7.66269 13.2591 8.19155 13.2613 8.71505 13.2287C9.28195 13.1936 9.70752 13.4293 9.98855 14.0194C10.1519 14.3625 10.4198 14.5646 10.7429 14.6762C11.4403 14.9174 12.1575 14.9062 12.8596 15.133ZM17.0887 12.6139C16.8131 12.6288 16.5857 12.7375 16.3599 12.8527C15.9798 13.0467 15.8592 13.4034 15.8945 13.8606C15.9146 14.1201 15.9886 14.3733 16.0656 14.6237C16.1775 14.9884 16.3032 15.3499 16.4342 15.7466C16.4916 15.6332 16.4776 15.5464 16.4769 15.4642C16.4742 15.031 16.4722 14.5983 16.5115 14.1719C16.5617 13.6268 16.66 13.1084 17.0428 12.7437C17.0685 12.719 17.1006 12.6912 17.0888 12.6135L17.0887 12.6139ZM17.867 19.1997C17.4737 18.456 17.0358 17.7412 16.6812 16.9768C16.6367 17.1603 16.6746 17.3434 16.6228 17.5092C16.6002 17.581 16.6572 17.6285 16.7097 17.6685C17.0118 17.8991 17.2156 18.2156 17.4167 18.5435C17.5549 18.7689 17.6667 19.0176 17.867 19.1997ZM25.0803 26.9099C25.0768 26.7203 25.0685 26.5516 25.0767 26.3851C25.0838 26.2412 25.0243 26.176 24.8922 26.1516C24.6762 26.112 24.4592 26.0709 24.2537 25.9562C24.1603 25.9039 24.0648 25.8575 23.9701 25.8084C23.9595 25.8272 23.9486 25.8459 23.938 25.8647C24.4099 26.0892 24.856 26.3479 25.0803 26.9099Z" fill="#3C5220"/>
<path d="M20.7708 22.0968C20.5792 21.8115 20.3949 21.5601 20.2343 21.2934C19.6225 20.2784 19.0152 19.2631 18.8841 18.058C18.7924 17.2159 18.9088 16.4327 19.1386 15.6747C19.3651 14.9285 19.7003 14.2456 20.007 13.5461C20.1027 13.3277 20.2317 13.1439 20.4199 13.012C20.6336 12.8623 20.7466 12.9104 20.8092 13.1974C21.0072 14.1065 21.2014 15.0162 21.3969 15.9258C21.6352 17.0341 21.9151 18.1369 22.1025 19.2518C22.1942 19.7975 22.2513 20.3409 22.166 20.8703C22.0703 21.4653 21.8581 21.9768 21.3539 22.2626C21.2031 22.348 21.3233 22.4435 21.3821 22.5173C21.7601 22.9911 22.1389 23.4641 22.5256 23.9295C22.977 24.4731 23.4065 25.0407 23.9448 25.4916C24.2395 25.7384 24.5649 25.8706 24.9124 25.9412C25.0615 25.9717 25.068 25.8732 25.0792 25.7629C25.1317 25.2497 25.246 24.7627 25.4681 24.3233C25.9944 23.2819 26.8012 22.5936 27.8284 22.1784C29.0308 21.6923 30.3201 21.6774 31.6381 21.8155C32.223 21.8768 32.8082 21.947 33.3919 22.0818C33.4666 22.0991 33.5689 22.0877 33.6018 22.1885C33.6418 22.3108 33.5283 22.3366 33.4665 22.3764C33.226 22.5309 32.9835 22.684 32.7312 22.8178C31.642 23.3953 30.5599 23.9877 29.4542 24.5325C28.3726 25.0654 27.2926 25.6063 26.1464 26.0011C25.9296 26.0756 25.713 26.1577 25.4753 26.1557C25.2928 26.1541 25.2588 26.2549 25.264 26.4327C25.2882 27.2513 25.5047 28.0441 25.769 28.8317C25.9215 29.2866 26.1618 29.7012 26.3833 30.1243C26.4105 30.1765 26.4406 30.2275 26.4652 30.2807C26.4922 30.3396 26.5352 30.4122 26.4731 30.4535C26.4071 30.4974 26.3394 30.4392 26.3023 30.3773C26.1858 30.1824 26.076 29.9828 25.9684 29.7828C25.8719 29.6035 25.7818 29.4207 25.6799 29.2219C25.6728 29.3474 25.7384 29.4443 25.7782 29.5472C25.816 29.6455 25.9145 29.7675 25.8293 29.8429C25.747 29.9158 25.6443 29.8016 25.5614 29.742C25.3134 29.5637 25.0732 29.3708 24.8229 29.197C23.5929 28.3433 22.2802 27.8409 20.8945 27.6564C20.83 27.6479 20.7438 27.6199 20.7147 27.6855C20.681 27.7614 20.7688 27.8109 20.8138 27.8624C21.5888 28.7482 22.5347 29.2048 23.5711 29.4314C24.0227 29.5302 24.4774 29.5646 24.9281 29.7029C25.5988 29.9086 26.1629 30.3416 26.6948 30.8313C27.5313 31.6012 28.2492 32.4952 28.9315 33.423C29.3 33.9239 29.6564 34.4341 29.9942 34.9583C30.0217 35.0012 30.0505 35.0452 30.0683 35.0922C30.0867 35.1408 30.0908 35.1925 30.0434 35.2229C30 35.2508 29.9531 35.2435 29.9152 35.2049C29.8703 35.1591 29.8295 35.1064 29.7938 35.0518C28.9668 33.7926 28.0823 32.5821 27.0567 31.4972C26.4659 30.8723 25.8404 30.2966 25.0624 29.9895C24.7266 29.857 24.3856 29.8003 24.0434 29.7584C23.1448 29.6486 22.2965 29.3216 21.4965 28.7771C21.0808 28.4943 20.7298 28.1311 20.4228 27.7152C20.3629 27.6343 20.2874 27.535 20.3258 27.438C20.3683 27.3309 20.4863 27.3797 20.5725 27.3888C22.2467 27.5619 23.8228 28.1498 25.2732 29.2641C25.3128 29.2946 25.3528 29.3242 25.3936 29.3524C25.4041 29.3599 25.4186 29.3597 25.4337 29.3639C25.4874 29.3175 25.4442 29.261 25.426 29.2109C25.194 28.5686 24.9978 27.9204 24.8933 27.251C24.8344 26.8739 24.69 26.5072 24.3379 26.3323C23.7048 26.018 23.2284 25.4982 22.7646 24.9516C22.463 24.5962 22.1606 24.2416 21.8553 23.8899C21.5512 23.5395 21.254 23.4907 20.9264 23.7323C20.767 23.8497 20.6117 23.9751 20.4889 24.1356C19.9772 24.8052 19.281 25.1961 18.5471 25.5258C17.7993 25.8614 17.0208 26.1246 16.2368 26.3703C14.1428 27.0261 11.9936 27.5052 9.83583 27.9564C9.75497 27.9733 9.65914 28.0043 9.59862 27.905C9.53821 27.806 9.60518 27.7295 9.65811 27.6647C10.7075 26.3779 11.6881 25.0238 12.7711 23.7699C13.621 22.7858 14.6932 22.2077 15.9559 21.9641C17.0288 21.7572 18.1245 21.7364 19.2396 21.8398C19.3511 21.8502 19.5162 21.9312 19.561 21.804C19.6084 21.6692 19.4377 21.5907 19.3545 21.5014C18.5121 20.5994 17.7996 19.5936 17.1552 18.5261C16.833 17.9928 16.388 17.591 15.8473 17.3449C15.4829 17.1791 15.2647 17.2976 15.2292 17.708C15.1609 18.4973 14.9389 19.1983 14.4833 19.7794C13.9609 20.4458 13.2932 20.8827 12.5014 21.1234C10.9079 21.6081 9.2399 21.5526 7.54478 21.2926C7.20333 21.2403 6.86222 21.1647 6.521 21.0978C6.46247 21.0862 6.40294 21.0699 6.34638 21.0461C6.2959 21.0249 6.24149 20.9917 6.23183 20.9272C6.21921 20.8433 6.286 20.8271 6.33763 20.8074C6.74104 20.6525 7.1446 20.4983 7.5494 20.3466C8.60181 19.9524 9.56131 19.4095 10.3319 18.5509C10.9537 17.8584 11.7483 17.4731 12.6445 17.2924C13.5052 17.1187 14.3721 16.9675 15.2363 16.8073C15.2872 16.7979 15.3462 16.7976 15.3584 16.733C15.3742 16.6499 15.3113 16.5992 15.2581 16.5529C14.9732 16.3039 14.6449 16.1534 14.3282 15.974C13.3893 15.4419 12.3991 15.2513 11.406 15.0683C11.1896 15.0283 10.9729 14.9804 10.7582 14.922C10.3642 14.8149 10.0597 14.5587 9.83541 14.1763C9.77226 14.0686 9.70039 13.9666 9.63533 13.8599C9.4787 13.6038 9.26255 13.4744 9.00155 13.476C8.27762 13.4805 7.55467 13.4927 6.83179 13.5059C6.69174 13.5085 6.60815 13.4627 6.6821 13.3104C7.01982 12.6145 7.47444 12.0464 8.21093 11.8357C8.71449 11.6917 9.21509 11.8186 9.66211 12.2068C10.3509 12.8049 11.0275 13.4207 11.7078 14.0313C12.1677 14.4441 12.6736 14.7602 13.2062 15.0222C13.2559 15.0467 13.3163 15.0816 13.3529 15.0324C13.3946 14.9764 13.3267 14.9457 13.2945 14.9153C12.6187 14.2757 12.0447 13.5381 11.5249 12.7538C10.7117 11.5265 10.0817 10.2134 9.68799 8.79621C9.52847 8.2219 9.47338 7.65738 9.62613 7.10905C9.73777 6.70787 9.95057 6.39153 10.2538 6.15324C10.419 6.02364 10.4799 6.0407 10.5571 6.26108C10.9444 7.3644 11.5786 8.32106 12.243 9.2645C12.7153 9.93508 13.1587 10.6278 13.5425 11.3577C14.0908 12.4008 14.4582 13.4867 14.5228 14.6439C14.5432 15.01 14.672 15.3506 14.9229 15.6189C15.4067 16.1361 15.9097 16.6317 16.4308 17.1624C16.4911 16.7666 16.4778 16.4191 16.3261 16.0568C16.0704 15.4464 15.8622 14.8195 15.7337 14.1773C15.5315 13.1666 15.9179 12.5473 16.8201 12.4104C17.1466 12.3607 17.4818 12.3814 17.8183 12.441C17.8937 12.4545 17.9939 12.4692 17.9949 12.587C17.9959 12.6933 17.901 12.6786 17.8331 12.6822C17.2492 12.7109 16.9572 13.0944 16.8108 13.6514C16.7389 13.9249 16.7231 14.2141 16.7156 14.505C16.7016 15.036 16.6885 15.5672 16.669 16.0974C16.6627 16.2728 16.6899 16.4432 16.7672 16.6039C17.2167 17.5372 17.6571 18.4758 18.2374 19.3376C18.841 20.2341 19.497 21.0822 20.2615 21.8285C20.3966 21.9603 20.5365 22.1034 20.7705 22.097L20.7708 22.0968ZM10.0223 27.6635C10.3534 27.5906 10.6629 27.519 10.9747 27.4546C12.5181 27.1357 14.039 26.746 15.5453 26.3083C16.495 26.0323 17.4298 25.7185 18.3273 25.3131C18.8596 25.0726 19.3813 24.808 19.8445 24.4417C20.1411 24.2071 20.3405 23.8594 20.6392 23.6287C20.9211 23.4109 21.2176 23.2201 21.6211 23.4175C21.6653 23.4392 21.7157 23.451 21.7437 23.4001C21.7775 23.3381 21.7289 23.293 21.6926 23.2486C21.4858 22.9939 21.2784 22.7395 21.0712 22.4851C21.0284 22.4326 20.9768 22.3954 20.916 22.38C20.4939 22.2739 20.0892 22.1011 19.6447 22.0855C18.8333 22.0568 18.0193 21.9859 17.2164 22.0449C16.3133 22.1114 15.4493 22.298 14.6388 22.673C13.8095 23.0566 13.1455 23.6616 12.5654 24.3755C11.7438 25.3869 10.94 26.4163 10.1298 27.4388C10.0864 27.4934 10.0353 27.5453 10.0226 27.6637L10.0223 27.6635ZM6.89014 20.9038C6.99002 20.9993 7.06548 20.9874 7.13509 21.0008C8.08944 21.185 9.04275 21.2824 9.98781 21.2526C11.1305 21.2167 12.2409 21.0698 13.2353 20.5051C14.2155 19.9485 14.841 19.1179 14.9816 17.8642C15.0048 17.6568 15.0435 17.4498 15.152 17.2784C15.2939 17.0548 15.4246 17.0084 15.6828 17.097C15.8814 17.1653 16.0789 17.2395 16.2781 17.3118C16.1194 17.1259 15.9446 16.9469 15.7544 16.7858C15.6789 16.7218 15.6229 16.7176 15.5912 16.8218C15.554 16.9437 15.4623 16.9907 15.3486 17.0156C14.6791 17.1612 14.0139 17.3246 13.3315 17.42C12.1879 17.5797 11.1766 18.0103 10.3816 18.8596C9.87303 19.4029 9.29062 19.8233 8.64052 20.1527C8.23212 20.3595 7.81321 20.5416 7.3825 20.6988C7.22395 20.7567 7.07063 20.828 6.89003 20.9036L6.89014 20.9038ZM19.737 19.9868C20.12 20.6524 20.5014 21.3227 20.9404 21.9563C21.0433 22.1049 21.1296 22.1193 21.2565 22.0445C21.6836 21.7921 21.8743 21.3584 21.9504 20.8474C22.037 20.2678 21.9754 19.6703 21.8497 19.0778C21.4608 17.2437 21.059 15.4111 20.6589 13.5782C20.6338 13.4628 20.6353 13.2793 20.528 13.2568C20.4193 13.2341 20.3643 13.3978 20.3105 13.5018C19.9151 14.2632 19.5595 15.0464 19.3094 15.8959C18.9077 17.2601 18.9897 18.6184 19.7369 19.9866L19.737 19.9868ZM14.9566 16.0801C14.9681 15.9983 14.9406 15.9717 14.9161 15.946C14.4677 15.4741 14.2674 14.9201 14.2568 14.2842C14.25 13.8774 14.1518 13.4708 14.0223 13.0716C13.6118 11.8081 12.9319 10.6818 12.2035 9.58992C11.5649 8.63271 10.8732 7.71447 10.4564 6.62181C10.3754 6.40975 10.3066 6.39734 10.1758 6.5531C9.8039 6.99644 9.68289 7.54691 9.77107 8.17927C9.88017 8.96353 10.1937 9.69851 10.5118 10.4211C11.3258 12.2708 12.4401 13.8966 13.9213 15.2291C14.0314 15.3281 14.1478 15.4205 13.9545 15.5597C14.3262 15.6886 14.6293 15.8967 14.9568 16.08L14.9566 16.0801ZM33.0925 22.2866C33.0467 22.2622 33.0243 22.243 33.0012 22.2389C31.83 22.0323 30.6617 21.8925 29.512 22.0314C28.2141 22.1882 27.0673 22.6622 26.1816 23.6532C25.6866 24.2069 25.4057 24.8979 25.3053 25.6927C25.2742 25.9399 25.2891 25.9521 25.5181 25.8999C25.7113 25.8559 25.9111 25.826 26.0924 25.7531C27.3074 25.2656 28.4827 24.6927 29.6594 24.1235C30.6941 23.6229 31.685 23.0386 32.7028 22.5054C32.8282 22.4398 32.9736 22.4067 33.0924 22.2864L33.0925 22.2866ZM12.8596 15.133C12.4669 14.8843 12.0827 14.6388 11.7235 14.341C10.9842 13.7283 10.2895 13.0537 9.56885 12.4155C9.25852 12.1406 8.92242 11.9862 8.54491 12.0467C7.87901 12.1532 7.42099 12.5776 7.03841 13.1163C7.01599 13.1479 6.98935 13.1844 7.011 13.2299C7.04042 13.2916 7.09312 13.2715 7.13582 13.2705C7.66269 13.2591 8.19155 13.2613 8.71505 13.2287C9.28195 13.1936 9.70752 13.4293 9.98855 14.0194C10.1519 14.3625 10.4198 14.5646 10.7429 14.6762C11.4403 14.9174 12.1575 14.9062 12.8596 15.133ZM17.0887 12.6139C16.8131 12.6288 16.5857 12.7375 16.3599 12.8527C15.9798 13.0467 15.8592 13.4034 15.8945 13.8606C15.9146 14.1201 15.9886 14.3733 16.0656 14.6237C16.1775 14.9884 16.3032 15.3499 16.4342 15.7466C16.4916 15.6332 16.4776 15.5464 16.4769 15.4642C16.4742 15.031 16.4722 14.5983 16.5115 14.1719C16.5617 13.6268 16.66 13.1084 17.0428 12.7437C17.0685 12.719 17.1006 12.6912 17.0888 12.6135L17.0887 12.6139ZM17.867 19.1997C17.4737 18.456 17.0358 17.7412 16.6812 16.9768C16.6367 17.1603 16.6746 17.3434 16.6228 17.5092C16.6002 17.581 16.6572 17.6285 16.7097 17.6685C17.0118 17.8991 17.2156 18.2156 17.4167 18.5435C17.5549 18.7689 17.6667 19.0176 17.867 19.1997ZM25.0803 26.9099C25.0768 26.7203 25.0685 26.5516 25.0767 26.3851C25.0838 26.2412 25.0243 26.176 24.8922 26.1516C24.6762 26.112 24.4592 26.0709 24.2537 25.9562C24.1603 25.9039 24.0648 25.8575 23.9701 25.8084C23.9595 25.8272 23.9486 25.8459 23.938 25.8647C24.4099 26.0892 24.856 26.3479 25.0803 26.9099Z" stroke="#273812" stroke-width="0.4" mask="url(#path-2-outside-1_117_150)"/>
</g>
</svg>
