<svg width="62" height="68" viewBox="0 0 62 68" fill="none" xmlns="http://www.w3.org/2000/svg">
<path d="M29.1188 37.011C29.5038 36.3571 29.8774 35.779 30.1965 35.1704C31.4123 32.8535 32.6183 30.5364 32.7499 27.8634C32.842 25.9957 32.4834 24.2847 31.8779 22.6441C31.2813 21.029 30.4534 19.5677 29.6862 18.0661C29.4466 17.5973 29.1384 17.209 28.7065 16.9429C28.2159 16.6407 27.9732 16.7615 27.8725 17.4022C27.5549 19.4317 27.2457 21.462 26.9335 23.4921C26.553 25.9658 26.08 28.433 25.8126 30.9146C25.6816 32.1293 25.6267 33.3344 25.8837 34.4899C26.1725 35.7888 26.7068 36.8885 27.8554 37.4526C28.1988 37.6211 27.9465 37.8471 27.8264 38.0176C27.0552 39.1111 26.282 40.2031 25.4905 41.2793C24.5666 42.5361 23.6942 43.8431 22.5666 44.9073C21.9494 45.4896 21.2493 45.8234 20.4927 46.0246C20.1682 46.1111 20.1411 45.895 20.1019 45.6532C19.9191 44.5291 19.6038 43.4707 19.057 42.5313C17.7609 40.3048 15.893 38.8931 13.575 38.112C10.8616 37.1976 8.01807 37.3331 5.13131 37.8094C3.85007 38.021 2.56958 38.2521 1.30058 38.6254C1.1382 38.6731 0.911366 38.6613 0.85206 38.8879C0.779832 39.1627 1.03324 39.2047 1.1748 39.2844C1.72501 39.5936 2.27937 39.8992 2.85294 40.1611C5.32878 41.2919 7.79092 42.4562 10.299 43.5125C12.7524 44.546 15.2033 45.5969 17.7809 46.3174C18.2685 46.4535 18.7566 46.606 19.2803 46.5706C19.6823 46.5433 19.7703 46.7611 19.782 47.1536C19.8356 48.9609 19.4619 50.7365 18.9823 52.5068C18.7054 53.5291 18.2299 54.4743 17.7969 55.4358C17.7438 55.5544 17.6843 55.6707 17.637 55.7912C17.585 55.9246 17.4998 56.09 17.6419 56.173C17.7932 56.2611 17.9349 56.124 18.0084 55.9828C18.2399 55.538 18.4558 55.0839 18.6669 54.6289C18.8561 54.2212 19.0308 53.8065 19.2295 53.355C19.2615 53.6307 19.1295 53.8529 19.0554 54.0849C18.9848 54.3066 18.7837 54.5881 18.9812 54.7432C19.1721 54.8931 19.3835 54.6281 19.5584 54.4859C20.0818 54.0606 20.5861 53.6041 21.115 53.1884C23.7145 51.1462 26.542 49.8678 29.5719 49.2803C29.7129 49.2531 29.8993 49.18 29.972 49.321C30.0562 49.4838 29.869 49.6044 29.7767 49.7236C28.1842 51.7772 26.1592 52.9069 23.9045 53.5416C22.922 53.8182 21.9245 53.9535 20.9493 54.3172C19.4978 54.858 18.311 55.886 17.2027 57.0347C15.4597 58.8406 13.9942 60.9046 12.6114 63.0384C11.8646 64.1905 11.1458 65.3616 10.4698 66.561C10.4148 66.659 10.357 66.7598 10.3239 66.8656C10.2897 66.9751 10.2874 67.0897 10.3958 67.1506C10.4951 67.2062 10.5975 67.1842 10.676 67.0942C10.7691 66.9873 10.8521 66.8658 10.9236 66.7409C12.5818 63.8577 14.3732 61.0743 16.4921 58.5495C17.7127 57.0951 19.0159 55.7447 20.6906 54.9662C21.4133 54.6303 22.1576 54.4608 22.9062 54.3238C24.8724 53.9645 26.6992 53.1332 28.3914 51.8289C29.2707 51.1512 29.9969 50.3049 30.6193 49.3483C30.7405 49.1622 30.8941 48.9334 30.7968 48.7247C30.6891 48.4941 30.4355 48.6172 30.2467 48.6485C26.5794 49.2484 23.1825 50.7498 20.1312 53.3949C20.0481 53.4673 19.9637 53.538 19.8775 53.6054C19.8552 53.6232 19.8234 53.6248 19.7905 53.636C19.6662 53.5406 19.7541 53.4104 19.7877 53.2977C20.2152 51.8518 20.5629 50.3977 20.7059 48.9086C20.7865 48.0699 21.0567 47.2427 21.81 46.8114C23.1642 46.0361 24.1463 44.8283 25.0973 43.563C25.7155 42.7405 26.3358 41.9195 26.9627 41.1044C27.5873 40.2925 28.2359 40.1462 28.9894 40.6359C29.356 40.8738 29.7147 41.1298 30.0063 41.4677C31.2213 42.8766 32.8068 43.6473 34.4673 44.278C36.1592 44.9201 37.9094 45.3986 39.6693 45.8377C44.3701 47.0099 49.1693 47.7853 53.9837 48.4979C54.1641 48.5246 54.3794 48.5804 54.4998 48.3537C54.62 48.1276 54.4625 47.9679 54.3373 47.832C51.8566 45.1327 49.5186 42.2765 46.9682 39.6543C44.9666 37.5964 42.528 36.4622 39.7132 36.09C37.3216 35.7741 34.9041 35.8714 32.4599 36.2448C32.2155 36.2822 31.8623 36.4824 31.747 36.2077C31.6248 35.9169 31.9909 35.7217 32.1625 35.514C33.9015 33.4159 35.3405 31.1062 36.6214 28.6695C37.2618 27.452 38.1902 26.5085 39.3498 25.8954C40.1313 25.4825 40.6276 25.7152 40.7594 26.6151C41.013 28.3458 41.5936 29.8616 42.6737 31.083C43.9121 32.4835 45.4405 33.3591 47.217 33.7863C50.7924 34.6465 54.4613 34.3066 58.1633 33.5124C58.909 33.3525 59.6509 33.1413 60.3942 32.9493C60.5217 32.9161 60.6508 32.8723 60.7723 32.8127C60.8808 32.7592 60.9964 32.6789 61.0093 32.5355C61.0261 32.3489 60.8768 32.3222 60.7604 32.2853C59.8511 31.9966 58.9416 31.7095 58.0296 31.428C55.6587 30.6966 53.4732 29.6253 51.6627 27.8335C50.202 26.3884 48.4003 25.6429 46.4017 25.3616C44.4821 25.0912 42.5518 24.8711 40.6262 24.6309C40.5127 24.6169 40.3828 24.6238 40.3473 24.483C40.3017 24.3019 40.4336 24.1821 40.5449 24.073C41.1403 23.4871 41.8443 23.1125 42.5187 22.6758C44.5187 21.3805 46.6762 20.8312 48.841 20.2983C49.3128 20.1819 49.784 20.048 50.2497 19.8913C51.1039 19.6037 51.7417 18.9994 52.186 18.1273C52.3111 17.8818 52.4562 17.6475 52.5857 17.4039C52.8974 16.8189 53.357 16.5056 53.9324 16.475C55.5285 16.3906 57.1234 16.323 58.7183 16.2578C59.0273 16.2452 59.2056 16.1333 59.0227 15.8073C58.1876 14.3177 57.1115 13.1251 55.4608 12.7568C54.3321 12.5051 53.2454 12.8502 52.3109 13.764C50.8709 15.1721 49.46 16.6176 48.0405 18.0521C47.0808 19.022 46.0071 19.7847 44.8673 20.4316C44.761 20.492 44.6325 20.5768 44.5455 20.4733C44.4462 20.3553 44.5918 20.2787 44.6588 20.2076C46.0648 18.7096 47.2336 17.0091 48.2769 15.2126C49.909 12.4017 51.1259 9.42546 51.8087 6.25069C52.0853 4.96412 52.133 3.71275 51.7248 2.5242C51.4264 1.65461 50.9161 0.985186 50.2167 0.499584C49.8357 0.235524 49.7037 0.281064 49.5622 0.776844C48.8527 3.25906 47.5798 5.45026 46.2388 7.61627C45.2853 9.15584 44.3985 10.7403 43.6478 12.3991C42.5757 14.7697 41.9076 17.2108 41.9164 19.7696C41.9191 20.5791 41.6797 21.3468 41.1617 21.9709C40.1631 23.1739 39.1191 24.3317 38.04 25.5694C37.8553 24.7049 37.8393 23.9374 38.1264 23.1189C38.6103 21.7404 38.9873 20.3315 39.1865 18.8995C39.5004 16.6456 38.568 15.3311 36.5617 15.1471C35.8355 15.0802 35.0996 15.1695 34.3658 15.3448C34.2012 15.3843 33.9823 15.4299 33.9955 15.6896C34.0072 15.9241 34.2144 15.8793 34.3645 15.8783C35.6552 15.8655 36.3489 16.6725 36.7441 17.8811C36.9384 18.4743 37.0109 19.1098 37.0654 19.7499C37.1655 20.9184 37.2638 22.0873 37.3759 23.2533C37.4128 23.639 37.3749 24.0181 37.2256 24.3823C36.3567 26.498 35.5087 28.6241 34.3423 30.5993C33.129 32.6539 31.7938 34.6087 30.2064 36.3531C29.9257 36.6613 29.636 36.9949 29.1196 37.0114L29.1188 37.011ZM53.5345 47.8769C52.7953 47.7594 52.1038 47.6419 51.4082 47.5406C47.9651 47.0392 44.5623 46.3789 41.1852 45.6108C39.0562 45.1266 36.9549 44.5571 34.9239 43.7807C33.7193 43.3201 32.5352 42.8051 31.4665 42.0582C30.782 41.5797 30.2972 40.8395 29.6088 40.3701C28.9591 39.9268 28.2808 39.545 27.4172 40.0327C27.3227 40.0863 27.2131 40.1189 27.1448 40.0104C27.0621 39.8782 27.1635 39.7725 27.2377 39.6698C27.6602 39.0816 28.084 38.4939 28.5074 37.906C28.595 37.7846 28.7039 37.696 28.8358 37.6541C29.7522 37.3652 30.6215 36.9316 31.5992 36.839C33.3838 36.6699 35.1686 36.4074 36.9458 36.4327C38.9448 36.4614 40.8733 36.7598 42.7087 37.4806C44.5865 38.2177 46.1287 39.4645 47.5005 40.9621C49.4434 43.084 51.3492 45.2477 53.2682 47.3957C53.371 47.5104 53.4904 47.618 53.5338 47.8772L53.5345 47.8769ZM59.5553 32.5699C59.3477 32.7935 59.1798 32.7771 59.0281 32.8158C56.9488 33.3462 54.8605 33.6853 52.7738 33.743C50.2507 33.813 47.7843 33.6342 45.519 32.5194C43.2859 31.4206 41.7989 29.6718 41.3254 26.9271C41.2472 26.4729 41.1349 26.0217 40.8733 25.6581C40.5315 25.1838 40.2375 25.0987 39.68 25.3276C39.2511 25.5041 38.8255 25.6935 38.3959 25.8787C38.7215 25.4483 39.0833 25.0309 39.4815 24.6511C39.6395 24.5003 39.7623 24.4837 39.8459 24.7091C39.9437 24.973 40.152 25.0647 40.4058 25.1045C41.9003 25.3382 43.3878 25.6113 44.9042 25.7326C47.4456 25.9353 49.7306 26.7522 51.5935 28.5204C52.7853 29.6514 54.1238 30.502 55.5996 31.143C56.5266 31.5456 57.4737 31.8922 58.4434 32.1825C58.8004 32.2893 59.1477 32.4265 59.5555 32.5694L59.5553 32.5699ZM31.1219 32.2257C30.3647 33.7427 29.6115 35.2698 28.7268 36.7235C28.5193 37.0645 28.331 37.1074 28.0415 36.9591C27.0674 36.4586 26.5903 35.5278 26.3559 34.4115C26.0896 33.1453 26.1474 31.8205 26.347 30.4982C26.9646 26.405 27.611 22.3137 28.2535 18.2219C28.2938 17.9642 28.2666 17.56 28.5002 17.4964C28.7367 17.4322 28.8793 17.7859 29.0115 18.0081C29.9822 19.6346 30.8683 21.3143 31.5302 23.1539C32.5937 26.1079 32.5903 29.1123 31.1221 32.2252L31.1219 32.2257ZM41.1476 22.9916C41.1117 22.8129 41.1687 22.7506 41.2193 22.6908C42.1461 21.5922 42.5152 20.3451 42.4555 18.9423C42.4175 18.0447 42.5808 17.1358 42.8142 16.2392C43.554 13.4009 44.9055 10.8299 46.3683 8.3283C47.6508 6.13533 49.0555 4.02128 49.8314 1.55872C49.9822 1.08078 50.1323 1.04445 50.4409 1.37066C51.3183 2.29922 51.6569 3.49663 51.5451 4.90183C51.407 6.64454 50.8119 8.30531 50.2052 9.93942C48.6525 14.1223 46.409 17.851 43.3183 20.9811C43.0886 21.2135 42.8442 21.4323 43.2884 21.714C42.4859 22.0464 41.8451 22.5447 41.1472 22.9914L41.1476 22.9916ZM1.9872 39.0377C2.08505 38.9778 2.13189 38.9325 2.18222 38.9206C4.73652 38.3123 7.29314 37.8518 9.84521 38.0078C12.7261 38.1839 15.3155 39.079 17.3968 41.1475C18.5602 42.3031 19.2694 43.7894 19.5945 45.5281C19.6953 46.0689 19.664 46.0976 19.1524 46.0126C18.721 45.9407 18.2766 45.9008 17.8675 45.764C15.1262 44.8481 12.4612 43.7388 9.79349 42.638C7.44758 41.6698 5.18752 40.5112 2.87472 39.469C2.58988 39.3406 2.26497 39.2869 1.98742 39.0372L1.9872 39.0377ZM45.6458 20.6305C46.4787 20.0312 47.2935 19.4401 48.0464 18.7367C49.5956 17.2898 51.0387 15.7124 52.5437 14.2119C53.1917 13.5654 53.9123 13.1814 54.7522 13.2653C56.2337 13.4131 57.2986 14.2888 58.2121 15.4261C58.2656 15.4927 58.3291 15.5698 58.2873 15.6729C58.2305 15.8126 58.1118 15.7753 58.0175 15.7788C56.8548 15.8222 55.6896 15.8962 54.5315 15.8926C53.2775 15.8893 52.3704 16.4643 51.828 17.8015C51.5129 18.579 50.9487 19.0594 50.2511 19.3476C48.7456 19.9701 47.1635 20.0392 45.6458 20.6305ZM35.9963 15.6305C36.6057 15.6275 37.1208 15.8374 37.6337 16.0619C38.4966 16.4398 38.8091 17.2102 38.791 18.2225C38.7806 18.7969 38.6504 19.3647 38.5134 19.9266C38.3144 20.7449 38.0845 21.5581 37.8476 22.4496C37.7062 22.2071 37.7259 22.014 37.7166 21.8327C37.6661 20.8776 37.6141 19.9236 37.4716 18.9891C37.2899 17.7943 37.0055 16.6644 36.1144 15.9106C36.0544 15.8597 35.9802 15.8025 35.9961 15.6299L35.9963 15.6305ZM35.1405 30.247C35.9103 28.5565 36.782 26.9241 37.4639 25.1931C37.5858 25.5917 37.5262 26.0001 37.6621 26.3587C37.7212 26.514 37.6019 26.6262 37.4912 26.7212C36.8555 27.269 36.4478 27.9931 36.0473 28.7419C35.7721 29.2567 35.5581 29.8194 35.1405 30.247ZM20.2491 48.1813C20.2321 47.7631 20.2284 47.3902 20.1885 47.0242C20.1542 46.7079 20.2768 46.5565 20.5648 46.4856C21.0357 46.3701 21.5086 46.2512 21.9465 45.9715C22.1455 45.8441 22.3499 45.7293 22.5521 45.6087C22.578 45.6488 22.6045 45.6886 22.6303 45.7288C21.6195 46.2851 20.6703 46.9134 20.2491 48.1813Z" fill="#3C5220"/>
</svg>
